<svg width="52" height="52" viewBox="0 0 52 52" fill="none" xmlns="http://www.w3.org/2000/svg">
<path fill-rule="evenodd" clip-rule="evenodd" d="M42.113 17.5451C41.8975 17.5451 41.6909 17.4595 41.5386 17.3071C41.3862 17.1548 41.3006 16.9482 41.3006 16.7327V11.7694L38.2234 9.99284V16.3214C38.2234 16.7699 37.8596 17.1338 37.4105 17.1338C36.9614 17.1338 36.5981 16.77 36.5981 16.3214V1.92938H31.9365V16.0119C31.9365 16.2275 31.8509 16.4342 31.6985 16.5866C31.5461 16.739 31.3394 16.8246 31.1239 16.8246C30.9083 16.8246 30.7016 16.739 30.5492 16.5866C30.3968 16.4342 30.3112 16.2275 30.3112 16.0119V13.8197H27.9255V15.9586C27.9255 16.4071 27.5621 16.7709 27.1131 16.7709C26.6641 16.7709 26.3007 16.4071 26.3007 15.9586V11.7695L23.2236 9.99294V16.037C23.2236 16.486 22.8598 16.8499 22.4107 16.8499C21.9616 16.8499 21.5984 16.4861 21.5984 16.037V3.69027L17.6178 5.98833V16.3311C17.6178 16.7796 17.2545 17.1435 16.8054 17.1435C16.3563 17.1435 15.993 16.7797 15.993 16.3311V9.07959H13.058V16.7327C13.0539 16.9454 12.9665 17.1481 12.8146 17.2971C12.6627 17.446 12.4584 17.5295 12.2456 17.5295C12.0329 17.5295 11.8286 17.446 11.6767 17.2971C11.5248 17.1481 11.4374 16.9454 11.4333 16.7327V8.26678C11.4333 8.1601 11.4542 8.05445 11.4951 7.95588C11.5359 7.85731 11.5957 7.76775 11.6711 7.69231C11.7466 7.61686 11.8361 7.55702 11.9347 7.5162C12.0333 7.47537 12.1389 7.45437 12.2456 7.45438H15.993V5.51921C15.9931 5.37658 16.0307 5.23647 16.102 5.11296C16.1734 4.98945 16.276 4.88689 16.3995 4.81559L22.0048 1.5798C22.1283 1.50835 22.2684 1.47073 22.411 1.47073C22.5537 1.47073 22.6938 1.50835 22.8172 1.5798C22.9407 1.65118 23.0432 1.75375 23.1146 1.87724C23.1859 2.00074 23.2235 2.14081 23.2237 2.28343V8.11637L27.5196 10.5965C27.643 10.6679 27.7454 10.7705 27.8167 10.894C27.8879 11.0175 27.9255 11.1576 27.9255 11.3001V12.1943H30.3112V1.11709C30.3112 0.668586 30.676 0.304688 31.1241 0.304688H37.4105C37.6261 0.304634 37.8328 0.390192 37.9852 0.542543C38.1377 0.694895 38.2234 0.901561 38.2234 1.11709V8.11647L42.5193 10.5966C42.6429 10.6678 42.7456 10.7704 42.8169 10.8939C42.8883 11.0174 42.9258 11.1576 42.9258 11.3002V16.7327C42.9258 16.8394 42.9047 16.9451 42.8638 17.0437C42.823 17.1423 42.7631 17.2318 42.6876 17.3073C42.6122 17.3827 42.5226 17.4425 42.424 17.4833C42.3254 17.5242 42.2197 17.5452 42.113 17.5451Z" fill="black"/>
<path fill-rule="evenodd" clip-rule="evenodd" d="M35.3701 11.1328H33.1662V9.5077H35.3701V11.1328ZM35.3701 14.3225H33.1662V12.6976H35.3701V14.3225ZM35.3701 4.75234H33.1662V3.12744H35.3701V4.75234ZM35.3701 7.94252H33.1662V6.31762H35.3701V7.94252Z" fill="black"/>
<path fill-rule="evenodd" clip-rule="evenodd" d="M5.81986 42.2111C6.61124 42.2111 7.25515 41.5672 7.25515 40.7764C7.25515 39.9855 6.61124 39.3402 5.81986 39.3402C5.02849 39.3402 4.38367 39.9841 4.38367 40.7764C4.38367 41.5686 5.02757 42.2111 5.81986 42.2111ZM25.7006 48.5911C25.7006 49.4069 26.3641 50.0699 27.1794 50.0699C27.9946 50.0699 28.6582 49.4069 28.6582 48.5911C28.6582 47.7752 27.9947 47.1127 27.1794 47.1127C26.364 47.1127 25.7006 47.7757 25.7006 48.5911ZM48.539 42.2498C49.3523 42.2498 50.0139 41.5888 50.0139 40.7764C50.0139 39.964 49.3523 39.3015 48.539 39.3015C47.7257 39.3015 47.0655 39.9625 47.0655 40.7764C47.0655 41.5902 47.7266 42.2498 48.539 42.2498ZM46.3766 20.406C43.7868 19.9829 41.1767 19.6465 38.5575 19.3953C38.4307 23.0291 37.8 26.3864 36.7903 29.248C38.1778 29.9644 39.4807 30.8338 40.6749 31.8399C43.7373 28.8528 45.8282 24.8664 46.3766 20.406ZM13.6841 31.8399C14.8782 30.8338 16.1812 29.9644 17.5686 29.248C16.5589 26.3864 15.9282 23.0291 15.8014 19.3953C13.1846 19.6457 10.5768 19.9828 7.98233 20.406C8.53077 24.8664 10.6227 28.8528 13.6841 31.8399ZM18.1616 30.7724C19.2453 33.302 20.6482 35.3517 22.2656 36.7332C19.542 36.008 17.0373 34.6947 14.9068 32.9362C15.9157 32.1066 17.0062 31.3816 18.1616 30.7724ZM32.0934 36.7332C33.7108 35.3518 35.1136 33.302 36.1973 30.7724C37.3529 31.3818 38.4438 32.1068 39.4532 32.9362C37.3216 34.6946 34.8178 36.008 32.0934 36.7332ZM27.9919 28.56V37.0152C30.6836 36.5726 33.0874 33.9562 34.7268 30.0746C32.591 29.1692 30.3096 28.6562 27.9919 28.56ZM27.9919 26.9338V18.8507C30.9774 18.8716 33.9611 19.0047 36.9367 19.2498C36.8241 22.6682 36.2379 25.8515 35.3075 28.555C32.9863 27.5792 30.5081 27.03 27.9919 26.9337V26.9338ZM26.3672 26.9338C23.851 27.0301 21.3727 27.5793 19.0514 28.5551C18.121 25.8516 17.5349 22.6683 17.4223 19.2499C20.3978 19.0048 23.3816 18.8717 26.3672 18.8508V26.9339V26.9338ZM26.3672 37.0152V28.56C24.0494 28.6562 21.768 29.1693 19.6322 30.0746C21.2716 33.9562 23.6769 36.5726 26.3672 37.0152ZM5.81997 37.715C6.3684 37.715 6.88454 37.8613 7.3302 38.1164L12.4713 32.9748C8.89325 29.4541 6.70396 24.8003 6.28624 19.7973C6.25191 19.3771 6.54431 18.9996 6.9595 18.9291C13.6249 17.796 20.428 17.2217 27.1796 17.2217C33.9311 17.2217 40.7342 17.7961 47.3997 18.9291C47.8148 18.9996 48.1072 19.3772 48.0729 19.7973C47.6567 24.8003 45.4659 29.4542 41.8879 32.9748L47.0005 38.0875C47.4684 37.8179 47.9991 37.6762 48.5391 37.6767C50.2485 37.6767 51.6387 39.0669 51.6387 40.7763C51.6387 42.4857 50.2485 43.8744 48.5391 43.8744C46.8297 43.8744 45.4404 42.4842 45.4404 40.7763C45.44 40.2357 45.5818 39.7046 45.8517 39.2363L40.6862 34.0722C37.1154 37.0832 32.6668 38.8058 27.9919 38.9856V45.5962C29.3101 45.9536 30.283 47.1612 30.283 48.5911C30.283 50.3025 28.8909 51.6951 27.1795 51.6951C25.468 51.6951 24.0759 50.3025 24.0759 48.5911C24.0759 47.1613 25.0489 45.9537 26.3672 45.5962V38.9856C21.6923 38.8058 17.2435 37.0832 13.6729 34.0722L8.47989 39.2647C8.74259 39.7252 8.88049 40.2462 8.87994 40.7764C8.87994 42.4633 7.50692 43.8363 5.81997 43.8363C4.13301 43.8363 2.75908 42.4633 2.75908 40.7764C2.75908 39.0894 4.1321 37.715 5.81997 37.715Z" fill="black"/>
<path fill-rule="evenodd" clip-rule="evenodd" d="M0.59956 3.07526C4.28831 -0.612979 10.2897 -0.612979 13.9775 3.07526C14.053 3.15067 14.113 3.24025 14.1539 3.33885C14.1948 3.43745 14.2158 3.54316 14.2158 3.6499C14.2158 3.75665 14.1948 3.86236 14.1539 3.96096C14.113 4.05956 14.053 4.14913 13.9775 4.22455C13.9021 4.30001 13.8125 4.35988 13.714 4.40072C13.6154 4.44157 13.5098 4.46259 13.4031 4.46259C13.2964 4.46259 13.1908 4.44157 13.0922 4.40072C12.9937 4.35988 12.9041 4.30001 12.8287 4.22455C9.7736 1.16944 4.80344 1.16944 1.74935 4.22455C1.59682 4.3769 1.39004 4.46247 1.17445 4.46247C0.958866 4.46247 0.752095 4.3769 0.59956 4.22455C0.447413 4.072 0.361972 3.86535 0.361972 3.6499C0.361972 3.43446 0.447413 3.2278 0.59956 3.07526ZM8.32562 10.5026C8.32562 11.0741 7.86037 11.5398 7.28847 11.5398C6.71657 11.5398 6.25182 11.0741 6.25182 10.5026C6.25182 9.93114 6.71748 9.46598 7.28847 9.46598C7.85945 9.46598 8.32562 9.93165 8.32562 10.5026ZM7.28847 3.41408C5.59227 3.41408 3.99784 4.07464 2.79859 5.27389C2.64622 5.42631 2.56063 5.63301 2.56063 5.84853C2.56063 6.06405 2.64622 6.27075 2.79859 6.42317C2.95673 6.58181 3.16483 6.66113 3.37293 6.66113C3.58103 6.66113 3.78872 6.58181 3.94686 6.42317C4.83949 5.53054 6.02696 5.03887 7.28837 5.03887C8.54977 5.03887 9.73724 5.53054 10.6299 6.42317C10.9467 6.74045 11.4614 6.74045 11.7786 6.42317C11.8542 6.34776 11.9141 6.25819 11.955 6.15958C11.9959 6.06098 12.017 5.95528 12.017 5.84853C12.017 5.74178 11.9959 5.63608 11.955 5.53748C11.9141 5.43887 11.8542 5.3493 11.7786 5.27389C10.579 4.07464 8.98456 3.41408 7.28837 3.41408H7.28847ZM5.5418 8.8299C5.43517 8.83004 5.32956 8.80909 5.23106 8.76825C5.13256 8.72741 5.04311 8.66749 4.96787 8.59194C4.89222 8.51663 4.83219 8.42712 4.79123 8.32855C4.75027 8.22998 4.72918 8.12429 4.72918 8.01755C4.72918 7.91081 4.75027 7.80512 4.79123 7.70655C4.83219 7.60798 4.89222 7.51847 4.96787 7.44316C6.24735 6.16317 8.32948 6.16317 9.61049 7.44316C9.92676 7.75994 9.92676 8.27465 9.61049 8.59194C9.45787 8.74432 9.25101 8.82991 9.03534 8.82991C8.81967 8.82991 8.61282 8.74432 8.46019 8.59194C7.81426 7.94559 6.76247 7.94559 6.11664 8.59194C6.04122 8.66751 5.95161 8.72744 5.85296 8.76827C5.75431 8.80911 5.64856 8.83005 5.5418 8.8299Z" fill="black"/>
</svg>
