<svg width="51" height="52" viewBox="0 0 51 52" fill="none" xmlns="http://www.w3.org/2000/svg">
<path fill-rule="evenodd" clip-rule="evenodd" d="M8.24166 25.6523H3.18512C2.97534 25.6523 2.77416 25.7356 2.62583 25.884C2.4775 26.0323 2.39417 26.2335 2.39417 26.4433V30.6861C2.39417 30.846 2.44261 31.0021 2.5331 31.1338C2.62358 31.2656 2.75187 31.3669 2.90106 31.4243L6.19181 32.6907C6.64957 34.4472 7.35085 36.1297 8.26726 37.697L6.83772 40.9244C6.77301 41.0704 6.75402 41.2325 6.78326 41.3895C6.81251 41.5465 6.88861 41.691 7.00154 41.8039L11.2443 46.0468C11.3572 46.1597 11.5017 46.2358 11.6587 46.265C11.8157 46.2943 11.9779 46.2753 12.1239 46.2106L15.3496 44.7817C16.9132 45.7023 18.6002 46.3994 20.3576 46.8566L21.624 50.1473C21.6814 50.2964 21.7827 50.4247 21.9145 50.5152C22.0462 50.6057 22.2023 50.6541 22.3622 50.6542H28.3637C28.5236 50.6542 28.6797 50.6057 28.8115 50.5152C28.9433 50.4248 29.0446 50.2965 29.102 50.1473L30.3683 46.8569C32.1299 46.399 33.8131 45.6977 35.3807 44.781L38.6081 46.2106C38.7541 46.2753 38.9163 46.2943 39.0733 46.265C39.2303 46.2358 39.3748 46.1597 39.4878 46.0468L43.7305 41.8039C43.8436 41.6908 43.9197 41.5462 43.9489 41.389C43.9781 41.2318 43.9589 41.0694 43.8939 40.9233L42.4598 37.698C43.3801 36.1348 44.0774 34.4482 44.5392 32.6912L47.831 31.4243C47.9802 31.3669 48.1085 31.2656 48.199 31.1338C48.2894 31.0021 48.3379 30.846 48.3379 30.6861V26.4433C48.3379 26.2335 48.2546 26.0323 48.1062 25.884C47.9579 25.7356 47.7567 25.6523 47.5469 25.6523H42.4904V8.93973C42.4904 8.76888 42.4351 8.60262 42.3327 8.46584C42.2303 8.32905 42.0864 8.22909 41.9225 8.18091L34.5391 6.01064V2.40618C34.5391 2.19641 34.4557 1.99523 34.3074 1.8469C34.1591 1.69857 33.9579 1.61523 33.7481 1.61523H16.984C16.7743 1.61523 16.5731 1.69857 16.4247 1.8469C16.2764 1.99523 16.1931 2.19641 16.1931 2.40618V6.01055L8.80956 8.18091C8.64564 8.22909 8.50173 8.32905 8.39936 8.46584C8.29699 8.60262 8.24166 8.76888 8.24166 8.93973V25.6523ZM40.9085 25.6523H34.5391V7.65938L40.9085 9.53166V25.6523ZM32.9572 25.6523H30.1489V17.9633C30.1489 17.7535 30.0656 17.5523 29.9172 17.404C29.7689 17.2557 29.5677 17.1723 29.358 17.1723H21.374C21.1642 17.1723 20.963 17.2557 20.8147 17.404C20.6664 17.5523 20.5831 17.7535 20.5831 17.9633V25.6523H17.775V3.19713H32.9572V25.6523ZM28.567 25.6523H22.165V18.7542H28.567V25.6523ZM16.1931 25.6523H9.82356V9.53166L16.1931 7.65938V25.6523ZM36.6162 27.2342H46.756V30.1429L43.5882 31.3622C43.4687 31.4082 43.362 31.4826 43.2776 31.5789C43.1931 31.6753 43.1333 31.7907 43.1033 31.9153C42.6516 33.7918 41.9104 35.5874 40.8968 37.2266C40.8291 37.3361 40.7891 37.4605 40.7804 37.589C40.7717 37.7175 40.7945 37.8462 40.8468 37.9638L42.2277 41.0696L38.7528 44.5446L35.6466 43.1687C35.5295 43.1168 35.4016 43.0942 35.2738 43.1027C35.1461 43.1112 35.0223 43.1506 34.9131 43.2174C33.268 44.2253 31.4783 44.9729 29.5957 45.4189C29.4706 45.4485 29.3546 45.5082 29.2577 45.5928C29.1609 45.6774 29.0861 45.7844 29.0399 45.9044L27.8206 49.0723H22.9053L21.6861 45.9044C21.64 45.7845 21.5653 45.6776 21.4685 45.5931C21.3718 45.5085 21.2559 45.4488 21.1309 45.419C19.255 44.9733 17.4602 44.2323 15.8217 43.2191C15.7124 43.1515 15.5881 43.1115 15.4598 43.1027C15.3315 43.0939 15.203 43.1166 15.0855 43.1687L11.9793 44.5446L8.50376 41.069L9.87962 37.9629C9.93148 37.8458 9.95412 37.7179 9.94564 37.5901C9.93715 37.4623 9.89777 37.3385 9.83087 37.2294C8.82291 35.5842 8.07536 33.7944 7.62926 31.9174C7.59954 31.7924 7.53981 31.6765 7.45522 31.5798C7.37064 31.483 7.26375 31.4083 7.14382 31.3622L3.97607 30.1429V27.2342H14.1098C14.104 27.3829 14.1011 27.5322 14.1011 27.6823C14.1011 33.903 19.1453 38.9472 25.366 38.9472C31.5868 38.9472 36.6249 33.9031 36.6249 27.6823C36.6249 27.5322 36.6219 27.3829 36.6162 27.2342ZM15.6932 27.2342H35.0328C35.0396 27.3835 35.043 27.5329 35.043 27.6823C35.043 33.0293 30.713 37.3653 25.366 37.3653C20.0188 37.3653 15.683 33.0295 15.683 27.6823C15.683 27.5321 15.6864 27.3827 15.6932 27.2342ZM29.3577 6.14214H21.3743C21.1645 6.14214 20.9633 6.22547 20.815 6.3738C20.6667 6.52214 20.5833 6.72332 20.5833 6.93309V11.4901C20.5833 11.6999 20.6667 11.9011 20.815 12.0494C20.9633 12.1978 21.1645 12.2811 21.3743 12.2811H29.3577C29.5674 12.2811 29.7686 12.1978 29.9169 12.0494C30.0653 11.9011 30.1486 11.6999 30.1486 11.4901V6.93309C30.1486 6.72332 30.0653 6.52214 29.9169 6.3738C29.7686 6.22547 29.5674 6.14214 29.3577 6.14214ZM28.5667 7.72404V10.6992H22.1652V7.72404H28.5667Z" fill="black"/>
</svg>
