<svg width="70" height="69" viewBox="0 0 70 69" fill="none" xmlns="http://www.w3.org/2000/svg">
<path d="M37.5002 34.9313C38.5684 34.3721 39.4183 33.4709 39.914 32.3717C40.4097 31.2726 40.5226 30.039 40.2347 28.8682C39.9467 27.6973 39.2745 26.6568 38.3256 25.913C37.3767 25.1691 36.2057 24.7649 35 24.7649C33.7943 24.7649 32.6233 25.1691 31.6744 25.913C30.7255 26.6568 30.0533 27.6973 29.7653 28.8682C29.4774 30.039 29.5903 31.2726 30.086 32.3717C30.5817 33.4709 31.4316 34.3721 32.4998 34.9313C31.0261 35.4499 29.7494 36.4127 28.8456 37.687C27.9418 38.9614 27.4553 40.4846 27.4531 42.0469C27.4531 42.3328 27.5667 42.6071 27.7689 42.8093C27.9711 43.0114 28.2453 43.125 28.5312 43.125H41.4688C41.7547 43.125 42.0289 43.0114 42.2311 42.8093C42.4333 42.6071 42.5469 42.3328 42.5469 42.0469C42.5447 40.4846 42.0582 38.9614 41.1544 37.687C40.2506 36.4127 38.9739 35.4499 37.5002 34.9313ZM35 26.9532C35.6397 26.9532 36.265 27.1429 36.7969 27.4983C37.3288 27.8536 37.7434 28.3588 37.9882 28.9498C38.233 29.5408 38.297 30.1911 38.1722 30.8185C38.0474 31.4459 37.7394 32.0223 37.287 32.4746C36.8347 32.9269 36.2584 33.235 35.631 33.3598C35.0036 33.4846 34.3533 33.4205 33.7623 33.1757C33.1713 32.9309 32.6661 32.5163 32.3107 31.9845C31.9553 31.4526 31.7656 30.8272 31.7656 30.1875C31.7656 29.3297 32.1064 28.5071 32.713 27.9005C33.3195 27.2939 34.1422 26.9532 35 26.9532ZM29.7172 40.9688C29.9646 39.7502 30.6258 38.6546 31.5885 37.8677C32.5513 37.0808 33.7565 36.6509 35 36.6509C36.2435 36.6509 37.4487 37.0808 38.4115 37.8677C39.3742 38.6546 40.0354 39.7502 40.2828 40.9688H29.7172Z" fill="black"/>
<path d="M57.6409 46.3594C55.1544 46.3575 52.7444 47.2191 50.8228 48.7971L45.6327 43.607C47.6838 41.2187 48.8663 38.2065 48.9878 35.0607L59.9976 34.6531C60.3047 35.6484 60.9639 36.4976 61.8519 37.0419C62.7399 37.5861 63.7958 37.7881 64.822 37.61C65.8481 37.4319 66.7742 36.8859 67.4269 36.0743C68.0796 35.2626 68.414 34.2409 68.3677 33.2004C68.3214 32.1599 67.8975 31.172 67.1753 30.4215C66.4532 29.671 65.4822 29.2094 64.4443 29.1232C63.4063 29.0369 62.3726 29.3319 61.5364 29.9529C60.7003 30.5739 60.1191 31.4783 59.9017 32.4969L48.9177 32.9033C48.6825 30.8618 48.0012 28.897 46.922 27.1481C45.8429 25.3991 44.3924 23.9089 42.6732 22.783L44.7335 19.0376C46.2671 19.5728 47.9458 19.5124 49.4369 18.8683C50.928 18.2241 52.1226 17.0433 52.7841 15.5598C53.4455 14.0763 53.5255 12.3985 53.0081 10.8588C52.4907 9.31911 51.4138 8.03001 49.9907 7.24699C48.5676 6.46397 46.9023 6.24419 45.3248 6.6312C43.7473 7.01821 42.3728 7.98377 41.4737 9.33649C40.5745 10.6892 40.2165 12.3304 40.4704 13.9347C40.7243 15.539 41.5717 16.9893 42.8447 17.9983L40.7833 21.7458C38.3591 20.6357 35.667 20.2453 33.0273 20.6211C30.3876 20.9968 27.9114 22.1229 25.8933 23.8654L20.7032 18.6753C22.4569 16.5305 23.3192 13.7937 23.1116 11.0309C22.904 8.26822 21.6425 5.69096 19.588 3.83226C17.5335 1.97356 14.8432 0.975631 12.0735 1.04488C9.30386 1.11413 6.66678 2.24527 4.70773 4.20431C2.74868 6.16336 1.61755 8.80045 1.5483 11.5701C1.47905 14.3397 2.47698 17.0301 4.33568 19.0846C6.19438 21.1391 8.77164 22.4006 11.5344 22.6082C14.2971 22.8157 17.0339 21.9535 19.1787 20.1998L24.3688 25.3899C22.9954 26.9755 21.9998 28.8521 21.4569 30.8784C20.914 32.9046 20.838 35.0277 21.2347 37.0875L11.7656 39.6362C11.1653 38.4715 10.1584 37.5676 8.93589 37.0961C7.71336 36.6246 6.36028 36.6182 5.13338 37.0782C3.90648 37.5383 2.89114 38.4327 2.27999 39.5917C1.66885 40.7508 1.50443 42.0938 1.81794 43.3661C2.13145 44.6383 2.90108 45.7512 3.98078 46.4936C5.06048 47.236 6.37514 47.5562 7.6753 47.3935C8.97547 47.2308 10.1707 46.5965 11.0341 45.611C11.8976 44.6254 12.3693 43.3572 12.3596 42.0469C12.3596 41.9391 12.3337 41.8313 12.3262 41.7235L21.8018 39.1726C22.8927 42.2354 25.0104 44.8259 27.7951 46.5039L25.5127 51.06C23.6995 50.4528 21.7236 50.5549 19.9826 51.3459C18.2416 52.1368 16.8649 53.5579 16.1295 55.323C15.3941 57.0882 15.3547 59.0664 16.0191 60.8594C16.6835 62.6525 18.0025 64.1273 19.7105 64.9871C21.4185 65.8468 23.3889 66.0277 25.2248 65.4932C27.0608 64.9587 28.6262 63.7486 29.6059 62.1065C30.5856 60.4643 30.9069 58.512 30.5051 56.6424C30.1034 54.7729 29.0083 53.125 27.4404 52.0304L29.7174 47.4742C32.0984 48.4503 34.7032 48.7482 37.2431 48.3346C39.783 47.9211 42.1588 46.8124 44.1072 45.1314L49.2972 50.3215C47.7502 52.217 46.8942 54.5824 46.8701 57.0289C46.8459 59.4754 47.655 61.8573 49.1644 63.7829C50.6737 65.7085 52.7934 67.0632 55.1748 67.6241C57.5563 68.185 60.0577 67.9189 62.2678 66.8694C64.4779 65.8199 66.2651 64.0495 67.3354 61.8494C68.4057 59.6493 68.6955 57.1505 68.1571 54.7639C67.6187 52.3772 66.2841 50.2449 64.3729 48.7174C62.4616 47.19 60.0875 46.3584 57.6409 46.3594ZM64.1096 31.2657C64.5361 31.2657 64.953 31.3921 65.3076 31.6291C65.6621 31.866 65.9385 32.2028 66.1017 32.5968C66.2649 32.9908 66.3076 33.4243 66.2244 33.8426C66.1412 34.2609 65.9359 34.6451 65.6343 34.9466C65.3327 35.2482 64.9485 35.4535 64.5303 35.5367C64.112 35.6199 63.6784 35.5772 63.2844 35.414C62.8904 35.2508 62.5537 34.9745 62.3167 34.6199C62.0798 34.2653 61.9534 33.8484 61.9534 33.4219C61.9534 32.85 62.1805 32.3016 62.5849 31.8972C62.9893 31.4928 63.5377 31.2657 64.1096 31.2657ZM46.8596 8.62504C47.7125 8.62504 48.5463 8.87797 49.2555 9.35183C49.9647 9.8257 50.5174 10.4992 50.8438 11.2872C51.1702 12.0752 51.2556 12.9423 51.0892 13.7789C50.9228 14.6154 50.5121 15.3838 49.909 15.9869C49.3059 16.5901 48.5375 17.0008 47.7009 17.1672C46.8644 17.3336 45.9973 17.2482 45.2093 16.9218C44.4213 16.5954 43.7478 16.0426 43.2739 15.3334C42.8 14.6243 42.5471 13.7905 42.5471 12.9375C42.5471 11.7938 43.0015 10.6969 43.8102 9.88815C44.619 9.0794 45.7159 8.62504 46.8596 8.62504ZM6.96898 45.2813C6.32928 45.2813 5.70395 45.0916 5.17206 44.7362C4.64016 44.3808 4.22561 43.8757 3.9808 43.2847C3.736 42.6937 3.67195 42.0433 3.79675 41.4159C3.92155 40.7885 4.22959 40.2122 4.68193 39.7599C5.13426 39.3075 5.71058 38.9995 6.33798 38.8747C6.96539 38.7499 7.61571 38.8139 8.20672 39.0587C8.79772 39.3036 9.30286 39.7181 9.65826 40.25C10.0137 40.7819 10.2034 41.4072 10.2034 42.0469C10.2034 42.9047 9.86259 43.7274 9.25603 44.334C8.64946 44.9405 7.82679 45.2813 6.96898 45.2813ZM28.5315 58.2188C28.5315 59.285 28.2153 60.3272 27.623 61.2137C27.0307 62.1001 26.1888 62.7911 25.2038 63.1991C24.2187 63.6071 23.1349 63.7138 22.0892 63.5058C21.0435 63.2978 20.083 62.7844 19.3291 62.0305C18.5752 61.2766 18.0618 60.3161 17.8538 59.2705C17.6458 58.2248 17.7526 57.1409 18.1606 56.1559C18.5686 55.1709 19.2595 54.329 20.146 53.7367C21.0325 53.1443 22.0747 52.8282 23.1409 52.8282C24.57 52.8299 25.9401 53.3984 26.9507 54.4089C27.9613 55.4195 28.5298 56.7896 28.5315 58.2188ZM3.7346 11.8594C3.73125 10.458 4.06943 9.07693 4.71987 7.83562C5.37031 6.59432 6.31342 5.5302 7.4676 4.73535C8.62177 3.9405 9.95224 3.43885 11.3439 3.27382C12.7355 3.10879 14.1464 3.28535 15.4545 3.78821C16.7626 4.29107 17.9284 5.1051 18.8511 6.15985C19.7738 7.2146 20.4256 8.4783 20.7502 9.8416C21.0747 11.2049 21.0621 12.6268 20.7135 13.9841C20.3649 15.3415 19.6909 16.5934 18.7497 17.6317C18.7994 17.5105 18.8261 17.3811 18.8284 17.25C18.8311 16.4002 18.6651 15.5583 18.3402 14.7731C18.0152 13.9879 17.5376 13.2749 16.9352 12.6756C16.5055 12.246 16.0178 11.8787 15.4862 11.5845C16.0689 10.9736 16.4594 10.2051 16.6094 9.37424C16.7594 8.54342 16.6623 7.68685 16.33 6.91074C15.9977 6.13462 15.4449 5.47311 14.7402 5.00823C14.0355 4.54334 13.2098 4.29554 12.3655 4.29554C11.5213 4.29554 10.6956 4.54334 9.99087 5.00823C9.28614 5.47311 8.73337 6.13462 8.40109 6.91074C8.06881 7.68685 7.97165 8.54342 8.12164 9.37424C8.27164 10.2051 8.6622 10.9736 9.2449 11.5845C8.22986 12.1421 7.38315 12.9621 6.79316 13.9586C6.20318 14.9552 5.89156 16.0919 5.89085 17.25C5.89305 17.3797 5.91861 17.5079 5.96632 17.6285C4.53124 16.0497 3.73562 13.993 3.7346 11.8594ZM12.3596 10.7813C11.9331 10.7813 11.5162 10.6548 11.1617 10.4179C10.8071 10.181 10.5307 9.84421 10.3675 9.4502C10.2043 9.0562 10.1616 8.62265 10.2448 8.20438C10.328 7.78611 10.5333 7.4019 10.8349 7.10034C11.1365 6.79879 11.5207 6.59342 11.9389 6.51023C12.3572 6.42703 12.7908 6.46973 13.1848 6.63293C13.5788 6.79613 13.9155 7.0725 14.1525 7.4271C14.3894 7.78169 14.5159 8.19858 14.5159 8.62504C14.5159 9.19692 14.2887 9.74537 13.8843 10.1497C13.4799 10.5541 12.9315 10.7813 12.3596 10.7813ZM12.3596 12.9375C13.3157 12.9375 14.2446 13.2552 15.0005 13.8407C15.7563 14.4262 16.2962 15.2462 16.5352 16.1719H8.18295C8.42318 15.2467 8.96351 14.4272 9.71931 13.842C10.4751 13.2567 11.4037 12.9386 12.3596 12.9375ZM6.59163 18.2527C6.71179 18.3006 6.83966 18.3261 6.96898 18.3282H17.7502C17.8815 18.3264 18.0113 18.3 18.133 18.2505C16.555 19.6862 14.4983 20.4818 12.365 20.4818C10.2317 20.4818 8.17501 19.6862 6.59702 18.2505L6.59163 18.2527ZM23.1409 34.5C23.1409 32.1545 23.8364 29.8616 25.1395 27.9113C26.4426 25.9611 28.2948 24.441 30.4618 23.5434C32.6289 22.6458 35.0134 22.4109 37.3139 22.8685C39.6144 23.3261 41.7275 24.4556 43.3861 26.1142C45.0446 27.7728 46.1741 29.8859 46.6317 32.1864C47.0893 34.4869 46.8545 36.8714 45.9569 39.0384C45.0593 41.2054 43.5392 43.0576 41.5889 44.3608C39.6387 45.6639 37.3458 46.3594 35.0002 46.3594C31.8561 46.3557 28.8417 45.1051 26.6185 42.8818C24.3952 40.6585 23.1446 37.6442 23.1409 34.5ZM51.8729 63.534C51.993 63.5818 52.1209 63.6074 52.2502 63.6094H63.0315C63.1628 63.6076 63.2926 63.5813 63.4142 63.5318C61.8362 64.9674 59.7796 65.763 57.6462 65.763C55.5129 65.763 53.4563 64.9674 51.8783 63.5318L51.8729 63.534ZM57.6409 56.0625C57.2144 56.0625 56.7975 55.9361 56.4429 55.6992C56.0883 55.4622 55.8119 55.1255 55.6487 54.7315C55.4855 54.3375 55.4428 53.9039 55.526 53.4856C55.6092 53.0674 55.8146 52.6832 56.1162 52.3816C56.4177 52.08 56.8019 51.8747 57.2202 51.7915C57.6385 51.7083 58.072 51.751 58.466 51.9142C58.86 52.0774 59.1968 52.3538 59.4337 52.7083C59.6706 53.0629 59.7971 53.4798 59.7971 53.9063C59.7971 54.4782 59.5699 55.0266 59.1656 55.431C58.7612 55.8354 58.2127 56.0625 57.6409 56.0625ZM57.6409 58.2188C58.5969 58.2188 59.5259 58.5365 60.2817 59.122C61.0376 59.7074 61.5774 60.5275 61.8164 61.4532H53.4642C53.7044 60.5279 54.2448 59.7085 55.0006 59.1232C55.7564 58.5379 56.6849 58.2198 57.6409 58.2188ZM64.0298 62.9129C64.0799 62.7918 64.107 62.6624 64.1096 62.5313C64.1123 61.6815 63.9464 60.8396 63.6214 60.0543C63.2965 59.2691 62.8189 58.5562 62.2164 57.9568C61.7868 57.5272 61.299 57.1599 60.7674 56.8657C61.3501 56.2548 61.7407 55.4863 61.8907 54.6555C62.0407 53.8247 61.9435 52.9681 61.6112 52.192C61.2789 51.4159 60.7262 50.7544 60.0214 50.2895C59.3167 49.8246 58.491 49.5768 57.6468 49.5768C56.8025 49.5768 55.9768 49.8246 55.2721 50.2895C54.5674 50.7544 54.0146 51.4159 53.6823 52.192C53.3501 52.9681 53.2529 53.8247 53.4029 54.6555C53.5529 55.4863 53.9435 56.2548 54.5261 56.8657C53.5111 57.4234 52.6644 58.2433 52.0744 59.2399C51.4844 60.2365 51.1728 61.3732 51.1721 62.5313C51.1743 62.6609 51.1999 62.7891 51.2476 62.9097C50.1265 61.6724 49.3886 60.1362 49.1236 58.4877C48.8586 56.8391 49.0777 55.1491 49.7545 53.6227C50.4312 52.0963 51.5365 50.7992 52.9361 49.8887C54.3357 48.9782 55.9695 48.4936 57.6392 48.4936C59.3089 48.4936 60.9427 48.9782 62.3424 49.8887C63.742 50.7992 64.8472 52.0963 65.524 53.6227C66.2008 55.1491 66.4199 56.8391 66.1549 58.4877C65.8898 60.1362 65.152 61.6724 64.0309 62.9097L64.0298 62.9129Z" fill="black"/>
</svg>
