<svg width="1440" height="58" viewBox="0 0 1440 58" fill="none" xmlns="http://www.w3.org/2000/svg">
<path d="M1403.55 4.2507C1403.82 3.84721 1406.61 3.9817 1406.21 3.30922C1403.16 2.90573 1401.43 2.23325 1400.89 1.42627C1393.84 1.56076 1388.66 0.888281 1379.75 0.753784C1374.03 2.36774 1360.72 0.619287 1355 1.29177C1357.53 1.42627 1358.99 1.69526 1359.39 2.23325C1356.73 2.77123 1352.61 3.04023 1350.62 3.71271L1351.95 3.98171L1351.55 4.2507C1352.48 4.2507 1353.28 4.2507 1354.21 4.2507C1353.81 4.92318 1357 4.92318 1357.8 5.32667C1366.98 3.98171 1366.44 7.61312 1356.87 7.20963C1355.54 7.74761 1355 8.4201 1353.28 8.82359C1356.07 9.49607 1354.47 10.0341 1355.94 10.9755C1360.46 11.11 1359.66 10.3031 1361.26 9.89956C1362.19 10.4375 1360.99 10.9755 1363.92 11.5135C1367.37 11.648 1368.17 11.2445 1371.9 11.379C1371.1 12.3205 1368.31 12.8585 1365.78 13.531L1367.11 13.6655L1366.71 13.9345C1369.64 14.2035 1365.11 14.8759 1367.64 15.1449C1365.38 15.1449 1363.12 15.1449 1363.25 15.6829C1363.65 16.4899 1367.77 16.4899 1367.64 17.2969C1365.25 17.4314 1366.71 18.2384 1363.25 18.2384C1361.92 17.9694 1360.06 17.7004 1360.59 17.0279C1358.6 17.0279 1357 16.7589 1355.27 16.6244L1354.87 16.8934C1354.21 16.6244 1354.07 16.4899 1353.14 16.2209L1350.48 16.4899C1350.08 16.4899 1349.82 16.6244 1349.55 16.6244L1349.95 16.4899C1349.68 16.4899 1349.42 16.4899 1349.02 16.4899C1347.42 16.2209 1347.95 15.4139 1345.43 15.2794C1339.31 16.3554 1344.23 17.5659 1339.31 18.6418C1333.59 17.5659 1340.64 16.6244 1337.58 15.4139L1336.25 15.2794L1336.65 15.0104C1331.2 14.8759 1330.13 15.5484 1326.01 15.5484C1325.21 15.1449 1321.49 15.4139 1321.62 14.8759C1324.15 14.6069 1324.15 13.8 1325.21 13.1275C1316.3 14.069 1308.72 13.262 1297.01 13.1275C1299.8 12.5895 1295.68 12.3205 1294.35 12.0515C1295.81 11.7825 1297.01 11.379 1297.01 10.841C1290.49 9.89956 1286.9 7.61312 1289.03 6.13365C1284.91 5.73016 1285.04 6.13365 1281.05 6.53714C1285.7 7.20963 1280.12 8.4201 1279.32 9.22708C1274.93 9.09258 1275.33 7.88211 1268.68 8.1511C1268.01 8.95808 1265.35 9.49607 1259.9 9.36157C1259.24 8.01661 1250.32 6.67164 1256.31 5.59567C1253.91 4.3852 1247.66 5.05768 1243.94 4.2507C1241.01 4.78868 1235.29 4.92318 1231.57 5.32667C1233.83 7.07513 1227.31 7.07513 1223.59 7.61312L1224.92 7.74761L1224.25 7.47862C1228.24 7.74761 1223.99 9.09258 1221.59 9.22708C1222.52 11.379 1215.87 12.0515 1208.29 12.5895C1198.98 12.3205 1192.06 10.4375 1183.55 10.1686C1178.23 10.0341 1174.51 10.7065 1168.52 10.572C1169.05 9.49607 1164 9.49607 1163.2 8.68909C1159.48 9.22708 1155.88 9.49607 1149.9 9.22708C1147.77 8.2856 1151.89 7.61312 1150.83 6.40265C1145.38 5.99916 1143.25 6.26815 1139.39 6.94063C1144.58 8.01661 1138.19 9.63057 1142.98 10.4375C1140.99 10.4375 1139.66 10.4375 1139.39 10.841L1140.72 10.9755L1140.32 11.2445C1141.65 11.379 1144.84 10.9755 1144.71 11.379C1140.06 12.993 1150.3 12.993 1150.83 14.069C1147.11 13.3965 1146.31 14.6069 1142.85 14.6069C1140.19 14.4724 1141.78 13.3965 1136.73 13.6655C1133.94 13.9345 1138.86 14.6069 1136.73 14.7414C1136.07 14.6069 1131.81 14.338 1131.41 14.7414L1132.74 14.8759L1131.01 15.0104L1130.61 14.8759C1129.81 14.2035 1132.34 14.069 1132.34 13.531C1130.74 13.262 1131.01 12.5895 1127.95 12.5895C1125.16 12.455 1125.56 13.1275 1123.56 13.1275C1126.89 13.9345 1123.83 14.7414 1121.83 15.4139C1120.64 15.4139 1121.03 15.1449 1120.1 15.0104L1118.77 15.1449L1117.44 15.0104C1116.51 15.2794 1115.98 15.5484 1114.78 15.6829C1111.99 15.2794 1106.4 15.5484 1103.34 15.6829C1099.89 15.1449 1094.56 14.8759 1094.56 13.531C1094.83 13.1275 1098.42 13.531 1098.16 12.993C1096.29 12.8585 1095.36 12.5895 1093.77 12.455L1092.7 12.724C1092.17 12.455 1091.9 12.186 1090.71 11.917L1092.04 11.648C1091.24 11.379 1090.71 11.11 1088.45 11.11C1089.24 11.648 1087.25 11.5135 1087.52 12.0515H1089.11L1087.91 12.5895L1087.52 12.3205C1083.92 11.648 1078.34 12.455 1073.42 11.917C1072.35 11.5135 1072.35 10.9755 1069.82 10.841C1065.97 10.841 1060.51 11.7825 1054.79 11.5135C1055.19 12.3205 1053.2 12.455 1054.79 13.1275C1049.87 13.531 1044.95 13.9345 1039.76 13.262C1033.64 14.338 1024.87 15.0104 1020.34 16.4899C1024.07 16.6244 1029.92 16.2209 1030.05 17.0279C1026.73 17.5659 1019.15 17.2969 1020.34 18.2384C1017.82 17.8349 1013.03 17.9694 1011.56 17.2969C1011.17 17.7004 1011.43 18.5073 1009.84 19.0453C1012.1 19.1798 1012.63 19.7178 1014.23 19.9868C1022.07 19.4488 1026.46 21.1973 1025.66 22.1388C1015.82 20.7938 1008.51 24.0217 1000.92 22.6767C1000.92 23.6182 1002.52 24.2907 1005.31 24.5597C1003.32 25.7702 996.135 25.9047 993.874 26.9806C995.603 27.6531 1003.85 27.9221 999.195 28.7291C1000.79 28.8636 1002.92 28.8636 1003.58 29.1326C1000.13 28.8636 1003.32 29.9396 1000.92 29.8051C1000.79 29.6706 999.993 29.5361 999.195 29.4016L998.529 29.6706L997.332 29.9396C997.066 30.2086 998.263 30.3431 998.263 30.6121C1002.65 30.6121 1004.78 30.0741 1008.9 30.0741L1009.97 29.8051H1011.56C1012.23 29.2671 1009.84 29.4016 1009.84 29.1326C1012.1 28.5946 1014.76 26.8461 1008.9 26.7116C1013.29 26.3082 1018.48 26.1737 1021.27 25.5012L1020.88 25.2322C1022.07 25.3667 1023.27 25.3667 1024.47 25.3667L1024.87 25.5012C1026.6 25.5012 1027.79 26.5772 1025.8 26.7116C1023.27 26.7116 1023.14 26.3082 1020.48 26.3082C1018.22 26.8461 1015.02 27.1151 1015.16 28.0566C1021.67 27.7876 1025.27 27.1151 1031.12 27.9221V28.0566L1032.45 28.3256C1030.72 28.4601 1030.05 28.8636 1031.38 29.1326L1030.19 29.4016C1030.59 30.0741 1032.18 30.4776 1031.92 31.15C1028.32 31.0155 1026.86 31.2845 1023.93 31.2845C1024.2 31.957 1026.33 31.688 1024.87 32.3605C1022.21 32.495 1021.67 32.226 1019.55 32.226C1018.35 32.8985 1014.23 32.6295 1009.84 32.8985C1010.63 32.3605 1011.3 32.0915 1008.9 31.8225C1005.58 31.5535 1008.77 32.6295 1005.31 32.3605C1005.31 32.0915 1005.31 31.8225 1005.31 31.419C1002.52 31.419 1001.59 31.15 998.263 31.2845L997.199 31.5535L995.603 31.419C995.603 31.688 994.539 31.688 994.672 31.957C992.411 31.8225 989.485 31.688 988.554 32.0915C988.687 31.419 984.43 31.688 984.962 31.0155C988.021 30.881 990.549 30.3431 988.554 29.6706C985.893 29.5361 985.893 29.9396 983.233 29.8051C983.765 28.9981 982.568 28.5946 982.302 28.0566L980.706 28.1911L979.642 27.9221C978.711 27.9221 977.912 27.9221 976.981 27.9221L975.651 28.0566C975.518 27.9221 975.385 27.7876 975.252 27.6531L970.331 28.0566L970.73 27.7876C970.065 27.2496 972.459 27.3841 972.459 27.1151L971.129 26.8461L971.528 26.5772C969.666 26.5772 972.725 26.0392 973.257 25.9047C972.858 25.6357 972.06 25.9047 970.597 25.9047C970.73 25.5012 972.858 25.5012 974.986 25.5012L975.385 25.2322L976.715 25.0977C972.459 23.6182 966.473 24.5597 961.685 23.3492C963.015 23.0802 962.35 22.4078 965.276 22.4078C967.936 22.8112 968.868 23.4837 970.597 23.6182C973.922 23.2147 971.395 22.2733 971.528 21.7353C963.946 21.0628 955.699 20.5248 949.448 19.5833C949.315 20.1213 945.989 20.1213 946.787 20.7938C948.117 20.7938 950.113 20.7938 950.379 20.9283C945.457 21.3318 953.039 21.8698 953.97 22.1388C944.925 22.2733 943.595 20.7938 937.21 20.3903C934.417 20.3903 934.683 20.9283 931.092 20.7938C928.565 19.9868 922.978 19.9868 918.722 20.2558C914.731 19.5833 910.475 19.0453 909.012 17.9694C905.287 18.3729 900.632 17.9694 896.641 17.8349C895.444 18.2384 895.045 18.7763 891.321 18.7763C890.523 18.1039 893.715 18.1039 894.912 17.7004C888.395 16.4899 878.552 15.9519 873.763 14.338C859.797 14.2035 859.265 17.7004 843.702 16.6244C844.5 16.3554 844.899 16.0864 844.633 15.6829C838.116 15.4139 838.648 13.8 835.854 12.8585C836.12 12.8585 836.386 12.8585 836.785 12.8585L837.983 12.5895L839.446 12.455C838.515 11.379 834.258 10.841 834.125 9.63057C833.061 9.49607 832.13 9.49607 831.465 9.22708C830.933 8.01661 822.553 7.61312 825.346 6.40265C824.149 6.40265 824.149 6.13365 822.686 6.26815V6.67164C821.888 6.53714 820.824 6.26815 820.292 6.13365C819.494 6.13365 818.696 6.13365 817.765 6.13365L818.164 5.86466C808.72 5.86466 809.518 3.57821 799.675 4.1162C795.685 2.09875 776.797 3.17472 782.782 5.86466C779.457 6.26815 778.792 7.34412 776.664 8.01661C776.93 8.2856 777.861 8.4201 777.595 8.68909C776.93 9.49607 773.338 9.63057 773.205 10.4375C777.994 10.7065 780.787 11.379 786.507 11.11C789.566 12.3205 794.354 13.1275 799.808 13.9345C801.803 13.8 799.675 12.8585 803.399 12.993C808.72 13.531 811.646 14.4724 815.769 15.2794L817.1 15.1449C819.095 15.9519 820.558 17.0279 824.149 17.5659L823.75 17.8349C825.878 19.5833 829.47 20.3903 831.731 22.2733C820.957 22.2733 810.316 23.4837 813.242 20.1213C816.036 20.2558 817.233 19.9868 816.833 19.4488C812.311 19.3143 809.518 18.9108 806.192 18.5073C802.069 19.7178 794.354 18.9108 792.891 18.1039C793.024 18.2384 794.62 17.7004 794.62 17.5659C794.753 17.2969 793.689 17.0279 793.689 16.8934C794.088 16.4899 795.818 16.2209 795.418 15.8174C794.62 14.7414 790.497 13.6655 787.438 13.1275C781.984 14.338 789.167 17.0279 780.388 17.8349C785.043 17.8349 780.388 19.3143 783.979 19.7178L785.309 19.8523C784.91 20.1213 784.777 20.2558 784.378 20.5248L783.048 20.3903C777.728 21.1973 785.176 24.1562 774.269 24.1562C773.471 22.9457 766.954 22.8112 768.151 21.1973C769.614 21.1973 770.545 20.9283 769.082 20.7938C764.426 21.1973 764.958 19.1798 762.963 18.5073C764.958 18.3729 765.89 18.3729 770.013 18.3729C770.146 17.7004 771.21 17.7004 770.013 17.1624C772.141 17.2969 771.875 16.8934 774.402 17.0279L774.003 16.7589L775.333 16.4899C775.866 15.6829 770.811 15.9519 770.013 15.4139L768.683 15.2794C769.348 15.1449 769.88 15.0104 770.412 14.7414L770.811 15.0104C772.939 15.0104 771.343 14.2035 769.88 14.338C769.215 13.6655 771.21 13.6655 770.811 13.1275C768.683 12.724 767.087 13.262 764.027 13.1275L763.495 13.262C764.958 13.1275 765.757 12.724 768.683 12.8585C769.215 12.455 770.013 12.0515 769.614 11.5135C766.555 10.9755 760.702 10.9755 756.313 10.572C757.111 9.76506 754.184 9.76506 750.992 9.89956C749.662 11.648 741.681 10.9755 736.893 12.0515C735.563 11.5135 731.838 10.841 728.114 11.379C728.247 10.9755 728.247 10.572 726.385 10.4375C720.532 11.2445 722.128 12.8585 718.404 13.8C714.28 13.3965 712.019 12.3205 707.763 12.455C707.497 10.9755 709.492 10.1686 710.423 8.55459L710.024 8.2856L711.354 8.1511C707.763 7.61312 702.309 8.2856 698.053 8.2856C694.994 7.88211 692.732 7.47862 691.934 6.67164C694.328 6.53714 696.856 6.53714 696.324 5.73016C691.402 5.99916 689.008 5.73016 683.953 5.86466C680.761 6.67164 679.165 8.01661 671.583 7.47862C671.849 7.88211 669.721 7.88211 667.992 8.01661C664.401 7.74761 661.208 7.47862 656.553 7.47862C652.828 7.61312 652.695 8.4201 650.434 8.82359C646.045 8.82359 644.582 8.4201 638.995 8.2856C638.862 9.09258 635.803 9.22708 634.606 9.63057C637.931 10.4375 639.926 11.917 647.907 11.2445C650.833 11.5135 653.626 11.917 654.957 12.455C652.296 12.5895 650.966 13.1275 646.976 12.993C647.774 14.6069 640.857 14.7414 633.674 14.7414C633.275 14.338 629.817 14.2035 631.945 13.8C629.019 13.8 626.492 13.8 625.827 13.3965L624.497 13.531L623.166 13.3965C622.767 13.6655 620.373 13.531 621.437 14.069C619.176 13.9345 615.718 13.9345 616.117 13.1275C617.979 13.6655 622.368 12.724 623.166 13.1275L624.497 12.993L625.827 13.1275C627.955 12.724 630.216 13.1275 632.876 13.1275C634.606 12.455 632.61 12.186 631.147 11.7825C626.625 11.917 625.295 11.379 621.437 11.379C620.506 12.186 614.521 11.917 609.998 11.917L610.397 12.186L609.067 12.0515C608.402 12.5895 610.796 12.455 610.796 12.724L612.126 12.5895L610.397 13.1275L609.998 12.8585C608.269 12.5895 604.545 12.5895 602.948 12.3205L601.352 12.455L600.288 12.186C599.357 12.186 599.224 12.3205 598.559 12.3205L598.958 12.5895L597.628 12.8585C602.017 15.1449 621.703 13.8 625.827 15.8174C623.965 16.2209 621.57 16.4899 617.048 16.3554C616.117 15.9519 614.787 15.2794 612.658 15.6829C610.397 15.9519 613.456 16.3554 611.727 16.7589C605.875 16.4899 605.742 17.4314 603.747 17.9694C604.678 18.3729 609.998 17.8349 610.796 18.3729C610.796 18.5073 610.131 18.6418 609.865 18.7763H610.796V18.9108C610.796 18.9108 610.929 19.0453 610.796 19.0453C608.934 20.2558 600.421 20.7938 598.426 21.3318C597.894 20.6593 601.485 20.9283 601.086 20.2558C598.825 20.1213 598.16 19.5833 595.766 19.3143C595.234 19.5833 594.436 19.7178 593.105 19.8523C593.505 18.9108 587.918 19.1798 587.785 18.2384C582.863 19.3143 587.12 20.7938 591.376 21.4663C590.179 21.7353 590.445 22.2733 590.445 22.6767C588.982 22.6767 588.184 22.8112 587.785 23.0802H588.716V23.2147C588.716 23.3492 589.381 23.4837 589.647 23.6182C585.125 23.8872 583.795 25.3667 584.327 26.0392C582.996 26.1737 579.804 25.7702 579.937 26.1737L581.267 26.3082L578.607 26.4427L579.006 26.3082C577.809 26.3082 577.277 26.0392 575.415 26.1737C575.282 25.6357 573.819 25.5012 573.686 24.9632C577.543 24.4252 576.479 23.0802 582.464 23.0802C583.13 22.4078 581.134 22.4078 581.533 21.8698L580.203 22.0043L580.602 21.7353C579.937 21.0628 576.213 21.0628 575.282 20.5248C573.021 20.6593 570.493 20.7938 567.301 20.6593C561.847 19.7178 563.843 18.5073 563.71 17.1624L562.379 17.0279C564.242 16.8934 565.971 16.7589 566.769 16.3554L567.168 16.6244C568.897 16.6244 567.833 16.0864 569.828 16.0864L571.158 15.9519L572.488 15.8174C572.089 15.5484 571.158 15.4139 570.759 15.1449C568.099 15.0104 567.567 15.2794 565.439 15.2794C562.646 14.2035 554.798 14.8759 552.137 13.531C551.871 13.1275 554.665 13.3965 554.798 12.993C551.206 12.5895 550.94 11.379 547.748 10.841L547.349 11.11L546.019 10.9755C542.161 10.7065 540.432 10.841 536.309 10.9755C536.309 10.1686 536.309 9.49607 536.309 8.68909C529.525 8.4201 532.718 9.63057 532.718 10.4375C531.653 10.572 530.722 10.572 530.057 10.841L531.387 11.11L530.988 11.379C531.254 11.379 531.52 11.379 531.919 11.379C532.451 11.648 530.855 12.3205 532.851 12.3205C533.25 12.0515 533.782 11.917 534.58 11.7825C535.644 12.455 540.166 12.5895 540.698 13.3965C536.442 13.8 539.9 14.6069 538.038 15.5484C540.831 15.5484 540.964 15.9519 544.157 15.9519C546.418 15.8174 546.817 15.4139 549.477 15.4139C551.738 15.9519 554.665 16.2209 558.256 16.4899L557.857 16.2209L559.187 16.7589L558.256 16.6244C557.724 17.0279 556.527 17.1624 554.665 17.2969L553.601 17.5659L552.004 17.4314C551.339 18.5073 548.413 19.0453 547.615 20.1213C552.404 20.2558 551.472 19.1798 557.325 19.4488C557.059 19.7178 558.256 19.8523 558.256 20.1213C554 20.6593 547.216 22.1388 554.665 22.9457L555.064 22.6767L556.394 22.5423C556.394 22.4078 556.394 22.2733 556.394 22.1388C556.926 22.1388 557.591 22.1388 558.123 22.1388C558.123 22.2733 558.123 22.4078 558.123 22.5423C557.857 22.5423 557.591 22.5423 557.192 22.5423L557.591 22.8112L556.261 22.9457V23.0802C554.532 23.0802 555.197 23.6182 552.669 23.4837C548.413 22.2733 544.689 20.9283 535.91 20.6593C537.24 19.8523 541.363 20.6593 542.96 20.7938C544.423 19.1798 539.767 18.7763 537.639 17.9694C534.846 18.2384 532.052 18.3729 528.86 18.5073C525.402 18.2384 526.333 17.5659 521.81 17.9694C520.214 19.0453 525.402 18.7763 525.402 19.5833C523.54 19.7178 522.609 19.9868 521.012 20.1213C519.283 18.5073 508.243 16.6244 516.623 15.1449C516.623 15.2794 516.623 15.4139 516.623 15.5484L517.953 15.6829L518.352 15.9519C519.283 15.9519 519.416 15.8174 520.081 15.8174C522.343 15.9519 523.141 16.4899 526.2 16.4899C531.254 16.2209 531.786 15.1449 536.841 14.8759C534.181 14.6069 537.639 14.069 536.841 13.6655C532.718 13.8 533.649 12.8585 530.722 12.724C531.653 13.3965 531.387 14.2035 528.993 14.6069C525.801 13.6655 525.136 14.2035 520.214 14.4724C519.416 13.9345 521.544 13.9345 521.943 13.531C519.283 13.3965 517.687 12.993 514.894 12.8585C514.229 12.3205 516.357 12.3205 515.825 11.7825C511.036 11.379 502.923 11.5135 499.863 10.7065C501.592 10.7065 500.528 10.1686 502.524 10.1686L502.125 9.89956L503.455 9.63057C502.657 8.82359 497.336 9.36157 493.745 9.49607C492.814 8.82359 488.291 9.09258 484.966 8.82359C483.37 8.68909 482.04 8.1511 480.576 8.1511C480.044 8.1511 476.32 8.82359 476.187 8.82359C474.724 8.82359 472.463 8.55459 470.068 8.4201C464.615 8.4201 461.422 7.61312 456.767 6.67164C453.309 6.80614 454.107 6.80614 450.648 6.67164C450.249 6.40265 449.318 6.26815 448.919 5.99916C443.599 6.26815 439.209 5.59567 436.549 5.86466C437.879 6.40265 436.815 6.80614 435.618 7.20963C440.273 7.74761 442.801 8.68909 447.057 9.36157C445.727 10.4375 451.58 11.379 447.988 11.7825C442.535 11.11 434.288 11.5135 424.312 11.5135C423.248 12.3205 419.124 12.5895 418.193 13.3965C416.863 13.3965 415.4 12.5895 415.533 13.3965C415.4 14.2035 418.991 14.338 419.124 15.1449C418.06 15.9519 413.937 16.0864 411.144 16.4899C409.414 17.7004 407.153 18.9108 403.163 19.7178C401.434 19.4488 400.636 19.0453 397.842 19.0453C395.182 19.0453 397.044 19.9868 394.251 19.9868C394.118 19.8523 391.325 19.4488 391.591 19.8523C393.719 19.8523 391.325 20.3903 389.861 20.2558C387.201 19.7178 386.27 18.9108 381.881 18.6418C381.881 19.1798 379.619 19.1798 379.22 19.7178L380.551 19.9868L380.151 20.2558C384.674 20.3903 380.684 22.1388 386.27 22.0043C384.541 21.3318 387.201 21.1973 388.93 20.7938C389.063 21.8698 390.526 22.6767 394.251 23.0802C392.788 24.6942 398.906 24.6942 398.64 26.0392C398.507 26.5772 395.714 26.5772 395.049 26.9806C398.906 27.1151 399.837 27.9221 399.438 28.8636C403.562 28.9981 402.099 30.3431 405.557 30.6121C410.079 30.2086 412.607 29.9396 418.858 30.2086C415.533 29.2671 421.785 29.4016 417.927 28.5946C419.656 28.1911 422.051 27.9221 424.977 27.6531C427.903 28.1911 433.091 28.3256 433.756 29.2671C433.091 29.5361 430.962 29.5361 431.096 29.9396C432.293 32.226 421.519 31.2845 415.134 31.0155C413.006 31.419 409.547 31.688 407.153 32.0915L407.552 32.3605C406.488 32.0915 405.158 32.0915 403.828 32.226L399.305 31.957L398.241 31.688C397.177 31.5535 396.246 31.5535 395.581 31.2845C396.645 30.6121 399.571 30.2086 399.97 29.4016C394.251 29.2671 391.857 30.4776 386.669 30.7465C385.871 30.7465 385.206 30.6121 384.009 30.6121C382.546 30.6121 380.551 30.881 379.619 31.0155C373.767 31.15 370.043 30.881 367.249 30.4776C367.781 29.9396 366.584 29.6706 366.318 29.2671C361.929 29.6706 356.741 29.5361 353.017 28.8636L351.687 28.5946L352.086 28.3256C349.559 28.1911 349.824 28.5946 347.696 28.4601C344.637 27.7876 336.789 28.1911 331.868 27.5186C330.804 25.9047 331.336 23.2147 320.429 24.2907C315.906 23.2147 302.206 22.6767 301.009 21.0628C300.477 20.2558 303.536 19.5833 305.398 18.7763C304.6 19.4488 307.659 18.9108 308.989 19.1798C311.517 19.5833 312.315 20.3903 314.31 20.9283C318.167 20.3903 320.296 21.3318 323.089 20.9283L321.759 20.7938L323.089 20.6593C321.892 20.3903 322.158 19.8523 322.158 19.4488L321.759 19.1798L322.158 18.9108C319.897 18.5073 316.837 18.2384 316.039 17.5659C317.502 16.3554 322.025 15.6829 323.089 14.338L321.759 14.4724L321.36 14.2035C318.699 14.069 318.167 14.338 316.039 14.338C314.842 14.069 314.177 12.724 316.97 12.724C321.227 13.3965 322.291 12.0515 326.68 12.186C326.68 12.3205 327.345 12.455 327.611 12.5895C326.813 12.993 325.217 13.262 324.951 13.8C327.079 14.2035 330.405 14.4724 333.73 14.2035C334.927 13.6655 333.198 13.262 334.661 12.993C337.188 13.1275 339.183 13.262 341.711 13.3965C341.977 12.8585 345.036 12.724 346.1 12.3205C341.844 12.455 339.582 12.0515 333.73 12.3205C331.203 11.5135 330.139 10.3031 326.68 9.63057C320.03 10.1686 310.852 9.63057 305.531 8.68909C301.009 8.68909 302.339 9.76506 299.413 10.0341C296.353 8.55459 302.472 7.34412 304.733 6.26815C303.137 6.13365 301.009 6.13365 300.344 5.86466C302.073 5.19218 305.398 4.78868 304.733 3.57821C302.605 3.44372 302.871 3.84721 300.344 3.71271C300.344 3.57821 300.211 3.44372 299.413 3.57821L298.481 3.71271L297.949 3.98171C297.949 4.92318 298.747 6.13365 292.629 5.86466C292.23 6.40265 295.289 6.40265 296.22 6.80614C297.683 7.88211 295.023 9.22708 290.9 9.76506C291.964 10.0341 293.826 10.1686 293.56 10.841C293.028 11.2445 292.762 11.7825 289.969 11.7825C287.574 10.7065 277.465 10.4375 271.48 11.11C270.15 11.648 268.953 12.186 265.361 12.3205C262.834 11.648 258.045 10.7065 252.06 11.2445L252.459 11.5135L251.129 11.7825C251.129 12.0515 251.395 12.3205 252.06 12.455C250.464 12.5895 249.799 12.993 246.739 12.8585C244.611 13.262 245.143 14.2035 241.419 14.2035C237.827 13.531 232.906 13.1275 228.117 12.5895C226.787 11.648 223.196 11.11 221.068 10.3031L220.004 10.572L218.408 10.4375C217.875 11.7825 209.496 12.3205 205.106 12.3205C207.766 12.8585 209.097 13.8 208.698 15.0104L210.028 14.8759L209.629 15.1449C211.092 15.5484 217.609 15.0104 216.678 15.8174C213.22 15.8174 212.555 16.3554 208.698 16.3554C199.121 15.0104 187.415 16.2209 180.499 17.2969C180.898 18.2384 181.297 19.3143 184.888 19.5833C188.214 19.1798 185.553 18.5073 184.888 17.9694C186.484 17.8349 186.351 17.2969 188.48 17.2969C191.406 17.1624 192.603 17.4314 194.598 17.4314C195.529 17.1624 196.061 16.8934 197.258 16.7589C202.313 17.0279 205.638 18.5073 201.648 19.4488L202.978 19.5833C201.648 19.7178 201.116 19.7178 200.318 20.1213L200.717 19.8523C199.52 19.8523 198.323 19.8523 197.125 19.8523C196.194 20.5248 195.662 21.1973 191.007 20.7938C188.746 21.8698 194.199 23.7527 199.786 22.6767C201.914 22.9457 203.51 23.2147 205.106 23.6182C203.51 25.3667 183.691 26.5772 183.026 24.0217C172.385 25.0977 164.005 22.2733 153.896 22.6767C150.97 22.8112 150.837 23.4837 146.846 23.3492C145.915 24.4252 140.861 25.3667 138.068 26.7116C137.27 27.1151 137.935 27.7876 137.137 28.0566C136.471 28.3256 133.412 28.7291 132.747 29.2671C130.752 30.7465 126.628 31.0155 123.968 32.0915C123.17 32.3605 123.702 32.764 123.037 33.033C118.914 34.2435 111.332 34.2435 103.617 33.9745C104.548 33.033 107.209 32.3605 110.667 31.8225C110.933 31.15 111.997 30.6121 115.987 30.6121C115.987 31.0155 117.451 31.15 116.919 31.688C119.446 31.688 120.643 31.957 123.037 32.0915C124.367 31.15 128.225 30.7465 127.427 29.4016C128.624 29.4016 129.422 29.2671 130.087 29.2671C131.151 28.5946 130.619 28.1911 131.018 27.5186C132.481 25.2322 143.255 23.6182 149.507 22.0043C151.502 21.4663 151.103 20.7938 154.827 20.6593C156.024 20.6593 156.556 20.9283 158.419 20.7938C162.409 19.8523 163.473 18.2384 171.72 18.1039C174.646 17.2969 172.784 16.4899 178.77 16.2209C178.77 15.8174 178.77 15.4139 178.77 15.0104C174.912 15.1449 175.178 14.4724 173.449 14.069C168.395 13.9345 166.266 14.338 164.67 15.0104C156.556 15.8174 147.911 15.6829 137.27 15.4139C133.412 16.3554 128.491 17.1624 123.968 18.1039C121.441 17.8349 118.116 17.7004 115.987 17.4314C119.579 16.8934 113.992 15.4139 120.377 15.2794C120.377 15.4139 120.51 15.5484 121.308 15.4139L122.638 15.2794L122.239 15.5484C124.5 15.5484 125.165 15.2794 124.899 14.8759L123.569 15.0104L123.968 14.7414C123.037 14.2035 120.909 13.8 117.85 13.6655C115.721 13.6655 114.258 14.069 111.731 14.338C111.864 16.6244 102.287 17.8349 93.2422 17.1624C92.8432 17.4314 91.9121 17.5659 91.513 17.8349L91.9121 18.1039L91.513 18.3729C93.9073 19.0453 88.8528 19.7178 85.3944 19.8523C79.8079 20.7938 75.6845 21.8698 69.4328 22.6767C68.5018 24.0217 70.0979 24.8287 68.5018 25.9047C67.0386 26.8461 62.5162 27.3841 61.4521 28.1911C60.787 28.7291 63.4473 29.2671 60.521 29.8051C62.2501 30.0741 64.7774 30.6121 62.2501 31.15C63.0482 31.5535 66.1075 30.7465 67.5707 31.2845C65.7085 31.957 61.9841 32.3605 63.9793 33.4365C60.2549 33.7055 60.521 33.033 57.8607 33.033C57.8607 32.764 57.8607 32.495 57.8607 32.3605C50.811 30.4776 45.0914 27.6531 45.4905 24.8287C47.3527 24.6942 48.5498 24.4252 49.0818 24.1562C54.2694 24.6942 60.1219 24.1562 58.7918 22.8112C60.388 22.6767 63.5803 22.8112 63.1812 22.2733C65.8415 22.1388 64.9104 22.8112 67.5707 22.6767C69.5659 22.2733 70.763 21.7353 71.9601 21.0628C80.4729 20.7938 81.138 18.9108 89.6508 18.6418L89.1188 18.1039L88.7197 17.8349C87.2566 17.2969 85.6604 16.8934 83.3992 16.6244C81.8031 16.8934 78.2117 16.6244 77.2806 17.0279C78.2117 17.0279 79.8079 17.0279 79.9409 17.1624C80.4729 18.7763 59.8559 18.2384 63.1812 20.6593C60.2549 21.3318 57.0626 22.0043 51.7421 22.2733C48.0177 22.1388 47.0866 21.4663 46.4216 20.6593C35.3815 20.3903 28.4648 21.0628 22.6122 21.8698C22.3462 21.4663 18.7548 21.7353 18.2228 21.3318C24.7404 20.7938 30.859 20.1213 33.2533 18.6418L31.9231 18.3729L32.3222 18.1039C27.9328 18.2384 26.2036 18.7763 22.6122 19.0453C18.8879 19.1798 14.6314 18.9108 11.1731 19.1798C0 20.5248 3.85738 23.0802 0 24.8287V57.1079H160.281H164.67C164.936 57.1079 165.202 57.1079 165.601 57.1079H215.082H225.723H285.712H328.01H340.514H344.105H350.623H353.283H425.243H840.244H842.505H1440V9.36157C1435.48 8.95808 1431.35 8.4201 1428.29 7.61312C1411.93 8.1511 1409.14 5.99916 1403.55 4.2507Z" fill="#0B0B0F"/>
</svg>
