<svg width="51" height="52" viewBox="0 0 51 52" fill="none" xmlns="http://www.w3.org/2000/svg">
<path d="M47.022 37.1575C45.6953 37.1575 44.5744 38.053 44.2303 39.271H37.6462V37.774H37.8899C38.8973 37.774 39.717 36.9543 39.717 35.9468V33.3014C39.717 31.6394 39.3292 29.3819 35.976 28.9666C33.0297 28.6017 31.9759 27.0986 30.9566 25.6449C29.947 24.2051 28.9031 22.7162 26.3271 22.7162H22.2056C19.209 22.7162 18.2221 24.4176 17.1771 26.2188C16.8659 26.7555 16.5439 27.3103 16.1461 27.8781C15.7451 28.4502 15.2447 28.8031 14.5712 28.989C12.6351 29.5233 11.2828 31.2967 11.2828 33.3013V35.9467C11.2828 36.0321 11.2908 36.1156 11.3022 36.1981H6.76945C6.42525 34.9799 5.30452 34.0844 3.97767 34.0844C2.37782 34.0846 1.07617 35.3861 1.07617 36.986C1.07617 38.586 2.37782 39.8875 3.97767 39.8875C5.30442 39.8875 6.42515 38.992 6.76945 37.774H15.2126C15.3655 39.3628 16.5385 40.6572 18.0671 40.9941V42.852H13.4528C13.1085 41.6338 11.9876 40.7383 10.6609 40.7383C9.06104 40.7383 7.75949 42.04 7.75949 43.6398C7.75949 45.2397 9.06104 46.5412 10.6609 46.5412C11.9876 46.5412 13.1085 45.6457 13.4528 44.4277H18.8549C19.0639 44.4277 19.2643 44.3447 19.412 44.1969C19.5598 44.0492 19.6428 43.8488 19.6428 43.6398V40.9941C21.1713 40.6573 22.3444 39.3628 22.4973 37.774H24.2668V44.9262C24.2668 45.1351 24.3498 45.3355 24.4975 45.4833C24.6453 45.6311 24.8457 45.7141 25.0546 45.7141L34.3962 45.7142C34.7405 46.9322 35.8612 47.8277 37.188 47.8277C38.7878 47.8277 40.0895 46.526 40.0895 44.9262C40.0895 43.3263 38.7878 42.0248 37.188 42.0248C35.8611 42.0248 34.7404 42.9203 34.3962 44.1384L25.8425 44.1383V37.774H28.0141C28.1926 39.6268 29.7577 41.0804 31.6565 41.0804C33.5552 41.0804 35.1204 39.6268 35.2989 37.774H36.0705V40.0589C36.0705 40.2678 36.1535 40.4682 36.3012 40.616C36.449 40.7637 36.6494 40.8468 36.8583 40.8468H44.2303C44.5745 42.0649 45.6953 42.9604 47.022 42.9604C48.6219 42.9604 49.9235 41.6587 49.9235 40.0589C49.9235 38.459 48.6219 37.1575 47.022 37.1575ZM3.97767 38.3117C3.24663 38.3117 2.65189 37.717 2.65189 36.9859C2.65189 36.2549 3.24663 35.6603 3.97767 35.6603C4.7087 35.6603 5.30334 36.2549 5.30334 36.9859C5.30334 37.717 4.7087 38.3117 3.97767 38.3117ZM10.6608 44.9654C9.92976 44.9654 9.33512 44.3708 9.33512 43.6397C9.33512 42.9087 9.92976 42.3139 10.6608 42.3139C11.3918 42.3139 11.9866 42.9087 11.9866 43.6397C11.9866 44.3708 11.3918 44.9654 10.6608 44.9654ZM37.188 43.6005C37.919 43.6005 38.5137 44.1952 38.5137 44.9262C38.5137 45.6572 37.919 46.252 37.188 46.252C36.4569 46.252 35.8623 45.6572 35.8623 44.9262C35.8623 44.1952 36.4569 43.6005 37.188 43.6005ZM29.6664 26.5495C30.2177 27.3358 30.8364 28.2183 31.7725 28.9606H24.1562V24.2919H26.3271C28.0834 24.2919 28.7474 25.2388 29.6664 26.5495ZM18.5402 27.0096C19.5566 25.2573 20.1166 24.2919 22.2056 24.2919H22.5804V28.9606H17.3052C17.3498 28.9026 17.3937 28.8435 17.4365 28.7824C17.8732 28.1595 18.2275 27.5486 18.5402 27.0096ZM18.8548 39.5046C17.7057 39.5046 16.7708 38.5697 16.7708 37.4206C16.7708 36.2715 17.7057 35.3367 18.8548 35.3367C20.0039 35.3367 20.9388 36.2715 20.9388 37.4206C20.9388 38.5697 20.0039 39.5046 18.8548 39.5046ZM31.6565 39.5046C30.5074 39.5046 29.5725 38.5697 29.5725 37.4206C29.5725 36.2715 30.5074 35.3367 31.6565 35.3367C32.8056 35.3367 33.7405 36.2715 33.7405 37.4206C33.7405 38.5697 32.8056 39.5046 31.6565 39.5046ZM31.6565 33.7608C30.0671 33.7608 28.7118 34.7796 28.2075 36.1982H22.304C21.7997 34.7796 20.4443 33.7608 18.855 33.7608C17.2657 33.7608 15.9104 34.7795 15.4061 36.1981H13.1096C12.9737 36.1977 12.8588 36.0829 12.8588 35.9467V33.3013C12.8588 32.034 13.6951 30.9115 14.9024 30.5363H35.8258C37.7811 30.7908 38.1414 31.6695 38.1414 33.3013V35.9467C38.1414 36.0831 38.0262 36.1982 37.89 36.1982H35.1056C34.6012 34.7796 33.2458 33.7608 31.6565 33.7608ZM47.022 41.3847C46.291 41.3847 45.6964 40.7899 45.6964 40.0589C45.6964 39.3279 46.291 38.7332 47.022 38.7332C47.7531 38.7332 48.3478 39.3279 48.3478 40.0589C48.3478 40.7899 47.7531 41.3847 47.022 41.3847ZM49.4187 25.0665L45.8854 23.7065C45.3968 21.8196 44.6468 20.0104 43.6572 18.3312L45.1948 14.869C45.2594 14.7235 45.2785 14.5618 45.2494 14.4053C45.2203 14.2488 45.1445 14.1047 45.0319 13.9921L40.5081 9.46843C40.3955 9.35585 40.2515 9.28002 40.0949 9.25094C39.9384 9.22186 39.7767 9.2409 39.6312 9.30554L36.1679 10.8437C34.4891 9.85452 32.6804 9.10468 30.7942 8.61597L29.4338 5.08173C29.3766 4.93314 29.2758 4.80537 29.1445 4.71526C29.0133 4.62514 28.8578 4.5769 28.6986 4.5769H22.3011C22.1419 4.5769 21.9864 4.62514 21.8552 4.71526C21.7239 4.80537 21.6231 4.93314 21.5659 5.08173L20.2058 8.61489C18.319 9.10361 16.5098 9.85366 14.8306 10.8433L11.3684 9.30554C11.2229 9.2409 11.0612 9.22186 10.9047 9.25094C10.7481 9.28002 10.6041 9.35585 10.4915 9.46843L5.9678 13.9922C5.85523 14.1048 5.77941 14.2489 5.75033 14.4054C5.72125 14.5619 5.74028 14.7236 5.80491 14.8691L7.34311 18.3326C6.35395 20.0113 5.60408 21.82 5.11524 23.7062L1.58099 25.0665C1.43242 25.1237 1.30466 25.2246 1.21455 25.3559C1.12443 25.4872 1.07619 25.6426 1.07617 25.8019V32.1992C1.07617 32.4081 1.15918 32.6085 1.30693 32.7563C1.45468 32.9041 1.65508 32.9871 1.86403 32.9871H9.60417C9.72076 32.9871 9.8359 32.9612 9.94128 32.9113C10.0467 32.8615 10.1397 32.7888 10.2136 32.6986C10.2875 32.6085 10.3405 32.503 10.3687 32.3899C10.3969 32.2768 10.3997 32.1588 10.3768 32.0445C10.1766 31.0422 10.0758 30.0226 10.0758 29.0006C10.0758 20.4957 16.995 13.5765 25.4998 13.5765C34.0047 13.5765 40.9239 20.4957 40.9239 29.0006C40.9239 30.0226 40.8231 31.0422 40.6229 32.0445C40.6001 32.1588 40.6029 32.2767 40.6312 32.3898C40.6594 32.5029 40.7124 32.6083 40.7863 32.6985C40.8602 32.7886 40.9532 32.8613 41.0585 32.9112C41.1639 32.9611 41.279 32.987 41.3955 32.9871H49.1357C49.3446 32.9871 49.545 32.9041 49.6928 32.7563C49.8405 32.6085 49.9235 32.4081 49.9235 32.1992V25.8018C49.9235 25.6426 49.8753 25.4871 49.7852 25.3558C49.695 25.2246 49.5673 25.1237 49.4187 25.0665ZM48.3478 31.4113H42.3291C42.4426 30.6128 42.4995 29.8072 42.4996 29.0006C42.4996 19.6268 34.8735 12.0008 25.4998 12.0008C16.1262 12.0008 8.50008 19.6269 8.50008 29.0007C8.50008 29.8069 8.5573 30.6142 8.67056 31.4114H2.65189V26.3429L6.06392 25.0296C6.18333 24.9836 6.28974 24.9093 6.37396 24.813C6.45818 24.7166 6.51767 24.6013 6.54727 24.4768C7.02453 22.4715 7.81898 20.5554 8.90061 18.8007C8.96768 18.6918 9.00721 18.5681 9.01577 18.4404C9.02433 18.3127 9.00168 18.1849 8.94975 18.0679L7.46464 14.7241L11.2232 10.9654L14.5659 12.45C14.6829 12.5019 14.8108 12.5246 14.9385 12.516C15.0662 12.5074 15.1899 12.4679 15.2988 12.4008C17.0538 11.3188 18.9704 10.5243 20.9762 10.0473C21.1006 10.0177 21.216 9.95819 21.3124 9.87395C21.4087 9.78972 21.4831 9.68329 21.529 9.56386L22.842 6.15282H28.1575L29.4709 9.56485C29.5168 9.68427 29.5912 9.7907 29.6875 9.87492C29.7838 9.95914 29.8993 10.0186 30.0237 10.0482C32.029 10.5253 33.9452 11.3198 35.6998 12.4014C35.8088 12.4686 35.9324 12.5081 36.0601 12.5167C36.1878 12.5252 36.3157 12.5026 36.4326 12.4506L39.7764 10.9655L43.5351 14.7241L42.0505 18.0668C41.9986 18.1837 41.9759 18.3116 41.9845 18.4393C41.9931 18.567 42.0327 18.6907 42.0998 18.7997C43.1818 20.5546 43.9762 22.4712 44.4531 24.477C44.4827 24.6015 44.5422 24.7169 44.6265 24.8132C44.7107 24.9095 44.8171 24.9839 44.9366 25.0299L48.3478 26.3427V31.4113ZM26.4582 32.2762C26.4582 32.4852 26.3752 32.6856 26.2274 32.8333C26.0797 32.9811 25.8793 33.0641 25.6703 33.0641H24.6172C24.4082 33.0641 24.2078 32.9811 24.06 32.8333C23.9123 32.6856 23.8293 32.4852 23.8293 32.2762C23.8293 32.0673 23.9123 31.8669 24.06 31.7191C24.2078 31.5714 24.4082 31.4883 24.6172 31.4883H25.6703C25.8793 31.4883 26.0797 31.5714 26.2274 31.7191C26.3752 31.8669 26.4582 32.0673 26.4582 32.2762Z" fill="black"/>
</svg>
