<svg width="52" height="52" viewBox="0 0 52 52" fill="none" xmlns="http://www.w3.org/2000/svg">
<path d="M43.0315 31.276L33.8752 36.6091C33.4162 36.8764 32.9494 37.0652 32.4622 37.1779C32.6427 36.8883 32.7841 36.5609 32.8812 36.1983C33.3492 34.4513 32.311 32.6274 30.5174 32.0459C30.4826 32.0346 30.447 32.0257 30.411 32.0192C27.7794 31.5446 25.1821 30.6056 23.0951 29.851C22.37 29.5889 21.6853 29.3413 21.103 29.1526C18.7591 28.3921 16.6398 29.3336 14.8759 30.3547L8.06372 34.2988L7.42143 33.1639C7.13797 32.6629 6.67495 32.3021 6.11778 32.1476C5.56081 31.9931 4.97794 32.0642 4.47693 32.3478L1.90791 33.8018C1.4068 34.0854 1.04585 34.5483 0.891372 35.1055C0.736895 35.6627 0.80809 36.2454 1.09165 36.7463L8.64455 50.0918C8.92801 50.5928 9.39104 50.9537 9.94821 51.1082C10.1409 51.1616 10.3366 51.188 10.531 51.188C10.8986 51.188 11.2613 51.0935 11.5891 50.908L14.1582 49.454C14.6592 49.1705 15.02 48.7075 15.1745 48.1504C15.329 47.5932 15.2578 47.0104 14.9742 46.5095L14.1956 45.1336L15.7484 44.237L27.4759 47.3793C28.1382 47.5569 28.7884 47.6455 29.4245 47.6455C30.6929 47.6455 31.9053 47.2932 33.0464 46.5907L49.663 36.3589C51.1777 35.4263 51.6583 33.0759 50.6711 31.4277C50.1918 30.6276 48.2249 28.2515 43.0315 31.276ZM13.6086 47.7163C13.5903 47.7841 13.5586 47.8476 13.5156 47.9032C13.4725 47.9587 13.4189 48.0051 13.3578 48.0398L10.7886 49.4937C10.5363 49.6368 10.2019 49.5443 10.0586 49.2914L2.50581 35.946C2.47127 35.8848 2.44921 35.8174 2.4409 35.7476C2.43258 35.6779 2.43818 35.6072 2.45736 35.5396C2.4757 35.4717 2.50731 35.4082 2.55037 35.3527C2.59344 35.2972 2.64709 35.2507 2.70822 35.2161L5.27725 33.7621C5.35659 33.7172 5.44625 33.6936 5.53745 33.6937C5.5861 33.6937 5.63525 33.7003 5.6837 33.7138C5.75153 33.7321 5.81505 33.7637 5.87058 33.8068C5.92612 33.8498 5.97258 33.9034 6.00728 33.9645L13.5602 47.3101C13.5947 47.3712 13.6168 47.4386 13.6251 47.5083C13.6334 47.5781 13.6278 47.6487 13.6086 47.7163ZM48.811 34.9752L32.1944 45.207C30.8767 46.0183 29.4306 46.2211 27.8965 45.8098L15.844 42.5803C15.6359 42.5247 15.4142 42.5539 15.2275 42.6614L13.3952 43.7193L8.86413 35.7131L15.6901 31.761C17.217 30.8768 18.8692 30.1362 20.6016 30.6983C21.1582 30.8788 21.7997 31.1107 22.5425 31.3793C24.6718 32.1491 27.3181 33.1058 30.0639 33.6077C31.0207 33.9421 31.5557 34.8664 31.3116 35.7777C30.9902 36.9768 29.9909 37.1257 29.1966 37.0345C27.8479 36.7571 26.5662 36.3914 25.2101 36.0041C24.5671 35.8204 23.9021 35.6306 23.2187 35.4474C22.7856 35.3316 22.3397 35.5886 22.2236 36.022C22.1959 36.125 22.1889 36.2325 22.2028 36.3383C22.2168 36.4441 22.2514 36.5461 22.3047 36.6385C22.3581 36.7309 22.4291 36.8119 22.5138 36.8769C22.5984 36.9418 22.695 36.9895 22.7981 37.0171C23.4687 37.1968 24.1271 37.3849 24.7638 37.5667C26.1614 37.9658 27.4816 38.3428 28.9031 38.6334C28.9085 38.6345 28.9139 38.6349 28.9194 38.6358C28.9249 38.6367 28.9299 38.6383 28.9354 38.6393L30.074 38.8244C31.7766 39.0969 33.2879 38.8316 34.693 38.0132L43.8494 32.6801C46.4849 31.145 48.5141 30.9889 49.277 32.2625C49.8027 33.1405 49.5675 34.5094 48.811 34.9752ZM6.02261 36.3396C6.04004 36.4588 6.03382 36.5802 6.0043 36.697C5.97479 36.8138 5.92257 36.9236 5.85061 37.0202C5.77865 37.1168 5.68837 37.1983 5.58492 37.26C5.48147 37.3217 5.36688 37.3624 5.24769 37.3799C5.1285 37.3973 5.00705 37.3911 4.89026 37.3616C4.77348 37.3321 4.66365 37.2798 4.56705 37.2079C4.47045 37.1359 4.38896 37.0456 4.32725 36.9422C4.26554 36.8387 4.22481 36.7241 4.20739 36.605C4.17496 36.3655 4.23829 36.123 4.38365 35.93C4.529 35.737 4.74463 35.6091 4.9837 35.5742C5.22277 35.5392 5.46598 35.6 5.6605 35.7433C5.85502 35.8866 5.98515 36.1009 6.02261 36.3396ZM51.1874 6.29393V4.74723C51.1874 3.13757 49.8777 1.82792 48.2681 1.82792H35.0265C33.4169 1.82792 32.1073 3.13757 32.1073 4.74723V6.29393C32.1073 7.12136 32.454 7.86896 33.0089 8.40074C32.454 8.93242 32.1073 9.68002 32.1073 10.5075V12.0541C32.1073 12.1699 32.1146 12.2855 32.1284 12.4003C27.8769 13.361 24.6922 17.1684 24.6922 21.7061C24.6922 26.9666 28.972 31.2462 34.2324 31.2462C37.7491 31.2462 40.8271 29.3333 42.4814 26.4937H48.2681C49.8778 26.4937 51.1874 25.1841 51.1874 23.5745V22.0277C51.1874 21.2003 50.8407 20.4527 50.2858 19.921C50.8407 19.3893 51.1874 18.6417 51.1874 17.8143V16.2676C51.1874 15.4401 50.8407 14.6926 50.2858 14.1609C50.8407 13.6292 51.1874 12.8816 51.1874 12.0541V10.5075C51.1874 9.68002 50.8407 8.93252 50.2858 8.40074C50.8407 7.86896 51.1874 7.12136 51.1874 6.29393ZM34.2324 29.6211C29.868 29.6211 26.3172 26.0705 26.3172 21.706C26.3172 17.3416 29.868 13.791 34.2324 13.791C38.5969 13.791 42.1475 17.3416 42.1475 21.706C42.1475 26.0705 38.5968 29.6211 34.2324 29.6211ZM49.5624 22.0277V23.5744C49.5624 24.288 48.9817 24.8686 48.2681 24.8686H43.2329C43.5908 23.8526 43.7732 22.7832 43.7724 21.706C43.7724 21.3778 43.7557 21.0533 43.7231 20.7334H48.268C48.9817 20.7334 49.5624 21.314 49.5624 22.0277ZM49.5624 16.2675V17.8142C49.5624 18.5277 48.9817 19.1084 48.2681 19.1084H43.4128C42.9642 17.525 42.1161 16.1079 40.9848 14.9733H48.2681C48.9817 14.9734 49.5624 15.5539 49.5624 16.2675ZM49.5624 10.5074V12.054C49.5624 12.7677 48.9817 13.3483 48.2681 13.3483H38.8282C37.4642 12.5952 35.8976 12.1659 34.2324 12.1659C34.0673 12.1659 33.9029 12.1701 33.7398 12.1785C33.7353 12.1371 33.7328 12.0956 33.7323 12.054V10.5074C33.7323 9.79377 34.313 9.21314 35.0265 9.21314H48.2681C48.9817 9.21314 49.5624 9.79377 49.5624 10.5074ZM35.0265 7.58814C34.313 7.58814 33.7323 7.00751 33.7323 6.29383V4.74723C33.7323 4.03356 34.313 3.45292 35.0265 3.45292H48.2681C48.9817 3.45292 49.5624 4.03356 49.5624 4.74723V6.29393C49.5624 7.00761 48.9817 7.58824 48.2681 7.58824L35.0265 7.58814ZM37.8235 23.6511C37.914 24.3964 37.713 25.0779 37.2423 25.622C36.7457 26.1961 35.9526 26.595 35.0448 26.7436V27.2288C35.0448 27.4443 34.9592 27.651 34.8068 27.8033C34.6545 27.9557 34.4478 28.0413 34.2323 28.0413C34.0168 28.0413 33.8102 27.9557 33.6578 27.8033C33.5054 27.651 33.4198 27.4443 33.4198 27.2288V26.7306C32.0328 26.4662 30.9662 25.5422 30.6441 24.2502C30.5931 24.0415 30.6268 23.8211 30.7379 23.6371C30.849 23.4532 31.0284 23.3208 31.2369 23.2689C31.4454 23.2169 31.6659 23.2497 31.8503 23.3599C32.0347 23.4702 32.168 23.649 32.2209 23.8572C32.4724 24.8663 33.5127 25.1996 34.3268 25.1821C35.0385 25.1652 35.7004 24.9205 36.0131 24.5589C36.1827 24.3628 36.2453 24.1366 36.2101 23.8469C36.1509 23.3598 35.8585 22.7636 34.1085 22.4764C31.5578 22.0574 30.9622 20.7313 30.9118 19.6926C30.842 18.2555 31.8383 17.0533 33.3908 16.701L33.4196 16.6946V16.1832C33.4196 15.9677 33.5052 15.761 33.6576 15.6086C33.81 15.4563 34.0166 15.3707 34.2321 15.3707C34.4476 15.3707 34.6543 15.4563 34.8066 15.6086C34.959 15.761 35.0446 15.9677 35.0446 16.1832V16.6874C36.0655 16.8983 37.0442 17.5338 37.5507 18.7401C37.6341 18.9388 37.6352 19.1624 37.5537 19.3619C37.4722 19.5614 37.3148 19.7203 37.1162 19.8038C36.9175 19.8872 36.6938 19.8883 36.4943 19.8068C36.2948 19.7253 36.1359 19.5679 36.0524 19.3692C35.6271 18.3564 34.5899 18.0955 33.7502 18.2857C33.1383 18.4246 32.4976 18.8463 32.5348 19.6136C32.5476 19.8776 32.5817 20.5788 34.3717 20.8727C36.4803 21.2189 37.6416 22.1536 37.8235 23.6511ZM17.1069 8.53115H18.6718V18.5798C18.6718 18.7953 18.7574 19.002 18.9098 19.1544C19.0622 19.3067 19.2688 19.3923 19.4843 19.3923H22.7742C22.9897 19.3923 23.1964 19.3067 23.3488 19.1544C23.5011 19.002 23.5867 18.7953 23.5867 18.5798V8.53115H25.1516C25.2983 8.53112 25.4423 8.49136 25.5683 8.41609C25.6942 8.34082 25.7975 8.23285 25.867 8.10364C25.9365 7.97443 25.9698 7.8288 25.9632 7.68221C25.9567 7.53562 25.9105 7.39355 25.8297 7.27106L21.8075 1.17721C21.7334 1.0651 21.6327 0.973108 21.5143 0.909461C21.396 0.845814 21.2637 0.8125 21.1293 0.8125C20.995 0.8125 20.8627 0.845814 20.7443 0.909461C20.626 0.973108 20.5253 1.0651 20.4512 1.17721L16.4289 7.27106C16.3481 7.39354 16.302 7.5356 16.2954 7.68218C16.2888 7.82876 16.3221 7.97438 16.3916 8.10359C16.4611 8.2328 16.5644 8.34077 16.6903 8.41605C16.8162 8.49133 16.9602 8.5311 17.1069 8.53115ZM21.1293 3.09969L23.6418 6.90615H22.7742C22.5587 6.90615 22.3521 6.99175 22.1997 7.14412C22.0473 7.2965 21.9617 7.50316 21.9617 7.71865V17.7673H20.2968V7.71865C20.2968 7.50316 20.2112 7.2965 20.0588 7.14412C19.9065 6.99175 19.6998 6.90615 19.4843 6.90615H18.6168L21.1293 3.09969Z" fill="black"/>
</svg>
