<svg width="63" height="69" viewBox="0 0 63 69" fill="none" xmlns="http://www.w3.org/2000/svg">
<path fill-rule="evenodd" clip-rule="evenodd" d="M8.06702 33.8399H1.14754C0.860477 33.8399 0.585178 33.954 0.382195 34.1569C0.179214 34.3599 0.0651817 34.6352 0.0651817 34.9223V40.7283C0.0651932 40.947 0.131474 41.1606 0.255299 41.341C0.379128 41.5213 0.55468 41.6598 0.758831 41.7384L5.26196 43.4714C5.88837 45.875 6.84801 48.1775 8.10205 50.3221L6.14584 54.7385C6.05729 54.9383 6.0313 55.1602 6.07132 55.3751C6.11134 55.5899 6.21547 55.7876 6.37002 55.9421L12.1759 61.7481C12.3304 61.9027 12.5281 62.0068 12.743 62.0468C12.9579 62.0868 13.1798 62.0609 13.3796 61.9723L17.7937 60.017C19.9334 61.2768 22.2419 62.2307 24.6468 62.8563L26.3797 67.3593C26.4583 67.5635 26.5969 67.739 26.7772 67.8628C26.9575 67.9867 27.1711 68.053 27.3899 68.053H35.6025C35.8212 68.053 36.0349 67.9867 36.2152 67.8629C36.3956 67.7391 36.5342 67.5635 36.6127 67.3593L38.3456 62.8567C40.7562 62.2302 43.0595 61.2704 45.2047 60.0161L49.6211 61.9723C49.8209 62.0609 50.0429 62.0868 50.2577 62.0468C50.4726 62.0068 50.6703 61.9027 50.8248 61.7481L56.6307 55.9421C56.7854 55.7874 56.8896 55.5894 56.9295 55.3743C56.9695 55.1592 56.9432 54.937 56.8543 54.737L54.8919 50.3235C56.1512 48.1843 57.1055 45.8764 57.7373 43.4721L62.2419 41.7384C62.446 41.6598 62.6216 41.5213 62.7454 41.341C62.8693 41.1606 62.9355 40.947 62.9355 40.7283V34.9223C62.9355 34.6352 62.8215 34.3599 62.6185 34.1569C62.4156 33.954 62.1403 33.8399 61.8532 33.8399H54.9337V10.9701C54.9337 10.7363 54.858 10.5088 54.7179 10.3216C54.5778 10.1344 54.3809 9.99762 54.1566 9.93169L44.053 6.96185V2.02944C44.053 1.74238 43.9389 1.46708 43.7359 1.2641C43.533 1.06112 43.2577 0.947083 42.9706 0.947083H20.0303C19.7432 0.947083 19.4679 1.06112 19.2649 1.2641C19.0619 1.46708 18.9479 1.74238 18.9479 2.02944V6.96172L8.84414 9.93169C8.61983 9.99762 8.42291 10.1344 8.28282 10.3216C8.14274 10.5088 8.06702 10.7363 8.06702 10.9701V33.8399ZM52.769 33.8399H44.053V9.21802L52.769 11.7801V33.8399ZM41.8882 33.8399H38.0454V23.3181C38.0454 23.031 37.9313 22.7557 37.7283 22.5528C37.5254 22.3498 37.2501 22.2357 36.963 22.2357H26.0376C25.7505 22.2357 25.4752 22.3498 25.2723 22.5528C25.0693 22.7557 24.9552 23.031 24.9552 23.3181V33.8399H21.1126V3.11179H41.8882V33.8399ZM35.8806 33.8399H27.1199V24.4005H35.8806V33.8399ZM18.9479 33.8399H10.2317V11.7801L18.9479 9.21802V33.8399ZM46.8953 36.0046H60.7708V39.985L56.436 41.6534C56.2724 41.7164 56.1265 41.8182 56.0109 41.95C55.8953 42.0819 55.8134 42.2398 55.7724 42.4103C55.1542 44.9781 54.1401 47.4354 52.753 49.6784C52.6604 49.8283 52.6057 49.9985 52.5937 50.1744C52.5818 50.3502 52.613 50.5263 52.6846 50.6873L54.5742 54.9373L49.8191 59.6925L45.5685 57.8097C45.4083 57.7388 45.2333 57.7077 45.0584 57.7194C44.8836 57.731 44.7142 57.7849 44.5648 57.8764C42.3136 59.2556 39.8645 60.2786 37.2884 60.8889C37.1171 60.9294 36.9584 61.0112 36.8258 61.1269C36.6933 61.2427 36.591 61.3891 36.5278 61.5533L34.8593 65.8883H28.133L26.4647 61.5533C26.4015 61.3892 26.2993 61.243 26.167 61.1273C26.0346 61.0115 25.876 60.9298 25.7049 60.8891C23.138 60.2791 20.6818 59.2652 18.4397 57.8787C18.2901 57.7861 18.1201 57.7315 17.9445 57.7195C17.7689 57.7074 17.5931 57.7384 17.4322 57.8097L13.1817 59.6925L8.42568 54.9365L10.3084 50.6859C10.3794 50.5257 10.4104 50.3507 10.3988 50.1758C10.3872 50.001 10.3333 49.8316 10.2417 49.6822C8.86241 47.4309 7.83945 44.9817 7.229 42.4132C7.18833 42.2422 7.10659 42.0836 6.99084 41.9512C6.87509 41.8188 6.72883 41.7166 6.56471 41.6534L2.22989 39.985V36.0046H16.0971C16.0891 36.2081 16.0852 36.4124 16.0852 36.6178C16.0852 45.1304 22.9878 52.0329 31.5004 52.0329C40.0131 52.0329 46.9073 45.1305 46.9073 36.6178C46.9073 36.4124 46.9032 36.2081 46.8953 36.0046ZM18.2639 36.0046H44.7286C44.7379 36.2089 44.7426 36.4133 44.7425 36.6178C44.7425 43.9348 38.8173 49.8682 31.5004 49.8682C24.1831 49.8682 18.2499 43.935 18.2499 36.6178C18.2499 36.4123 18.2545 36.2078 18.2639 36.0046ZM36.9626 7.14179H26.038C25.7509 7.14179 25.4756 7.25583 25.2727 7.45881C25.0697 7.66179 24.9556 7.93709 24.9556 8.22415V14.4601C24.9556 14.7472 25.0697 15.0225 25.2727 15.2255C25.4756 15.4284 25.7509 15.5425 26.038 15.5425H36.9626C37.2497 15.5425 37.525 15.4284 37.7279 15.2255C37.9309 15.0225 38.0449 14.7472 38.0449 14.4601V8.22415C38.0449 7.93709 37.9309 7.66179 37.7279 7.45881C37.525 7.25583 37.2497 7.14179 36.9626 7.14179ZM35.8802 9.3065V13.3778H27.1203V9.3065H35.8802Z" fill="black"/>
</svg>
