<svg width="67" height="69" viewBox="0 0 67 69" fill="none" xmlns="http://www.w3.org/2000/svg">
<path d="M66.4903 49.2986C65.9122 48.1221 64.9041 47.2394 63.6481 46.8122C62.3908 46.3836 61.0498 46.4685 59.872 47.048L58.1645 47.8876C58.1025 47.7165 58.0311 47.5507 57.9516 47.389C57.3721 46.2071 56.364 45.3217 55.1107 44.8945C53.856 44.4673 52.5151 44.5522 51.3332 45.1357L44.2109 48.6396L23.6119 43.1196C20.3668 42.2531 17.2685 42.7032 14.4021 44.4619L10.5559 46.8243L10.068 45.1937C9.98933 44.9296 9.859 44.6838 9.68457 44.4705C9.51014 44.2572 9.29507 44.0806 9.05187 43.9511C8.55862 43.687 7.99396 43.629 7.46298 43.7894L1.49556 45.5791C0.963234 45.7354 0.522551 46.0912 0.255715 46.5804C-0.0138166 47.0736 -0.074461 47.641 0.0859101 48.1814L5.87679 67.5068C6.03716 68.0432 6.39833 68.4838 6.89157 68.7493C7.19414 68.9132 7.53264 68.9993 7.87671 69C8.07751 69 8.27966 68.9704 8.47642 68.9111L14.4519 67.1227C15.557 66.7912 16.1864 65.6228 15.8548 64.519L15.4182 63.0636L33.3528 67.8693C34.3986 68.1483 35.4349 68.2871 36.4592 68.2871C38.2165 68.2871 39.9375 67.8761 41.5991 67.0567L64.233 55.917C66.683 54.7148 67.6938 51.7446 66.4903 49.2986ZM52.2887 47.0709C52.9531 46.7435 53.7092 46.6963 54.4153 46.9375C55.1215 47.1788 55.6889 47.676 56.0163 48.3445C56.0972 48.5062 56.1605 48.6773 56.2077 48.8525L47.9884 52.8969C47.8603 51.7554 47.3347 50.7002 46.5221 49.9091L52.2887 47.0709ZM7.92792 66.8235L2.17612 47.6289L8.02226 45.8756L8.88072 48.7407C8.88476 48.7582 8.89015 48.7744 8.89554 48.7919L13.7714 65.0756L7.92792 66.8235ZM63.2843 53.9817L40.649 65.1214C38.4699 66.1955 36.2664 66.4125 33.9148 65.7845L14.6959 60.6338L11.2014 48.963L15.5354 46.3001C17.8763 44.8648 20.4072 44.4956 23.0581 45.2044L43.7998 50.7622C45.2243 51.1449 46.1003 52.5653 45.8065 54.0046C45.7876 54.072 45.7701 54.1394 45.7539 54.2068C45.7391 54.2688 45.7256 54.3227 45.7122 54.3618C45.2351 55.7364 43.7621 56.5194 42.3578 56.1447L29.9392 52.8133C29.3637 52.6583 28.7721 53.0006 28.6171 53.5761C28.4622 54.1515 28.8045 54.7431 29.3799 54.8981L41.8013 58.2295C42.2217 58.3414 42.6462 58.3953 43.064 58.3953C44.9736 58.3953 46.7647 57.2767 47.5746 55.5032L60.8275 48.9833C61.4878 48.6571 62.2439 48.6113 62.9541 48.8539C63.6629 49.0951 64.2303 49.5911 64.5551 50.2487C65.2316 51.6301 64.6629 53.3038 63.2843 53.9817ZM35.2665 44.35C35.4311 44.4461 35.6182 44.4968 35.8087 44.497C35.9993 44.4973 36.1865 44.447 36.3513 44.3514C40.3943 42.0011 43.688 39.4149 46.3873 36.473C47.991 37.7384 50.0125 38.4958 52.2079 38.4958C57.4017 38.4958 61.6266 34.2696 61.6266 29.073C61.6266 24.7591 58.7103 21.1164 54.7468 20.0046C55.5501 16.3269 55.9341 12.2354 55.8856 7.82045C55.8829 7.51992 55.7535 7.23422 55.5298 7.03207C55.3061 6.82992 55.0096 6.7302 54.7091 6.75715C47.0086 7.4485 40.7568 5.24373 36.6303 0.380039C36.4268 0.138809 36.1263 0 35.8096 0C35.4929 0 35.1924 0.138809 34.9862 0.381387C30.861 5.24508 24.6106 7.4485 16.9087 6.7585C16.7604 6.74537 16.611 6.763 16.4698 6.8103C16.3287 6.85759 16.1988 6.93353 16.0884 7.03335C15.9779 7.13317 15.8893 7.25472 15.828 7.3904C15.7667 7.52607 15.7341 7.67294 15.7322 7.8218C15.6284 16.9454 17.3103 24.3804 20.8722 30.5514C24.0445 36.0471 28.7533 40.5618 35.2665 44.35ZM32.2976 22.7956L24.3316 24.0314V23.4479L32.1359 19.6367L32.2976 22.7956ZM34.5455 31.1551C34.6469 31.0489 34.7256 30.9232 34.7768 30.7855C34.828 30.6479 34.8507 30.5013 34.8433 30.3546L34.5037 23.6797C34.5037 23.6648 34.5024 23.6514 34.501 23.6365L34.2086 17.9036C34.2086 17.8942 34.2072 17.8861 34.2072 17.8767L33.9485 12.796C33.9229 12.2906 34.0832 11.8634 34.4417 11.4888C34.7773 11.137 35.2746 10.9349 35.8055 10.9349H35.8069C36.3392 10.9349 36.8378 11.137 37.1748 11.4888C37.5359 11.8675 37.6923 12.2839 37.668 12.8014L37.4295 17.8847C37.4281 17.8982 37.4281 17.9104 37.4281 17.9238L36.8432 30.3587C36.8298 30.6484 36.9335 30.9328 37.1316 31.1457L38.4753 32.5877L36.2179 31.6618C35.9555 31.554 35.661 31.554 35.3985 31.6618L33.1992 32.5648L34.5455 31.1551ZM39.5075 19.6502L45.4319 22.5422C45.1106 22.8754 44.8142 23.2317 44.5451 23.6082L39.3593 22.8037L39.5075 19.6502ZM59.469 29.073C59.469 33.0782 56.2118 36.3369 52.2092 36.3369C48.2053 36.3369 44.9494 33.0782 44.9494 29.073C44.9494 25.0691 48.2067 21.8132 52.2092 21.8132C56.2118 21.8132 59.469 25.0691 59.469 29.073ZM27.9608 7.69512C31.0092 6.62777 33.6452 4.9459 35.8096 2.68992C37.9739 4.9459 40.6086 6.62777 43.6583 7.69512C46.6892 8.75572 50.0705 9.19102 53.7307 8.99291C53.7051 12.8539 53.3291 16.4333 52.6135 19.665C52.4801 19.6596 52.3453 19.6542 52.2106 19.6542C50.4074 19.6542 48.7228 20.1636 47.2903 21.0463L39.6208 17.3026L39.827 12.9038C39.8782 11.8041 39.5022 10.7988 38.738 9.99826C37.9941 9.22201 36.9281 8.77728 35.8109 8.77728H35.8069C34.6897 8.77863 33.625 9.22336 32.8838 9.99961C32.1157 10.8042 31.7383 11.8109 31.7963 12.9079L32.02 17.2918L22.7818 21.8037C22.6 21.8924 22.4469 22.0304 22.3399 22.202C22.2329 22.3736 22.1763 22.5718 22.1767 22.774V25.2915C22.1767 25.6068 22.3142 25.906 22.554 26.1108C22.7496 26.2785 22.9986 26.3707 23.2562 26.3709C23.3114 26.3709 23.3667 26.3669 23.4219 26.3588L32.4121 24.964L32.6682 30.0015L30.2006 32.5836C30.0089 32.7844 29.9018 33.0513 29.9015 33.3289V34.6429C29.9015 35.0027 30.0807 35.3382 30.3799 35.539C30.5269 35.6381 30.6961 35.6992 30.8724 35.7171C31.0487 35.7349 31.2267 35.709 31.3906 35.6415L35.8096 33.8262L40.2326 35.6401C40.5655 35.7776 40.9442 35.7385 41.2433 35.5377C41.5425 35.3369 41.7218 35.0013 41.7218 34.6415V33.3275C41.7218 33.054 41.618 32.7912 41.432 32.5917L39.0224 30.0056L39.2596 24.9694L43.4508 25.6203C43.0157 26.7189 42.7925 27.89 42.7931 29.0716C42.7931 31.2939 43.568 33.337 44.8577 34.9488C42.4158 37.6225 39.4442 39.993 35.8123 42.1628C23.5378 34.8261 17.9747 24.5381 17.8871 8.99291C21.546 9.19102 24.93 8.75572 27.9608 7.69512ZM50.685 30.4193L55.639 25.4424C56.0595 25.0206 56.7427 25.0179 57.1659 25.4384C57.5877 25.8588 57.5904 26.5421 57.1699 26.9653L51.4545 32.7063C51.3543 32.8072 51.235 32.8873 51.1036 32.9419C50.9722 32.9965 50.8313 33.0245 50.6891 33.0243C50.4141 33.0243 50.1392 32.9192 49.9276 32.7103L47.2539 30.0514C46.8307 29.6309 46.8294 28.9477 47.2498 28.5245C47.6703 28.1013 48.3536 28.1 48.7767 28.5205L50.685 30.4193Z" fill="black"/>
</svg>
