<svg width="51" height="52" viewBox="0 0 51 52" fill="none" xmlns="http://www.w3.org/2000/svg">
<path d="M9.62988 6.9021C9.71998 6.89786 9.81022 6.92041 9.88867 6.96753C9.99326 7.03047 10.0692 7.13325 10.0986 7.25171C10.1279 7.36995 10.1087 7.49496 10.0459 7.59937C9.98296 7.70395 9.88115 7.77987 9.7627 7.80933L6.66504 8.5769V8.57788C6.32316 8.66058 6.02179 8.86238 5.81543 9.14722C5.60911 9.43204 5.51111 9.781 5.53906 10.1316L7.16699 31.1082C7.17176 31.1713 7.16346 31.2349 7.14258 31.2947C7.12166 31.3545 7.08806 31.4093 7.04492 31.4558C7.00179 31.5023 6.94972 31.5399 6.8916 31.5652C6.83407 31.5902 6.77106 31.6034 6.70703 31.6033C6.59133 31.603 6.48031 31.5589 6.39551 31.4802C6.31072 31.4015 6.25787 31.2939 6.24902 31.1785L4.62109 10.2029L4.61426 9.98999C4.61879 9.49474 4.77684 9.01116 5.06934 8.60718C5.40342 8.14581 5.8908 7.81869 6.44434 7.68433L9.54004 6.91577L9.62988 6.9021ZM27.1143 4.49097H27.1152L31.9766 5.70386H31.9756C32.0846 5.73085 32.1804 5.79699 32.2441 5.8894C32.3079 5.98194 32.3359 6.09524 32.3223 6.20679C32.3086 6.31804 32.2547 6.42047 32.1709 6.49487C32.0867 6.56947 31.9774 6.61101 31.8652 6.61108H31.8643C31.8268 6.6109 31.7892 6.6056 31.7529 6.59644V6.59546L26.8945 5.38354C26.8349 5.37005 26.7783 5.34579 26.7285 5.3103C26.6786 5.27468 26.6367 5.22871 26.6045 5.17651C26.5724 5.12436 26.5504 5.06614 26.541 5.00562C26.5317 4.94515 26.535 4.88334 26.5498 4.82397C26.5646 4.76458 26.5912 4.70892 26.6279 4.65991C26.6647 4.61083 26.7107 4.56881 26.7637 4.53784C26.8164 4.50701 26.875 4.48727 26.9355 4.47925C26.9952 4.4714 27.0561 4.4755 27.1143 4.49097ZM25.2471 4.02515L25.7979 4.16187C25.9069 4.18888 26.0026 4.25493 26.0664 4.34741C26.1302 4.44001 26.1582 4.5532 26.1445 4.66479C26.1308 4.77636 26.0764 4.8794 25.9922 4.95386C25.9081 5.0281 25.7997 5.06809 25.6875 5.06812V5.06909L25.6865 5.06812L25.5752 5.05542L25.0244 4.91772C24.9658 4.9031 24.9099 4.87751 24.8613 4.84155C24.8129 4.80569 24.7723 4.76036 24.7412 4.70874C24.7101 4.65704 24.6896 4.59943 24.6807 4.53979C24.6717 4.48007 24.6739 4.41871 24.6885 4.36011C24.7031 4.30154 24.7297 4.24654 24.7656 4.198C24.8016 4.14942 24.8466 4.10804 24.8984 4.0769C24.9502 4.04579 25.0077 4.0253 25.0674 4.01636C25.1272 4.00742 25.1884 4.01052 25.2471 4.02515Z" fill="black" stroke="black" stroke-width="0.2"/>
<path d="M18.6904 4.65405C19.0234 4.57513 19.3686 4.56596 19.7041 4.62769L19.8477 4.65894L31.5127 7.56909C31.7459 7.62743 31.993 7.62747 32.2256 7.56909L43.5166 4.77905C43.8552 4.69506 44.2083 4.68551 44.5508 4.75171C44.8932 4.81794 45.2172 4.95781 45.5 5.16187C45.7831 5.36551 46.0182 5.62863 46.1895 5.93237C46.3608 6.23636 46.4646 6.57475 46.4922 6.92261L48.7061 35.5447C48.7513 36.1128 48.5921 36.6787 48.2578 37.1404C47.9652 37.5444 47.5551 37.8458 47.0859 38.0046L46.8818 38.0632L34.6416 41.0876L34.6426 41.0886C34.4534 41.1355 34.2587 41.1602 34.0635 41.1599C33.868 41.16 33.6731 41.136 33.4834 41.0886L22.0967 38.2498V38.2507C22.0365 38.2376 21.979 38.213 21.9287 38.1775C21.8786 38.1421 21.8362 38.0968 21.8037 38.0447C21.7712 37.9924 21.7488 37.9336 21.7393 37.8728C21.7297 37.812 21.7332 37.7499 21.748 37.6902C21.7629 37.6305 21.7893 37.5743 21.8262 37.5251C21.8631 37.4759 21.9097 37.434 21.9629 37.4031C22.016 37.3722 22.0748 37.3523 22.1357 37.3445C22.1955 37.3369 22.2563 37.3414 22.3145 37.3572H22.3154L33.7061 40.1951C33.9399 40.2535 34.1867 40.2535 34.4199 40.1951L46.6621 37.1697L46.7891 37.1335C47.0783 37.0354 47.3313 36.8495 47.5117 36.6003C47.7179 36.3156 47.8159 35.9664 47.7881 35.616V35.615L45.5742 6.99487C45.5573 6.78017 45.4933 6.57122 45.3877 6.38354C45.2821 6.19604 45.1366 6.03374 44.9619 5.90796C44.7872 5.78219 44.5873 5.69575 44.376 5.65503C44.1645 5.61429 43.9463 5.61968 43.7373 5.67163V5.67261L32.4473 8.46265C32.0671 8.55724 31.6693 8.5573 31.2891 8.46265L19.624 5.55249V5.55151C19.388 5.49343 19.1409 5.49176 18.9043 5.54761L18.9053 5.54858L15.8369 6.3064H15.835C15.7173 6.33362 15.5932 6.31389 15.4902 6.25073C15.3873 6.18751 15.3132 6.08581 15.2842 5.96851C15.2552 5.85118 15.2742 5.72672 15.3359 5.6228C15.3977 5.5191 15.4975 5.44352 15.6143 5.41284H15.6162L18.6895 4.65405H18.6904Z" fill="black" stroke="black" stroke-width="0.2"/>
<path d="M38.4004 8.15698C38.497 8.13337 38.5989 8.14137 38.6904 8.18042C38.7819 8.21951 38.8584 8.28761 38.9082 8.37378C38.958 8.45995 38.9787 8.56015 38.9668 8.65894C38.9549 8.75777 38.9106 8.85067 38.8418 8.92261L36.0176 11.866L45.292 19.8074V19.8083C45.3836 19.8878 45.4414 20.0004 45.4512 20.1218L45.7207 23.5984C45.7277 23.689 45.7075 23.7799 45.6631 23.8591C45.6185 23.9385 45.5508 24.0034 45.4697 24.0447C45.3888 24.0857 45.2972 24.1013 45.207 24.0906C45.1169 24.0798 45.0319 24.043 44.9629 23.9841L33.666 14.3113L21.6445 26.8308L34.3672 38.2576C34.4551 38.3365 34.5095 38.4465 34.5186 38.5642L34.5146 38.6736C34.5016 38.7671 34.4633 38.8621 34.3994 38.9343L34.3584 38.9744C34.2866 39.0354 34.1919 39.0839 34.0879 39.0964L34.082 39.1033H34.041L33.9512 39.0925L28.9014 37.8308C28.8285 37.8126 28.7609 37.7765 28.7051 37.7263L7.46484 18.6404V18.6414C7.37678 18.5624 7.32268 18.4517 7.31348 18.3337L7.03809 14.7712C7.03098 14.6796 7.05125 14.5874 7.09668 14.5076C7.14225 14.4276 7.21138 14.3626 7.29395 14.322C7.37644 14.2815 7.46951 14.2664 7.56055 14.2791C7.6515 14.2917 7.73644 14.3319 7.80469 14.3933L19.1279 24.5671L33.6982 9.39429H33.6992C33.7593 9.33191 33.8358 9.28727 33.9199 9.26636L38.4004 8.15698ZM34.2705 10.1267L19.4854 25.5271C19.4025 25.6132 19.2893 25.6635 19.1699 25.6677C19.0506 25.672 18.9344 25.6295 18.8457 25.5496L8.04395 15.8464L8.2168 18.0789L29.2363 36.9656L32.4424 37.7664L20.6768 27.197C20.6309 27.1559 20.5936 27.1063 20.5674 27.0505C20.5412 26.9947 20.5267 26.9335 20.5244 26.8718C20.5222 26.8103 20.5318 26.7487 20.5537 26.6912C20.5757 26.6335 20.6096 26.5813 20.6523 26.5369L33.3047 13.3601C33.3861 13.2755 33.497 13.2252 33.6143 13.2195C33.7316 13.2139 33.8464 13.2534 33.9355 13.3298L44.7168 22.5613L44.5488 20.3826L35.0498 12.2488C35.0022 12.208 34.9631 12.1576 34.9355 12.1013C34.9081 12.0452 34.8927 11.984 34.8896 11.9216C34.8866 11.859 34.896 11.7958 34.918 11.7371C34.94 11.6785 34.9742 11.6249 35.0176 11.5798L37.0781 9.43237L34.2705 10.1267Z" fill="black" stroke="black" stroke-width="0.2"/>
<mask id="path-4-outside-1_447_3159" maskUnits="userSpaceOnUse" x="5.78027" y="5.74268" width="41" height="34" fill="black">
<rect fill="white" x="5.78027" y="5.74268" width="41" height="34"/>
<path d="M34.0636 39.006C33.9745 39.006 33.8887 38.973 33.8225 38.9133L20.7433 27.123C20.7073 27.0907 20.6783 27.0515 20.6578 27.0078C20.6373 26.9641 20.6259 26.9167 20.6241 26.8684C20.6223 26.8202 20.6302 26.7721 20.6474 26.7269C20.6646 26.6818 20.6906 26.6406 20.7241 26.6058L33.3817 13.429C33.4454 13.3627 33.5321 13.3232 33.624 13.3187C33.7159 13.3143 33.806 13.3451 33.8758 13.405L45.4962 23.3556C45.5321 23.3864 45.5617 23.424 45.5831 23.4662C45.6045 23.5083 45.6174 23.5543 45.6211 23.6015L46.5508 35.6152C46.5574 35.7001 46.5336 35.7847 46.4838 35.8538C46.4339 35.9229 46.3612 35.9721 46.2785 35.9926L34.15 38.9954C34.1218 39.0024 34.0927 39.006 34.0636 39.006ZM21.501 26.8368L34.1635 38.2501L45.8093 35.3669L44.9151 23.8061L33.666 14.1729L21.501 26.8368ZM19.1557 25.568C19.0669 25.5679 18.9814 25.5349 18.9155 25.4753L7.25532 15.0017C7.18647 14.9399 7.14401 14.8539 7.13671 14.7616L6.78135 10.1275C6.77477 10.0425 6.79857 9.95788 6.84852 9.88876C6.89847 9.81965 6.97132 9.77049 7.05411 9.75005L9.4216 9.16418C9.46776 9.15206 9.51588 9.14924 9.56315 9.15588C9.61042 9.16252 9.6559 9.17849 9.69694 9.20286C9.73798 9.22723 9.77377 9.25951 9.80223 9.29783C9.83068 9.33616 9.85124 9.37976 9.86269 9.42609C9.87415 9.47243 9.87628 9.52058 9.86896 9.56775C9.86165 9.61492 9.84503 9.66016 9.82007 9.70085C9.79511 9.74154 9.76232 9.77686 9.72359 9.80477C9.68486 9.83267 9.64097 9.85259 9.59448 9.86338L7.52281 10.3763L7.84359 14.5623L19.1374 24.707L20.2467 23.552C20.259 23.5328 20.2732 23.5148 20.289 23.4983L32.9053 10.3595L31.954 10.5981C31.8966 10.6124 31.8366 10.6124 31.7792 10.5981L19.2603 7.47429L16.9654 8.04335C16.8732 8.06474 16.7763 8.049 16.6956 7.99952C16.615 7.95005 16.557 7.87082 16.5343 7.77896C16.5116 7.6871 16.526 7.58999 16.5743 7.50863C16.6226 7.42726 16.701 7.36818 16.7925 7.34415L19.1744 6.75348C19.2315 6.73907 19.2911 6.73907 19.3477 6.75348L31.8661 9.87731L33.945 9.35675C34.0207 9.33818 34.1004 9.34465 34.1721 9.37519C34.2439 9.40572 34.3038 9.45868 34.3429 9.52613C34.382 9.59357 34.3982 9.67187 34.389 9.7493C34.3799 9.82672 34.3459 9.8991 34.2922 9.95559L20.8552 23.9482C20.8429 23.9675 20.8287 23.9855 20.8129 24.002L19.4155 25.4571C19.3819 25.492 19.3416 25.5198 19.2971 25.5388C19.2525 25.5578 19.2046 25.5676 19.1561 25.5675L19.1557 25.568ZM29.0146 37.7464C28.9851 37.7463 28.9557 37.7426 28.9272 37.7353L21.5654 35.8961C21.5186 35.8856 21.4743 35.8658 21.4352 35.8379C21.3962 35.81 21.3631 35.7746 21.3379 35.7337C21.3127 35.6929 21.2959 35.6474 21.2886 35.6C21.2812 35.5525 21.2834 35.5041 21.295 35.4575C21.3066 35.411 21.3274 35.3672 21.3562 35.3288C21.385 35.2904 21.4212 35.2581 21.4626 35.2338C21.504 35.2096 21.5499 35.1939 21.5975 35.1876C21.6451 35.1814 21.6934 35.1847 21.7397 35.1974L27.6959 36.6851L8.2028 19.1667L9.03646 29.9827C9.04149 30.0306 9.03687 30.079 9.02287 30.125C9.00887 30.1711 8.98578 30.2139 8.95497 30.2509C8.92415 30.2878 8.88623 30.3183 8.84345 30.3404C8.80066 30.3624 8.75389 30.3757 8.70589 30.3794C8.65789 30.3831 8.60963 30.3771 8.56398 30.3618C8.51832 30.3466 8.4762 30.3223 8.44008 30.2905C8.40397 30.2586 8.37461 30.2199 8.35373 30.1765C8.33285 30.1331 8.32088 30.086 8.31853 30.0379L7.41572 18.3253C7.41004 18.2535 7.42605 18.1816 7.46168 18.1189C7.4973 18.0563 7.55091 18.0058 7.61556 17.9739C7.68021 17.942 7.75293 17.9303 7.82431 17.9402C7.8957 17.9501 7.96247 17.9812 8.01599 18.0295L29.2561 37.1183C29.3104 37.167 29.3485 37.231 29.3656 37.3019C29.3827 37.3728 29.3778 37.4472 29.3517 37.5153C29.3256 37.5833 29.2794 37.6419 29.2193 37.6831C29.1592 37.7244 29.0875 37.7465 29.0146 37.7464ZM44.9929 20.5185C44.907 20.5186 44.8239 20.4879 44.7586 20.4321L35.1134 12.1723C35.0759 12.1405 35.0454 12.1013 35.0238 12.0572C35.0021 12.0132 34.9896 11.9651 34.9873 11.9161C34.9849 11.867 34.9926 11.818 35.0099 11.772C35.0272 11.7261 35.0537 11.6841 35.0879 11.6488L38.2506 8.35453C38.2977 8.30557 38.3576 8.27094 38.4235 8.25465L43.9076 6.89899C43.9584 6.88642 44.0113 6.88506 44.0627 6.895C44.114 6.90495 44.1626 6.92596 44.205 6.95658C44.2474 6.98721 44.2827 7.0267 44.3083 7.07232C44.3339 7.11793 44.3492 7.16858 44.3533 7.22073L45.3521 20.1305C45.356 20.18 45.3495 20.2298 45.3332 20.2767C45.3169 20.3236 45.2911 20.3666 45.2573 20.403C45.2236 20.4394 45.1827 20.4685 45.1372 20.4884C45.0917 20.5083 45.0426 20.5185 44.9929 20.5185ZM35.8716 11.8731L44.567 19.3194L43.668 7.70047L38.6977 8.92888L35.8716 11.8731Z"/>
</mask>
<path d="M34.0636 39.006C33.9745 39.006 33.8887 38.973 33.8225 38.9133L20.7433 27.123C20.7073 27.0907 20.6783 27.0515 20.6578 27.0078C20.6373 26.9641 20.6259 26.9167 20.6241 26.8684C20.6223 26.8202 20.6302 26.7721 20.6474 26.7269C20.6646 26.6818 20.6906 26.6406 20.7241 26.6058L33.3817 13.429C33.4454 13.3627 33.5321 13.3232 33.624 13.3187C33.7159 13.3143 33.806 13.3451 33.8758 13.405L45.4962 23.3556C45.5321 23.3864 45.5617 23.424 45.5831 23.4662C45.6045 23.5083 45.6174 23.5543 45.6211 23.6015L46.5508 35.6152C46.5574 35.7001 46.5336 35.7847 46.4838 35.8538C46.4339 35.9229 46.3612 35.9721 46.2785 35.9926L34.15 38.9954C34.1218 39.0024 34.0927 39.006 34.0636 39.006ZM21.501 26.8368L34.1635 38.2501L45.8093 35.3669L44.9151 23.8061L33.666 14.1729L21.501 26.8368ZM19.1557 25.568C19.0669 25.5679 18.9814 25.5349 18.9155 25.4753L7.25532 15.0017C7.18647 14.9399 7.14401 14.8539 7.13671 14.7616L6.78135 10.1275C6.77477 10.0425 6.79857 9.95788 6.84852 9.88876C6.89847 9.81965 6.97132 9.77049 7.05411 9.75005L9.4216 9.16418C9.46776 9.15206 9.51588 9.14924 9.56315 9.15588C9.61042 9.16252 9.6559 9.17849 9.69694 9.20286C9.73798 9.22723 9.77377 9.25951 9.80223 9.29783C9.83068 9.33616 9.85124 9.37976 9.86269 9.42609C9.87415 9.47243 9.87628 9.52058 9.86896 9.56775C9.86165 9.61492 9.84503 9.66016 9.82007 9.70085C9.79511 9.74154 9.76232 9.77686 9.72359 9.80477C9.68486 9.83267 9.64097 9.85259 9.59448 9.86338L7.52281 10.3763L7.84359 14.5623L19.1374 24.707L20.2467 23.552C20.259 23.5328 20.2732 23.5148 20.289 23.4983L32.9053 10.3595L31.954 10.5981C31.8966 10.6124 31.8366 10.6124 31.7792 10.5981L19.2603 7.47429L16.9654 8.04335C16.8732 8.06474 16.7763 8.049 16.6956 7.99952C16.615 7.95005 16.557 7.87082 16.5343 7.77896C16.5116 7.6871 16.526 7.58999 16.5743 7.50863C16.6226 7.42726 16.701 7.36818 16.7925 7.34415L19.1744 6.75348C19.2315 6.73907 19.2911 6.73907 19.3477 6.75348L31.8661 9.87731L33.945 9.35675C34.0207 9.33818 34.1004 9.34465 34.1721 9.37519C34.2439 9.40572 34.3038 9.45868 34.3429 9.52613C34.382 9.59357 34.3982 9.67187 34.389 9.7493C34.3799 9.82672 34.3459 9.8991 34.2922 9.95559L20.8552 23.9482C20.8429 23.9675 20.8287 23.9855 20.8129 24.002L19.4155 25.4571C19.3819 25.492 19.3416 25.5198 19.2971 25.5388C19.2525 25.5578 19.2046 25.5676 19.1561 25.5675L19.1557 25.568ZM29.0146 37.7464C28.9851 37.7463 28.9557 37.7426 28.9272 37.7353L21.5654 35.8961C21.5186 35.8856 21.4743 35.8658 21.4352 35.8379C21.3962 35.81 21.3631 35.7746 21.3379 35.7337C21.3127 35.6929 21.2959 35.6474 21.2886 35.6C21.2812 35.5525 21.2834 35.5041 21.295 35.4575C21.3066 35.411 21.3274 35.3672 21.3562 35.3288C21.385 35.2904 21.4212 35.2581 21.4626 35.2338C21.504 35.2096 21.5499 35.1939 21.5975 35.1876C21.6451 35.1814 21.6934 35.1847 21.7397 35.1974L27.6959 36.6851L8.2028 19.1667L9.03646 29.9827C9.04149 30.0306 9.03687 30.079 9.02287 30.125C9.00887 30.1711 8.98578 30.2139 8.95497 30.2509C8.92415 30.2878 8.88623 30.3183 8.84345 30.3404C8.80066 30.3624 8.75389 30.3757 8.70589 30.3794C8.65789 30.3831 8.60963 30.3771 8.56398 30.3618C8.51832 30.3466 8.4762 30.3223 8.44008 30.2905C8.40397 30.2586 8.37461 30.2199 8.35373 30.1765C8.33285 30.1331 8.32088 30.086 8.31853 30.0379L7.41572 18.3253C7.41004 18.2535 7.42605 18.1816 7.46168 18.1189C7.4973 18.0563 7.55091 18.0058 7.61556 17.9739C7.68021 17.942 7.75293 17.9303 7.82431 17.9402C7.8957 17.9501 7.96247 17.9812 8.01599 18.0295L29.2561 37.1183C29.3104 37.167 29.3485 37.231 29.3656 37.3019C29.3827 37.3728 29.3778 37.4472 29.3517 37.5153C29.3256 37.5833 29.2794 37.6419 29.2193 37.6831C29.1592 37.7244 29.0875 37.7465 29.0146 37.7464ZM44.9929 20.5185C44.907 20.5186 44.8239 20.4879 44.7586 20.4321L35.1134 12.1723C35.0759 12.1405 35.0454 12.1013 35.0238 12.0572C35.0021 12.0132 34.9896 11.9651 34.9873 11.9161C34.9849 11.867 34.9926 11.818 35.0099 11.772C35.0272 11.7261 35.0537 11.6841 35.0879 11.6488L38.2506 8.35453C38.2977 8.30557 38.3576 8.27094 38.4235 8.25465L43.9076 6.89899C43.9584 6.88642 44.0113 6.88506 44.0627 6.895C44.114 6.90495 44.1626 6.92596 44.205 6.95658C44.2474 6.98721 44.2827 7.0267 44.3083 7.07232C44.3339 7.11793 44.3492 7.16858 44.3533 7.22073L45.3521 20.1305C45.356 20.18 45.3495 20.2298 45.3332 20.2767C45.3169 20.3236 45.2911 20.3666 45.2573 20.403C45.2236 20.4394 45.1827 20.4685 45.1372 20.4884C45.0917 20.5083 45.0426 20.5185 44.9929 20.5185ZM35.8716 11.8731L44.567 19.3194L43.668 7.70047L38.6977 8.92888L35.8716 11.8731Z" fill="black"/>
<path d="M34.0636 39.006C33.9745 39.006 33.8887 38.973 33.8225 38.9133L20.7433 27.123C20.7073 27.0907 20.6783 27.0515 20.6578 27.0078C20.6373 26.9641 20.6259 26.9167 20.6241 26.8684C20.6223 26.8202 20.6302 26.7721 20.6474 26.7269C20.6646 26.6818 20.6906 26.6406 20.7241 26.6058L33.3817 13.429C33.4454 13.3627 33.5321 13.3232 33.624 13.3187C33.7159 13.3143 33.806 13.3451 33.8758 13.405L45.4962 23.3556C45.5321 23.3864 45.5617 23.424 45.5831 23.4662C45.6045 23.5083 45.6174 23.5543 45.6211 23.6015L46.5508 35.6152C46.5574 35.7001 46.5336 35.7847 46.4838 35.8538C46.4339 35.9229 46.3612 35.9721 46.2785 35.9926L34.15 38.9954C34.1218 39.0024 34.0927 39.006 34.0636 39.006ZM21.501 26.8368L34.1635 38.2501L45.8093 35.3669L44.9151 23.8061L33.666 14.1729L21.501 26.8368ZM19.1557 25.568C19.0669 25.5679 18.9814 25.5349 18.9155 25.4753L7.25532 15.0017C7.18647 14.9399 7.14401 14.8539 7.13671 14.7616L6.78135 10.1275C6.77477 10.0425 6.79857 9.95788 6.84852 9.88876C6.89847 9.81965 6.97132 9.77049 7.05411 9.75005L9.4216 9.16418C9.46776 9.15206 9.51588 9.14924 9.56315 9.15588C9.61042 9.16252 9.6559 9.17849 9.69694 9.20286C9.73798 9.22723 9.77377 9.25951 9.80223 9.29783C9.83068 9.33616 9.85124 9.37976 9.86269 9.42609C9.87415 9.47243 9.87628 9.52058 9.86896 9.56775C9.86165 9.61492 9.84503 9.66016 9.82007 9.70085C9.79511 9.74154 9.76232 9.77686 9.72359 9.80477C9.68486 9.83267 9.64097 9.85259 9.59448 9.86338L7.52281 10.3763L7.84359 14.5623L19.1374 24.707L20.2467 23.552C20.259 23.5328 20.2732 23.5148 20.289 23.4983L32.9053 10.3595L31.954 10.5981C31.8966 10.6124 31.8366 10.6124 31.7792 10.5981L19.2603 7.47429L16.9654 8.04335C16.8732 8.06474 16.7763 8.049 16.6956 7.99952C16.615 7.95005 16.557 7.87082 16.5343 7.77896C16.5116 7.6871 16.526 7.58999 16.5743 7.50863C16.6226 7.42726 16.701 7.36818 16.7925 7.34415L19.1744 6.75348C19.2315 6.73907 19.2911 6.73907 19.3477 6.75348L31.8661 9.87731L33.945 9.35675C34.0207 9.33818 34.1004 9.34465 34.1721 9.37519C34.2439 9.40572 34.3038 9.45868 34.3429 9.52613C34.382 9.59357 34.3982 9.67187 34.389 9.7493C34.3799 9.82672 34.3459 9.8991 34.2922 9.95559L20.8552 23.9482C20.8429 23.9675 20.8287 23.9855 20.8129 24.002L19.4155 25.4571C19.3819 25.492 19.3416 25.5198 19.2971 25.5388C19.2525 25.5578 19.2046 25.5676 19.1561 25.5675L19.1557 25.568ZM29.0146 37.7464C28.9851 37.7463 28.9557 37.7426 28.9272 37.7353L21.5654 35.8961C21.5186 35.8856 21.4743 35.8658 21.4352 35.8379C21.3962 35.81 21.3631 35.7746 21.3379 35.7337C21.3127 35.6929 21.2959 35.6474 21.2886 35.6C21.2812 35.5525 21.2834 35.5041 21.295 35.4575C21.3066 35.411 21.3274 35.3672 21.3562 35.3288C21.385 35.2904 21.4212 35.2581 21.4626 35.2338C21.504 35.2096 21.5499 35.1939 21.5975 35.1876C21.6451 35.1814 21.6934 35.1847 21.7397 35.1974L27.6959 36.6851L8.2028 19.1667L9.03646 29.9827C9.04149 30.0306 9.03687 30.079 9.02287 30.125C9.00887 30.1711 8.98578 30.2139 8.95497 30.2509C8.92415 30.2878 8.88623 30.3183 8.84345 30.3404C8.80066 30.3624 8.75389 30.3757 8.70589 30.3794C8.65789 30.3831 8.60963 30.3771 8.56398 30.3618C8.51832 30.3466 8.4762 30.3223 8.44008 30.2905C8.40397 30.2586 8.37461 30.2199 8.35373 30.1765C8.33285 30.1331 8.32088 30.086 8.31853 30.0379L7.41572 18.3253C7.41004 18.2535 7.42605 18.1816 7.46168 18.1189C7.4973 18.0563 7.55091 18.0058 7.61556 17.9739C7.68021 17.942 7.75293 17.9303 7.82431 17.9402C7.8957 17.9501 7.96247 17.9812 8.01599 18.0295L29.2561 37.1183C29.3104 37.167 29.3485 37.231 29.3656 37.3019C29.3827 37.3728 29.3778 37.4472 29.3517 37.5153C29.3256 37.5833 29.2794 37.6419 29.2193 37.6831C29.1592 37.7244 29.0875 37.7465 29.0146 37.7464ZM44.9929 20.5185C44.907 20.5186 44.8239 20.4879 44.7586 20.4321L35.1134 12.1723C35.0759 12.1405 35.0454 12.1013 35.0238 12.0572C35.0021 12.0132 34.9896 11.9651 34.9873 11.9161C34.9849 11.867 34.9926 11.818 35.0099 11.772C35.0272 11.7261 35.0537 11.6841 35.0879 11.6488L38.2506 8.35453C38.2977 8.30557 38.3576 8.27094 38.4235 8.25465L43.9076 6.89899C43.9584 6.88642 44.0113 6.88506 44.0627 6.895C44.114 6.90495 44.1626 6.92596 44.205 6.95658C44.2474 6.98721 44.2827 7.0267 44.3083 7.07232C44.3339 7.11793 44.3492 7.16858 44.3533 7.22073L45.3521 20.1305C45.356 20.18 45.3495 20.2298 45.3332 20.2767C45.3169 20.3236 45.2911 20.3666 45.2573 20.403C45.2236 20.4394 45.1827 20.4685 45.1372 20.4884C45.0917 20.5083 45.0426 20.5185 44.9929 20.5185ZM35.8716 11.8731L44.567 19.3194L43.668 7.70047L38.6977 8.92888L35.8716 11.8731Z" stroke="black" stroke-width="0.4" mask="url(#path-4-outside-1_447_3159)"/>
<mask id="path-5-outside-2_447_3159" maskUnits="userSpaceOnUse" x="12.373" y="14.1328" width="28" height="20" fill="black">
<rect fill="white" x="12.373" y="14.1328" width="28" height="20"/>
<path d="M14.4509 15.893C14.4403 15.893 14.4297 15.8925 14.4192 15.8916C13.9918 15.8546 13.7402 15.8531 13.7325 15.8531C13.637 15.853 13.5454 15.8148 13.478 15.7471C13.4106 15.6795 13.3729 15.5878 13.373 15.4923C13.3732 15.3967 13.4114 15.3052 13.479 15.2378C13.5467 15.1704 13.6384 15.1326 13.7339 15.1328C13.7339 15.1328 14.0086 15.1328 14.4816 15.1741C14.5739 15.1824 14.6594 15.2259 14.7204 15.2955C14.7814 15.3652 14.8133 15.4557 14.8093 15.5482C14.8054 15.6408 14.7659 15.7282 14.6992 15.7924C14.6324 15.8566 14.5435 15.8926 14.4509 15.893ZM34.72 33.8676H34.7037C34.1956 33.8455 33.69 33.7852 33.191 33.6871C33.0973 33.6685 33.0147 33.6134 32.9616 33.534C32.9085 33.4545 32.8891 33.3573 32.9077 33.2635C32.9263 33.1698 32.9813 33.0873 33.0608 33.0341C33.1402 32.981 33.2375 32.9616 33.3312 32.9802C33.7773 33.0695 34.2499 33.1257 34.7363 33.1478C34.8319 33.1499 34.9226 33.1898 34.9887 33.2589C35.0548 33.3279 35.0907 33.4203 35.0886 33.5159C35.0865 33.6114 35.0465 33.7022 34.9775 33.7682C34.9085 33.8343 34.816 33.8702 34.7205 33.8681L34.72 33.8676ZM36.1895 33.8407C36.0961 33.8412 36.0062 33.8053 35.9388 33.7407C35.8713 33.6761 35.8316 33.5878 35.828 33.4945C35.8244 33.4012 35.8571 33.3101 35.9194 33.2405C35.9816 33.1709 36.0685 33.1282 36.1616 33.1214C36.6251 33.0854 37.1029 33.0215 37.5807 32.9326C37.6746 32.9152 37.7716 32.9358 37.8504 32.9899C37.9291 33.0439 37.9832 33.1271 38.0006 33.221C38.0181 33.3149 37.9975 33.412 37.9434 33.4907C37.8893 33.5695 37.8062 33.6235 37.7123 33.641C37.2179 33.7334 36.7191 33.7997 36.2178 33.8398C36.2082 33.8404 36.1991 33.8408 36.1895 33.8407ZM31.8517 33.2803C31.8061 33.2803 31.761 33.2717 31.7186 33.2549C31.2346 33.0623 30.7745 32.8222 30.3515 32.5408C30.3109 32.5151 30.2759 32.4816 30.2485 32.4423C30.2211 32.4029 30.2019 32.3584 30.1919 32.3115C30.1819 32.2646 30.1813 32.2162 30.1903 32.1691C30.1993 32.1219 30.2176 32.0771 30.2442 32.0371C30.2707 31.9972 30.305 31.9629 30.3449 31.9364C30.3849 31.9099 30.4297 31.8916 30.4769 31.8826C30.524 31.8737 30.5724 31.8742 30.6193 31.8843C30.6663 31.8943 30.7107 31.9136 30.75 31.941C31.1318 32.1945 31.5472 32.4116 31.9847 32.5854C32.0625 32.6164 32.1272 32.6735 32.1675 32.7469C32.2078 32.8204 32.2212 32.9056 32.2054 32.9879C32.1897 33.0702 32.1457 33.1444 32.0812 33.1978C32.0166 33.2511 31.9354 33.2803 31.8517 33.2803ZM29.4237 31.6634C29.3755 31.6635 29.3278 31.6539 29.2834 31.6352C29.239 31.6164 29.1989 31.589 29.1653 31.5544C28.8085 31.1851 28.4884 30.7819 28.2097 30.3505C28.1839 30.3108 28.1662 30.2665 28.1576 30.22C28.149 30.1735 28.1496 30.1257 28.1594 30.0795C28.1693 30.0332 28.1881 29.9893 28.2149 29.9503C28.2417 29.9114 28.2759 29.878 28.3156 29.8523C28.3552 29.8265 28.3996 29.8088 28.4461 29.8002C28.4926 29.7916 28.5403 29.7922 28.5866 29.802C28.6329 29.8119 28.6768 29.8307 28.7157 29.8575C28.7547 29.8843 28.788 29.9185 28.8138 29.9582C29.0731 30.3587 29.366 30.7265 29.682 31.0526C29.7313 31.1034 29.7644 31.1675 29.7774 31.2371C29.7904 31.3066 29.7827 31.3784 29.7551 31.4436C29.7276 31.5087 29.6815 31.5643 29.6225 31.6034C29.5636 31.6425 29.4944 31.6634 29.4237 31.6634ZM27.8197 29.221C27.7496 29.2211 27.681 29.2007 27.6223 29.1623C27.5636 29.1239 27.5174 29.0692 27.4893 29.0049C27.2879 28.5413 27.1167 28.065 26.977 27.5791C26.9623 27.5333 26.9569 27.485 26.9613 27.4371C26.9656 27.3891 26.9794 27.3426 27.0021 27.3001C27.0247 27.2576 27.0556 27.2201 27.0929 27.1898C27.1303 27.1594 27.1734 27.1369 27.2196 27.1235C27.2658 27.11 27.3142 27.106 27.362 27.1116C27.4098 27.1173 27.456 27.1324 27.4978 27.1562C27.5397 27.1799 27.5764 27.2118 27.6057 27.25C27.635 27.2882 27.6563 27.3319 27.6685 27.3784C27.8053 27.8505 27.9672 28.3004 28.1492 28.7163C28.1731 28.7711 28.183 28.8309 28.178 28.8905C28.173 28.95 28.1533 29.0073 28.1206 29.0574C28.0879 29.1074 28.0433 29.1485 27.9908 29.177C27.9383 29.2055 27.8795 29.2209 27.8197 29.221ZM26.987 26.4089C26.904 26.4087 26.8236 26.3799 26.7594 26.3274C26.6951 26.2748 26.651 26.2016 26.6346 26.1202C26.5398 25.6517 26.4222 25.188 26.2821 24.731C26.2682 24.6857 26.2633 24.6382 26.2678 24.5911C26.2722 24.544 26.2859 24.4983 26.308 24.4565C26.3302 24.4147 26.3603 24.3776 26.3968 24.3475C26.4333 24.3173 26.4753 24.2947 26.5205 24.2808C26.5657 24.2669 26.6132 24.262 26.6603 24.2664C26.7074 24.2709 26.7532 24.2846 26.795 24.3067C26.8368 24.3289 26.8738 24.359 26.904 24.3955C26.9341 24.4319 26.9568 24.474 26.9707 24.5192C27.1148 24.9874 27.2392 25.4782 27.3405 25.9771C27.3512 26.0295 27.3501 26.0836 27.3373 26.1355C27.3244 26.1874 27.3002 26.2358 27.2664 26.2772C27.2326 26.3186 27.1899 26.3519 27.1416 26.3747C27.0933 26.3976 27.0405 26.4089 26.987 26.4089ZM26.1198 23.6068C26.0495 23.6067 25.9807 23.5861 25.922 23.5474C25.8633 23.5088 25.8172 23.4538 25.7894 23.3892C25.6011 22.9524 25.387 22.5271 25.1483 22.1157C25.1229 22.0748 25.1059 22.0292 25.0984 21.9816C25.091 21.934 25.0931 21.8854 25.1048 21.8386C25.1164 21.7919 25.1373 21.748 25.1662 21.7094C25.1951 21.6709 25.2315 21.6386 25.2731 21.6144C25.3148 21.5901 25.3608 21.5745 25.4086 21.5684C25.4564 21.5623 25.5049 21.5659 25.5513 21.5788C25.5977 21.5918 25.641 21.614 25.6787 21.644C25.7164 21.674 25.7476 21.7113 25.7706 21.7536C26.0204 22.1829 26.2489 22.6372 26.4502 23.1035C26.4739 23.1583 26.4836 23.2181 26.4785 23.2776C26.4733 23.3371 26.4535 23.3944 26.4207 23.4443C26.388 23.4942 26.3433 23.5352 26.2908 23.5635C26.2382 23.5919 26.1795 23.6068 26.1198 23.6068ZM24.645 21.0731C24.5895 21.0733 24.5348 21.0605 24.485 21.036C24.4353 21.0114 24.3919 20.9756 24.3583 20.9315C24.0702 20.5538 23.7587 20.1945 23.4257 19.8558C23.3917 19.8223 23.3647 19.7823 23.3463 19.7382C23.3278 19.6942 23.3183 19.6469 23.3183 19.5991C23.3184 19.5513 23.3279 19.5041 23.3463 19.46C23.3648 19.416 23.3918 19.376 23.4259 19.3425C23.4599 19.309 23.5003 19.2826 23.5446 19.2649C23.589 19.2471 23.6364 19.2383 23.6842 19.2391C23.7319 19.2399 23.7791 19.2501 23.8228 19.2692C23.8666 19.2884 23.9061 19.316 23.9391 19.3506C24.292 19.7093 24.6258 20.0944 24.9307 20.4945C24.9714 20.5478 24.9964 20.6114 25.0029 20.6782C25.0094 20.745 24.9971 20.8123 24.9674 20.8724C24.9377 20.9326 24.8917 20.9833 24.8348 21.0187C24.7778 21.0542 24.7121 21.073 24.645 21.0731ZM22.5887 18.9808C22.5076 18.9809 22.4289 18.9534 22.3654 18.903C21.992 18.6072 21.6019 18.333 21.197 18.0818C21.1158 18.0314 21.058 17.9508 21.0363 17.8577C21.0145 17.7646 21.0306 17.6667 21.0811 17.5855C21.1315 17.5043 21.2121 17.4465 21.3052 17.4248C21.3983 17.403 21.4962 17.4191 21.5774 17.4696C22.0055 17.7355 22.418 18.0257 22.813 18.3388C22.8715 18.3853 22.914 18.4488 22.9348 18.5206C22.9555 18.5924 22.9534 18.6689 22.9288 18.7394C22.9042 18.81 22.8582 18.8711 22.7973 18.9144C22.7363 18.9576 22.6634 18.9808 22.5887 18.9808ZM20.0978 17.4283C20.0437 17.4281 19.9904 17.4158 19.9417 17.3922C19.5103 17.1846 19.0691 16.9979 18.6197 16.8328C18.531 16.7992 18.4591 16.7319 18.4197 16.6456C18.3803 16.5593 18.3766 16.4609 18.4093 16.3719C18.442 16.2828 18.5085 16.2103 18.5944 16.17C18.6803 16.1297 18.7786 16.1249 18.868 16.1566C19.3439 16.3319 19.8106 16.5293 20.2548 16.7435C20.3285 16.7789 20.3879 16.8382 20.4234 16.9119C20.4588 16.9855 20.4682 17.069 20.4499 17.1486C20.4316 17.2282 20.3868 17.2993 20.3229 17.3501C20.2589 17.4009 20.1795 17.4285 20.0978 17.4283ZM17.3418 16.4102C17.31 16.4102 17.2784 16.406 17.2477 16.3977C16.7839 16.2728 16.3149 16.1677 15.8421 16.0827C15.7955 16.0743 15.7511 16.0569 15.7112 16.0313C15.6714 16.0058 15.637 15.9727 15.61 15.9338C15.5829 15.895 15.5638 15.8512 15.5537 15.805C15.5436 15.7588 15.5427 15.711 15.5511 15.6644C15.5594 15.6178 15.5769 15.5734 15.6024 15.5335C15.628 15.4937 15.6611 15.4593 15.7 15.4323C15.7388 15.4053 15.7826 15.3862 15.8288 15.376C15.875 15.3659 15.9228 15.365 15.9694 15.3734C16.4621 15.4622 16.9552 15.5727 17.4355 15.7019C17.5201 15.7243 17.5937 15.7768 17.6425 15.8496C17.6912 15.9224 17.7118 16.0104 17.7003 16.0972C17.6888 16.1841 17.6461 16.2638 17.5801 16.3214C17.5141 16.379 17.4294 16.4105 17.3418 16.4102ZM39.1025 33.2981C39.0157 33.2983 38.9318 33.2672 38.8661 33.2105C38.8004 33.1538 38.7575 33.0752 38.7451 32.9893C38.7327 32.9034 38.7517 32.816 38.7987 32.743C38.8456 32.67 38.9174 32.6165 39.0007 32.5922C39.4074 32.4721 39.6466 32.3799 39.6543 32.377C39.7426 32.345 39.84 32.3489 39.9256 32.3877C40.0112 32.4265 40.0782 32.4972 40.1124 32.5848C40.1466 32.6723 40.1451 32.7698 40.1084 32.8563C40.0718 32.9428 40.0027 33.0116 39.916 33.0479C39.916 33.0479 39.6548 33.1502 39.2048 33.2832C39.1716 33.2931 39.1371 33.2981 39.1025 33.2981Z"/>
</mask>
<path d="M14.4509 15.893C14.4403 15.893 14.4297 15.8925 14.4192 15.8916C13.9918 15.8546 13.7402 15.8531 13.7325 15.8531C13.637 15.853 13.5454 15.8148 13.478 15.7471C13.4106 15.6795 13.3729 15.5878 13.373 15.4923C13.3732 15.3967 13.4114 15.3052 13.479 15.2378C13.5467 15.1704 13.6384 15.1326 13.7339 15.1328C13.7339 15.1328 14.0086 15.1328 14.4816 15.1741C14.5739 15.1824 14.6594 15.2259 14.7204 15.2955C14.7814 15.3652 14.8133 15.4557 14.8093 15.5482C14.8054 15.6408 14.7659 15.7282 14.6992 15.7924C14.6324 15.8566 14.5435 15.8926 14.4509 15.893ZM34.72 33.8676H34.7037C34.1956 33.8455 33.69 33.7852 33.191 33.6871C33.0973 33.6685 33.0147 33.6134 32.9616 33.534C32.9085 33.4545 32.8891 33.3573 32.9077 33.2635C32.9263 33.1698 32.9813 33.0873 33.0608 33.0341C33.1402 32.981 33.2375 32.9616 33.3312 32.9802C33.7773 33.0695 34.2499 33.1257 34.7363 33.1478C34.8319 33.1499 34.9226 33.1898 34.9887 33.2589C35.0548 33.3279 35.0907 33.4203 35.0886 33.5159C35.0865 33.6114 35.0465 33.7022 34.9775 33.7682C34.9085 33.8343 34.816 33.8702 34.7205 33.8681L34.72 33.8676ZM36.1895 33.8407C36.0961 33.8412 36.0062 33.8053 35.9388 33.7407C35.8713 33.6761 35.8316 33.5878 35.828 33.4945C35.8244 33.4012 35.8571 33.3101 35.9194 33.2405C35.9816 33.1709 36.0685 33.1282 36.1616 33.1214C36.6251 33.0854 37.1029 33.0215 37.5807 32.9326C37.6746 32.9152 37.7716 32.9358 37.8504 32.9899C37.9291 33.0439 37.9832 33.1271 38.0006 33.221C38.0181 33.3149 37.9975 33.412 37.9434 33.4907C37.8893 33.5695 37.8062 33.6235 37.7123 33.641C37.2179 33.7334 36.7191 33.7997 36.2178 33.8398C36.2082 33.8404 36.1991 33.8408 36.1895 33.8407ZM31.8517 33.2803C31.8061 33.2803 31.761 33.2717 31.7186 33.2549C31.2346 33.0623 30.7745 32.8222 30.3515 32.5408C30.3109 32.5151 30.2759 32.4816 30.2485 32.4423C30.2211 32.4029 30.2019 32.3584 30.1919 32.3115C30.1819 32.2646 30.1813 32.2162 30.1903 32.1691C30.1993 32.1219 30.2176 32.0771 30.2442 32.0371C30.2707 31.9972 30.305 31.9629 30.3449 31.9364C30.3849 31.9099 30.4297 31.8916 30.4769 31.8826C30.524 31.8737 30.5724 31.8742 30.6193 31.8843C30.6663 31.8943 30.7107 31.9136 30.75 31.941C31.1318 32.1945 31.5472 32.4116 31.9847 32.5854C32.0625 32.6164 32.1272 32.6735 32.1675 32.7469C32.2078 32.8204 32.2212 32.9056 32.2054 32.9879C32.1897 33.0702 32.1457 33.1444 32.0812 33.1978C32.0166 33.2511 31.9354 33.2803 31.8517 33.2803ZM29.4237 31.6634C29.3755 31.6635 29.3278 31.6539 29.2834 31.6352C29.239 31.6164 29.1989 31.589 29.1653 31.5544C28.8085 31.1851 28.4884 30.7819 28.2097 30.3505C28.1839 30.3108 28.1662 30.2665 28.1576 30.22C28.149 30.1735 28.1496 30.1257 28.1594 30.0795C28.1693 30.0332 28.1881 29.9893 28.2149 29.9503C28.2417 29.9114 28.2759 29.878 28.3156 29.8523C28.3552 29.8265 28.3996 29.8088 28.4461 29.8002C28.4926 29.7916 28.5403 29.7922 28.5866 29.802C28.6329 29.8119 28.6768 29.8307 28.7157 29.8575C28.7547 29.8843 28.788 29.9185 28.8138 29.9582C29.0731 30.3587 29.366 30.7265 29.682 31.0526C29.7313 31.1034 29.7644 31.1675 29.7774 31.2371C29.7904 31.3066 29.7827 31.3784 29.7551 31.4436C29.7276 31.5087 29.6815 31.5643 29.6225 31.6034C29.5636 31.6425 29.4944 31.6634 29.4237 31.6634ZM27.8197 29.221C27.7496 29.2211 27.681 29.2007 27.6223 29.1623C27.5636 29.1239 27.5174 29.0692 27.4893 29.0049C27.2879 28.5413 27.1167 28.065 26.977 27.5791C26.9623 27.5333 26.9569 27.485 26.9613 27.4371C26.9656 27.3891 26.9794 27.3426 27.0021 27.3001C27.0247 27.2576 27.0556 27.2201 27.0929 27.1898C27.1303 27.1594 27.1734 27.1369 27.2196 27.1235C27.2658 27.11 27.3142 27.106 27.362 27.1116C27.4098 27.1173 27.456 27.1324 27.4978 27.1562C27.5397 27.1799 27.5764 27.2118 27.6057 27.25C27.635 27.2882 27.6563 27.3319 27.6685 27.3784C27.8053 27.8505 27.9672 28.3004 28.1492 28.7163C28.1731 28.7711 28.183 28.8309 28.178 28.8905C28.173 28.95 28.1533 29.0073 28.1206 29.0574C28.0879 29.1074 28.0433 29.1485 27.9908 29.177C27.9383 29.2055 27.8795 29.2209 27.8197 29.221ZM26.987 26.4089C26.904 26.4087 26.8236 26.3799 26.7594 26.3274C26.6951 26.2748 26.651 26.2016 26.6346 26.1202C26.5398 25.6517 26.4222 25.188 26.2821 24.731C26.2682 24.6857 26.2633 24.6382 26.2678 24.5911C26.2722 24.544 26.2859 24.4983 26.308 24.4565C26.3302 24.4147 26.3603 24.3776 26.3968 24.3475C26.4333 24.3173 26.4753 24.2947 26.5205 24.2808C26.5657 24.2669 26.6132 24.262 26.6603 24.2664C26.7074 24.2709 26.7532 24.2846 26.795 24.3067C26.8368 24.3289 26.8738 24.359 26.904 24.3955C26.9341 24.4319 26.9568 24.474 26.9707 24.5192C27.1148 24.9874 27.2392 25.4782 27.3405 25.9771C27.3512 26.0295 27.3501 26.0836 27.3373 26.1355C27.3244 26.1874 27.3002 26.2358 27.2664 26.2772C27.2326 26.3186 27.1899 26.3519 27.1416 26.3747C27.0933 26.3976 27.0405 26.4089 26.987 26.4089ZM26.1198 23.6068C26.0495 23.6067 25.9807 23.5861 25.922 23.5474C25.8633 23.5088 25.8172 23.4538 25.7894 23.3892C25.6011 22.9524 25.387 22.5271 25.1483 22.1157C25.1229 22.0748 25.1059 22.0292 25.0984 21.9816C25.091 21.934 25.0931 21.8854 25.1048 21.8386C25.1164 21.7919 25.1373 21.748 25.1662 21.7094C25.1951 21.6709 25.2315 21.6386 25.2731 21.6144C25.3148 21.5901 25.3608 21.5745 25.4086 21.5684C25.4564 21.5623 25.5049 21.5659 25.5513 21.5788C25.5977 21.5918 25.641 21.614 25.6787 21.644C25.7164 21.674 25.7476 21.7113 25.7706 21.7536C26.0204 22.1829 26.2489 22.6372 26.4502 23.1035C26.4739 23.1583 26.4836 23.2181 26.4785 23.2776C26.4733 23.3371 26.4535 23.3944 26.4207 23.4443C26.388 23.4942 26.3433 23.5352 26.2908 23.5635C26.2382 23.5919 26.1795 23.6068 26.1198 23.6068ZM24.645 21.0731C24.5895 21.0733 24.5348 21.0605 24.485 21.036C24.4353 21.0114 24.3919 20.9756 24.3583 20.9315C24.0702 20.5538 23.7587 20.1945 23.4257 19.8558C23.3917 19.8223 23.3647 19.7823 23.3463 19.7382C23.3278 19.6942 23.3183 19.6469 23.3183 19.5991C23.3184 19.5513 23.3279 19.5041 23.3463 19.46C23.3648 19.416 23.3918 19.376 23.4259 19.3425C23.4599 19.309 23.5003 19.2826 23.5446 19.2649C23.589 19.2471 23.6364 19.2383 23.6842 19.2391C23.7319 19.2399 23.7791 19.2501 23.8228 19.2692C23.8666 19.2884 23.9061 19.316 23.9391 19.3506C24.292 19.7093 24.6258 20.0944 24.9307 20.4945C24.9714 20.5478 24.9964 20.6114 25.0029 20.6782C25.0094 20.745 24.9971 20.8123 24.9674 20.8724C24.9377 20.9326 24.8917 20.9833 24.8348 21.0187C24.7778 21.0542 24.7121 21.073 24.645 21.0731ZM22.5887 18.9808C22.5076 18.9809 22.4289 18.9534 22.3654 18.903C21.992 18.6072 21.6019 18.333 21.197 18.0818C21.1158 18.0314 21.058 17.9508 21.0363 17.8577C21.0145 17.7646 21.0306 17.6667 21.0811 17.5855C21.1315 17.5043 21.2121 17.4465 21.3052 17.4248C21.3983 17.403 21.4962 17.4191 21.5774 17.4696C22.0055 17.7355 22.418 18.0257 22.813 18.3388C22.8715 18.3853 22.914 18.4488 22.9348 18.5206C22.9555 18.5924 22.9534 18.6689 22.9288 18.7394C22.9042 18.81 22.8582 18.8711 22.7973 18.9144C22.7363 18.9576 22.6634 18.9808 22.5887 18.9808ZM20.0978 17.4283C20.0437 17.4281 19.9904 17.4158 19.9417 17.3922C19.5103 17.1846 19.0691 16.9979 18.6197 16.8328C18.531 16.7992 18.4591 16.7319 18.4197 16.6456C18.3803 16.5593 18.3766 16.4609 18.4093 16.3719C18.442 16.2828 18.5085 16.2103 18.5944 16.17C18.6803 16.1297 18.7786 16.1249 18.868 16.1566C19.3439 16.3319 19.8106 16.5293 20.2548 16.7435C20.3285 16.7789 20.3879 16.8382 20.4234 16.9119C20.4588 16.9855 20.4682 17.069 20.4499 17.1486C20.4316 17.2282 20.3868 17.2993 20.3229 17.3501C20.2589 17.4009 20.1795 17.4285 20.0978 17.4283ZM17.3418 16.4102C17.31 16.4102 17.2784 16.406 17.2477 16.3977C16.7839 16.2728 16.3149 16.1677 15.8421 16.0827C15.7955 16.0743 15.7511 16.0569 15.7112 16.0313C15.6714 16.0058 15.637 15.9727 15.61 15.9338C15.5829 15.895 15.5638 15.8512 15.5537 15.805C15.5436 15.7588 15.5427 15.711 15.5511 15.6644C15.5594 15.6178 15.5769 15.5734 15.6024 15.5335C15.628 15.4937 15.6611 15.4593 15.7 15.4323C15.7388 15.4053 15.7826 15.3862 15.8288 15.376C15.875 15.3659 15.9228 15.365 15.9694 15.3734C16.4621 15.4622 16.9552 15.5727 17.4355 15.7019C17.5201 15.7243 17.5937 15.7768 17.6425 15.8496C17.6912 15.9224 17.7118 16.0104 17.7003 16.0972C17.6888 16.1841 17.6461 16.2638 17.5801 16.3214C17.5141 16.379 17.4294 16.4105 17.3418 16.4102ZM39.1025 33.2981C39.0157 33.2983 38.9318 33.2672 38.8661 33.2105C38.8004 33.1538 38.7575 33.0752 38.7451 32.9893C38.7327 32.9034 38.7517 32.816 38.7987 32.743C38.8456 32.67 38.9174 32.6165 39.0007 32.5922C39.4074 32.4721 39.6466 32.3799 39.6543 32.377C39.7426 32.345 39.84 32.3489 39.9256 32.3877C40.0112 32.4265 40.0782 32.4972 40.1124 32.5848C40.1466 32.6723 40.1451 32.7698 40.1084 32.8563C40.0718 32.9428 40.0027 33.0116 39.916 33.0479C39.916 33.0479 39.6548 33.1502 39.2048 33.2832C39.1716 33.2931 39.1371 33.2981 39.1025 33.2981Z" fill="black"/>
<path d="M14.4509 15.893C14.4403 15.893 14.4297 15.8925 14.4192 15.8916C13.9918 15.8546 13.7402 15.8531 13.7325 15.8531C13.637 15.853 13.5454 15.8148 13.478 15.7471C13.4106 15.6795 13.3729 15.5878 13.373 15.4923C13.3732 15.3967 13.4114 15.3052 13.479 15.2378C13.5467 15.1704 13.6384 15.1326 13.7339 15.1328C13.7339 15.1328 14.0086 15.1328 14.4816 15.1741C14.5739 15.1824 14.6594 15.2259 14.7204 15.2955C14.7814 15.3652 14.8133 15.4557 14.8093 15.5482C14.8054 15.6408 14.7659 15.7282 14.6992 15.7924C14.6324 15.8566 14.5435 15.8926 14.4509 15.893ZM34.72 33.8676H34.7037C34.1956 33.8455 33.69 33.7852 33.191 33.6871C33.0973 33.6685 33.0147 33.6134 32.9616 33.534C32.9085 33.4545 32.8891 33.3573 32.9077 33.2635C32.9263 33.1698 32.9813 33.0873 33.0608 33.0341C33.1402 32.981 33.2375 32.9616 33.3312 32.9802C33.7773 33.0695 34.2499 33.1257 34.7363 33.1478C34.8319 33.1499 34.9226 33.1898 34.9887 33.2589C35.0548 33.3279 35.0907 33.4203 35.0886 33.5159C35.0865 33.6114 35.0465 33.7022 34.9775 33.7682C34.9085 33.8343 34.816 33.8702 34.7205 33.8681L34.72 33.8676ZM36.1895 33.8407C36.0961 33.8412 36.0062 33.8053 35.9388 33.7407C35.8713 33.6761 35.8316 33.5878 35.828 33.4945C35.8244 33.4012 35.8571 33.3101 35.9194 33.2405C35.9816 33.1709 36.0685 33.1282 36.1616 33.1214C36.6251 33.0854 37.1029 33.0215 37.5807 32.9326C37.6746 32.9152 37.7716 32.9358 37.8504 32.9899C37.9291 33.0439 37.9832 33.1271 38.0006 33.221C38.0181 33.3149 37.9975 33.412 37.9434 33.4907C37.8893 33.5695 37.8062 33.6235 37.7123 33.641C37.2179 33.7334 36.7191 33.7997 36.2178 33.8398C36.2082 33.8404 36.1991 33.8408 36.1895 33.8407ZM31.8517 33.2803C31.8061 33.2803 31.761 33.2717 31.7186 33.2549C31.2346 33.0623 30.7745 32.8222 30.3515 32.5408C30.3109 32.5151 30.2759 32.4816 30.2485 32.4423C30.2211 32.4029 30.2019 32.3584 30.1919 32.3115C30.1819 32.2646 30.1813 32.2162 30.1903 32.1691C30.1993 32.1219 30.2176 32.0771 30.2442 32.0371C30.2707 31.9972 30.305 31.9629 30.3449 31.9364C30.3849 31.9099 30.4297 31.8916 30.4769 31.8826C30.524 31.8737 30.5724 31.8742 30.6193 31.8843C30.6663 31.8943 30.7107 31.9136 30.75 31.941C31.1318 32.1945 31.5472 32.4116 31.9847 32.5854C32.0625 32.6164 32.1272 32.6735 32.1675 32.7469C32.2078 32.8204 32.2212 32.9056 32.2054 32.9879C32.1897 33.0702 32.1457 33.1444 32.0812 33.1978C32.0166 33.2511 31.9354 33.2803 31.8517 33.2803ZM29.4237 31.6634C29.3755 31.6635 29.3278 31.6539 29.2834 31.6352C29.239 31.6164 29.1989 31.589 29.1653 31.5544C28.8085 31.1851 28.4884 30.7819 28.2097 30.3505C28.1839 30.3108 28.1662 30.2665 28.1576 30.22C28.149 30.1735 28.1496 30.1257 28.1594 30.0795C28.1693 30.0332 28.1881 29.9893 28.2149 29.9503C28.2417 29.9114 28.2759 29.878 28.3156 29.8523C28.3552 29.8265 28.3996 29.8088 28.4461 29.8002C28.4926 29.7916 28.5403 29.7922 28.5866 29.802C28.6329 29.8119 28.6768 29.8307 28.7157 29.8575C28.7547 29.8843 28.788 29.9185 28.8138 29.9582C29.0731 30.3587 29.366 30.7265 29.682 31.0526C29.7313 31.1034 29.7644 31.1675 29.7774 31.2371C29.7904 31.3066 29.7827 31.3784 29.7551 31.4436C29.7276 31.5087 29.6815 31.5643 29.6225 31.6034C29.5636 31.6425 29.4944 31.6634 29.4237 31.6634ZM27.8197 29.221C27.7496 29.2211 27.681 29.2007 27.6223 29.1623C27.5636 29.1239 27.5174 29.0692 27.4893 29.0049C27.2879 28.5413 27.1167 28.065 26.977 27.5791C26.9623 27.5333 26.9569 27.485 26.9613 27.4371C26.9656 27.3891 26.9794 27.3426 27.0021 27.3001C27.0247 27.2576 27.0556 27.2201 27.0929 27.1898C27.1303 27.1594 27.1734 27.1369 27.2196 27.1235C27.2658 27.11 27.3142 27.106 27.362 27.1116C27.4098 27.1173 27.456 27.1324 27.4978 27.1562C27.5397 27.1799 27.5764 27.2118 27.6057 27.25C27.635 27.2882 27.6563 27.3319 27.6685 27.3784C27.8053 27.8505 27.9672 28.3004 28.1492 28.7163C28.1731 28.7711 28.183 28.8309 28.178 28.8905C28.173 28.95 28.1533 29.0073 28.1206 29.0574C28.0879 29.1074 28.0433 29.1485 27.9908 29.177C27.9383 29.2055 27.8795 29.2209 27.8197 29.221ZM26.987 26.4089C26.904 26.4087 26.8236 26.3799 26.7594 26.3274C26.6951 26.2748 26.651 26.2016 26.6346 26.1202C26.5398 25.6517 26.4222 25.188 26.2821 24.731C26.2682 24.6857 26.2633 24.6382 26.2678 24.5911C26.2722 24.544 26.2859 24.4983 26.308 24.4565C26.3302 24.4147 26.3603 24.3776 26.3968 24.3475C26.4333 24.3173 26.4753 24.2947 26.5205 24.2808C26.5657 24.2669 26.6132 24.262 26.6603 24.2664C26.7074 24.2709 26.7532 24.2846 26.795 24.3067C26.8368 24.3289 26.8738 24.359 26.904 24.3955C26.9341 24.4319 26.9568 24.474 26.9707 24.5192C27.1148 24.9874 27.2392 25.4782 27.3405 25.9771C27.3512 26.0295 27.3501 26.0836 27.3373 26.1355C27.3244 26.1874 27.3002 26.2358 27.2664 26.2772C27.2326 26.3186 27.1899 26.3519 27.1416 26.3747C27.0933 26.3976 27.0405 26.4089 26.987 26.4089ZM26.1198 23.6068C26.0495 23.6067 25.9807 23.5861 25.922 23.5474C25.8633 23.5088 25.8172 23.4538 25.7894 23.3892C25.6011 22.9524 25.387 22.5271 25.1483 22.1157C25.1229 22.0748 25.1059 22.0292 25.0984 21.9816C25.091 21.934 25.0931 21.8854 25.1048 21.8386C25.1164 21.7919 25.1373 21.748 25.1662 21.7094C25.1951 21.6709 25.2315 21.6386 25.2731 21.6144C25.3148 21.5901 25.3608 21.5745 25.4086 21.5684C25.4564 21.5623 25.5049 21.5659 25.5513 21.5788C25.5977 21.5918 25.641 21.614 25.6787 21.644C25.7164 21.674 25.7476 21.7113 25.7706 21.7536C26.0204 22.1829 26.2489 22.6372 26.4502 23.1035C26.4739 23.1583 26.4836 23.2181 26.4785 23.2776C26.4733 23.3371 26.4535 23.3944 26.4207 23.4443C26.388 23.4942 26.3433 23.5352 26.2908 23.5635C26.2382 23.5919 26.1795 23.6068 26.1198 23.6068ZM24.645 21.0731C24.5895 21.0733 24.5348 21.0605 24.485 21.036C24.4353 21.0114 24.3919 20.9756 24.3583 20.9315C24.0702 20.5538 23.7587 20.1945 23.4257 19.8558C23.3917 19.8223 23.3647 19.7823 23.3463 19.7382C23.3278 19.6942 23.3183 19.6469 23.3183 19.5991C23.3184 19.5513 23.3279 19.5041 23.3463 19.46C23.3648 19.416 23.3918 19.376 23.4259 19.3425C23.4599 19.309 23.5003 19.2826 23.5446 19.2649C23.589 19.2471 23.6364 19.2383 23.6842 19.2391C23.7319 19.2399 23.7791 19.2501 23.8228 19.2692C23.8666 19.2884 23.9061 19.316 23.9391 19.3506C24.292 19.7093 24.6258 20.0944 24.9307 20.4945C24.9714 20.5478 24.9964 20.6114 25.0029 20.6782C25.0094 20.745 24.9971 20.8123 24.9674 20.8724C24.9377 20.9326 24.8917 20.9833 24.8348 21.0187C24.7778 21.0542 24.7121 21.073 24.645 21.0731ZM22.5887 18.9808C22.5076 18.9809 22.4289 18.9534 22.3654 18.903C21.992 18.6072 21.6019 18.333 21.197 18.0818C21.1158 18.0314 21.058 17.9508 21.0363 17.8577C21.0145 17.7646 21.0306 17.6667 21.0811 17.5855C21.1315 17.5043 21.2121 17.4465 21.3052 17.4248C21.3983 17.403 21.4962 17.4191 21.5774 17.4696C22.0055 17.7355 22.418 18.0257 22.813 18.3388C22.8715 18.3853 22.914 18.4488 22.9348 18.5206C22.9555 18.5924 22.9534 18.6689 22.9288 18.7394C22.9042 18.81 22.8582 18.8711 22.7973 18.9144C22.7363 18.9576 22.6634 18.9808 22.5887 18.9808ZM20.0978 17.4283C20.0437 17.4281 19.9904 17.4158 19.9417 17.3922C19.5103 17.1846 19.0691 16.9979 18.6197 16.8328C18.531 16.7992 18.4591 16.7319 18.4197 16.6456C18.3803 16.5593 18.3766 16.4609 18.4093 16.3719C18.442 16.2828 18.5085 16.2103 18.5944 16.17C18.6803 16.1297 18.7786 16.1249 18.868 16.1566C19.3439 16.3319 19.8106 16.5293 20.2548 16.7435C20.3285 16.7789 20.3879 16.8382 20.4234 16.9119C20.4588 16.9855 20.4682 17.069 20.4499 17.1486C20.4316 17.2282 20.3868 17.2993 20.3229 17.3501C20.2589 17.4009 20.1795 17.4285 20.0978 17.4283ZM17.3418 16.4102C17.31 16.4102 17.2784 16.406 17.2477 16.3977C16.7839 16.2728 16.3149 16.1677 15.8421 16.0827C15.7955 16.0743 15.7511 16.0569 15.7112 16.0313C15.6714 16.0058 15.637 15.9727 15.61 15.9338C15.5829 15.895 15.5638 15.8512 15.5537 15.805C15.5436 15.7588 15.5427 15.711 15.5511 15.6644C15.5594 15.6178 15.5769 15.5734 15.6024 15.5335C15.628 15.4937 15.6611 15.4593 15.7 15.4323C15.7388 15.4053 15.7826 15.3862 15.8288 15.376C15.875 15.3659 15.9228 15.365 15.9694 15.3734C16.4621 15.4622 16.9552 15.5727 17.4355 15.7019C17.5201 15.7243 17.5937 15.7768 17.6425 15.8496C17.6912 15.9224 17.7118 16.0104 17.7003 16.0972C17.6888 16.1841 17.6461 16.2638 17.5801 16.3214C17.5141 16.379 17.4294 16.4105 17.3418 16.4102ZM39.1025 33.2981C39.0157 33.2983 38.9318 33.2672 38.8661 33.2105C38.8004 33.1538 38.7575 33.0752 38.7451 32.9893C38.7327 32.9034 38.7517 32.816 38.7987 32.743C38.8456 32.67 38.9174 32.6165 39.0007 32.5922C39.4074 32.4721 39.6466 32.3799 39.6543 32.377C39.7426 32.345 39.84 32.3489 39.9256 32.3877C40.0112 32.4265 40.0782 32.4972 40.1124 32.5848C40.1466 32.6723 40.1451 32.7698 40.1084 32.8563C40.0718 32.9428 40.0027 33.0116 39.916 33.0479C39.916 33.0479 39.6548 33.1502 39.2048 33.2832C39.1716 33.2931 39.1371 33.2981 39.1025 33.2981Z" stroke="black" stroke-width="0.4" mask="url(#path-5-outside-2_447_3159)"/>
<path d="M38.9307 21.6824C41.2746 21.4989 43.3376 23.2641 43.5195 25.614C43.557 26.099 43.4354 26.6989 43.2236 27.3425C43.0112 27.9883 42.7044 28.6873 42.3633 29.3738C41.6814 30.7462 40.8566 32.0765 40.3594 32.8464L40.3604 32.8474C40.2971 32.9481 40.2088 33.0316 40.1045 33.0886C40.0004 33.1455 39.8833 33.1736 39.7646 33.1726C39.5614 33.1725 39.3704 33.0864 39.2354 32.9314V32.9304C38.6267 32.2479 37.6082 31.0611 36.7236 29.8103C36.2811 29.1845 35.8707 28.5407 35.5615 27.9353C35.2533 27.3318 35.0413 26.7572 35.0039 26.2722C34.8222 23.9226 36.5834 21.8646 38.9307 21.6824ZM39.0029 22.5994H39.002C37.1605 22.7423 35.7782 24.3582 35.9209 26.2019C35.945 26.5123 36.0811 26.9116 36.3076 27.3748C36.5334 27.8364 36.8453 28.3541 37.2129 28.8972C37.9243 29.9482 38.8423 31.0896 39.7383 32.1082C40.4674 30.9625 41.1991 29.6934 41.7402 28.5457C42.0198 27.9526 42.2484 27.3937 42.4004 26.9031C42.5529 26.4109 42.6254 25.9956 42.6016 25.6853C42.5358 24.8441 42.1558 24.0578 41.5371 23.4841C40.9184 22.9106 40.1063 22.5907 39.2627 22.5886C39.1766 22.5886 39.0902 22.5924 39.0029 22.5994Z" fill="black" stroke="black" stroke-width="0.2"/>
<path d="M39.3154 23.6116C39.8613 23.6242 40.3893 23.8246 40.8076 24.1829C41.2854 24.5921 41.5812 25.1739 41.6309 25.801L41.6387 26.0344C41.6343 26.2673 41.595 26.4987 41.5225 26.7209C41.4258 27.0173 41.2707 27.2913 41.0674 27.5276C40.845 27.7889 40.5686 27.9995 40.2568 28.1428C40.0229 28.2503 39.7734 28.3182 39.5186 28.345L39.2627 28.3577C38.6653 28.3567 38.0906 28.1308 37.6523 27.7249C37.2689 27.3697 37.0146 26.8998 36.9258 26.3889L36.8975 26.1672C36.8496 25.5398 37.0526 24.9187 37.4619 24.4407C37.8712 23.9627 38.4537 23.6667 39.0811 23.6174L39.3154 23.6116ZM39.2656 24.5305C39.0652 24.5305 38.8663 24.5724 38.6826 24.6526C38.4992 24.7328 38.3343 24.8504 38.1982 24.9973C38.0621 25.1443 37.9575 25.3179 37.8916 25.5071C37.8258 25.6962 37.8001 25.8972 37.8154 26.0969C37.846 26.4809 38.0267 26.8377 38.3193 27.0881C38.6121 27.3387 38.9927 27.4621 39.377 27.4329C39.7641 27.4027 40.1166 27.2247 40.3691 26.9299C40.6215 26.6353 40.7434 26.2597 40.7139 25.8723C40.6851 25.5076 40.5204 25.1668 40.252 24.9182C39.9836 24.6698 39.6313 24.5313 39.2656 24.5305ZM13.0986 4.45044C15.3524 4.39063 17.2915 6.11722 17.4678 8.3938L17.4736 8.58716C17.4705 9.05085 17.3425 9.60563 17.1426 10.1936C16.9132 10.868 16.5863 11.5969 16.2314 12.301C15.5214 13.7098 14.6959 15.0284 14.3076 15.6292L14.3066 15.6282C14.2434 15.7281 14.1565 15.8107 14.0527 15.8674C13.9489 15.9241 13.8322 15.9532 13.7139 15.9524V15.9534C13.5106 15.9534 13.3198 15.8665 13.1846 15.7112L13.1836 15.7122C12.7091 15.1804 11.6924 14.0052 10.7744 12.7229C10.3155 12.0818 9.88013 11.4117 9.5498 10.7805C9.26181 10.2302 9.04894 9.70224 8.97461 9.24438L8.95215 9.05298C8.90711 8.49316 8.97349 7.92975 9.14746 7.39575C9.32145 6.86188 9.59973 6.36741 9.96582 5.94165C10.3295 5.51469 10.7743 5.16436 11.2744 4.9104C11.7747 4.65632 12.3203 4.50383 12.8799 4.46216L13.0986 4.45044ZM13.2109 5.36938C12.727 5.36751 12.2483 5.47095 11.8086 5.6731C11.4236 5.85014 11.0761 6.09896 10.7852 6.40552L10.6641 6.54028C10.3768 6.8743 10.158 7.26205 10.0215 7.68091C9.88496 8.09985 9.83286 8.54248 9.86816 8.98169C9.89229 9.29243 10.0291 9.69202 10.2559 10.1555C10.4817 10.6171 10.7936 11.134 11.1611 11.677C11.8726 12.7281 12.7897 13.8702 13.6855 14.8889C14.4151 13.7431 15.1463 12.4734 15.6875 11.3254C15.967 10.7326 16.1957 10.1744 16.3477 9.68384C16.5003 9.19116 16.5728 8.77475 16.5488 8.46411C16.4829 7.62319 16.103 6.8374 15.4844 6.26392C14.8657 5.69057 14.0544 5.37152 13.2109 5.36938Z" fill="black" stroke="black" stroke-width="0.2"/>
<path d="M22.5283 44.3677C22.6462 44.336 22.7722 44.3526 22.8779 44.4136C22.9836 44.4746 23.0612 44.575 23.0928 44.6929C23.1243 44.8107 23.1078 44.9368 23.0469 45.0425C22.1408 46.6102 20.8994 47.9563 19.4141 48.9868L19.1143 49.189C19.0523 49.2291 18.9813 49.2523 18.9082 49.2593L18.9053 49.2632H18.8633C18.7641 49.2634 18.6675 49.2315 18.5879 49.1724C18.5082 49.113 18.4492 49.0293 18.4209 48.9341C18.3926 48.8387 18.3961 48.7363 18.4307 48.6431C18.4652 48.55 18.5289 48.4704 18.6123 48.4165L18.8896 48.23C20.2634 47.277 21.411 46.0315 22.249 44.5815C22.31 44.476 22.4106 44.3993 22.5283 44.3677ZM23.3555 42.8794C23.4172 42.8783 23.4789 42.8895 23.5361 42.9126C23.5935 42.9358 23.6457 42.9704 23.6895 43.0142C23.7331 43.0578 23.7669 43.1103 23.79 43.1675C23.8131 43.2248 23.8244 43.2864 23.8232 43.3481C23.8221 43.4084 23.8082 43.4677 23.7842 43.5229L23.7852 43.5239C23.7282 43.6655 23.6687 43.8073 23.6055 43.9468L23.6045 43.9458C23.5683 44.0266 23.5108 44.0958 23.4365 44.144C23.3619 44.1924 23.2744 44.2183 23.1855 44.2183C23.1088 44.2182 23.0332 44.1993 22.9658 44.1626C22.8984 44.1259 22.8415 44.0727 22.7998 44.0083C22.7581 43.9438 22.7324 43.87 22.7266 43.7935C22.7207 43.7169 22.7342 43.6399 22.7656 43.5698C22.8232 43.4414 22.8792 43.3117 22.9326 43.1802C22.9536 43.1234 22.9852 43.0712 23.0264 43.0269C23.0685 42.9815 23.1193 42.9447 23.1758 42.9194C23.2322 42.8942 23.2936 42.8805 23.3555 42.8794ZM13.0293 6.39795C13.6583 6.34933 14.2756 6.54883 14.7568 6.96143C15.2379 7.37386 15.5305 7.94953 15.5791 8.58154C15.604 8.90769 15.5608 9.23556 15.4531 9.54443C15.3455 9.85325 15.1753 10.1365 14.9531 10.3765C14.7308 10.6165 14.4609 10.8088 14.1611 10.9399C13.9364 11.0382 13.6981 11.1002 13.4551 11.1255L13.2109 11.1382C12.6135 11.1371 12.0379 10.9113 11.5996 10.5054C11.2163 10.1502 10.9619 9.6802 10.873 9.16943L10.8457 8.94775C10.7971 8.31582 10.9972 7.7014 11.4092 7.22021C11.8211 6.73928 12.3969 6.44661 13.0293 6.39795ZM13.0576 7.31885C12.9016 7.33514 12.7487 7.37716 12.6055 7.44287C12.4623 7.50861 12.3309 7.59693 12.2168 7.70459L12.1084 7.81885C11.9839 7.96342 11.8894 8.13161 11.8301 8.31299C11.7708 8.49446 11.7475 8.68616 11.7627 8.87646C11.7932 9.26059 11.9749 9.61705 12.2676 9.86768C12.5602 10.1182 12.9402 10.2422 13.3242 10.2134C13.7084 10.1832 14.0657 10.0022 14.3164 9.70947C14.567 9.41676 14.6914 9.03609 14.6621 8.65186C14.6479 8.46164 14.5961 8.27605 14.5098 8.10596C14.4233 7.93574 14.3035 7.78445 14.1582 7.66064V7.65967C13.896 7.43403 13.5608 7.31038 13.2148 7.31104L13.0576 7.31885Z" fill="black" stroke="black" stroke-width="0.2"/>
<path d="M12.5127 28.7712C18.1514 28.7712 22.7402 33.3575 22.7402 38.9949C22.7402 44.6336 18.1519 49.2214 12.5127 49.2214C6.87415 49.2212 2.28713 44.6335 2.28711 38.9949C2.28711 33.3577 6.87416 28.7715 12.5127 28.7712ZM12.5127 29.6912C7.38172 29.6914 3.20703 33.8649 3.20703 38.9949C3.20705 44.1259 7.38175 48.3003 12.5127 48.3005C17.6438 48.3005 21.8193 44.126 21.8193 38.9949C21.8193 33.8647 17.6444 29.6912 12.5127 29.6912Z" fill="black" stroke="black" stroke-width="0.2"/>
<path d="M12.5137 30.8689C16.9955 30.8689 20.6426 34.5139 20.6426 38.9949C20.6426 43.4776 16.9963 47.1235 12.5137 47.1238C8.03225 47.1238 4.38574 43.4777 4.38574 38.9949C4.38576 34.5139 8.03181 30.8689 12.5137 30.8689ZM12.5137 31.7888C8.53936 31.7888 5.30568 35.0216 5.30566 38.9949C5.30566 42.9697 8.53939 46.2039 12.5137 46.2039C16.4877 46.2036 19.7217 42.9695 19.7217 38.9949C19.7217 35.0217 16.4883 31.7891 12.5137 31.7888Z" fill="black" stroke="black" stroke-width="0.2"/>
<mask id="path-11-outside-3_447_3159" maskUnits="userSpaceOnUse" x="3.48535" y="29.9685" width="18" height="18" fill="black">
<rect fill="white" x="3.48535" y="29.9685" width="18" height="18"/>
<path d="M12.5127 32.6224C12.4172 32.6224 12.3256 32.5844 12.258 32.5169C12.1905 32.4493 12.1525 32.3577 12.1525 32.2622V31.3287C12.1525 31.2331 12.1905 31.1415 12.258 31.074C12.3256 31.0065 12.4172 30.9685 12.5127 30.9685C12.6082 30.9685 12.6998 31.0065 12.7674 31.074C12.8349 31.1415 12.8729 31.2331 12.8729 31.3287V32.2622C12.8729 32.3577 12.8349 32.4493 12.7674 32.5169C12.6998 32.5844 12.6082 32.6224 12.5127 32.6224ZM12.5127 47.0242C12.4172 47.0242 12.3256 46.9862 12.258 46.9187C12.1905 46.8511 12.1525 46.7595 12.1525 46.664V45.73C12.1525 45.6345 12.1905 45.5429 12.258 45.4753C12.3256 45.4078 12.4172 45.3698 12.5127 45.3698C12.6082 45.3698 12.6998 45.4078 12.7674 45.4753C12.8349 45.5429 12.8729 45.6345 12.8729 45.73V46.6635C12.8729 46.7591 12.8349 46.8507 12.7674 46.9182C12.6998 46.9857 12.6082 47.0242 12.5127 47.0242ZM5.77906 39.3565H4.84552C4.74999 39.3565 4.65839 39.3186 4.59084 39.251C4.5233 39.1835 4.48535 39.0919 4.48535 38.9963C4.48535 38.9008 4.5233 38.8092 4.59084 38.7417C4.65839 38.6741 4.74999 38.6362 4.84552 38.6362H5.77906C5.87459 38.6362 5.96619 38.6741 6.03374 38.7417C6.10128 38.8092 6.13923 38.9008 6.13923 38.9963C6.13923 39.0919 6.10128 39.1835 6.03374 39.251C5.96619 39.3186 5.87459 39.3565 5.77906 39.3565ZM20.1804 39.3565H19.2468C19.1513 39.3565 19.0597 39.3186 18.9922 39.251C18.9246 39.1835 18.8867 39.0919 18.8867 38.9963C18.8867 38.9008 18.9246 38.8092 18.9922 38.7417C19.0597 38.6741 19.1513 38.6362 19.2468 38.6362H20.1804C20.2759 38.6362 20.3675 38.6741 20.435 38.7417C20.5026 38.8092 20.5405 38.9008 20.5405 38.9963C20.5405 39.0919 20.5026 39.1835 20.435 39.251C20.3675 39.3186 20.2759 39.3565 20.1804 39.3565ZM7.75133 34.5951C7.70404 34.5951 7.65721 34.5858 7.61353 34.5677C7.56986 34.5495 7.53019 34.523 7.49681 34.4895L6.83699 33.8292C6.8016 33.7962 6.77322 33.7564 6.75353 33.7123C6.73385 33.6681 6.72326 33.6204 6.72241 33.572C6.72156 33.5237 6.73045 33.4756 6.74857 33.4308C6.76668 33.3859 6.79364 33.3452 6.82785 33.311C6.86205 33.2768 6.90278 33.2498 6.94763 33.2317C6.99248 33.2136 7.04051 33.2047 7.08887 33.2056C7.13723 33.2064 7.18493 33.217 7.22911 33.2367C7.27329 33.2564 7.31305 33.2848 7.34602 33.3201L8.00632 33.98C8.05663 34.0303 8.09088 34.0945 8.10475 34.1643C8.11862 34.2341 8.11149 34.3065 8.08426 34.3723C8.05702 34.438 8.01091 34.4943 7.95174 34.5338C7.89257 34.5734 7.82299 34.5946 7.75181 34.5946L7.75133 34.5951ZM17.9349 44.7782C17.8876 44.7782 17.8407 44.7689 17.7971 44.7507C17.7534 44.7326 17.7137 44.706 17.6803 44.6725L17.02 44.0127C16.9847 43.9797 16.9563 43.94 16.9366 43.8958C16.9169 43.8516 16.9063 43.8039 16.9055 43.7556C16.9046 43.7072 16.9135 43.6592 16.9316 43.6143C16.9497 43.5695 16.9767 43.5287 17.0109 43.4945C17.0451 43.4603 17.0858 43.4334 17.1307 43.4153C17.1755 43.3971 17.2236 43.3883 17.2719 43.3891C17.3203 43.39 17.368 43.4005 17.4122 43.4202C17.4563 43.4399 17.4961 43.4683 17.5291 43.5037L18.1894 44.1635C18.2397 44.2139 18.2739 44.278 18.2878 44.3478C18.3017 44.4177 18.2946 44.49 18.2673 44.5558C18.2401 44.6216 18.194 44.6778 18.1348 44.7174C18.0756 44.757 18.0061 44.7781 17.9349 44.7782ZM7.09102 44.7782C7.01984 44.7781 6.95026 44.757 6.89109 44.7174C6.83192 44.6778 6.78581 44.6216 6.75857 44.5558C6.73134 44.49 6.72421 44.4177 6.73808 44.3478C6.75195 44.278 6.7862 44.2139 6.83651 44.1635L7.49681 43.5032C7.56508 43.4396 7.65539 43.4049 7.7487 43.4066C7.842 43.4082 7.93103 43.446 7.99702 43.512C8.06301 43.578 8.1008 43.667 8.10245 43.7603C8.1041 43.8537 8.06946 43.944 8.00584 44.0122L7.34602 44.6725C7.31264 44.706 7.27297 44.7326 7.2293 44.7507C7.18562 44.7689 7.13879 44.7782 7.0915 44.7782H7.09102ZM17.2746 34.5951C17.2034 34.5951 17.1338 34.5739 17.0746 34.5343C17.0155 34.4947 16.9693 34.4385 16.9421 34.3727C16.9149 34.307 16.9077 34.2346 16.9216 34.1648C16.9355 34.095 16.9697 34.0308 17.02 33.9804L17.6803 33.3201C17.7133 33.2848 17.7531 33.2564 17.7973 33.2367C17.8414 33.217 17.8891 33.2064 17.9375 33.2056C17.9859 33.2047 18.0339 33.2136 18.0787 33.2317C18.1236 33.2498 18.1643 33.2768 18.1985 33.311C18.2327 33.3452 18.2597 33.3859 18.2778 33.4308C18.2959 33.4756 18.3048 33.5237 18.304 33.572C18.3031 33.6204 18.2925 33.6681 18.2728 33.7123C18.2532 33.7564 18.2248 33.7962 18.1894 33.8292L17.5291 34.4895C17.4957 34.523 17.456 34.5495 17.4124 34.5677C17.3687 34.5858 17.3219 34.5951 17.2746 34.5951ZM9.49548 42.6422C9.33173 42.6422 9.17278 42.5783 9.05128 42.4568C8.96611 42.3726 8.90689 42.2657 8.88067 42.1488C8.85445 42.0319 8.86233 41.91 8.90337 41.7975L10.2792 37.9725C10.379 37.6937 10.5394 37.4405 10.7489 37.231C10.9583 37.0216 11.2115 36.8612 11.4903 36.7614L15.3148 35.386C15.4274 35.3448 15.5494 35.3369 15.6664 35.3631C15.7834 35.3893 15.8904 35.4486 15.9746 35.534C16.1494 35.7083 16.2056 35.9613 16.122 36.1938L14.7472 40.0178C14.6473 40.2966 14.4869 40.5498 14.2775 40.7592C14.0681 40.9686 13.8149 41.129 13.5361 41.2289L9.71206 42.6047C9.64099 42.6302 9.56752 42.6422 9.49548 42.6422ZM15.3801 36.128L11.7343 37.4395C11.5553 37.5035 11.3928 37.6064 11.2583 37.7407C11.1239 37.8751 11.0209 38.0375 10.9568 38.2165L9.64579 41.8628L13.2916 40.5513C13.4706 40.4872 13.6332 40.3842 13.7676 40.2498C13.902 40.1154 14.005 39.9528 14.0691 39.7738L15.3801 36.128Z"/>
</mask>
<path d="M12.5127 32.6224C12.4172 32.6224 12.3256 32.5844 12.258 32.5169C12.1905 32.4493 12.1525 32.3577 12.1525 32.2622V31.3287C12.1525 31.2331 12.1905 31.1415 12.258 31.074C12.3256 31.0065 12.4172 30.9685 12.5127 30.9685C12.6082 30.9685 12.6998 31.0065 12.7674 31.074C12.8349 31.1415 12.8729 31.2331 12.8729 31.3287V32.2622C12.8729 32.3577 12.8349 32.4493 12.7674 32.5169C12.6998 32.5844 12.6082 32.6224 12.5127 32.6224ZM12.5127 47.0242C12.4172 47.0242 12.3256 46.9862 12.258 46.9187C12.1905 46.8511 12.1525 46.7595 12.1525 46.664V45.73C12.1525 45.6345 12.1905 45.5429 12.258 45.4753C12.3256 45.4078 12.4172 45.3698 12.5127 45.3698C12.6082 45.3698 12.6998 45.4078 12.7674 45.4753C12.8349 45.5429 12.8729 45.6345 12.8729 45.73V46.6635C12.8729 46.7591 12.8349 46.8507 12.7674 46.9182C12.6998 46.9857 12.6082 47.0242 12.5127 47.0242ZM5.77906 39.3565H4.84552C4.74999 39.3565 4.65839 39.3186 4.59084 39.251C4.5233 39.1835 4.48535 39.0919 4.48535 38.9963C4.48535 38.9008 4.5233 38.8092 4.59084 38.7417C4.65839 38.6741 4.74999 38.6362 4.84552 38.6362H5.77906C5.87459 38.6362 5.96619 38.6741 6.03374 38.7417C6.10128 38.8092 6.13923 38.9008 6.13923 38.9963C6.13923 39.0919 6.10128 39.1835 6.03374 39.251C5.96619 39.3186 5.87459 39.3565 5.77906 39.3565ZM20.1804 39.3565H19.2468C19.1513 39.3565 19.0597 39.3186 18.9922 39.251C18.9246 39.1835 18.8867 39.0919 18.8867 38.9963C18.8867 38.9008 18.9246 38.8092 18.9922 38.7417C19.0597 38.6741 19.1513 38.6362 19.2468 38.6362H20.1804C20.2759 38.6362 20.3675 38.6741 20.435 38.7417C20.5026 38.8092 20.5405 38.9008 20.5405 38.9963C20.5405 39.0919 20.5026 39.1835 20.435 39.251C20.3675 39.3186 20.2759 39.3565 20.1804 39.3565ZM7.75133 34.5951C7.70404 34.5951 7.65721 34.5858 7.61353 34.5677C7.56986 34.5495 7.53019 34.523 7.49681 34.4895L6.83699 33.8292C6.8016 33.7962 6.77322 33.7564 6.75353 33.7123C6.73385 33.6681 6.72326 33.6204 6.72241 33.572C6.72156 33.5237 6.73045 33.4756 6.74857 33.4308C6.76668 33.3859 6.79364 33.3452 6.82785 33.311C6.86205 33.2768 6.90278 33.2498 6.94763 33.2317C6.99248 33.2136 7.04051 33.2047 7.08887 33.2056C7.13723 33.2064 7.18493 33.217 7.22911 33.2367C7.27329 33.2564 7.31305 33.2848 7.34602 33.3201L8.00632 33.98C8.05663 34.0303 8.09088 34.0945 8.10475 34.1643C8.11862 34.2341 8.11149 34.3065 8.08426 34.3723C8.05702 34.438 8.01091 34.4943 7.95174 34.5338C7.89257 34.5734 7.82299 34.5946 7.75181 34.5946L7.75133 34.5951ZM17.9349 44.7782C17.8876 44.7782 17.8407 44.7689 17.7971 44.7507C17.7534 44.7326 17.7137 44.706 17.6803 44.6725L17.02 44.0127C16.9847 43.9797 16.9563 43.94 16.9366 43.8958C16.9169 43.8516 16.9063 43.8039 16.9055 43.7556C16.9046 43.7072 16.9135 43.6592 16.9316 43.6143C16.9497 43.5695 16.9767 43.5287 17.0109 43.4945C17.0451 43.4603 17.0858 43.4334 17.1307 43.4153C17.1755 43.3971 17.2236 43.3883 17.2719 43.3891C17.3203 43.39 17.368 43.4005 17.4122 43.4202C17.4563 43.4399 17.4961 43.4683 17.5291 43.5037L18.1894 44.1635C18.2397 44.2139 18.2739 44.278 18.2878 44.3478C18.3017 44.4177 18.2946 44.49 18.2673 44.5558C18.2401 44.6216 18.194 44.6778 18.1348 44.7174C18.0756 44.757 18.0061 44.7781 17.9349 44.7782ZM7.09102 44.7782C7.01984 44.7781 6.95026 44.757 6.89109 44.7174C6.83192 44.6778 6.78581 44.6216 6.75857 44.5558C6.73134 44.49 6.72421 44.4177 6.73808 44.3478C6.75195 44.278 6.7862 44.2139 6.83651 44.1635L7.49681 43.5032C7.56508 43.4396 7.65539 43.4049 7.7487 43.4066C7.842 43.4082 7.93103 43.446 7.99702 43.512C8.06301 43.578 8.1008 43.667 8.10245 43.7603C8.1041 43.8537 8.06946 43.944 8.00584 44.0122L7.34602 44.6725C7.31264 44.706 7.27297 44.7326 7.2293 44.7507C7.18562 44.7689 7.13879 44.7782 7.0915 44.7782H7.09102ZM17.2746 34.5951C17.2034 34.5951 17.1338 34.5739 17.0746 34.5343C17.0155 34.4947 16.9693 34.4385 16.9421 34.3727C16.9149 34.307 16.9077 34.2346 16.9216 34.1648C16.9355 34.095 16.9697 34.0308 17.02 33.9804L17.6803 33.3201C17.7133 33.2848 17.7531 33.2564 17.7973 33.2367C17.8414 33.217 17.8891 33.2064 17.9375 33.2056C17.9859 33.2047 18.0339 33.2136 18.0787 33.2317C18.1236 33.2498 18.1643 33.2768 18.1985 33.311C18.2327 33.3452 18.2597 33.3859 18.2778 33.4308C18.2959 33.4756 18.3048 33.5237 18.304 33.572C18.3031 33.6204 18.2925 33.6681 18.2728 33.7123C18.2532 33.7564 18.2248 33.7962 18.1894 33.8292L17.5291 34.4895C17.4957 34.523 17.456 34.5495 17.4124 34.5677C17.3687 34.5858 17.3219 34.5951 17.2746 34.5951ZM9.49548 42.6422C9.33173 42.6422 9.17278 42.5783 9.05128 42.4568C8.96611 42.3726 8.90689 42.2657 8.88067 42.1488C8.85445 42.0319 8.86233 41.91 8.90337 41.7975L10.2792 37.9725C10.379 37.6937 10.5394 37.4405 10.7489 37.231C10.9583 37.0216 11.2115 36.8612 11.4903 36.7614L15.3148 35.386C15.4274 35.3448 15.5494 35.3369 15.6664 35.3631C15.7834 35.3893 15.8904 35.4486 15.9746 35.534C16.1494 35.7083 16.2056 35.9613 16.122 36.1938L14.7472 40.0178C14.6473 40.2966 14.4869 40.5498 14.2775 40.7592C14.0681 40.9686 13.8149 41.129 13.5361 41.2289L9.71206 42.6047C9.64099 42.6302 9.56752 42.6422 9.49548 42.6422ZM15.3801 36.128L11.7343 37.4395C11.5553 37.5035 11.3928 37.6064 11.2583 37.7407C11.1239 37.8751 11.0209 38.0375 10.9568 38.2165L9.64579 41.8628L13.2916 40.5513C13.4706 40.4872 13.6332 40.3842 13.7676 40.2498C13.902 40.1154 14.005 39.9528 14.0691 39.7738L15.3801 36.128Z" fill="black"/>
<path d="M13.4136 40.8903V40.9903H13.4184V40.8903V40.7903H13.4136V40.8903ZM7.75133 34.5951L7.75137 34.7951L7.83413 34.7951L7.89268 34.7366L7.75133 34.5951ZM7.49681 34.4895L7.63848 34.3483L7.63828 34.3481L7.49681 34.4895ZM6.83699 33.8292L6.97855 33.6877L6.97333 33.6829L6.83699 33.8292ZM7.34602 33.3201L7.19961 33.4566L7.20465 33.4616L7.34602 33.3201ZM8.00632 33.98L8.14783 33.8386L8.14769 33.8385L8.00632 33.98ZM7.75181 34.5946L7.75163 34.3946L7.66895 34.3947L7.61045 34.4532L7.75181 34.5946ZM17.9349 44.7782L17.9349 44.9782H17.935L17.9349 44.7782ZM17.6803 44.6725L17.822 44.5314L17.8217 44.5311L17.6803 44.6725ZM17.02 44.0127L17.1615 43.8712L17.1564 43.8664L17.02 44.0127ZM17.5291 43.5037L17.3827 43.6401L17.3877 43.6452L17.5291 43.5037ZM18.1894 44.1635L18.3309 44.0222L18.3308 44.022L18.1894 44.1635ZM7.09102 44.7782L7.09085 44.9782H7.09102V44.7782ZM6.83651 44.1635L6.69509 44.0221L6.695 44.0222L6.83651 44.1635ZM7.49681 43.5032L7.36038 43.3568L7.35539 43.3618L7.49681 43.5032ZM8.00584 44.0122L8.1474 44.1537L8.15217 44.1486L8.00584 44.0122ZM7.34602 44.6725L7.20455 44.5312L7.20435 44.5314L7.34602 44.6725ZM7.0915 44.7782L7.09155 44.5782H7.0915V44.7782ZM17.2746 34.5951L17.2744 34.7951H17.2745L17.2746 34.5951ZM17.02 33.9804L16.8786 33.839L16.8785 33.8391L17.02 33.9804ZM17.6803 33.3201L17.8219 33.4616L17.8267 33.4565L17.6803 33.3201ZM18.1894 33.8292L18.053 33.6828L18.048 33.6878L18.1894 33.8292ZM17.5291 34.4895L17.3877 34.3481L17.3874 34.3483L17.5291 34.4895ZM9.05128 42.4568L9.19271 42.3154L9.1919 42.3146L9.05128 42.4568ZM8.90337 41.7975L9.09127 41.866L9.09157 41.8652L8.90337 41.7975ZM10.2792 37.9725L10.4674 38.0402L10.4675 38.0399L10.2792 37.9725ZM11.4903 36.7614L11.5577 36.9497L11.558 36.9496L11.4903 36.7614ZM15.3148 35.386L15.3825 35.5743L15.3835 35.5739L15.3148 35.386ZM15.9746 35.534L15.8323 35.6745L15.8334 35.6756L15.9746 35.534ZM16.122 36.1938L16.3102 36.2614L16.3102 36.2614L16.122 36.1938ZM14.7472 40.0178L14.559 39.9501L14.5589 39.9503L14.7472 40.0178ZM13.5361 41.2289L13.4686 41.0406L13.4683 41.0407L13.5361 41.2289ZM9.71206 42.6047L9.77949 42.793L9.77977 42.7929L9.71206 42.6047ZM15.3801 36.128L15.5683 36.1957L15.712 35.796L15.3124 35.9398L15.3801 36.128ZM11.7343 37.4395L11.8016 37.6278L11.802 37.6277L11.7343 37.4395ZM10.9568 38.2165L11.145 38.2841L11.1451 38.2839L10.9568 38.2165ZM9.64579 41.8628L9.45759 41.7951L9.31392 42.1947L9.71349 42.051L9.64579 41.8628ZM13.2916 40.5513L13.2242 40.363L13.2239 40.3631L13.2916 40.5513ZM14.0691 39.7738L13.8809 39.7061L13.8808 39.7064L14.0691 39.7738ZM12.5127 32.6224V32.4224C12.4702 32.4224 12.4295 32.4055 12.3995 32.3755L12.258 32.5169L12.1166 32.6583C12.2217 32.7634 12.3641 32.8224 12.5127 32.8224V32.6224ZM12.258 32.5169L12.3995 32.3755C12.3694 32.3454 12.3525 32.3047 12.3525 32.2622H12.1525H11.9525C11.9525 32.4108 12.0116 32.5533 12.1166 32.6583L12.258 32.5169ZM12.1525 32.2622H12.3525V31.3287H12.1525H11.9525V32.2622H12.1525ZM12.1525 31.3287H12.3525C12.3525 31.2862 12.3694 31.2455 12.3995 31.2154L12.258 31.074L12.1166 30.9326C12.0116 31.0376 11.9525 31.1801 11.9525 31.3287H12.1525ZM12.258 31.074L12.3995 31.2154C12.4295 31.1854 12.4702 31.1685 12.5127 31.1685V30.9685V30.7685C12.3641 30.7685 12.2217 30.8275 12.1166 30.9326L12.258 31.074ZM12.5127 30.9685V31.1685C12.5552 31.1685 12.5959 31.1854 12.626 31.2154L12.7674 31.074L12.9088 30.9326C12.8038 30.8275 12.6613 30.7685 12.5127 30.7685V30.9685ZM12.7674 31.074L12.626 31.2154C12.656 31.2455 12.6729 31.2862 12.6729 31.3287H12.8729H13.0729C13.0729 31.1801 13.0139 31.0376 12.9088 30.9326L12.7674 31.074ZM12.8729 31.3287H12.6729V32.2622H12.8729H13.0729V31.3287H12.8729ZM12.8729 32.2622H12.6729C12.6729 32.3047 12.656 32.3454 12.626 32.3755L12.7674 32.5169L12.9088 32.6583C13.0139 32.5533 13.0729 32.4108 13.0729 32.2622H12.8729ZM12.7674 32.5169L12.626 32.3755C12.5959 32.4055 12.5552 32.4224 12.5127 32.4224V32.6224V32.8224C12.6613 32.8224 12.8038 32.7634 12.9088 32.6583L12.7674 32.5169ZM12.5127 47.0242V46.8242C12.4702 46.8242 12.4295 46.8073 12.3995 46.7773L12.258 46.9187L12.1166 47.0601C12.2217 47.1652 12.3641 47.2242 12.5127 47.2242V47.0242ZM12.258 46.9187L12.3995 46.7773C12.3694 46.7472 12.3525 46.7065 12.3525 46.664H12.1525H11.9525C11.9525 46.8126 12.0116 46.9551 12.1166 47.0601L12.258 46.9187ZM12.1525 46.664H12.3525V45.73H12.1525H11.9525V46.664H12.1525ZM12.1525 45.73H12.3525C12.3525 45.6875 12.3694 45.6468 12.3995 45.6167L12.258 45.4753L12.1166 45.3339C12.0116 45.4389 11.9525 45.5814 11.9525 45.73H12.1525ZM12.258 45.4753L12.3995 45.6167C12.4295 45.5867 12.4702 45.5698 12.5127 45.5698V45.3698V45.1698C12.3641 45.1698 12.2217 45.2288 12.1166 45.3339L12.258 45.4753ZM12.5127 45.3698V45.5698C12.5552 45.5698 12.5959 45.5867 12.626 45.6167L12.7674 45.4753L12.9088 45.3339C12.8038 45.2288 12.6613 45.1698 12.5127 45.1698V45.3698ZM12.7674 45.4753L12.626 45.6167C12.656 45.6468 12.6729 45.6875 12.6729 45.73H12.8729H13.0729C13.0729 45.5814 13.0139 45.4389 12.9088 45.3339L12.7674 45.4753ZM12.8729 45.73H12.6729V46.6635H12.8729H13.0729V45.73H12.8729ZM12.8729 46.6635H12.6729C12.6729 46.706 12.656 46.7467 12.626 46.7768L12.7674 46.9182L12.9088 47.0596C13.0139 46.9546 13.0729 46.8121 13.0729 46.6635H12.8729ZM12.7674 46.9182L12.626 46.7768C12.5954 46.8073 12.5545 46.8242 12.5127 46.8242V47.0242V47.2242C12.662 47.2242 12.8042 47.1642 12.9088 47.0596L12.7674 46.9182ZM5.77906 39.3565V39.1565H4.84552V39.3565V39.5565H5.77906V39.3565ZM4.84552 39.3565V39.1565C4.80303 39.1565 4.7623 39.1396 4.73226 39.1096L4.59084 39.251L4.44942 39.3924C4.55447 39.4975 4.69695 39.5565 4.84552 39.5565V39.3565ZM4.59084 39.251L4.73226 39.1096C4.70223 39.0796 4.68535 39.0388 4.68535 38.9963H4.48535H4.28535C4.28535 39.1449 4.34437 39.2874 4.44942 39.3924L4.59084 39.251ZM4.48535 38.9963H4.68535C4.68535 38.9539 4.70223 38.9131 4.73226 38.8831L4.59084 38.7417L4.44942 38.6002C4.34437 38.7053 4.28535 38.8478 4.28535 38.9963H4.48535ZM4.59084 38.7417L4.73226 38.8831C4.7623 38.853 4.80304 38.8362 4.84552 38.8362V38.6362V38.4362C4.69695 38.4362 4.55447 38.4952 4.44942 38.6002L4.59084 38.7417ZM4.84552 38.6362V38.8362H5.77906V38.6362V38.4362H4.84552V38.6362ZM5.77906 38.6362V38.8362C5.82154 38.8362 5.86228 38.853 5.89232 38.8831L6.03374 38.7417L6.17516 38.6002C6.07011 38.4952 5.92763 38.4362 5.77906 38.4362V38.6362ZM6.03374 38.7417L5.89232 38.8831C5.92235 38.9131 5.93923 38.9539 5.93923 38.9963H6.13923H6.33923C6.33923 38.8478 6.28021 38.7053 6.17516 38.6002L6.03374 38.7417ZM6.13923 38.9963H5.93923C5.93923 39.0388 5.92235 39.0796 5.89232 39.1096L6.03374 39.251L6.17516 39.3924C6.28021 39.2874 6.33923 39.1449 6.33923 38.9963H6.13923ZM6.03374 39.251L5.89232 39.1096C5.86228 39.1396 5.82155 39.1565 5.77906 39.1565V39.3565V39.5565C5.92763 39.5565 6.07011 39.4975 6.17516 39.3924L6.03374 39.251ZM20.1804 39.3565V39.1565H19.2468V39.3565V39.5565H20.1804V39.3565ZM19.2468 39.3565V39.1565C19.2043 39.1565 19.1636 39.1396 19.1336 39.1096L18.9922 39.251L18.8507 39.3924C18.9558 39.4975 19.0983 39.5565 19.2468 39.5565V39.3565ZM18.9922 39.251L19.1336 39.1096C19.1035 39.0796 19.0867 39.0388 19.0867 38.9963H18.8867H18.6867C18.6867 39.1449 18.7457 39.2874 18.8507 39.3924L18.9922 39.251ZM18.8867 38.9963H19.0867C19.0867 38.9539 19.1035 38.9131 19.1336 38.8831L18.9922 38.7417L18.8507 38.6002C18.7457 38.7053 18.6867 38.8478 18.6867 38.9963H18.8867ZM18.9922 38.7417L19.1336 38.8831C19.1636 38.853 19.2044 38.8362 19.2468 38.8362V38.6362V38.4362C19.0983 38.4362 18.9558 38.4952 18.8507 38.6002L18.9922 38.7417ZM19.2468 38.6362V38.8362H20.1804V38.6362V38.4362H19.2468V38.6362ZM20.1804 38.6362V38.8362C20.2229 38.8362 20.2636 38.853 20.2936 38.8831L20.435 38.7417L20.5765 38.6002C20.4714 38.4952 20.3289 38.4362 20.1804 38.4362V38.6362ZM20.435 38.7417L20.2936 38.8831C20.3237 38.9131 20.3405 38.9539 20.3405 38.9963H20.5405H20.7405C20.7405 38.8478 20.6815 38.7053 20.5765 38.6002L20.435 38.7417ZM20.5405 38.9963H20.3405C20.3405 39.0388 20.3237 39.0796 20.2936 39.1096L20.435 39.251L20.5765 39.3924C20.6815 39.2874 20.7405 39.1449 20.7405 38.9963H20.5405ZM20.435 39.251L20.2936 39.1096C20.2636 39.1396 20.2229 39.1565 20.1804 39.1565V39.3565V39.5565C20.3289 39.5565 20.4714 39.4975 20.5765 39.3924L20.435 39.251ZM7.75133 34.5951L7.75128 34.3951C7.73032 34.3951 7.70957 34.391 7.69021 34.383L7.61353 34.5677L7.53686 34.7524C7.60486 34.7806 7.67775 34.7951 7.75137 34.7951L7.75133 34.5951ZM7.61353 34.5677L7.69021 34.383C7.67085 34.3749 7.65327 34.3631 7.63848 34.3483L7.49681 34.4895L7.35514 34.6307C7.40711 34.6828 7.46887 34.7242 7.53686 34.7524L7.61353 34.5677ZM7.49681 34.4895L7.63828 34.3481L6.97846 33.6878L6.83699 33.8292L6.69551 33.9705L7.35534 34.6308L7.49681 34.4895ZM6.83699 33.8292L6.97333 33.6829C6.9576 33.6682 6.94497 33.6505 6.93622 33.6309L6.75353 33.7123L6.57085 33.7937C6.60146 33.8624 6.64561 33.9242 6.70064 33.9755L6.83699 33.8292ZM6.75353 33.7123L6.93622 33.6309C6.92747 33.6112 6.92276 33.59 6.92238 33.5685L6.72241 33.572L6.52244 33.5756C6.52377 33.6508 6.54023 33.7249 6.57085 33.7937L6.75353 33.7123ZM6.72241 33.572L6.92238 33.5685C6.922 33.547 6.92596 33.5256 6.93401 33.5057L6.74857 33.4308L6.56312 33.3559C6.53495 33.4256 6.52112 33.5003 6.52244 33.5756L6.72241 33.572ZM6.74857 33.4308L6.93401 33.5057C6.94207 33.4857 6.95406 33.4676 6.96927 33.4524L6.82785 33.311L6.68642 33.1696C6.63323 33.2228 6.5913 33.2861 6.56312 33.3559L6.74857 33.4308ZM6.82785 33.311L6.96927 33.4524C6.98448 33.4372 7.00259 33.4252 7.02254 33.4172L6.94763 33.2317L6.87273 33.0463C6.80298 33.0745 6.73962 33.1164 6.68642 33.1696L6.82785 33.311ZM6.94763 33.2317L7.02254 33.4172C7.04248 33.4091 7.06384 33.4052 7.08535 33.4055L7.08887 33.2056L7.0924 33.0056C7.01719 33.0043 6.94248 33.0181 6.87273 33.0463L6.94763 33.2317ZM7.08887 33.2056L7.08535 33.4055C7.10685 33.4059 7.12806 33.4106 7.14771 33.4194L7.22911 33.2367L7.3105 33.054C7.24179 33.0234 7.16762 33.0069 7.0924 33.0056L7.08887 33.2056ZM7.22911 33.2367L7.14771 33.4194C7.16736 33.4281 7.18504 33.4408 7.1997 33.4565L7.34602 33.3201L7.49234 33.1838C7.44106 33.1288 7.37921 33.0846 7.3105 33.054L7.22911 33.2367ZM7.34602 33.3201L7.20465 33.4616L7.86495 34.1214L8.00632 33.98L8.14769 33.8385L7.48739 33.1787L7.34602 33.3201ZM8.00632 33.98L7.86481 34.1213C7.88718 34.1437 7.90242 34.1722 7.90858 34.2033L8.10475 34.1643L8.30092 34.1253C8.27934 34.0167 8.22607 33.917 8.14783 33.8386L8.00632 33.98ZM8.10475 34.1643L7.90858 34.2033C7.91475 34.2343 7.91158 34.2665 7.89947 34.2958L8.08426 34.3723L8.26904 34.4488C8.3114 34.3465 8.32249 34.2339 8.30092 34.1253L8.10475 34.1643ZM8.08426 34.3723L7.89947 34.2958C7.88736 34.325 7.86685 34.35 7.84054 34.3676L7.95174 34.5338L8.06294 34.7001C8.15497 34.6385 8.22669 34.5511 8.26904 34.4488L8.08426 34.3723ZM7.95174 34.5338L7.84054 34.3676C7.81423 34.3852 7.78329 34.3946 7.75163 34.3946L7.75181 34.5946L7.75198 34.7946C7.8627 34.7945 7.9709 34.7616 8.06294 34.7001L7.95174 34.5338ZM7.75181 34.5946L7.61045 34.4532L7.60997 34.4536L7.75133 34.5951L7.89268 34.7366L7.89316 34.7361L7.75181 34.5946ZM17.9349 44.7782L17.9348 44.5782C17.9139 44.5782 17.8931 44.5741 17.8737 44.566L17.7971 44.7507L17.7204 44.9355C17.7884 44.9637 17.8613 44.9782 17.9349 44.9782L17.9349 44.7782ZM17.7971 44.7507L17.8737 44.566C17.8544 44.558 17.8368 44.5462 17.822 44.5314L17.6803 44.6725L17.5387 44.8137C17.5906 44.8659 17.6524 44.9072 17.7204 44.9355L17.7971 44.7507ZM17.6803 44.6725L17.8217 44.5311L17.1614 43.8712L17.02 44.0127L16.8787 44.1542L17.539 44.814L17.6803 44.6725ZM17.02 44.0127L17.1564 43.8664C17.1407 43.8517 17.128 43.834 17.1193 43.8144L16.9366 43.8958L16.7539 43.9772C16.7845 44.0459 16.8287 44.1078 16.8837 44.159L17.02 44.0127ZM16.9366 43.8958L17.1193 43.8144C17.1105 43.7948 17.1058 43.7735 17.1054 43.752L16.9055 43.7556L16.7055 43.7591C16.7068 43.8343 16.7233 43.9085 16.7539 43.9772L16.9366 43.8958ZM16.9055 43.7556L17.1054 43.752C17.1051 43.7305 17.109 43.7092 17.1171 43.6892L16.9316 43.6143L16.7462 43.5394C16.718 43.6092 16.7042 43.6839 16.7055 43.7591L16.9055 43.7556ZM16.9316 43.6143L17.1171 43.6892C17.1251 43.6693 17.1371 43.6512 17.1523 43.636L17.0109 43.4945L16.8695 43.3531C16.8163 43.4063 16.7744 43.4697 16.7462 43.5394L16.9316 43.6143ZM17.0109 43.4945L17.1523 43.636C17.1675 43.6208 17.1857 43.6088 17.2056 43.6007L17.1307 43.4153L17.0558 43.2298C16.986 43.258 16.9227 43.2999 16.8695 43.3531L17.0109 43.4945ZM17.1307 43.4153L17.2056 43.6007C17.2255 43.5926 17.2469 43.5887 17.2684 43.5891L17.2719 43.3891L17.2755 43.1891C17.2002 43.1878 17.1255 43.2016 17.0558 43.2298L17.1307 43.4153ZM17.2719 43.3891L17.2684 43.5891C17.2899 43.5895 17.3111 43.5942 17.3308 43.6029L17.4122 43.4202L17.4936 43.2375C17.4249 43.2069 17.3507 43.1905 17.2755 43.1891L17.2719 43.3891ZM17.4122 43.4202L17.3308 43.6029C17.3504 43.6117 17.3681 43.6243 17.3828 43.64L17.5291 43.5037L17.6754 43.3673C17.6241 43.3123 17.5623 43.2682 17.4936 43.2375L17.4122 43.4202ZM17.5291 43.5037L17.3877 43.6452L18.048 44.305L18.1894 44.1635L18.3308 44.022L17.6705 43.3622L17.5291 43.5037ZM18.1894 44.1635L18.0479 44.3048C18.0702 44.3272 18.0855 44.3558 18.0916 44.3868L18.2878 44.3478L18.484 44.3089C18.4624 44.2003 18.4091 44.1005 18.3309 44.0222L18.1894 44.1635ZM18.2878 44.3478L18.0916 44.3868C18.0978 44.4179 18.0946 44.45 18.0825 44.4793L18.2673 44.5558L18.4521 44.6323C18.4945 44.53 18.5055 44.4175 18.484 44.3089L18.2878 44.3478ZM18.2673 44.5558L18.0825 44.4793C18.0704 44.5085 18.0499 44.5336 18.0236 44.5512L18.1348 44.7174L18.246 44.8836C18.338 44.8221 18.4097 44.7346 18.4521 44.6323L18.2673 44.5558ZM18.1348 44.7174L18.0236 44.5512C17.9973 44.5687 17.9664 44.5782 17.9347 44.5782L17.9349 44.7782L17.935 44.9782C18.0458 44.9781 18.154 44.9452 18.246 44.8836L18.1348 44.7174ZM7.09102 44.7782L7.0912 44.5782C7.05954 44.5782 7.0286 44.5687 7.00229 44.5512L6.89109 44.7174L6.7799 44.8836C6.87193 44.9452 6.98013 44.9781 7.09085 44.9782L7.09102 44.7782ZM6.89109 44.7174L7.00229 44.5512C6.97598 44.5336 6.95547 44.5085 6.94336 44.4793L6.75857 44.5558L6.57379 44.6323C6.61614 44.7346 6.68787 44.8221 6.7799 44.8836L6.89109 44.7174ZM6.75857 44.5558L6.94336 44.4793C6.93125 44.45 6.92808 44.4179 6.93425 44.3868L6.73808 44.3478L6.54191 44.3089C6.52034 44.4175 6.53143 44.53 6.57379 44.6323L6.75857 44.5558ZM6.73808 44.3478L6.93425 44.3868C6.94041 44.3558 6.95565 44.3272 6.97802 44.3048L6.83651 44.1635L6.695 44.0222C6.61676 44.1005 6.56349 44.2003 6.54191 44.3089L6.73808 44.3478ZM6.83651 44.1635L6.97793 44.3049L7.63823 43.6446L7.49681 43.5032L7.35539 43.3618L6.69509 44.0221L6.83651 44.1635ZM7.49681 43.5032L7.63315 43.6495C7.66351 43.6212 7.70367 43.6058 7.74517 43.6066L7.7487 43.4066L7.75222 43.2066C7.60711 43.2041 7.46666 43.2579 7.36047 43.3569L7.49681 43.5032ZM7.7487 43.4066L7.74517 43.6066C7.78666 43.6073 7.82625 43.6241 7.8556 43.6534L7.99702 43.512L8.13844 43.3706C8.03581 43.268 7.89734 43.2092 7.75222 43.2066L7.7487 43.4066ZM7.99702 43.512L7.8556 43.6534C7.88494 43.6828 7.90175 43.7224 7.90248 43.7639L8.10245 43.7603L8.30242 43.7568C8.29986 43.6117 8.24107 43.4732 8.13844 43.3706L7.99702 43.512ZM8.10245 43.7603L7.90248 43.7639C7.90321 43.8054 7.88781 43.8455 7.85952 43.8759L8.00584 44.0122L8.15217 44.1486C8.25111 44.0424 8.30498 43.9019 8.30242 43.7568L8.10245 43.7603ZM8.00584 44.0122L7.86437 43.8709L7.20455 44.5312L7.34602 44.6725L7.48749 44.8139L8.14732 44.1536L8.00584 44.0122ZM7.34602 44.6725L7.20435 44.5314C7.18956 44.5462 7.17198 44.558 7.15262 44.566L7.2293 44.7507L7.30597 44.9355C7.37397 44.9072 7.43572 44.8659 7.48769 44.8137L7.34602 44.6725ZM7.2293 44.7507L7.15262 44.566C7.13327 44.5741 7.11251 44.5782 7.09155 44.5782L7.0915 44.7782L7.09146 44.9782C7.16508 44.9782 7.23798 44.9637 7.30597 44.9355L7.2293 44.7507ZM7.0915 44.7782V44.5782H7.09102V44.7782V44.9782H7.0915V44.7782ZM17.2746 34.5951L17.2747 34.3951C17.2431 34.3951 17.2121 34.3857 17.1858 34.3681L17.0746 34.5343L16.9634 34.7006C17.0555 34.7621 17.1637 34.795 17.2744 34.7951L17.2746 34.5951ZM17.0746 34.5343L17.1858 34.3681C17.1595 34.3505 17.139 34.3255 17.1269 34.2962L16.9421 34.3727L16.7573 34.4493C16.7997 34.5516 16.8714 34.639 16.9634 34.7006L17.0746 34.5343ZM16.9421 34.3727L17.1269 34.2962C17.1148 34.267 17.1116 34.2348 17.1178 34.2038L16.9216 34.1648L16.7255 34.1258C16.7039 34.2344 16.715 34.347 16.7573 34.4493L16.9421 34.3727ZM16.9216 34.1648L17.1178 34.2038C17.124 34.1727 17.1392 34.1442 17.1616 34.1218L17.02 33.9804L16.8785 33.8391C16.8003 33.9174 16.747 34.0172 16.7255 34.1258L16.9216 34.1648ZM17.02 33.9804L17.1615 34.1219L17.8218 33.4616L17.6803 33.3201L17.5389 33.1787L16.8786 33.839L17.02 33.9804ZM17.6803 33.3201L17.8267 33.4565C17.8413 33.4408 17.859 33.4281 17.8787 33.4194L17.7973 33.2367L17.7159 33.054C17.6472 33.0846 17.5853 33.1288 17.534 33.1838L17.6803 33.3201ZM17.7973 33.2367L17.8787 33.4194C17.8983 33.4106 17.9195 33.4059 17.941 33.4055L17.9375 33.2056L17.934 33.0056C17.8588 33.0069 17.7846 33.0234 17.7159 33.054L17.7973 33.2367ZM17.9375 33.2056L17.941 33.4055C17.9625 33.4052 17.9839 33.4091 18.0038 33.4172L18.0787 33.2317L18.1536 33.0463C18.0839 33.0181 18.0092 33.0043 17.934 33.0056L17.9375 33.2056ZM18.0787 33.2317L18.0038 33.4172C18.0238 33.4252 18.0419 33.4372 18.0571 33.4524L18.1985 33.311L18.3399 33.1696C18.2868 33.1164 18.2234 33.0745 18.1536 33.0463L18.0787 33.2317ZM18.1985 33.311L18.0571 33.4524C18.0723 33.4676 18.0843 33.4857 18.0924 33.5057L18.2778 33.4308L18.4632 33.3559C18.4351 33.2861 18.3931 33.2228 18.3399 33.1696L18.1985 33.311ZM18.2778 33.4308L18.0924 33.5057C18.1004 33.5256 18.1044 33.547 18.104 33.5685L18.304 33.572L18.5039 33.5756C18.5053 33.5003 18.4914 33.4256 18.4632 33.3559L18.2778 33.4308ZM18.304 33.572L18.104 33.5685C18.1036 33.59 18.0989 33.6112 18.0902 33.6309L18.2728 33.7123L18.4555 33.7937C18.4861 33.7249 18.5026 33.6508 18.5039 33.5756L18.304 33.572ZM18.2728 33.7123L18.0902 33.6309C18.0814 33.6505 18.0688 33.6682 18.053 33.6829L18.1894 33.8292L18.3257 33.9755C18.3808 33.9242 18.4249 33.8624 18.4555 33.7937L18.2728 33.7123ZM18.1894 33.8292L18.048 33.6878L17.3877 34.3481L17.5291 34.4895L17.6705 34.6309L18.3308 33.9706L18.1894 33.8292ZM17.5291 34.4895L17.3874 34.3483C17.3726 34.3631 17.355 34.3749 17.3357 34.383L17.4124 34.5677L17.489 34.7524C17.557 34.7242 17.6188 34.6828 17.6707 34.6307L17.5291 34.4895ZM17.4124 34.5677L17.3357 34.383C17.3163 34.391 17.2956 34.3951 17.2746 34.3951L17.2746 34.5951L17.2745 34.7951C17.3481 34.7951 17.421 34.7806 17.489 34.7524L17.4124 34.5677ZM9.49548 42.6422V42.4422C9.38453 42.4422 9.27652 42.3992 9.1927 42.3154L9.05128 42.4568L8.90986 42.5982C9.06904 42.7574 9.27893 42.8422 9.49548 42.8422V42.6422ZM9.05128 42.4568L9.1919 42.3146C9.13395 42.2573 9.09366 42.1846 9.07582 42.105L8.88067 42.1488L8.68552 42.1926C8.72012 42.3468 8.79826 42.4879 8.91066 42.599L9.05128 42.4568ZM8.88067 42.1488L9.07582 42.105C9.05799 42.0255 9.06335 41.9425 9.09127 41.866L8.90337 41.7975L8.71548 41.7289C8.66132 41.8774 8.65093 42.0384 8.68552 42.1926L8.88067 42.1488ZM8.90337 41.7975L9.09157 41.8652L10.4674 38.0402L10.2792 37.9725L10.091 37.9048L8.71518 41.7298L8.90337 41.7975ZM10.2792 37.9725L10.4675 38.0399C10.5574 37.7889 10.7018 37.561 10.8903 37.3725L10.7489 37.231L10.6074 37.0896C10.3771 37.3199 10.2007 37.5984 10.0909 37.9051L10.2792 37.9725ZM10.7489 37.231L10.8903 37.3725C11.0788 37.184 11.3067 37.0396 11.5577 36.9497L11.4903 36.7614L11.4229 36.5731C11.1162 36.6829 10.8377 36.8593 10.6074 37.0896L10.7489 37.231ZM11.4903 36.7614L11.558 36.9496L15.3825 35.5742L15.3148 35.386L15.2471 35.1978L11.4226 36.5732L11.4903 36.7614ZM15.3148 35.386L15.3835 35.5739C15.4601 35.5458 15.5431 35.5404 15.6227 35.5583L15.6664 35.3631L15.7102 35.168C15.5558 35.1333 15.3947 35.1438 15.2461 35.1982L15.3148 35.386ZM15.6664 35.3631L15.6227 35.5583C15.7022 35.5761 15.775 35.6164 15.8323 35.6745L15.9746 35.534L16.1169 35.3934C16.0058 35.2808 15.8646 35.2026 15.7102 35.168L15.6664 35.3631ZM15.9746 35.534L15.8334 35.6756C15.953 35.7948 15.9913 35.9662 15.9338 36.1261L16.122 36.1938L16.3102 36.2614C16.4199 35.9565 16.3458 35.6217 16.1158 35.3923L15.9746 35.534ZM16.122 36.1938L15.9338 36.1261L14.559 39.9501L14.7472 40.0178L14.9354 40.0854L16.3102 36.2614L16.122 36.1938ZM14.7472 40.0178L14.5589 39.9503C14.469 40.2013 14.3246 40.4293 14.1361 40.6178L14.2775 40.7592L14.4189 40.9006C14.6492 40.6703 14.8256 40.3918 14.9355 40.0852L14.7472 40.0178ZM14.2775 40.7592L14.1361 40.6178C13.9475 40.8063 13.7196 40.9507 13.4686 41.0406L13.5361 41.2289L13.6035 41.4172C13.9101 41.3073 14.1886 41.1309 14.4189 40.9006L14.2775 40.7592ZM13.5361 41.2289L13.4683 41.0407L9.64435 42.4165L9.71206 42.6047L9.77977 42.7929L13.6038 41.4171L13.5361 41.2289ZM9.71206 42.6047L9.64464 42.4164C9.59596 42.4338 9.54536 42.4422 9.49548 42.4422V42.6422V42.8422C9.58967 42.8422 9.68602 42.8265 9.77949 42.793L9.71206 42.6047ZM15.3801 36.128L15.3124 35.9398L11.6666 37.2513L11.7343 37.4395L11.802 37.6277L15.4478 36.3162L15.3801 36.128ZM11.7343 37.4395L11.6669 37.2512C11.4601 37.3251 11.2723 37.444 11.117 37.5992L11.2583 37.7407L11.3997 37.8822C11.5132 37.7687 11.6505 37.6818 11.8016 37.6278L11.7343 37.4395ZM11.2583 37.7407L11.117 37.5992C10.9616 37.7545 10.8426 37.9422 10.7685 38.149L10.9568 38.2165L11.1451 38.2839C11.1992 38.1328 11.2862 37.9956 11.3997 37.8822L11.2583 37.7407ZM10.9568 38.2165L10.7686 38.1488L9.45759 41.7951L9.64579 41.8628L9.834 41.9304L11.145 38.2841L10.9568 38.2165ZM9.64579 41.8628L9.71349 42.051L13.3593 40.7395L13.2916 40.5513L13.2239 40.3631L9.5781 41.6746L9.64579 41.8628ZM13.2916 40.5513L13.359 40.7396C13.5659 40.6655 13.7537 40.5465 13.909 40.3912L13.7676 40.2498L13.6262 40.1084C13.5126 40.2219 13.3754 40.3089 13.2242 40.363L13.2916 40.5513ZM13.7676 40.2498L13.909 40.3912C14.0644 40.2359 14.1833 40.0481 14.2574 39.8412L14.0691 39.7738L13.8808 39.7064C13.8267 39.8576 13.7397 39.9948 13.6262 40.1084L13.7676 40.2498ZM14.0691 39.7738L14.2573 39.8415L15.5683 36.1957L15.3801 36.128L15.1919 36.0603L13.8809 39.7061L14.0691 39.7738Z" fill="black" mask="url(#path-11-outside-3_447_3159)"/>
<path d="M39.7842 41.822C40.0412 41.822 40.2567 41.9999 40.3096 42.2517V42.2527C40.4346 42.8694 40.7398 43.4355 41.1855 43.8796L41.3574 44.0408C41.7709 44.4002 42.2712 44.648 42.8105 44.7585H42.8096C42.9314 44.7822 43.041 44.8475 43.1201 44.9431C43.1992 45.0388 43.2429 45.1588 43.2432 45.283C43.2434 45.4071 43.2007 45.5278 43.1221 45.6238C43.0435 45.7196 42.934 45.7851 42.8125 45.8093L42.8066 45.8103C42.1922 45.938 41.629 46.2431 41.1855 46.6873C40.7412 47.1323 40.4359 47.6972 40.3096 48.3132C40.2858 48.4352 40.2209 48.5458 40.125 48.6248C40.0291 48.7037 39.9084 48.7471 39.7842 48.7468C39.5273 48.7466 39.3125 48.568 39.2598 48.3162L39.2588 48.3152C39.1341 47.6985 38.829 47.1328 38.3818 46.6902L38.3809 46.6892C37.9396 46.2419 37.3754 45.9351 36.7598 45.8093C36.6376 45.7863 36.5268 45.7223 36.4473 45.6267C36.3678 45.5311 36.3246 45.4103 36.3242 45.2859C36.3239 45.1613 36.3671 45.0402 36.4463 44.9441C36.5253 44.8482 36.6349 44.7822 36.7568 44.7585L36.9854 44.7029C37.5133 44.5537 37.9954 44.2708 38.3838 43.8796L38.5449 43.7078C38.903 43.2939 39.1494 42.7935 39.2588 42.2546V42.2537C39.3116 42 39.5273 41.8222 39.7842 41.822ZM39.7842 43.5046C39.5888 43.8825 39.3358 44.2278 39.0342 44.5291L39.0352 44.53C38.7329 44.8331 38.3851 45.0873 38.0059 45.2839C38.3815 45.4789 38.7272 45.7324 39.0312 46.0388C39.3346 46.3394 39.5881 46.6857 39.7842 47.0642C40.1777 46.3003 40.8 45.6782 41.5635 45.2839C41.1845 45.0873 40.8372 44.8339 40.5352 44.531C40.233 44.2296 39.9798 43.883 39.7842 43.5046ZM15.2803 35.2917C15.4109 35.244 15.5528 35.235 15.6885 35.2654C15.8241 35.2958 15.9482 35.3647 16.0459 35.4636H16.0449C16.2472 35.6654 16.3132 35.9587 16.2168 36.2273L14.8418 40.0515C14.7412 40.3305 14.5821 40.5853 14.376 40.7986C14.3336 40.8425 14.2826 40.8779 14.2266 40.9021C14.1831 40.9208 14.1368 40.9296 14.0898 40.9343L14.085 40.9402H14.0439C13.9221 40.9401 13.8049 40.8915 13.7188 40.8054L10.7031 37.7898C10.6599 37.7466 10.6256 37.695 10.6025 37.6384C10.5795 37.5819 10.5678 37.5208 10.5684 37.4597C10.569 37.3988 10.5824 37.3389 10.6064 37.283C10.6305 37.227 10.6652 37.1759 10.709 37.1335C10.9255 36.9251 11.178 36.7681 11.457 36.6677L15.2803 35.2917ZM11.7686 37.533C11.7636 37.5348 11.7588 37.537 11.7539 37.5388L13.9688 39.7537C13.9705 39.749 13.9739 39.7447 13.9756 39.74L15.2139 36.2937L11.7686 37.533ZM4.6748 3.01636C5.15031 3.06392 5.59762 3.27413 5.93848 3.61499C6.32795 4.00447 6.54634 4.53294 6.54688 5.08374L6.53711 5.28882C6.48978 5.76464 6.27934 6.21219 5.93848 6.55347C5.59763 6.89466 5.15051 7.10519 4.6748 7.15308L4.46973 7.16382C3.91829 7.16315 3.389 6.94335 2.99902 6.55347C2.6093 6.16363 2.39045 5.63499 2.38965 5.08374C2.38965 3.93829 3.32261 3.00659 4.46973 3.00659L4.6748 3.01636ZM4.46973 3.92749C4.16264 3.92749 3.86785 4.04857 3.65039 4.26538C3.43298 4.48221 3.31046 4.7767 3.30957 5.08374L3.31543 5.198C3.34211 5.46348 3.46004 5.7128 3.65039 5.90308C3.86786 6.12041 4.16228 6.24255 4.46973 6.24292L4.58398 6.23804C4.84926 6.21175 5.09892 6.0942 5.28906 5.90405C5.50622 5.68682 5.62793 5.39188 5.62793 5.08472C5.62787 4.77757 5.50625 4.48257 5.28906 4.26538C5.07191 4.04827 4.777 3.9275 4.46973 3.92749Z" fill="black" stroke="black" stroke-width="0.2"/>
</svg>
