<svg width="52" height="52" viewBox="0 0 52 52" fill="none" xmlns="http://www.w3.org/2000/svg">
<g clip-path="url(#clip0_427_24423)">
<path d="M45.0605 15.603C45.2573 15.6031 45.4483 15.5361 45.602 15.4132L48.0215 13.4776C49.2409 14.2351 50.8434 13.8605 51.6007 12.6411C52.3581 11.4218 51.9836 9.81921 50.7642 9.06188C49.5448 8.30444 47.9423 8.67905 47.185 9.89838C46.9805 10.2277 46.8522 10.5985 46.8095 10.9838C46.7669 11.3691 46.8109 11.7591 46.9385 12.1251L44.7565 13.8702H38.3615C31.6795 7.0432 20.7284 6.92548 13.9014 13.6073C13.8128 13.694 13.7252 13.7816 13.6384 13.8702H7.24338L5.06181 12.125C5.53561 10.7676 4.81933 9.28303 3.46191 8.80922C2.1045 8.33541 0.619941 9.0517 0.146135 10.4091C-0.327671 11.7665 0.388615 13.2511 1.74603 13.7249C2.11304 13.853 2.5041 13.8973 2.89047 13.8545C3.27684 13.8117 3.64873 13.683 3.97882 13.4776L6.39789 15.4132C6.55158 15.5361 6.74256 15.6031 6.93938 15.603H12.1465C10.9655 17.1713 10.0601 18.9292 9.46913 20.8013H5.05758C4.57912 19.4479 3.09402 18.7387 1.74072 19.2173C0.387316 19.6957 -0.321932 21.1808 0.15664 22.5341C0.635211 23.8874 2.1202 24.5968 3.4735 24.1182C3.83896 23.989 4.17089 23.7797 4.44498 23.5056C4.71907 23.2315 4.92839 22.8996 5.05758 22.5341H9.02055C8.55606 24.8211 8.55606 27.1782 9.02055 29.4652H5.05758C4.57912 28.1118 3.09402 27.4026 1.74072 27.8811C0.387424 28.3597 -0.321932 29.8447 0.15664 31.198C0.635211 32.5513 2.1202 33.2607 3.4735 32.7821C3.83896 32.6529 4.17089 32.4436 4.44498 32.1695C4.71907 31.8954 4.92839 31.5635 5.05758 31.198H9.46913C10.0601 33.0702 10.9655 34.8281 12.1465 36.3963H6.93938C6.74256 36.3963 6.55158 36.4632 6.39789 36.5862L3.9785 38.5217C2.75905 37.7643 1.15656 38.1388 0.39912 39.3582C-0.35832 40.5776 0.0161766 42.1801 1.23562 42.9376C2.45506 43.695 4.05755 43.3205 4.815 42.1011C5.01953 41.7718 5.14783 41.4009 5.19048 41.0156C5.23313 40.6303 5.18905 40.2404 5.06148 39.8743L7.24338 38.1291H13.6384C20.3203 44.9561 31.2715 45.0739 38.0985 38.3921C38.1871 38.3053 38.2747 38.2177 38.3615 38.1291H44.7565L46.9381 39.8742C46.4641 41.2317 47.1803 42.7163 48.5377 43.1903C49.8951 43.6643 51.3798 42.9481 51.8538 41.5907C52.3279 40.2332 51.6116 38.7486 50.2542 38.2746C49.8871 38.1464 49.496 38.1021 49.1096 38.1448C48.7231 38.1876 48.3512 38.3164 48.021 38.5217L45.602 36.5862C45.4483 36.4632 45.2573 36.3963 45.0605 36.3963H39.8534C41.0344 34.8281 41.9398 33.0702 42.5307 31.198H46.9423C47.4207 32.5514 48.9058 33.2607 50.2591 32.7821C51.6125 32.3036 52.3218 30.8185 51.8432 29.4652C51.3648 28.1118 49.8797 27.4026 48.5264 27.8811C48.1609 28.0103 47.829 28.2197 47.5549 28.4937C47.2808 28.7678 47.0715 29.0998 46.9423 29.4652H42.9793C43.4438 27.1782 43.4438 24.8211 42.9793 22.5341H46.9423C47.4207 23.8875 48.9058 24.5968 50.2591 24.1182C51.6125 23.6397 52.3218 22.1546 51.8432 20.8013C51.3648 19.4479 49.8797 18.7387 48.5264 19.2173C48.1609 19.3465 47.829 19.5558 47.5549 19.8299C47.2808 20.1039 47.0715 20.4359 46.9423 20.8013H42.5307C41.9398 18.9292 41.0344 17.1713 39.8534 15.603H45.0605ZM49.3924 10.4047C49.5638 10.4047 49.7313 10.4555 49.8738 10.5507C50.0162 10.6459 50.1273 10.7812 50.1929 10.9395C50.2584 11.0978 50.2756 11.272 50.2422 11.4401C50.2087 11.6082 50.1262 11.7625 50.0051 11.8837C49.8839 12.0049 49.7295 12.0874 49.5614 12.1208C49.3934 12.1542 49.2192 12.1371 49.0609 12.0715C48.9026 12.0059 48.7672 11.8949 48.672 11.7524C48.5768 11.6099 48.526 11.4424 48.526 11.2711C48.5263 11.0414 48.6177 10.8211 48.7801 10.6587C48.9425 10.4963 49.1627 10.4049 49.3924 10.4047ZM1.74105 11.2711C1.74105 11.0997 1.79186 10.9322 1.88706 10.7897C1.98226 10.6472 2.11757 10.5362 2.27588 10.4706C2.4342 10.4051 2.6084 10.3879 2.77646 10.4213C2.94452 10.4548 3.0989 10.5373 3.22007 10.6584C3.34123 10.7796 3.42375 10.934 3.45718 11.102C3.49061 11.2701 3.47345 11.4443 3.40788 11.6026C3.3423 11.7609 3.23125 11.8962 3.08878 11.9914C2.9463 12.0866 2.77879 12.1375 2.60744 12.1375C2.37773 12.1372 2.15749 12.0459 1.99506 11.8834C1.83263 11.721 1.74128 11.5008 1.74105 11.2711ZM2.60744 41.5947C2.43608 41.5947 2.26857 41.5439 2.1261 41.4487C1.98362 41.3535 1.87257 41.2181 1.807 41.0598C1.74142 40.9015 1.72427 40.7273 1.7577 40.5593C1.79113 40.3912 1.87364 40.2368 1.99481 40.1157C2.11597 39.9945 2.27035 39.912 2.43841 39.8785C2.60648 39.8451 2.78068 39.8623 2.93899 39.9278C3.0973 39.9934 3.23261 40.1045 3.32781 40.2469C3.42301 40.3894 3.47383 40.5569 3.47383 40.7283C3.47354 40.958 3.38217 41.1782 3.21975 41.3406C3.05733 41.503 2.83713 41.5944 2.60744 41.5947ZM49.3924 39.8619C49.5638 39.8619 49.7313 39.9127 49.8738 40.0079C50.0162 40.1031 50.1273 40.2384 50.1929 40.3967C50.2584 40.555 50.2756 40.7292 50.2422 40.8973C50.2087 41.0654 50.1262 41.2197 50.0051 41.3409C49.8839 41.4621 49.7295 41.5446 49.5614 41.578C49.3934 41.6115 49.2192 41.5943 49.0609 41.5287C48.9026 41.4631 48.7672 41.3521 48.672 41.2096C48.5768 41.0671 48.526 40.8996 48.526 40.7283C48.5263 40.4986 48.6177 40.2784 48.7801 40.1159C48.9425 39.9535 49.1627 39.8621 49.3924 39.8619ZM2.60744 22.5341C2.43608 22.5341 2.26857 22.4833 2.1261 22.3881C1.98362 22.2929 1.87257 22.1576 1.807 21.9993C1.74142 21.841 1.72427 21.6668 1.7577 21.4987C1.79113 21.3306 1.87364 21.1763 1.99481 21.0551C2.11597 20.9339 2.27035 20.8514 2.43841 20.818C2.60648 20.7846 2.78068 20.8017 2.93899 20.8673C3.0973 20.9329 3.23261 21.0439 3.32781 21.1864C3.42301 21.3289 3.47383 21.4964 3.47383 21.6677C3.47354 21.8974 3.38217 22.1176 3.21975 22.28C3.05733 22.4425 2.83713 22.5338 2.60744 22.5341ZM2.60744 31.198C2.43608 31.198 2.26857 31.1472 2.1261 31.052C1.98362 30.9568 1.87257 30.8215 1.807 30.6632C1.74142 30.5049 1.72427 30.3307 1.7577 30.1626C1.79113 29.9945 1.87364 29.8402 1.99481 29.719C2.11597 29.5978 2.27035 29.5153 2.43841 29.4819C2.60648 29.4484 2.78068 29.4656 2.93899 29.5312C3.0973 29.5968 3.23261 29.7078 3.32781 29.8503C3.42301 29.9928 3.47383 30.1603 3.47383 30.3316C3.47354 30.5613 3.38217 30.7815 3.21975 30.9439C3.05733 31.1063 2.83713 31.1977 2.60744 31.198ZM49.3924 29.4652C49.5638 29.4652 49.7313 29.516 49.8738 29.6112C50.0162 29.7064 50.1273 29.8418 50.1929 30.0001C50.2584 30.1584 50.2756 30.3326 50.2422 30.5006C50.2087 30.6687 50.1262 30.8231 50.0051 30.9442C49.8839 31.0654 49.7295 31.1479 49.5614 31.1814C49.3934 31.2148 49.2192 31.1976 49.0609 31.1321C48.9026 31.0665 48.7672 30.9554 48.672 30.813C48.5768 30.6705 48.526 30.503 48.526 30.3316C48.5263 30.1019 48.6177 29.8817 48.7801 29.7193C48.9425 29.5568 49.1627 29.4655 49.3924 29.4652ZM49.3924 20.8013C49.5638 20.8013 49.7313 20.8522 49.8738 20.9474C50.0162 21.0426 50.1273 21.1779 50.1929 21.3362C50.2584 21.4945 50.2756 21.6687 50.2422 21.8368C50.2087 22.0048 50.1262 22.1592 50.0051 22.2804C49.8839 22.4015 49.7295 22.484 49.5614 22.5175C49.3934 22.5509 49.2192 22.5337 49.0609 22.4682C48.9026 22.4026 48.7672 22.2915 48.672 22.1491C48.5768 22.0066 48.526 21.8391 48.526 21.6677C48.5263 21.438 48.6177 21.2178 48.7801 21.0554C48.9425 20.893 49.1627 20.8016 49.3924 20.8013ZM25.9999 41.5947C17.401 41.5947 10.4049 34.5986 10.4049 25.9997C10.4049 17.4008 17.401 10.4047 25.9999 10.4047C34.5988 10.4047 41.5949 17.4008 41.5949 25.9997C41.5949 34.5986 34.5988 41.5947 25.9999 41.5947Z" fill="black"/>
<path d="M25.9999 12.1377C18.3441 12.1377 12.1377 18.3441 12.1377 25.9999C12.1377 33.6558 18.3441 39.8621 25.9999 39.8621C33.6558 39.8621 39.8621 33.6558 39.8621 25.9999C39.8535 18.3476 33.6522 12.1464 25.9999 12.1377ZM25.9999 38.1294C19.301 38.1294 13.8705 32.6988 13.8705 25.9999C13.8705 19.301 19.301 13.8705 25.9999 13.8705C32.6988 13.8705 38.1294 19.301 38.1294 25.9999C38.1218 32.6957 32.6956 38.1218 25.9999 38.1294Z" fill="black"/>
<path d="M17.8559 28.4257L24.1859 23.6782L25.3874 24.8797C25.5428 25.0351 25.7515 25.1257 25.9712 25.133C26.1908 25.1403 26.4051 25.0639 26.5705 24.9191L32.0647 20.1115V20.8015C32.0647 21.0313 32.156 21.2516 32.3185 21.4141C32.481 21.5766 32.7013 21.6679 32.9311 21.6679C33.1609 21.6679 33.3813 21.5766 33.5437 21.4141C33.7062 21.2516 33.7975 21.0313 33.7975 20.8015V18.2023C33.7975 17.9725 33.7062 17.7522 33.5437 17.5897C33.3813 17.4272 33.1609 17.3359 32.9311 17.3359H30.3319C30.1022 17.3359 29.8818 17.4272 29.7193 17.5897C29.5568 17.7522 29.4656 17.9725 29.4656 18.2023C29.4656 18.4321 29.5568 18.6525 29.7193 18.815C29.8818 18.9774 30.1022 19.0687 30.3319 19.0687H30.6252L26.0394 23.0813L24.8799 21.9216C24.7324 21.7742 24.5367 21.6848 24.3286 21.67C24.1206 21.6553 23.9142 21.716 23.7474 21.8412L16.8163 27.0395C16.7253 27.1078 16.6486 27.1933 16.5906 27.2912C16.5326 27.3891 16.4945 27.4974 16.4784 27.6101C16.4623 27.7227 16.4686 27.8374 16.4968 27.9476C16.5251 28.0578 16.5747 28.1614 16.643 28.2524C16.7113 28.3435 16.7968 28.4201 16.8947 28.4781C16.9926 28.5361 17.101 28.5742 17.2136 28.5903C17.3262 28.6064 17.4409 28.6001 17.5511 28.5719C17.6614 28.5436 17.7649 28.494 17.8559 28.4257ZM33.7975 32.0645V24.267C33.7975 24.0373 33.7062 23.8169 33.5437 23.6544C33.3813 23.4919 33.1609 23.4007 32.9311 23.4007C32.7013 23.4007 32.481 23.4919 32.3185 23.6544C32.156 23.8169 32.0647 24.0373 32.0647 24.267V32.0645H30.3319V25.1334C30.3319 24.9037 30.2407 24.6833 30.0782 24.5208C29.9157 24.3583 29.6953 24.267 29.4656 24.267C29.2358 24.267 29.0154 24.3583 28.8529 24.5208C28.6904 24.6833 28.5992 24.9037 28.5992 25.1334V32.0645H26.8664V26.8662C26.8664 26.6364 26.7751 26.4161 26.6126 26.2536C26.4502 26.0911 26.2298 25.9998 26 25.9998C25.7702 25.9998 25.5499 26.0911 25.3874 26.2536C25.2249 26.4161 25.1336 26.6364 25.1336 26.8662V32.0645H23.4008V27.7326C23.4008 27.5028 23.3096 27.2825 23.1471 27.12C22.9846 26.9575 22.7642 26.8662 22.5344 26.8662C22.3047 26.8662 22.0843 26.9575 21.9218 27.12C21.7593 27.2825 21.6681 27.5028 21.6681 27.7326V32.0645H19.9353V29.4654C19.9353 29.2356 19.844 29.0152 19.6815 28.8528C19.519 28.6903 19.2987 28.599 19.0689 28.599C18.8391 28.599 18.6187 28.6903 18.4563 28.8528C18.2938 29.0152 18.2025 29.2356 18.2025 29.4654V32.0645C17.9727 32.0645 17.7524 32.1558 17.5899 32.3183C17.4274 32.4808 17.3361 32.7012 17.3361 32.9309C17.3361 33.1607 17.4274 33.3811 17.5899 33.5436C17.7524 33.706 17.9727 33.7973 18.2025 33.7973H33.7975C34.0273 33.7973 34.2477 33.706 34.4101 33.5436C34.5726 33.3811 34.6639 33.1607 34.6639 32.9309C34.6639 32.7012 34.5726 32.4808 34.4101 32.3183C34.2477 32.1558 34.0273 32.0645 33.7975 32.0645Z" fill="black"/>
</g>
<defs>
<clipPath id="clip0_427_24423">
<rect width="52" height="52" fill="white"/>
</clipPath>
</defs>
</svg>
