<svg width="69" height="69" viewBox="0 0 69 69" fill="none" xmlns="http://www.w3.org/2000/svg">
<path d="M12.6709 8.23657C12.8234 8.19875 12.9845 8.22293 13.1191 8.30396C13.2537 8.38498 13.3507 8.51579 13.3887 8.66821C13.4266 8.82083 13.4024 8.98268 13.3213 9.11743C13.2403 9.25194 13.1094 9.34896 12.957 9.38696H12.9561L8.71777 10.4387C8.24158 10.5539 7.8217 10.835 7.53418 11.2317C7.24669 11.6285 7.10954 12.1153 7.14844 12.6038L9.37598 41.3079H9.37695C9.38316 41.3894 9.37168 41.4719 9.34473 41.5491C9.31777 41.6261 9.27524 41.6973 9.21973 41.7571C9.16418 41.8168 9.09629 41.8642 9.02148 41.8967C8.94724 41.929 8.86644 41.9467 8.78418 41.9465C8.63504 41.9461 8.49111 41.8898 8.38184 41.7883C8.27267 41.6868 8.20567 41.5473 8.19434 41.3987L5.9668 12.6956C5.90541 11.9268 6.12001 11.161 6.57227 10.5364C7.02437 9.91197 7.68444 9.4691 8.43359 9.28735L12.6709 8.23657ZM36.7012 4.91821H36.7021L43.3545 6.57837H43.3535C43.494 6.61318 43.6171 6.69841 43.6992 6.81763C43.7812 6.9367 43.8172 7.08133 43.7998 7.22485C43.7823 7.36849 43.7127 7.50093 43.6045 7.59692C43.5232 7.66898 43.4239 7.71714 43.3184 7.73657L43.2109 7.74634C43.1625 7.74614 43.1134 7.74062 43.0664 7.72876V7.72778L36.416 6.0686V6.06763C36.3397 6.05017 36.2669 6.0184 36.2031 5.9729C36.139 5.92706 36.0843 5.86909 36.043 5.802C36.0015 5.73475 35.974 5.65937 35.9619 5.5813C35.9498 5.5033 35.9536 5.4235 35.9727 5.34692C35.9918 5.27033 36.0259 5.1982 36.0732 5.13501C36.1206 5.07178 36.1808 5.01866 36.249 4.97876C36.3171 4.93899 36.3925 4.91288 36.4707 4.90259C36.5478 4.89246 36.6261 4.89811 36.7012 4.91821ZM34.1455 4.28052L34.9004 4.46802H34.8994C35.0399 4.50282 35.163 4.58808 35.2451 4.70728C35.3272 4.82654 35.3633 4.97174 35.3457 5.11548C35.3281 5.25912 35.2587 5.39162 35.1504 5.48755C35.0691 5.55944 34.9697 5.60686 34.8643 5.62622L34.7568 5.63599C34.7082 5.63609 34.6595 5.63103 34.6123 5.61938L33.8584 5.43091C33.7829 5.41206 33.7119 5.37854 33.6494 5.33228C33.5869 5.28605 33.5342 5.22796 33.4941 5.16138C33.4541 5.09474 33.4276 5.02048 33.416 4.9436C33.4045 4.86658 33.4079 4.78772 33.4268 4.71216C33.4456 4.63667 33.4791 4.56573 33.5254 4.50317C33.5717 4.4406 33.6296 4.38703 33.6963 4.34692C33.763 4.30686 33.8372 4.28034 33.9141 4.2688C33.9911 4.25729 34.0699 4.26168 34.1455 4.28052Z" fill="black" stroke="black" stroke-width="0.2"/>
<path d="M25.1914 5.14105C25.7064 5.019 26.2429 5.02138 26.7568 5.14789H26.7578L42.7197 9.13031C43.0447 9.21167 43.3887 9.2116 43.7129 9.13031H43.7139L59.1641 5.31195C59.6222 5.19828 60.1 5.18527 60.5635 5.27484C61.0268 5.36442 61.465 5.55438 61.8477 5.83051L61.9883 5.93793C62.3092 6.19635 62.5784 6.51362 62.7812 6.87347C63.0131 7.2848 63.1531 7.74167 63.1904 8.21234L66.2197 47.3793L66.2295 47.6674C66.2233 48.3375 66.0091 48.9919 65.6133 49.5385C65.1609 50.1631 64.5005 50.6049 63.751 50.7866L63.752 50.7875L47.0029 54.9282C46.747 54.9916 46.4838 55.0233 46.2197 55.0229C45.9554 55.023 45.692 54.9912 45.4355 54.9272L29.8516 51.0434V51.0444C29.7741 51.0275 29.7005 50.9944 29.6357 50.9487C29.571 50.9029 29.5155 50.8451 29.4736 50.7778C29.4318 50.7105 29.4039 50.6353 29.3916 50.5571C29.3793 50.4787 29.3832 50.3987 29.4023 50.3217C29.4215 50.2448 29.4554 50.1722 29.5029 50.1088C29.5505 50.0454 29.6111 49.9925 29.6797 49.9526C29.7482 49.9127 29.8237 49.8864 29.9023 49.8764C29.9798 49.8665 30.0585 49.8724 30.1338 49.893L45.7217 53.7768C46.0475 53.8582 46.3917 53.8582 46.7168 53.7768L63.4688 49.6371L63.6445 49.5854C64.0479 49.4487 64.4008 49.1896 64.6523 48.8422C64.9395 48.4454 65.076 47.9594 65.0371 47.4711V47.4702L62.0078 8.30511C61.9841 8.00614 61.8952 7.71588 61.748 7.45453C61.6009 7.19311 61.3987 6.96678 61.1553 6.79144C60.9118 6.61607 60.6325 6.49566 60.3379 6.4389C60.0435 6.38227 59.7402 6.39007 59.4492 6.46234L43.999 10.2797L44 10.2807C43.4853 10.4089 42.9463 10.4089 42.4316 10.2807L26.4697 6.29828C26.1409 6.21728 25.7973 6.21469 25.4678 6.29242L21.2686 7.33051H21.2676C21.1158 7.36572 20.956 7.33968 20.8232 7.25824C20.6906 7.17679 20.595 7.04606 20.5576 6.89496C20.5204 6.7439 20.5446 6.58441 20.624 6.45062C20.7035 6.31669 20.8327 6.21869 20.9834 6.17914H20.9844L25.1904 5.14105H25.1914Z" fill="black" stroke="black" stroke-width="0.2"/>
<path d="M52.1631 9.93481C52.2875 9.90451 52.4184 9.91486 52.5361 9.96509C52.654 10.0154 52.7523 10.1032 52.8164 10.2141C52.8805 10.3251 52.9069 10.454 52.8916 10.5813C52.8763 10.7086 52.8201 10.8275 52.7314 10.9202L48.8398 14.9768L61.5605 25.8704C61.6787 25.9728 61.753 26.1182 61.7656 26.2747L62.1338 31.0325C62.1428 31.1493 62.1169 31.2662 62.0596 31.3684C62.0022 31.4705 61.9159 31.5536 61.8115 31.6067C61.7071 31.6597 61.589 31.6811 61.4727 31.6672C61.3564 31.6534 61.2472 31.6046 61.1582 31.5286L45.6729 18.2698L29.1719 35.4543L46.6104 51.1174C46.7235 51.2191 46.7932 51.3603 46.8047 51.512L46.8066 51.5823C46.8013 51.7491 46.7304 51.9311 46.5986 52.0422C46.5006 52.1255 46.3723 52.1907 46.2334 52.2034L46.2285 52.2092H46.1875C46.1496 52.2094 46.112 52.2046 46.0752 52.1956H46.0742L39.1641 50.47C39.0703 50.4465 38.9841 50.3997 38.9121 50.3352L9.84668 24.218C9.73321 24.1163 9.66323 23.9745 9.65137 23.8225L9.27344 18.9465C9.26428 18.8283 9.29091 18.7097 9.34961 18.6067C9.40832 18.5038 9.49721 18.4207 9.60352 18.3684C9.7097 18.3163 9.82911 18.2975 9.94629 18.3137C10.0636 18.33 10.1737 18.3809 10.2617 18.4602L25.7832 32.4065L45.7461 11.6174H45.7471C45.8245 11.537 45.9229 11.4793 46.0312 11.4524L52.1621 9.93481H52.1631ZM46.4834 12.5618L26.2432 33.6428C26.1365 33.7537 25.9907 33.819 25.8369 33.8245C25.6832 33.8298 25.5332 33.7752 25.4189 33.6721L10.5693 20.3313L10.8145 23.4944L39.5947 49.3547L44.1377 50.4895L27.9248 35.927C27.8657 35.874 27.8179 35.8094 27.7842 35.7375C27.7504 35.6656 27.7315 35.5874 27.7285 35.5081C27.7256 35.4286 27.7383 35.349 27.7666 35.2747C27.7949 35.2004 27.8384 35.1328 27.8936 35.0754L45.207 17.0442C45.3118 16.9352 45.4545 16.871 45.6055 16.8635C45.7567 16.8562 45.9055 16.9066 46.0205 17.0051L60.8418 29.6965L60.6025 26.6096L47.5928 15.47C47.5315 15.4175 47.4818 15.3529 47.4463 15.2805C47.4107 15.208 47.3897 15.1288 47.3857 15.0481C47.3819 14.9677 47.3946 14.8872 47.4229 14.8118C47.4512 14.7362 47.4949 14.6668 47.5508 14.6086L50.46 11.5774L46.4834 12.5618Z" fill="black" stroke="black" stroke-width="0.2"/>
<mask id="path-4-outside-1_395_6747" maskUnits="userSpaceOnUse" x="7.88379" y="6.96356" width="56" height="46" fill="black">
<rect fill="white" x="7.88379" y="6.96356" width="56" height="46"/>
<path d="M46.2189 52.1134C46.097 52.1133 45.9795 52.0681 45.889 51.9865L27.991 35.8524C27.9419 35.8082 27.9021 35.7546 27.8741 35.6948C27.8461 35.635 27.8304 35.5701 27.8279 35.5041C27.8255 35.438 27.8363 35.3722 27.8598 35.3105C27.8833 35.2487 27.919 35.1923 27.9647 35.1446L45.2857 17.1133C45.3729 17.0225 45.4915 16.9685 45.6173 16.9624C45.743 16.9563 45.8663 16.9985 45.9619 17.0804L61.8635 30.6971C61.9127 30.7392 61.9531 30.7906 61.9824 30.8483C62.0117 30.906 62.0293 30.969 62.0343 31.0335L63.3066 47.4733C63.3156 47.5895 63.2831 47.7052 63.2149 47.7998C63.1467 47.8944 63.0471 47.9617 62.934 47.9898L46.3372 52.0989C46.2984 52.1085 46.2587 52.1133 46.2189 52.1134ZM29.028 35.4607L46.3555 51.079L62.2919 47.1335L61.0683 31.3135L45.6747 18.1312L29.028 35.4607ZM25.8185 33.7245C25.6971 33.7244 25.58 33.6792 25.4899 33.5977L9.53386 19.2654C9.43964 19.1808 9.38154 19.0631 9.37154 18.9369L8.88526 12.5954C8.87626 12.4791 8.90883 12.3633 8.97718 12.2687C9.04553 12.1742 9.14522 12.1069 9.25852 12.0789L12.4982 11.2772C12.5614 11.2606 12.6273 11.2568 12.6919 11.2658C12.7566 11.2749 12.8189 11.2968 12.875 11.3301C12.9312 11.3635 12.9802 11.4077 13.0191 11.4601C13.058 11.5125 13.0862 11.5722 13.1018 11.6356C13.1175 11.699 13.1204 11.7649 13.1104 11.8295C13.1004 11.894 13.0777 11.9559 13.0435 12.0116C13.0094 12.0673 12.9645 12.1156 12.9115 12.1538C12.8585 12.192 12.7984 12.2192 12.7348 12.234L9.89989 12.9358L10.3389 18.6641L25.7935 32.5463L27.3115 30.9659C27.3284 30.9395 27.3477 30.9148 27.3694 30.8923L44.6338 12.9128L43.332 13.2394C43.2535 13.259 43.1714 13.259 43.0928 13.2394L25.9618 8.96472L22.8213 9.74343C22.6952 9.77271 22.5626 9.75116 22.4522 9.68346C22.3418 9.61576 22.2625 9.50733 22.2314 9.38163C22.2003 9.25593 22.22 9.12305 22.2861 9.01171C22.3522 8.90037 22.4595 8.81952 22.5847 8.78663L25.8441 7.97835C25.9223 7.95863 26.0038 7.95863 26.0814 7.97835L43.2118 12.2531L46.0565 11.5407C46.1602 11.5153 46.2692 11.5242 46.3674 11.5659C46.4655 11.6077 46.5475 11.6802 46.601 11.7725C46.6545 11.8648 46.6767 11.9719 46.6642 12.0779C46.6517 12.1838 46.6052 12.2829 46.5317 12.3602L28.1441 31.508C28.1273 31.5344 28.108 31.559 28.0863 31.5816L26.174 33.5727C26.1281 33.6206 26.073 33.6586 26.012 33.6846C25.9511 33.7106 25.8855 33.7239 25.8192 33.7239L25.8185 33.7245ZM39.3097 50.3897C39.2693 50.3896 39.2292 50.3845 39.1901 50.3746L29.1161 47.8577C29.052 47.8433 28.9914 47.8162 28.938 47.7781C28.8845 47.7399 28.8392 47.6914 28.8047 47.6355C28.7703 47.5796 28.7473 47.5174 28.7372 47.4525C28.7272 47.3876 28.7302 47.3213 28.7461 47.2576C28.762 47.1939 28.7904 47.1339 28.8298 47.0814C28.8692 47.0288 28.9187 46.9846 28.9754 46.9515C29.0321 46.9183 29.0948 46.8968 29.16 46.8882C29.2251 46.8797 29.2913 46.8842 29.3546 46.9016L37.5051 48.9374L10.8304 24.9648L11.9712 39.7657C11.9781 39.8312 11.9718 39.8974 11.9526 39.9604C11.9335 40.0235 11.9019 40.082 11.8597 40.1326C11.8175 40.1833 11.7656 40.2249 11.7071 40.2551C11.6485 40.2853 11.5845 40.3035 11.5188 40.3086C11.4532 40.3136 11.3871 40.3054 11.3246 40.2845C11.2622 40.2636 11.2045 40.2304 11.1551 40.1868C11.1057 40.1433 11.0655 40.0902 11.0369 40.0309C11.0084 39.9715 10.992 39.907 10.9888 39.8412L9.75334 23.8135C9.74558 23.7152 9.76748 23.6168 9.81624 23.5311C9.86499 23.4453 9.93834 23.3762 10.0268 23.3326C10.1153 23.289 10.2148 23.273 10.3125 23.2865C10.4102 23.3001 10.5015 23.3427 10.5748 23.4087L39.6402 49.5301C39.7144 49.5968 39.7667 49.6844 39.7901 49.7815C39.8134 49.8785 39.8068 49.9803 39.771 50.0734C39.7353 50.1666 39.6721 50.2467 39.5898 50.3032C39.5076 50.3596 39.4094 50.3898 39.3097 50.3897ZM61.1748 26.8147C61.0572 26.8148 60.9435 26.7728 60.8541 26.6964L47.6554 15.3935C47.6042 15.35 47.5624 15.2964 47.5328 15.2361C47.5031 15.1758 47.4861 15.1101 47.4828 15.0429C47.4796 14.9758 47.4901 14.9087 47.5138 14.8458C47.5375 14.7829 47.5738 14.7256 47.6205 14.6773L51.9485 10.1693C52.0129 10.1023 52.0949 10.0549 52.1851 10.0326L59.6896 8.17746C59.7591 8.16026 59.8315 8.1584 59.9018 8.17201C59.9721 8.18562 60.0386 8.21438 60.0966 8.25628C60.1546 8.29818 60.2028 8.35222 60.2379 8.41465C60.2729 8.47707 60.2939 8.54638 60.2995 8.61775L61.6663 26.2837C61.6716 26.3515 61.6628 26.4196 61.6404 26.4837C61.6181 26.5479 61.5828 26.6068 61.5366 26.6566C61.4905 26.7065 61.4345 26.7463 61.3722 26.7735C61.3099 26.8007 61.2427 26.8147 61.1748 26.8147ZM48.693 14.9841L60.5919 25.1738L59.3617 9.27423L52.5603 10.9552L48.693 14.9841Z"/>
</mask>
<path d="M46.2189 52.1134C46.097 52.1133 45.9795 52.0681 45.889 51.9865L27.991 35.8524C27.9419 35.8082 27.9021 35.7546 27.8741 35.6948C27.8461 35.635 27.8304 35.5701 27.8279 35.5041C27.8255 35.438 27.8363 35.3722 27.8598 35.3105C27.8833 35.2487 27.919 35.1923 27.9647 35.1446L45.2857 17.1133C45.3729 17.0225 45.4915 16.9685 45.6173 16.9624C45.743 16.9563 45.8663 16.9985 45.9619 17.0804L61.8635 30.6971C61.9127 30.7392 61.9531 30.7906 61.9824 30.8483C62.0117 30.906 62.0293 30.969 62.0343 31.0335L63.3066 47.4733C63.3156 47.5895 63.2831 47.7052 63.2149 47.7998C63.1467 47.8944 63.0471 47.9617 62.934 47.9898L46.3372 52.0989C46.2984 52.1085 46.2587 52.1133 46.2189 52.1134ZM29.028 35.4607L46.3555 51.079L62.2919 47.1335L61.0683 31.3135L45.6747 18.1312L29.028 35.4607ZM25.8185 33.7245C25.6971 33.7244 25.58 33.6792 25.4899 33.5977L9.53386 19.2654C9.43964 19.1808 9.38154 19.0631 9.37154 18.9369L8.88526 12.5954C8.87626 12.4791 8.90883 12.3633 8.97718 12.2687C9.04553 12.1742 9.14522 12.1069 9.25852 12.0789L12.4982 11.2772C12.5614 11.2606 12.6273 11.2568 12.6919 11.2658C12.7566 11.2749 12.8189 11.2968 12.875 11.3301C12.9312 11.3635 12.9802 11.4077 13.0191 11.4601C13.058 11.5125 13.0862 11.5722 13.1018 11.6356C13.1175 11.699 13.1204 11.7649 13.1104 11.8295C13.1004 11.894 13.0777 11.9559 13.0435 12.0116C13.0094 12.0673 12.9645 12.1156 12.9115 12.1538C12.8585 12.192 12.7984 12.2192 12.7348 12.234L9.89989 12.9358L10.3389 18.6641L25.7935 32.5463L27.3115 30.9659C27.3284 30.9395 27.3477 30.9148 27.3694 30.8923L44.6338 12.9128L43.332 13.2394C43.2535 13.259 43.1714 13.259 43.0928 13.2394L25.9618 8.96472L22.8213 9.74343C22.6952 9.77271 22.5626 9.75116 22.4522 9.68346C22.3418 9.61576 22.2625 9.50733 22.2314 9.38163C22.2003 9.25593 22.22 9.12305 22.2861 9.01171C22.3522 8.90037 22.4595 8.81952 22.5847 8.78663L25.8441 7.97835C25.9223 7.95863 26.0038 7.95863 26.0814 7.97835L43.2118 12.2531L46.0565 11.5407C46.1602 11.5153 46.2692 11.5242 46.3674 11.5659C46.4655 11.6077 46.5475 11.6802 46.601 11.7725C46.6545 11.8648 46.6767 11.9719 46.6642 12.0779C46.6517 12.1838 46.6052 12.2829 46.5317 12.3602L28.1441 31.508C28.1273 31.5344 28.108 31.559 28.0863 31.5816L26.174 33.5727C26.1281 33.6206 26.073 33.6586 26.012 33.6846C25.9511 33.7106 25.8855 33.7239 25.8192 33.7239L25.8185 33.7245ZM39.3097 50.3897C39.2693 50.3896 39.2292 50.3845 39.1901 50.3746L29.1161 47.8577C29.052 47.8433 28.9914 47.8162 28.938 47.7781C28.8845 47.7399 28.8392 47.6914 28.8047 47.6355C28.7703 47.5796 28.7473 47.5174 28.7372 47.4525C28.7272 47.3876 28.7302 47.3213 28.7461 47.2576C28.762 47.1939 28.7904 47.1339 28.8298 47.0814C28.8692 47.0288 28.9187 46.9846 28.9754 46.9515C29.0321 46.9183 29.0948 46.8968 29.16 46.8882C29.2251 46.8797 29.2913 46.8842 29.3546 46.9016L37.5051 48.9374L10.8304 24.9648L11.9712 39.7657C11.9781 39.8312 11.9718 39.8974 11.9526 39.9604C11.9335 40.0235 11.9019 40.082 11.8597 40.1326C11.8175 40.1833 11.7656 40.2249 11.7071 40.2551C11.6485 40.2853 11.5845 40.3035 11.5188 40.3086C11.4532 40.3136 11.3871 40.3054 11.3246 40.2845C11.2622 40.2636 11.2045 40.2304 11.1551 40.1868C11.1057 40.1433 11.0655 40.0902 11.0369 40.0309C11.0084 39.9715 10.992 39.907 10.9888 39.8412L9.75334 23.8135C9.74558 23.7152 9.76748 23.6168 9.81624 23.5311C9.86499 23.4453 9.93834 23.3762 10.0268 23.3326C10.1153 23.289 10.2148 23.273 10.3125 23.2865C10.4102 23.3001 10.5015 23.3427 10.5748 23.4087L39.6402 49.5301C39.7144 49.5968 39.7667 49.6844 39.7901 49.7815C39.8134 49.8785 39.8068 49.9803 39.771 50.0734C39.7353 50.1666 39.6721 50.2467 39.5898 50.3032C39.5076 50.3596 39.4094 50.3898 39.3097 50.3897ZM61.1748 26.8147C61.0572 26.8148 60.9435 26.7728 60.8541 26.6964L47.6554 15.3935C47.6042 15.35 47.5624 15.2964 47.5328 15.2361C47.5031 15.1758 47.4861 15.1101 47.4828 15.0429C47.4796 14.9758 47.4901 14.9087 47.5138 14.8458C47.5375 14.7829 47.5738 14.7256 47.6205 14.6773L51.9485 10.1693C52.0129 10.1023 52.0949 10.0549 52.1851 10.0326L59.6896 8.17746C59.7591 8.16026 59.8315 8.1584 59.9018 8.17201C59.9721 8.18562 60.0386 8.21438 60.0966 8.25628C60.1546 8.29818 60.2028 8.35222 60.2379 8.41465C60.2729 8.47707 60.2939 8.54638 60.2995 8.61775L61.6663 26.2837C61.6716 26.3515 61.6628 26.4196 61.6404 26.4837C61.6181 26.5479 61.5828 26.6068 61.5366 26.6566C61.4905 26.7065 61.4345 26.7463 61.3722 26.7735C61.3099 26.8007 61.2427 26.8147 61.1748 26.8147ZM48.693 14.9841L60.5919 25.1738L59.3617 9.27423L52.5603 10.9552L48.693 14.9841Z" fill="black"/>
<path d="M46.2189 52.1134C46.097 52.1133 45.9795 52.0681 45.889 51.9865L27.991 35.8524C27.9419 35.8082 27.9021 35.7546 27.8741 35.6948C27.8461 35.635 27.8304 35.5701 27.8279 35.5041C27.8255 35.438 27.8363 35.3722 27.8598 35.3105C27.8833 35.2487 27.919 35.1923 27.9647 35.1446L45.2857 17.1133C45.3729 17.0225 45.4915 16.9685 45.6173 16.9624C45.743 16.9563 45.8663 16.9985 45.9619 17.0804L61.8635 30.6971C61.9127 30.7392 61.9531 30.7906 61.9824 30.8483C62.0117 30.906 62.0293 30.969 62.0343 31.0335L63.3066 47.4733C63.3156 47.5895 63.2831 47.7052 63.2149 47.7998C63.1467 47.8944 63.0471 47.9617 62.934 47.9898L46.3372 52.0989C46.2984 52.1085 46.2587 52.1133 46.2189 52.1134ZM29.028 35.4607L46.3555 51.079L62.2919 47.1335L61.0683 31.3135L45.6747 18.1312L29.028 35.4607ZM25.8185 33.7245C25.6971 33.7244 25.58 33.6792 25.4899 33.5977L9.53386 19.2654C9.43964 19.1808 9.38154 19.0631 9.37154 18.9369L8.88526 12.5954C8.87626 12.4791 8.90883 12.3633 8.97718 12.2687C9.04553 12.1742 9.14522 12.1069 9.25852 12.0789L12.4982 11.2772C12.5614 11.2606 12.6273 11.2568 12.6919 11.2658C12.7566 11.2749 12.8189 11.2968 12.875 11.3301C12.9312 11.3635 12.9802 11.4077 13.0191 11.4601C13.058 11.5125 13.0862 11.5722 13.1018 11.6356C13.1175 11.699 13.1204 11.7649 13.1104 11.8295C13.1004 11.894 13.0777 11.9559 13.0435 12.0116C13.0094 12.0673 12.9645 12.1156 12.9115 12.1538C12.8585 12.192 12.7984 12.2192 12.7348 12.234L9.89989 12.9358L10.3389 18.6641L25.7935 32.5463L27.3115 30.9659C27.3284 30.9395 27.3477 30.9148 27.3694 30.8923L44.6338 12.9128L43.332 13.2394C43.2535 13.259 43.1714 13.259 43.0928 13.2394L25.9618 8.96472L22.8213 9.74343C22.6952 9.77271 22.5626 9.75116 22.4522 9.68346C22.3418 9.61576 22.2625 9.50733 22.2314 9.38163C22.2003 9.25593 22.22 9.12305 22.2861 9.01171C22.3522 8.90037 22.4595 8.81952 22.5847 8.78663L25.8441 7.97835C25.9223 7.95863 26.0038 7.95863 26.0814 7.97835L43.2118 12.2531L46.0565 11.5407C46.1602 11.5153 46.2692 11.5242 46.3674 11.5659C46.4655 11.6077 46.5475 11.6802 46.601 11.7725C46.6545 11.8648 46.6767 11.9719 46.6642 12.0779C46.6517 12.1838 46.6052 12.2829 46.5317 12.3602L28.1441 31.508C28.1273 31.5344 28.108 31.559 28.0863 31.5816L26.174 33.5727C26.1281 33.6206 26.073 33.6586 26.012 33.6846C25.9511 33.7106 25.8855 33.7239 25.8192 33.7239L25.8185 33.7245ZM39.3097 50.3897C39.2693 50.3896 39.2292 50.3845 39.1901 50.3746L29.1161 47.8577C29.052 47.8433 28.9914 47.8162 28.938 47.7781C28.8845 47.7399 28.8392 47.6914 28.8047 47.6355C28.7703 47.5796 28.7473 47.5174 28.7372 47.4525C28.7272 47.3876 28.7302 47.3213 28.7461 47.2576C28.762 47.1939 28.7904 47.1339 28.8298 47.0814C28.8692 47.0288 28.9187 46.9846 28.9754 46.9515C29.0321 46.9183 29.0948 46.8968 29.16 46.8882C29.2251 46.8797 29.2913 46.8842 29.3546 46.9016L37.5051 48.9374L10.8304 24.9648L11.9712 39.7657C11.9781 39.8312 11.9718 39.8974 11.9526 39.9604C11.9335 40.0235 11.9019 40.082 11.8597 40.1326C11.8175 40.1833 11.7656 40.2249 11.7071 40.2551C11.6485 40.2853 11.5845 40.3035 11.5188 40.3086C11.4532 40.3136 11.3871 40.3054 11.3246 40.2845C11.2622 40.2636 11.2045 40.2304 11.1551 40.1868C11.1057 40.1433 11.0655 40.0902 11.0369 40.0309C11.0084 39.9715 10.992 39.907 10.9888 39.8412L9.75334 23.8135C9.74558 23.7152 9.76748 23.6168 9.81624 23.5311C9.86499 23.4453 9.93834 23.3762 10.0268 23.3326C10.1153 23.289 10.2148 23.273 10.3125 23.2865C10.4102 23.3001 10.5015 23.3427 10.5748 23.4087L39.6402 49.5301C39.7144 49.5968 39.7667 49.6844 39.7901 49.7815C39.8134 49.8785 39.8068 49.9803 39.771 50.0734C39.7353 50.1666 39.6721 50.2467 39.5898 50.3032C39.5076 50.3596 39.4094 50.3898 39.3097 50.3897ZM61.1748 26.8147C61.0572 26.8148 60.9435 26.7728 60.8541 26.6964L47.6554 15.3935C47.6042 15.35 47.5624 15.2964 47.5328 15.2361C47.5031 15.1758 47.4861 15.1101 47.4828 15.0429C47.4796 14.9758 47.4901 14.9087 47.5138 14.8458C47.5375 14.7829 47.5738 14.7256 47.6205 14.6773L51.9485 10.1693C52.0129 10.1023 52.0949 10.0549 52.1851 10.0326L59.6896 8.17746C59.7591 8.16026 59.8315 8.1584 59.9018 8.17201C59.9721 8.18562 60.0386 8.21438 60.0966 8.25628C60.1546 8.29818 60.2028 8.35222 60.2379 8.41465C60.2729 8.47707 60.2939 8.54638 60.2995 8.61775L61.6663 26.2837C61.6716 26.3515 61.6628 26.4196 61.6404 26.4837C61.6181 26.5479 61.5828 26.6068 61.5366 26.6566C61.4905 26.7065 61.4345 26.7463 61.3722 26.7735C61.3099 26.8007 61.2427 26.8147 61.1748 26.8147ZM48.693 14.9841L60.5919 25.1738L59.3617 9.27423L52.5603 10.9552L48.693 14.9841Z" stroke="black" stroke-width="0.4" mask="url(#path-4-outside-1_395_6747)"/>
<mask id="path-5-outside-2_395_6747" maskUnits="userSpaceOnUse" x="16.9062" y="18.4448" width="38" height="27" fill="black">
<rect fill="white" x="16.9062" y="18.4448" width="38" height="27"/>
<path d="M19.3812 20.4851C19.3667 20.4851 19.3523 20.4844 19.3378 20.4831C18.753 20.4325 18.4086 20.4305 18.3981 20.4305C18.2674 20.4303 18.1422 20.3781 18.0499 20.2855C17.9577 20.1929 17.906 20.0674 17.9063 19.9367C17.9065 19.806 17.9587 19.6807 18.0513 19.5885C18.1439 19.4962 18.2694 19.4446 18.4001 19.4448C18.4001 19.4448 18.776 19.4448 19.4233 19.5013C19.5495 19.5127 19.6665 19.5722 19.75 19.6675C19.8335 19.7628 19.8771 19.8867 19.8717 20.0133C19.8663 20.1399 19.8123 20.2596 19.7209 20.3474C19.6296 20.4353 19.5079 20.4846 19.3812 20.4851ZM47.1179 45.0819H47.0956C46.4003 45.0517 45.7084 44.9691 45.0256 44.8349C44.8973 44.8094 44.7844 44.734 44.7117 44.6254C44.6389 44.5167 44.6124 44.3835 44.6378 44.2553C44.6633 44.127 44.7386 44.0141 44.8473 43.9414C44.956 43.8686 45.0892 43.8421 45.2174 43.8675C45.8279 43.9898 46.4746 44.0667 47.1402 44.0969C47.271 44.0998 47.3952 44.1544 47.4856 44.2489C47.576 44.3434 47.6251 44.4699 47.6223 44.6006C47.6194 44.7313 47.5647 44.8555 47.4702 44.9459C47.3758 45.0363 47.2493 45.0855 47.1185 45.0826L47.1179 45.0819ZM49.1288 45.0451C49.001 45.0457 48.8779 44.9966 48.7856 44.9082C48.6933 44.8198 48.639 44.6991 48.6341 44.5714C48.6291 44.4437 48.674 44.319 48.7591 44.2238C48.8443 44.1285 48.9632 44.0701 49.0906 44.0607C49.7248 44.0115 50.3786 43.9241 51.0325 43.8025C51.161 43.7786 51.2938 43.8068 51.4016 43.8808C51.5093 43.9548 51.5833 44.0686 51.6072 44.1971C51.631 44.3256 51.6029 44.4584 51.5289 44.5662C51.4549 44.6739 51.3411 44.7479 51.2126 44.7718C50.5361 44.8982 49.8535 44.989 49.1675 45.0438C49.1544 45.0447 49.1419 45.0452 49.1288 45.0451ZM43.1928 44.2783C43.1304 44.2782 43.0687 44.2664 43.0107 44.2434C42.3484 43.9799 41.7188 43.6513 41.1399 43.2663C41.0844 43.2311 41.0365 43.1853 40.999 43.1314C40.9615 43.0776 40.9352 43.0167 40.9215 42.9525C40.9078 42.8883 40.9071 42.8221 40.9194 42.7576C40.9317 42.6931 40.9567 42.6317 40.993 42.5771C41.0294 42.5224 41.0762 42.4755 41.1309 42.4392C41.1856 42.4029 41.247 42.3779 41.3115 42.3656C41.376 42.3534 41.4423 42.3541 41.5064 42.3678C41.5706 42.3816 41.6314 42.408 41.6853 42.4455C42.2077 42.7925 42.7762 43.0895 43.3748 43.3274C43.4813 43.3697 43.5698 43.4478 43.6249 43.5484C43.6801 43.6489 43.6984 43.7655 43.6769 43.8781C43.6553 43.9907 43.5952 44.0922 43.5068 44.1653C43.4185 44.2383 43.3074 44.2783 43.1928 44.2783ZM39.8703 42.0657C39.8043 42.0658 39.7391 42.0526 39.6783 42.027C39.6176 42.0014 39.5626 41.9638 39.5167 41.9165C39.0284 41.4111 38.5904 40.8593 38.209 40.269C38.1738 40.2147 38.1495 40.1541 38.1377 40.0904C38.1259 40.0268 38.1268 39.9614 38.1403 39.8981C38.1537 39.8348 38.1795 39.7748 38.2162 39.7214C38.2528 39.6681 38.2996 39.6225 38.3539 39.5872C38.4082 39.552 38.4689 39.5278 38.5325 39.516C38.5962 39.5042 38.6615 39.505 38.7248 39.5185C38.7881 39.5319 38.8482 39.5577 38.9015 39.5944C38.9548 39.6311 39.0004 39.6779 39.0357 39.7321C39.3906 40.2802 39.7914 40.7836 40.2238 41.2298C40.2912 41.2993 40.3366 41.3871 40.3544 41.4822C40.3722 41.5774 40.3615 41.6756 40.3238 41.7648C40.2861 41.8539 40.223 41.93 40.1424 41.9835C40.0617 42.037 39.9671 42.0656 39.8703 42.0657ZM37.6754 38.7234C37.5794 38.7235 37.4855 38.6956 37.4052 38.643C37.3249 38.5905 37.2617 38.5157 37.2233 38.4277C36.9476 37.7932 36.7134 37.1415 36.5221 36.4767C36.502 36.4139 36.4947 36.3478 36.5006 36.2822C36.5065 36.2166 36.5255 36.1529 36.5565 36.0948C36.5874 36.0366 36.6297 35.9853 36.6808 35.9438C36.732 35.9023 36.7909 35.8714 36.8541 35.8531C36.9174 35.8347 36.9836 35.8292 37.0491 35.8369C37.1145 35.8446 37.1777 35.8653 37.2349 35.8978C37.2922 35.9304 37.3424 35.974 37.3825 36.0263C37.4226 36.0785 37.4518 36.1382 37.4684 36.202C37.6557 36.8479 37.8772 37.4637 38.1262 38.0328C38.1589 38.1077 38.1725 38.1896 38.1656 38.2711C38.1588 38.3525 38.1318 38.431 38.0871 38.4995C38.0424 38.5679 37.9813 38.6242 37.9095 38.6632C37.8376 38.7021 37.7572 38.7233 37.6754 38.7234ZM36.5359 34.8752C36.4223 34.875 36.3123 34.8356 36.2244 34.7637C36.1365 34.6917 36.0761 34.5916 36.0536 34.4803C35.924 33.8391 35.763 33.2046 35.5712 32.5791C35.5522 32.5173 35.5456 32.4522 35.5517 32.3878C35.5578 32.3234 35.5765 32.2607 35.6068 32.2035C35.6371 32.1463 35.6783 32.0956 35.7282 32.0544C35.7781 32.0131 35.8356 31.9821 35.8975 31.9631C35.9594 31.944 36.0244 31.9374 36.0888 31.9435C36.1533 31.9496 36.2159 31.9683 36.2731 31.9986C36.3303 32.0289 36.381 32.0702 36.4223 32.1201C36.4635 32.1699 36.4946 32.2275 36.5136 32.2893C36.7107 32.9301 36.8809 33.6017 37.0196 34.2844C37.0342 34.3561 37.0327 34.4301 37.0152 34.5011C36.9976 34.5722 36.9645 34.6384 36.9182 34.695C36.8719 34.7516 36.8136 34.7972 36.7474 34.8285C36.6813 34.8598 36.6091 34.8753 36.5359 34.8752ZM35.3491 31.0408C35.2529 31.0407 35.1589 31.0124 35.0785 30.9596C34.9982 30.9067 34.9351 30.8314 34.897 30.7431C34.6394 30.1453 34.3464 29.5634 34.0197 29.0003C33.9849 28.9443 33.9618 28.8819 33.9515 28.8168C33.9413 28.7517 33.9442 28.6852 33.9602 28.6212C33.9761 28.5573 34.0047 28.4971 34.0443 28.4444C34.0838 28.3917 34.1336 28.3475 34.1906 28.3143C34.2475 28.2812 34.3106 28.2598 34.376 28.2514C34.4414 28.2431 34.5078 28.2479 34.5712 28.2657C34.6347 28.2835 34.694 28.3138 34.7455 28.3549C34.7971 28.3959 34.8399 28.4469 34.8714 28.5049C35.2131 29.0923 35.5259 29.714 35.8012 30.3521C35.8337 30.4271 35.847 30.5089 35.84 30.5903C35.833 30.6717 35.8058 30.7501 35.761 30.8184C35.7161 30.8867 35.655 30.9428 35.5831 30.9816C35.5112 31.0204 35.4308 31.0407 35.3491 31.0408ZM33.331 27.5737C33.2551 27.5739 33.1802 27.5565 33.1121 27.5228C33.0441 27.4892 32.9847 27.4402 32.9387 27.3798C32.5444 26.863 32.1182 26.3714 31.6626 25.9078C31.616 25.862 31.579 25.8073 31.5538 25.747C31.5286 25.6867 31.5156 25.622 31.5156 25.5566C31.5156 25.4912 31.5286 25.4265 31.5539 25.3663C31.5792 25.306 31.6162 25.2513 31.6628 25.2055C31.7094 25.1596 31.7646 25.1235 31.8253 25.0992C31.886 25.0749 31.9509 25.0629 32.0162 25.064C32.0816 25.065 32.1461 25.079 32.206 25.1052C32.2658 25.1314 32.3199 25.1692 32.365 25.2165C32.848 25.7074 33.3048 26.2344 33.722 26.7818C33.7777 26.8548 33.8119 26.9419 33.8208 27.0333C33.8297 27.1247 33.8128 27.2167 33.7722 27.299C33.7315 27.3814 33.6687 27.4507 33.5907 27.4992C33.5128 27.5477 33.4228 27.5735 33.331 27.5737ZM30.5172 24.7105C30.4062 24.7106 30.2985 24.6731 30.2116 24.6041C29.7005 24.1992 29.1667 23.8241 28.6128 23.4803C28.5016 23.4113 28.4225 23.301 28.3927 23.1736C28.363 23.0463 28.385 22.9123 28.4541 22.8012C28.5231 22.6901 28.6334 22.6109 28.7608 22.5812C28.8881 22.5514 29.0221 22.5735 29.1332 22.6425C29.7191 23.0063 30.2836 23.4035 30.824 23.8319C30.9041 23.8956 30.9623 23.9825 30.9907 24.0808C31.0191 24.179 31.0163 24.2836 30.9826 24.3802C30.9488 24.4767 30.8859 24.5604 30.8025 24.6196C30.7191 24.6788 30.6194 24.7105 30.5172 24.7105ZM27.1086 22.586C27.0346 22.5857 26.9616 22.5689 26.895 22.5367C26.3046 22.2525 25.7009 21.997 25.0859 21.7711C24.9645 21.7251 24.8661 21.633 24.8122 21.5149C24.7583 21.3968 24.7532 21.2622 24.7979 21.1404C24.8427 21.0185 24.9337 20.9192 25.0512 20.8641C25.1687 20.8089 25.3033 20.8024 25.4256 20.8459C26.0768 21.0857 26.7156 21.3558 27.3234 21.6489C27.4242 21.6973 27.5055 21.7786 27.554 21.8793C27.6025 21.98 27.6154 22.0943 27.5904 22.2033C27.5654 22.3123 27.5041 22.4095 27.4165 22.479C27.329 22.5486 27.2204 22.5863 27.1086 22.586ZM23.3372 21.1928C23.2937 21.1928 23.2504 21.1871 23.2084 21.1757C22.5737 21.0048 21.9319 20.861 21.285 20.7447C21.2212 20.7332 21.1604 20.7093 21.1059 20.6744C21.0514 20.6394 21.0043 20.5941 20.9673 20.5409C20.9303 20.4878 20.9042 20.4279 20.8903 20.3646C20.8765 20.3014 20.8753 20.236 20.8867 20.1723C20.8982 20.1086 20.922 20.0477 20.957 19.9932C20.9919 19.9387 21.0373 19.8916 21.0904 19.8546C21.1436 19.8176 21.2035 19.7915 21.2667 19.7777C21.33 19.7638 21.3954 19.7626 21.4591 19.7741C22.1333 19.8956 22.8082 20.0468 23.4654 20.2235C23.5812 20.2542 23.6819 20.3261 23.7486 20.4257C23.8154 20.5253 23.8435 20.6457 23.8278 20.7646C23.8121 20.8834 23.7536 20.9924 23.6633 21.0713C23.573 21.1501 23.4571 21.1933 23.3372 21.1928ZM53.115 44.3026C52.9962 44.3029 52.8814 44.2603 52.7915 44.1827C52.7016 44.1051 52.6428 43.9976 52.6259 43.8801C52.6089 43.7625 52.635 43.6428 52.6992 43.543C52.7635 43.4431 52.8617 43.3698 52.9757 43.3366C53.5323 43.1723 53.8595 43.0461 53.87 43.0422C53.991 42.9984 54.1242 43.0036 54.2413 43.0567C54.3585 43.1099 54.4502 43.2067 54.4969 43.3265C54.5437 43.4463 54.5417 43.5796 54.4915 43.698C54.4413 43.8164 54.3468 43.9105 54.2282 43.9602C54.2282 43.9602 53.8707 44.1002 53.255 44.2822C53.2095 44.2957 53.1624 44.3026 53.115 44.3026Z"/>
</mask>
<path d="M19.3812 20.4851C19.3667 20.4851 19.3523 20.4844 19.3378 20.4831C18.753 20.4325 18.4086 20.4305 18.3981 20.4305C18.2674 20.4303 18.1422 20.3781 18.0499 20.2855C17.9577 20.1929 17.906 20.0674 17.9063 19.9367C17.9065 19.806 17.9587 19.6807 18.0513 19.5885C18.1439 19.4962 18.2694 19.4446 18.4001 19.4448C18.4001 19.4448 18.776 19.4448 19.4233 19.5013C19.5495 19.5127 19.6665 19.5722 19.75 19.6675C19.8335 19.7628 19.8771 19.8867 19.8717 20.0133C19.8663 20.1399 19.8123 20.2596 19.7209 20.3474C19.6296 20.4353 19.5079 20.4846 19.3812 20.4851ZM47.1179 45.0819H47.0956C46.4003 45.0517 45.7084 44.9691 45.0256 44.8349C44.8973 44.8094 44.7844 44.734 44.7117 44.6254C44.6389 44.5167 44.6124 44.3835 44.6378 44.2553C44.6633 44.127 44.7386 44.0141 44.8473 43.9414C44.956 43.8686 45.0892 43.8421 45.2174 43.8675C45.8279 43.9898 46.4746 44.0667 47.1402 44.0969C47.271 44.0998 47.3952 44.1544 47.4856 44.2489C47.576 44.3434 47.6251 44.4699 47.6223 44.6006C47.6194 44.7313 47.5647 44.8555 47.4702 44.9459C47.3758 45.0363 47.2493 45.0855 47.1185 45.0826L47.1179 45.0819ZM49.1288 45.0451C49.001 45.0457 48.8779 44.9966 48.7856 44.9082C48.6933 44.8198 48.639 44.6991 48.6341 44.5714C48.6291 44.4437 48.674 44.319 48.7591 44.2238C48.8443 44.1285 48.9632 44.0701 49.0906 44.0607C49.7248 44.0115 50.3786 43.9241 51.0325 43.8025C51.161 43.7786 51.2938 43.8068 51.4016 43.8808C51.5093 43.9548 51.5833 44.0686 51.6072 44.1971C51.631 44.3256 51.6029 44.4584 51.5289 44.5662C51.4549 44.6739 51.3411 44.7479 51.2126 44.7718C50.5361 44.8982 49.8535 44.989 49.1675 45.0438C49.1544 45.0447 49.1419 45.0452 49.1288 45.0451ZM43.1928 44.2783C43.1304 44.2782 43.0687 44.2664 43.0107 44.2434C42.3484 43.9799 41.7188 43.6513 41.1399 43.2663C41.0844 43.2311 41.0365 43.1853 40.999 43.1314C40.9615 43.0776 40.9352 43.0167 40.9215 42.9525C40.9078 42.8883 40.9071 42.8221 40.9194 42.7576C40.9317 42.6931 40.9567 42.6317 40.993 42.5771C41.0294 42.5224 41.0762 42.4755 41.1309 42.4392C41.1856 42.4029 41.247 42.3779 41.3115 42.3656C41.376 42.3534 41.4423 42.3541 41.5064 42.3678C41.5706 42.3816 41.6314 42.408 41.6853 42.4455C42.2077 42.7925 42.7762 43.0895 43.3748 43.3274C43.4813 43.3697 43.5698 43.4478 43.6249 43.5484C43.6801 43.6489 43.6984 43.7655 43.6769 43.8781C43.6553 43.9907 43.5952 44.0922 43.5068 44.1653C43.4185 44.2383 43.3074 44.2783 43.1928 44.2783ZM39.8703 42.0657C39.8043 42.0658 39.7391 42.0526 39.6783 42.027C39.6176 42.0014 39.5626 41.9638 39.5167 41.9165C39.0284 41.4111 38.5904 40.8593 38.209 40.269C38.1738 40.2147 38.1495 40.1541 38.1377 40.0904C38.1259 40.0268 38.1268 39.9614 38.1403 39.8981C38.1537 39.8348 38.1795 39.7748 38.2162 39.7214C38.2528 39.6681 38.2996 39.6225 38.3539 39.5872C38.4082 39.552 38.4689 39.5278 38.5325 39.516C38.5962 39.5042 38.6615 39.505 38.7248 39.5185C38.7881 39.5319 38.8482 39.5577 38.9015 39.5944C38.9548 39.6311 39.0004 39.6779 39.0357 39.7321C39.3906 40.2802 39.7914 40.7836 40.2238 41.2298C40.2912 41.2993 40.3366 41.3871 40.3544 41.4822C40.3722 41.5774 40.3615 41.6756 40.3238 41.7648C40.2861 41.8539 40.223 41.93 40.1424 41.9835C40.0617 42.037 39.9671 42.0656 39.8703 42.0657ZM37.6754 38.7234C37.5794 38.7235 37.4855 38.6956 37.4052 38.643C37.3249 38.5905 37.2617 38.5157 37.2233 38.4277C36.9476 37.7932 36.7134 37.1415 36.5221 36.4767C36.502 36.4139 36.4947 36.3478 36.5006 36.2822C36.5065 36.2166 36.5255 36.1529 36.5565 36.0948C36.5874 36.0366 36.6297 35.9853 36.6808 35.9438C36.732 35.9023 36.7909 35.8714 36.8541 35.8531C36.9174 35.8347 36.9836 35.8292 37.0491 35.8369C37.1145 35.8446 37.1777 35.8653 37.2349 35.8978C37.2922 35.9304 37.3424 35.974 37.3825 36.0263C37.4226 36.0785 37.4518 36.1382 37.4684 36.202C37.6557 36.8479 37.8772 37.4637 38.1262 38.0328C38.1589 38.1077 38.1725 38.1896 38.1656 38.2711C38.1588 38.3525 38.1318 38.431 38.0871 38.4995C38.0424 38.5679 37.9813 38.6242 37.9095 38.6632C37.8376 38.7021 37.7572 38.7233 37.6754 38.7234ZM36.5359 34.8752C36.4223 34.875 36.3123 34.8356 36.2244 34.7637C36.1365 34.6917 36.0761 34.5916 36.0536 34.4803C35.924 33.8391 35.763 33.2046 35.5712 32.5791C35.5522 32.5173 35.5456 32.4522 35.5517 32.3878C35.5578 32.3234 35.5765 32.2607 35.6068 32.2035C35.6371 32.1463 35.6783 32.0956 35.7282 32.0544C35.7781 32.0131 35.8356 31.9821 35.8975 31.9631C35.9594 31.944 36.0244 31.9374 36.0888 31.9435C36.1533 31.9496 36.2159 31.9683 36.2731 31.9986C36.3303 32.0289 36.381 32.0702 36.4223 32.1201C36.4635 32.1699 36.4946 32.2275 36.5136 32.2893C36.7107 32.9301 36.8809 33.6017 37.0196 34.2844C37.0342 34.3561 37.0327 34.4301 37.0152 34.5011C36.9976 34.5722 36.9645 34.6384 36.9182 34.695C36.8719 34.7516 36.8136 34.7972 36.7474 34.8285C36.6813 34.8598 36.6091 34.8753 36.5359 34.8752ZM35.3491 31.0408C35.2529 31.0407 35.1589 31.0124 35.0785 30.9596C34.9982 30.9067 34.9351 30.8314 34.897 30.7431C34.6394 30.1453 34.3464 29.5634 34.0197 29.0003C33.9849 28.9443 33.9618 28.8819 33.9515 28.8168C33.9413 28.7517 33.9442 28.6852 33.9602 28.6212C33.9761 28.5573 34.0047 28.4971 34.0443 28.4444C34.0838 28.3917 34.1336 28.3475 34.1906 28.3143C34.2475 28.2812 34.3106 28.2598 34.376 28.2514C34.4414 28.2431 34.5078 28.2479 34.5712 28.2657C34.6347 28.2835 34.694 28.3138 34.7455 28.3549C34.7971 28.3959 34.8399 28.4469 34.8714 28.5049C35.2131 29.0923 35.5259 29.714 35.8012 30.3521C35.8337 30.4271 35.847 30.5089 35.84 30.5903C35.833 30.6717 35.8058 30.7501 35.761 30.8184C35.7161 30.8867 35.655 30.9428 35.5831 30.9816C35.5112 31.0204 35.4308 31.0407 35.3491 31.0408ZM33.331 27.5737C33.2551 27.5739 33.1802 27.5565 33.1121 27.5228C33.0441 27.4892 32.9847 27.4402 32.9387 27.3798C32.5444 26.863 32.1182 26.3714 31.6626 25.9078C31.616 25.862 31.579 25.8073 31.5538 25.747C31.5286 25.6867 31.5156 25.622 31.5156 25.5566C31.5156 25.4912 31.5286 25.4265 31.5539 25.3663C31.5792 25.306 31.6162 25.2513 31.6628 25.2055C31.7094 25.1596 31.7646 25.1235 31.8253 25.0992C31.886 25.0749 31.9509 25.0629 32.0162 25.064C32.0816 25.065 32.1461 25.079 32.206 25.1052C32.2658 25.1314 32.3199 25.1692 32.365 25.2165C32.848 25.7074 33.3048 26.2344 33.722 26.7818C33.7777 26.8548 33.8119 26.9419 33.8208 27.0333C33.8297 27.1247 33.8128 27.2167 33.7722 27.299C33.7315 27.3814 33.6687 27.4507 33.5907 27.4992C33.5128 27.5477 33.4228 27.5735 33.331 27.5737ZM30.5172 24.7105C30.4062 24.7106 30.2985 24.6731 30.2116 24.6041C29.7005 24.1992 29.1667 23.8241 28.6128 23.4803C28.5016 23.4113 28.4225 23.301 28.3927 23.1736C28.363 23.0463 28.385 22.9123 28.4541 22.8012C28.5231 22.6901 28.6334 22.6109 28.7608 22.5812C28.8881 22.5514 29.0221 22.5735 29.1332 22.6425C29.7191 23.0063 30.2836 23.4035 30.824 23.8319C30.9041 23.8956 30.9623 23.9825 30.9907 24.0808C31.0191 24.179 31.0163 24.2836 30.9826 24.3802C30.9488 24.4767 30.8859 24.5604 30.8025 24.6196C30.7191 24.6788 30.6194 24.7105 30.5172 24.7105ZM27.1086 22.586C27.0346 22.5857 26.9616 22.5689 26.895 22.5367C26.3046 22.2525 25.7009 21.997 25.0859 21.7711C24.9645 21.7251 24.8661 21.633 24.8122 21.5149C24.7583 21.3968 24.7532 21.2622 24.7979 21.1404C24.8427 21.0185 24.9337 20.9192 25.0512 20.8641C25.1687 20.8089 25.3033 20.8024 25.4256 20.8459C26.0768 21.0857 26.7156 21.3558 27.3234 21.6489C27.4242 21.6973 27.5055 21.7786 27.554 21.8793C27.6025 21.98 27.6154 22.0943 27.5904 22.2033C27.5654 22.3123 27.5041 22.4095 27.4165 22.479C27.329 22.5486 27.2204 22.5863 27.1086 22.586ZM23.3372 21.1928C23.2937 21.1928 23.2504 21.1871 23.2084 21.1757C22.5737 21.0048 21.9319 20.861 21.285 20.7447C21.2212 20.7332 21.1604 20.7093 21.1059 20.6744C21.0514 20.6394 21.0043 20.5941 20.9673 20.5409C20.9303 20.4878 20.9042 20.4279 20.8903 20.3646C20.8765 20.3014 20.8753 20.236 20.8867 20.1723C20.8982 20.1086 20.922 20.0477 20.957 19.9932C20.9919 19.9387 21.0373 19.8916 21.0904 19.8546C21.1436 19.8176 21.2035 19.7915 21.2667 19.7777C21.33 19.7638 21.3954 19.7626 21.4591 19.7741C22.1333 19.8956 22.8082 20.0468 23.4654 20.2235C23.5812 20.2542 23.6819 20.3261 23.7486 20.4257C23.8154 20.5253 23.8435 20.6457 23.8278 20.7646C23.8121 20.8834 23.7536 20.9924 23.6633 21.0713C23.573 21.1501 23.4571 21.1933 23.3372 21.1928ZM53.115 44.3026C52.9962 44.3029 52.8814 44.2603 52.7915 44.1827C52.7016 44.1051 52.6428 43.9976 52.6259 43.8801C52.6089 43.7625 52.635 43.6428 52.6992 43.543C52.7635 43.4431 52.8617 43.3698 52.9757 43.3366C53.5323 43.1723 53.8595 43.0461 53.87 43.0422C53.991 42.9984 54.1242 43.0036 54.2413 43.0567C54.3585 43.1099 54.4502 43.2067 54.4969 43.3265C54.5437 43.4463 54.5417 43.5796 54.4915 43.698C54.4413 43.8164 54.3468 43.9105 54.2282 43.9602C54.2282 43.9602 53.8707 44.1002 53.255 44.2822C53.2095 44.2957 53.1624 44.3026 53.115 44.3026Z" fill="black"/>
<path d="M19.3812 20.4851C19.3667 20.4851 19.3523 20.4844 19.3378 20.4831C18.753 20.4325 18.4086 20.4305 18.3981 20.4305C18.2674 20.4303 18.1422 20.3781 18.0499 20.2855C17.9577 20.1929 17.906 20.0674 17.9063 19.9367C17.9065 19.806 17.9587 19.6807 18.0513 19.5885C18.1439 19.4962 18.2694 19.4446 18.4001 19.4448C18.4001 19.4448 18.776 19.4448 19.4233 19.5013C19.5495 19.5127 19.6665 19.5722 19.75 19.6675C19.8335 19.7628 19.8771 19.8867 19.8717 20.0133C19.8663 20.1399 19.8123 20.2596 19.7209 20.3474C19.6296 20.4353 19.5079 20.4846 19.3812 20.4851ZM47.1179 45.0819H47.0956C46.4003 45.0517 45.7084 44.9691 45.0256 44.8349C44.8973 44.8094 44.7844 44.734 44.7117 44.6254C44.6389 44.5167 44.6124 44.3835 44.6378 44.2553C44.6633 44.127 44.7386 44.0141 44.8473 43.9414C44.956 43.8686 45.0892 43.8421 45.2174 43.8675C45.8279 43.9898 46.4746 44.0667 47.1402 44.0969C47.271 44.0998 47.3952 44.1544 47.4856 44.2489C47.576 44.3434 47.6251 44.4699 47.6223 44.6006C47.6194 44.7313 47.5647 44.8555 47.4702 44.9459C47.3758 45.0363 47.2493 45.0855 47.1185 45.0826L47.1179 45.0819ZM49.1288 45.0451C49.001 45.0457 48.8779 44.9966 48.7856 44.9082C48.6933 44.8198 48.639 44.6991 48.6341 44.5714C48.6291 44.4437 48.674 44.319 48.7591 44.2238C48.8443 44.1285 48.9632 44.0701 49.0906 44.0607C49.7248 44.0115 50.3786 43.9241 51.0325 43.8025C51.161 43.7786 51.2938 43.8068 51.4016 43.8808C51.5093 43.9548 51.5833 44.0686 51.6072 44.1971C51.631 44.3256 51.6029 44.4584 51.5289 44.5662C51.4549 44.6739 51.3411 44.7479 51.2126 44.7718C50.5361 44.8982 49.8535 44.989 49.1675 45.0438C49.1544 45.0447 49.1419 45.0452 49.1288 45.0451ZM43.1928 44.2783C43.1304 44.2782 43.0687 44.2664 43.0107 44.2434C42.3484 43.9799 41.7188 43.6513 41.1399 43.2663C41.0844 43.2311 41.0365 43.1853 40.999 43.1314C40.9615 43.0776 40.9352 43.0167 40.9215 42.9525C40.9078 42.8883 40.9071 42.8221 40.9194 42.7576C40.9317 42.6931 40.9567 42.6317 40.993 42.5771C41.0294 42.5224 41.0762 42.4755 41.1309 42.4392C41.1856 42.4029 41.247 42.3779 41.3115 42.3656C41.376 42.3534 41.4423 42.3541 41.5064 42.3678C41.5706 42.3816 41.6314 42.408 41.6853 42.4455C42.2077 42.7925 42.7762 43.0895 43.3748 43.3274C43.4813 43.3697 43.5698 43.4478 43.6249 43.5484C43.6801 43.6489 43.6984 43.7655 43.6769 43.8781C43.6553 43.9907 43.5952 44.0922 43.5068 44.1653C43.4185 44.2383 43.3074 44.2783 43.1928 44.2783ZM39.8703 42.0657C39.8043 42.0658 39.7391 42.0526 39.6783 42.027C39.6176 42.0014 39.5626 41.9638 39.5167 41.9165C39.0284 41.4111 38.5904 40.8593 38.209 40.269C38.1738 40.2147 38.1495 40.1541 38.1377 40.0904C38.1259 40.0268 38.1268 39.9614 38.1403 39.8981C38.1537 39.8348 38.1795 39.7748 38.2162 39.7214C38.2528 39.6681 38.2996 39.6225 38.3539 39.5872C38.4082 39.552 38.4689 39.5278 38.5325 39.516C38.5962 39.5042 38.6615 39.505 38.7248 39.5185C38.7881 39.5319 38.8482 39.5577 38.9015 39.5944C38.9548 39.6311 39.0004 39.6779 39.0357 39.7321C39.3906 40.2802 39.7914 40.7836 40.2238 41.2298C40.2912 41.2993 40.3366 41.3871 40.3544 41.4822C40.3722 41.5774 40.3615 41.6756 40.3238 41.7648C40.2861 41.8539 40.223 41.93 40.1424 41.9835C40.0617 42.037 39.9671 42.0656 39.8703 42.0657ZM37.6754 38.7234C37.5794 38.7235 37.4855 38.6956 37.4052 38.643C37.3249 38.5905 37.2617 38.5157 37.2233 38.4277C36.9476 37.7932 36.7134 37.1415 36.5221 36.4767C36.502 36.4139 36.4947 36.3478 36.5006 36.2822C36.5065 36.2166 36.5255 36.1529 36.5565 36.0948C36.5874 36.0366 36.6297 35.9853 36.6808 35.9438C36.732 35.9023 36.7909 35.8714 36.8541 35.8531C36.9174 35.8347 36.9836 35.8292 37.0491 35.8369C37.1145 35.8446 37.1777 35.8653 37.2349 35.8978C37.2922 35.9304 37.3424 35.974 37.3825 36.0263C37.4226 36.0785 37.4518 36.1382 37.4684 36.202C37.6557 36.8479 37.8772 37.4637 38.1262 38.0328C38.1589 38.1077 38.1725 38.1896 38.1656 38.2711C38.1588 38.3525 38.1318 38.431 38.0871 38.4995C38.0424 38.5679 37.9813 38.6242 37.9095 38.6632C37.8376 38.7021 37.7572 38.7233 37.6754 38.7234ZM36.5359 34.8752C36.4223 34.875 36.3123 34.8356 36.2244 34.7637C36.1365 34.6917 36.0761 34.5916 36.0536 34.4803C35.924 33.8391 35.763 33.2046 35.5712 32.5791C35.5522 32.5173 35.5456 32.4522 35.5517 32.3878C35.5578 32.3234 35.5765 32.2607 35.6068 32.2035C35.6371 32.1463 35.6783 32.0956 35.7282 32.0544C35.7781 32.0131 35.8356 31.9821 35.8975 31.9631C35.9594 31.944 36.0244 31.9374 36.0888 31.9435C36.1533 31.9496 36.2159 31.9683 36.2731 31.9986C36.3303 32.0289 36.381 32.0702 36.4223 32.1201C36.4635 32.1699 36.4946 32.2275 36.5136 32.2893C36.7107 32.9301 36.8809 33.6017 37.0196 34.2844C37.0342 34.3561 37.0327 34.4301 37.0152 34.5011C36.9976 34.5722 36.9645 34.6384 36.9182 34.695C36.8719 34.7516 36.8136 34.7972 36.7474 34.8285C36.6813 34.8598 36.6091 34.8753 36.5359 34.8752ZM35.3491 31.0408C35.2529 31.0407 35.1589 31.0124 35.0785 30.9596C34.9982 30.9067 34.9351 30.8314 34.897 30.7431C34.6394 30.1453 34.3464 29.5634 34.0197 29.0003C33.9849 28.9443 33.9618 28.8819 33.9515 28.8168C33.9413 28.7517 33.9442 28.6852 33.9602 28.6212C33.9761 28.5573 34.0047 28.4971 34.0443 28.4444C34.0838 28.3917 34.1336 28.3475 34.1906 28.3143C34.2475 28.2812 34.3106 28.2598 34.376 28.2514C34.4414 28.2431 34.5078 28.2479 34.5712 28.2657C34.6347 28.2835 34.694 28.3138 34.7455 28.3549C34.7971 28.3959 34.8399 28.4469 34.8714 28.5049C35.2131 29.0923 35.5259 29.714 35.8012 30.3521C35.8337 30.4271 35.847 30.5089 35.84 30.5903C35.833 30.6717 35.8058 30.7501 35.761 30.8184C35.7161 30.8867 35.655 30.9428 35.5831 30.9816C35.5112 31.0204 35.4308 31.0407 35.3491 31.0408ZM33.331 27.5737C33.2551 27.5739 33.1802 27.5565 33.1121 27.5228C33.0441 27.4892 32.9847 27.4402 32.9387 27.3798C32.5444 26.863 32.1182 26.3714 31.6626 25.9078C31.616 25.862 31.579 25.8073 31.5538 25.747C31.5286 25.6867 31.5156 25.622 31.5156 25.5566C31.5156 25.4912 31.5286 25.4265 31.5539 25.3663C31.5792 25.306 31.6162 25.2513 31.6628 25.2055C31.7094 25.1596 31.7646 25.1235 31.8253 25.0992C31.886 25.0749 31.9509 25.0629 32.0162 25.064C32.0816 25.065 32.1461 25.079 32.206 25.1052C32.2658 25.1314 32.3199 25.1692 32.365 25.2165C32.848 25.7074 33.3048 26.2344 33.722 26.7818C33.7777 26.8548 33.8119 26.9419 33.8208 27.0333C33.8297 27.1247 33.8128 27.2167 33.7722 27.299C33.7315 27.3814 33.6687 27.4507 33.5907 27.4992C33.5128 27.5477 33.4228 27.5735 33.331 27.5737ZM30.5172 24.7105C30.4062 24.7106 30.2985 24.6731 30.2116 24.6041C29.7005 24.1992 29.1667 23.8241 28.6128 23.4803C28.5016 23.4113 28.4225 23.301 28.3927 23.1736C28.363 23.0463 28.385 22.9123 28.4541 22.8012C28.5231 22.6901 28.6334 22.6109 28.7608 22.5812C28.8881 22.5514 29.0221 22.5735 29.1332 22.6425C29.7191 23.0063 30.2836 23.4035 30.824 23.8319C30.9041 23.8956 30.9623 23.9825 30.9907 24.0808C31.0191 24.179 31.0163 24.2836 30.9826 24.3802C30.9488 24.4767 30.8859 24.5604 30.8025 24.6196C30.7191 24.6788 30.6194 24.7105 30.5172 24.7105ZM27.1086 22.586C27.0346 22.5857 26.9616 22.5689 26.895 22.5367C26.3046 22.2525 25.7009 21.997 25.0859 21.7711C24.9645 21.7251 24.8661 21.633 24.8122 21.5149C24.7583 21.3968 24.7532 21.2622 24.7979 21.1404C24.8427 21.0185 24.9337 20.9192 25.0512 20.8641C25.1687 20.8089 25.3033 20.8024 25.4256 20.8459C26.0768 21.0857 26.7156 21.3558 27.3234 21.6489C27.4242 21.6973 27.5055 21.7786 27.554 21.8793C27.6025 21.98 27.6154 22.0943 27.5904 22.2033C27.5654 22.3123 27.5041 22.4095 27.4165 22.479C27.329 22.5486 27.2204 22.5863 27.1086 22.586ZM23.3372 21.1928C23.2937 21.1928 23.2504 21.1871 23.2084 21.1757C22.5737 21.0048 21.9319 20.861 21.285 20.7447C21.2212 20.7332 21.1604 20.7093 21.1059 20.6744C21.0514 20.6394 21.0043 20.5941 20.9673 20.5409C20.9303 20.4878 20.9042 20.4279 20.8903 20.3646C20.8765 20.3014 20.8753 20.236 20.8867 20.1723C20.8982 20.1086 20.922 20.0477 20.957 19.9932C20.9919 19.9387 21.0373 19.8916 21.0904 19.8546C21.1436 19.8176 21.2035 19.7915 21.2667 19.7777C21.33 19.7638 21.3954 19.7626 21.4591 19.7741C22.1333 19.8956 22.8082 20.0468 23.4654 20.2235C23.5812 20.2542 23.6819 20.3261 23.7486 20.4257C23.8154 20.5253 23.8435 20.6457 23.8278 20.7646C23.8121 20.8834 23.7536 20.9924 23.6633 21.0713C23.573 21.1501 23.4571 21.1933 23.3372 21.1928ZM53.115 44.3026C52.9962 44.3029 52.8814 44.2603 52.7915 44.1827C52.7016 44.1051 52.6428 43.9976 52.6259 43.8801C52.6089 43.7625 52.635 43.6428 52.6992 43.543C52.7635 43.4431 52.8617 43.3698 52.9757 43.3366C53.5323 43.1723 53.8595 43.0461 53.87 43.0422C53.991 42.9984 54.1242 43.0036 54.2413 43.0567C54.3585 43.1099 54.4502 43.2067 54.4969 43.3265C54.5437 43.4463 54.5417 43.5796 54.4915 43.698C54.4413 43.8164 54.3468 43.9105 54.2282 43.9602C54.2282 43.9602 53.8707 44.1002 53.255 44.2822C53.2095 44.2957 53.1624 44.3026 53.115 44.3026Z" stroke="black" stroke-width="0.4" mask="url(#path-5-outside-2_395_6747)"/>
<path d="M52.8828 28.4428C56.0699 28.1934 58.8745 30.5942 59.1221 33.7895C59.1729 34.446 59.0081 35.2616 58.7188 36.1411C58.4287 37.0225 58.0103 37.9777 57.5439 38.9164C56.6115 40.7931 55.4838 42.6125 54.8037 43.6655L54.8047 43.6664C54.7214 43.7989 54.605 43.9078 54.4678 43.9828C54.3309 44.0576 54.1774 44.0954 54.0215 44.0942V44.0952C53.7538 44.0952 53.5021 43.9802 53.3242 43.7758V43.7748C52.4918 42.8413 51.099 41.2184 49.8896 39.5082C49.2846 38.6527 48.7238 37.773 48.3018 36.9467C47.8808 36.1225 47.5937 35.3423 47.543 34.686C47.2956 31.4906 49.6906 28.6904 52.8828 28.4428ZM52.9746 29.6254C50.4342 29.8224 48.5278 32.0509 48.7246 34.5942C48.758 35.026 48.9461 35.5778 49.2568 36.2133C49.5668 36.847 49.9945 37.5562 50.498 38.3002C51.4817 39.7536 52.7516 41.3343 53.9893 42.7387C54.9969 41.1587 56.0095 39.402 56.7578 37.8149C57.1408 37.0026 57.4534 36.2364 57.6621 35.5629C57.8714 34.8874 57.9728 34.313 57.9395 33.8813C57.8487 32.7211 57.325 31.6374 56.4717 30.8461C55.6182 30.0548 54.4978 29.6137 53.334 29.6108C53.2151 29.6108 53.0952 29.6158 52.9746 29.6254Z" fill="black" stroke="black" stroke-width="0.2"/>
<path d="M53.2471 31.084C54.0412 31.0633 54.8176 31.3373 55.4238 31.8564C56.0704 32.4102 56.4709 33.1982 56.5381 34.0469C56.5718 34.4673 56.5214 34.8901 56.3906 35.291C56.2599 35.6918 56.0504 36.0623 55.7754 36.3818L55.7764 36.3828C55.4755 36.7364 55.1005 37.0199 54.6787 37.2139C54.257 37.4077 53.7981 37.5076 53.334 37.5059C52.5257 37.5046 51.7473 37.1987 51.1543 36.6494C50.5614 36.1002 50.1969 35.3478 50.1338 34.542C50.069 33.6931 50.3437 32.8527 50.8975 32.2061C51.4512 31.5594 52.2392 31.1585 53.0879 31.0918L53.2471 31.084ZM53.3369 32.2686C53.0577 32.2686 52.7812 32.3258 52.5254 32.4375C52.2695 32.5493 52.0394 32.7131 51.8496 32.918C51.6598 33.1229 51.5147 33.3651 51.4229 33.6289C51.331 33.8926 51.294 34.1727 51.3154 34.4512C51.3579 34.9865 51.6116 35.4829 52.0195 35.832C52.4275 36.1811 52.9568 36.3541 53.4922 36.3135C54.0317 36.2715 54.523 36.0231 54.875 35.6123C55.1831 35.2527 55.3527 34.8068 55.3623 34.3389L55.3564 34.1377C55.3163 33.6295 55.086 33.155 54.7119 32.8086C54.3378 32.4622 53.8468 32.2695 53.3369 32.2686ZM17.2334 4.87988C20.423 4.63247 23.2241 7.03029 23.4717 10.2256C23.5239 10.9009 23.3416 11.7554 23.0293 12.6738C22.7162 13.5946 22.2695 14.5908 21.7842 15.5537C20.814 17.4786 19.6848 19.2792 19.1533 20.1016L19.1543 20.1025C19.071 20.2347 18.9545 20.3431 18.8174 20.418C18.7147 20.474 18.6028 20.5106 18.4873 20.5244L18.3711 20.5303C18.1033 20.5302 17.8518 20.4169 17.6738 20.2119V20.2109C17.0244 19.4831 15.6332 17.8782 14.3789 16.126C13.7515 15.2495 13.157 14.3343 12.7061 13.4727C12.3126 12.7207 12.0247 12.0022 11.9238 11.3818L11.8926 11.1221C11.8314 10.3609 11.9217 9.5952 12.1582 8.86914C12.3652 8.23372 12.6806 7.63979 13.0898 7.11328L13.2705 6.8916C13.765 6.3109 14.3697 5.83368 15.0498 5.48828C15.7301 5.14282 16.4726 4.93657 17.2334 4.87988ZM17.6836 6.04688C17.0159 6.0443 16.3557 6.18782 15.749 6.4668C15.2181 6.71096 14.7391 7.05382 14.3379 7.47656L14.1709 7.66309C13.7747 8.12383 13.4735 8.65856 13.2852 9.23633C13.0968 9.81425 13.0245 10.4244 13.0732 11.0303L13.0928 11.1982C13.1556 11.6021 13.3344 12.0943 13.6064 12.6504C13.9165 13.2842 14.3441 13.9933 14.8477 14.7373C15.8313 16.1905 17.1015 17.7703 18.3389 19.1748C19.3467 17.5949 20.3583 15.838 21.1064 14.251C21.4894 13.4386 21.8031 12.6726 22.0117 11.999C22.2209 11.3236 22.3223 10.7494 22.2891 10.3174C22.1982 9.15719 21.6737 8.07342 20.8203 7.28223C19.9669 6.49102 18.8473 6.04979 17.6836 6.04688Z" fill="black" stroke="black" stroke-width="0.2"/>
<path d="M30.4434 59.4849C30.5952 59.4442 30.7574 59.466 30.8936 59.5445C31.0298 59.6231 31.1292 59.7529 31.1699 59.9048C31.2106 60.0567 31.1899 60.2188 31.1113 60.355C29.7917 62.6383 27.9522 64.5783 25.7422 66.0172C25.6587 66.0712 25.5626 66.1007 25.4639 66.108L25.46 66.1129H25.4189C25.291 66.1132 25.1662 66.072 25.0635 65.9957C24.9607 65.9192 24.885 65.8109 24.8486 65.688C24.8123 65.5653 24.8169 65.4341 24.8613 65.314C24.9058 65.1939 24.9881 65.0915 25.0957 65.022C27.1489 63.6855 28.858 61.8834 30.084 59.7623C30.1625 59.6261 30.2916 59.5257 30.4434 59.4849ZM31.5664 57.4507C31.646 57.4493 31.725 57.464 31.7988 57.4937C31.8727 57.5235 31.9398 57.5683 31.9961 57.6246C32.0524 57.6809 32.0972 57.748 32.127 57.8218C32.1567 57.8958 32.1714 57.9755 32.1699 58.0552C32.1684 58.1336 32.1497 58.2101 32.1182 58.2818L32.1191 58.2828C32.0413 58.476 31.9611 58.6688 31.875 58.8589L31.874 58.858C31.8273 58.9625 31.7523 59.0516 31.6562 59.1138C31.5602 59.1761 31.4475 59.2096 31.333 59.2095C31.2344 59.2094 31.1374 59.1843 31.0508 59.1373C30.964 59.09 30.8897 59.0219 30.8359 58.939C30.7822 58.856 30.7497 58.7603 30.7422 58.6617C30.7347 58.5631 30.7525 58.4638 30.793 58.3736C30.8718 58.1976 30.9474 58.0195 31.0205 57.8394C31.0476 57.7657 31.0891 57.6978 31.1426 57.6402C31.1968 57.5818 31.2622 57.535 31.335 57.5025C31.4077 57.47 31.4867 57.4522 31.5664 57.4507ZM17.4385 7.52887C18.2895 7.4631 19.1243 7.73239 19.7754 8.29059C20.4262 8.84857 20.8218 9.62698 20.8877 10.482C20.9214 10.9233 20.8634 11.3677 20.7178 11.7857C20.5721 12.2035 20.3416 12.587 20.041 12.9117C19.7403 13.2364 19.3752 13.4951 18.9697 13.6724C18.5644 13.8497 18.127 13.9416 17.6846 13.942H17.6836C16.8755 13.9405 16.0978 13.6346 15.5049 13.0855C14.9861 12.605 14.6418 11.9691 14.5215 11.2779L14.4844 10.9781C14.4186 10.1231 14.6887 9.2922 15.2461 8.64117C15.8035 7.99024 16.5827 7.59465 17.4385 7.52887ZM17.4707 8.71539C17.253 8.73808 17.0396 8.79658 16.8398 8.88824C16.5738 9.01039 16.3373 9.18883 16.1475 9.41168V9.41266C15.9738 9.61428 15.8414 9.84818 15.7588 10.1011C15.6762 10.3541 15.6449 10.621 15.666 10.8863C15.7086 11.4217 15.9611 11.9188 16.3691 12.2681C16.7772 12.6174 17.3072 12.791 17.8428 12.7505C18.3782 12.7084 18.8753 12.4553 19.2246 12.0474C19.5303 11.6904 19.7013 11.2398 19.7119 10.774L19.7061 10.5738C19.6863 10.3084 19.6146 10.0493 19.4941 9.81207C19.3737 9.57484 19.2074 9.36354 19.0049 9.19098H19.0039C18.6383 8.87637 18.1718 8.70374 17.6895 8.70465L17.4707 8.71539Z" fill="black" stroke="black" stroke-width="0.2"/>
<path d="M16.7295 38.1448C24.4251 38.1449 30.6873 44.4043 30.6875 52.0979C30.6875 59.7936 24.4259 66.0558 16.7295 66.0559C9.03366 66.0559 2.77246 59.7937 2.77246 52.0979C2.77266 44.4042 9.03381 38.1448 16.7295 38.1448ZM16.7295 39.3303C9.68767 39.3303 3.95821 45.0575 3.95801 52.0979C3.95801 59.1398 9.68758 64.8694 16.7295 64.8694C23.7713 64.8692 29.501 59.1397 29.501 52.0979C29.5008 45.0576 23.7719 39.3305 16.7295 39.3303Z" fill="black" stroke="black" stroke-width="0.2"/>
<path d="M16.7305 41.0152C22.8431 41.0153 27.8173 45.9868 27.8174 52.0982C27.8174 58.2123 22.8436 63.1861 16.7295 63.1861C10.6174 63.186 5.64453 58.2122 5.64453 52.0982C5.64458 45.9868 10.6177 41.0152 16.7305 41.0152ZM16.7295 42.2007C11.2707 42.2008 6.82915 46.6408 6.8291 52.0982C6.8291 57.5577 11.2707 61.9995 16.7295 61.9996C22.1884 61.9996 26.6309 57.5577 26.6309 52.0982C26.6308 46.6407 22.189 42.2007 16.7295 42.2007Z" fill="black" stroke="black" stroke-width="0.2"/>
<mask id="path-11-outside-3_395_6747" maskUnits="userSpaceOnUse" x="4.74414" y="40.1148" width="24" height="24" fill="black">
<rect fill="white" x="4.74414" y="40.1148" width="24" height="24"/>
<path d="M16.7289 43.378C16.5982 43.378 16.4729 43.3261 16.3804 43.2337C16.288 43.1412 16.2361 43.0159 16.2361 42.8852V41.6077C16.2361 41.477 16.288 41.3516 16.3804 41.2592C16.4729 41.1667 16.5982 41.1148 16.7289 41.1148C16.8597 41.1148 16.985 41.1667 17.0774 41.2592C17.1699 41.3516 17.2218 41.477 17.2218 41.6077V42.8852C17.2218 43.0159 17.1699 43.1412 17.0774 43.2337C16.985 43.3261 16.8597 43.378 16.7289 43.378ZM16.7289 63.0857C16.5982 63.0857 16.4729 63.0338 16.3804 62.9414C16.288 62.8489 16.2361 62.7236 16.2361 62.5929V61.3147C16.2361 61.184 16.288 61.0586 16.3804 60.9662C16.4729 60.8738 16.5982 60.8219 16.7289 60.8219C16.8597 60.8219 16.985 60.8738 17.0774 60.9662C17.1699 61.0586 17.2218 61.184 17.2218 61.3147V62.5922C17.2218 62.7229 17.1699 62.8483 17.0774 62.9407C16.985 63.0331 16.8597 63.0857 16.7289 63.0857ZM7.51448 52.5931H6.237C6.10628 52.5931 5.98092 52.5412 5.88849 52.4488C5.79607 52.3563 5.74414 52.231 5.74414 52.1003C5.74414 51.9695 5.79607 51.8442 5.88849 51.7518C5.98092 51.6593 6.10628 51.6074 6.237 51.6074H7.51448C7.6452 51.6074 7.77056 51.6593 7.86299 51.7518C7.95541 51.8442 8.00734 51.9695 8.00734 52.1003C8.00734 52.231 7.95541 52.3563 7.86299 52.4488C7.77056 52.5412 7.6452 52.5931 7.51448 52.5931ZM27.2215 52.5931H25.9441C25.8133 52.5931 25.688 52.5412 25.5956 52.4488C25.5031 52.3563 25.4512 52.231 25.4512 52.1003C25.4512 51.9695 25.5031 51.8442 25.5956 51.7518C25.688 51.6593 25.8133 51.6074 25.9441 51.6074H27.2215C27.3523 51.6074 27.4776 51.6593 27.57 51.7518C27.6625 51.8442 27.7144 51.9695 27.7144 52.1003C27.7144 52.231 27.6625 52.3563 27.57 52.4488C27.4776 52.5412 27.3523 52.5931 27.2215 52.5931ZM10.2134 46.0775C10.1487 46.0776 10.0846 46.0648 10.0248 46.04C9.96504 46.0152 9.91076 45.9788 9.86508 45.933L8.96217 45.0294C8.91375 44.9843 8.87491 44.9299 8.84797 44.8694C8.82103 44.809 8.80655 44.7437 8.80538 44.6775C8.80421 44.6113 8.81639 44.5456 8.84117 44.4842C8.86596 44.4229 8.90286 44.3671 8.94966 44.3203C8.99646 44.2735 9.05221 44.2366 9.11358 44.2118C9.17495 44.1871 9.24068 44.1749 9.30686 44.176C9.37303 44.1772 9.43829 44.1917 9.49875 44.2186C9.55921 44.2456 9.61362 44.2844 9.65874 44.3328L10.5623 45.2357C10.6312 45.3047 10.678 45.3925 10.697 45.488C10.716 45.5835 10.7062 45.6826 10.669 45.7726C10.6317 45.8626 10.5686 45.9395 10.4876 45.9937C10.4066 46.0479 10.3114 46.0768 10.214 46.0769L10.2134 46.0775ZM24.1487 60.0123C24.084 60.0123 24.0199 59.9995 23.9602 59.9747C23.9004 59.9499 23.8461 59.9135 23.8005 59.8677L22.8969 58.9648C22.8485 58.9197 22.8096 58.8652 22.7827 58.8048C22.7557 58.7443 22.7413 58.6791 22.7401 58.6129C22.7389 58.5467 22.7511 58.481 22.7759 58.4196C22.8007 58.3582 22.8376 58.3025 22.8844 58.2557C22.9312 58.2089 22.9869 58.172 23.0483 58.1472C23.1097 58.1224 23.1754 58.1102 23.2416 58.1114C23.3077 58.1126 23.373 58.1271 23.4335 58.154C23.4939 58.1809 23.5483 58.2198 23.5935 58.2682L24.497 59.1711C24.5659 59.24 24.6127 59.3278 24.6317 59.4234C24.6507 59.5189 24.6409 59.618 24.6037 59.708C24.5664 59.798 24.5033 59.8749 24.4223 59.9291C24.3414 59.9832 24.2462 60.0122 24.1487 60.0123ZM9.3098 60.0123C9.21238 60.0122 9.11718 59.9832 9.03621 59.9291C8.95524 59.8749 8.89213 59.798 8.85487 59.708C8.8176 59.618 8.80784 59.5189 8.82682 59.4234C8.8458 59.3278 8.89267 59.24 8.96151 59.1711L9.86508 58.2675C9.95851 58.1805 10.0821 58.1331 10.2098 58.1353C10.3375 58.1376 10.4593 58.1893 10.5496 58.2796C10.6399 58.3699 10.6916 58.4918 10.6939 58.6194C10.6961 58.7471 10.6487 58.8707 10.5617 58.9641L9.65874 59.8677C9.61306 59.9135 9.55878 59.9499 9.49901 59.9747C9.43925 59.9995 9.37517 60.0123 9.31046 60.0123H9.3098ZM23.2452 46.0775C23.1478 46.0775 23.0525 46.0485 22.9716 45.9944C22.8906 45.9402 22.8275 45.8632 22.7902 45.7732C22.753 45.6832 22.7432 45.5842 22.7622 45.4887C22.7812 45.3931 22.828 45.3053 22.8969 45.2364L23.8005 44.3328C23.8456 44.2844 23.9 44.2456 23.9604 44.2186C24.0209 44.1917 24.0862 44.1772 24.1523 44.176C24.2185 44.1749 24.2842 44.1871 24.3456 44.2118C24.407 44.2366 24.4627 44.2735 24.5095 44.3203C24.5563 44.3671 24.5932 44.4229 24.618 44.4842C24.6428 44.5456 24.655 44.6113 24.6538 44.6775C24.6526 44.7437 24.6382 44.809 24.6112 44.8694C24.5843 44.9299 24.5454 44.9843 24.497 45.0294L23.5935 45.933C23.5478 45.9788 23.4935 46.0152 23.4337 46.04C23.374 46.0648 23.3099 46.0776 23.2452 46.0775ZM12.6001 57.0893C12.376 57.0893 12.1585 57.0019 11.9923 56.8356C11.8757 56.7204 11.7947 56.5741 11.7588 56.4142C11.7229 56.2542 11.7337 56.0874 11.7899 55.9334L13.6726 50.6992C13.8092 50.3177 14.0287 49.9712 14.3152 49.6846C14.6018 49.398 14.9483 49.1785 15.3299 49.0419L20.5634 47.1599C20.7174 47.1035 20.8845 47.0926 21.0445 47.1285C21.2046 47.1644 21.351 47.2455 21.4663 47.3623C21.7055 47.6008 21.7824 47.9471 21.668 48.2652L19.7866 53.498C19.65 53.8795 19.4305 54.226 19.1439 54.5126C18.8573 54.7992 18.5108 55.0187 18.1293 55.1553L12.8965 57.038C12.7992 57.0729 12.6987 57.0893 12.6001 57.0893ZM20.6527 48.1751L15.6637 49.9698C15.4188 50.0574 15.1964 50.1982 15.0124 50.382C14.8285 50.5659 14.6875 50.7882 14.5998 51.0331L12.8058 56.0227L17.7948 54.2281C18.0398 54.1404 18.2622 53.9995 18.4462 53.8155C18.6301 53.6316 18.771 53.4091 18.8587 53.1642L20.6527 48.1751Z"/>
</mask>
<path d="M16.7289 43.378C16.5982 43.378 16.4729 43.3261 16.3804 43.2337C16.288 43.1412 16.2361 43.0159 16.2361 42.8852V41.6077C16.2361 41.477 16.288 41.3516 16.3804 41.2592C16.4729 41.1667 16.5982 41.1148 16.7289 41.1148C16.8597 41.1148 16.985 41.1667 17.0774 41.2592C17.1699 41.3516 17.2218 41.477 17.2218 41.6077V42.8852C17.2218 43.0159 17.1699 43.1412 17.0774 43.2337C16.985 43.3261 16.8597 43.378 16.7289 43.378ZM16.7289 63.0857C16.5982 63.0857 16.4729 63.0338 16.3804 62.9414C16.288 62.8489 16.2361 62.7236 16.2361 62.5929V61.3147C16.2361 61.184 16.288 61.0586 16.3804 60.9662C16.4729 60.8738 16.5982 60.8219 16.7289 60.8219C16.8597 60.8219 16.985 60.8738 17.0774 60.9662C17.1699 61.0586 17.2218 61.184 17.2218 61.3147V62.5922C17.2218 62.7229 17.1699 62.8483 17.0774 62.9407C16.985 63.0331 16.8597 63.0857 16.7289 63.0857ZM7.51448 52.5931H6.237C6.10628 52.5931 5.98092 52.5412 5.88849 52.4488C5.79607 52.3563 5.74414 52.231 5.74414 52.1003C5.74414 51.9695 5.79607 51.8442 5.88849 51.7518C5.98092 51.6593 6.10628 51.6074 6.237 51.6074H7.51448C7.6452 51.6074 7.77056 51.6593 7.86299 51.7518C7.95541 51.8442 8.00734 51.9695 8.00734 52.1003C8.00734 52.231 7.95541 52.3563 7.86299 52.4488C7.77056 52.5412 7.6452 52.5931 7.51448 52.5931ZM27.2215 52.5931H25.9441C25.8133 52.5931 25.688 52.5412 25.5956 52.4488C25.5031 52.3563 25.4512 52.231 25.4512 52.1003C25.4512 51.9695 25.5031 51.8442 25.5956 51.7518C25.688 51.6593 25.8133 51.6074 25.9441 51.6074H27.2215C27.3523 51.6074 27.4776 51.6593 27.57 51.7518C27.6625 51.8442 27.7144 51.9695 27.7144 52.1003C27.7144 52.231 27.6625 52.3563 27.57 52.4488C27.4776 52.5412 27.3523 52.5931 27.2215 52.5931ZM10.2134 46.0775C10.1487 46.0776 10.0846 46.0648 10.0248 46.04C9.96504 46.0152 9.91076 45.9788 9.86508 45.933L8.96217 45.0294C8.91375 44.9843 8.87491 44.9299 8.84797 44.8694C8.82103 44.809 8.80655 44.7437 8.80538 44.6775C8.80421 44.6113 8.81639 44.5456 8.84117 44.4842C8.86596 44.4229 8.90286 44.3671 8.94966 44.3203C8.99646 44.2735 9.05221 44.2366 9.11358 44.2118C9.17495 44.1871 9.24068 44.1749 9.30686 44.176C9.37303 44.1772 9.43829 44.1917 9.49875 44.2186C9.55921 44.2456 9.61362 44.2844 9.65874 44.3328L10.5623 45.2357C10.6312 45.3047 10.678 45.3925 10.697 45.488C10.716 45.5835 10.7062 45.6826 10.669 45.7726C10.6317 45.8626 10.5686 45.9395 10.4876 45.9937C10.4066 46.0479 10.3114 46.0768 10.214 46.0769L10.2134 46.0775ZM24.1487 60.0123C24.084 60.0123 24.0199 59.9995 23.9602 59.9747C23.9004 59.9499 23.8461 59.9135 23.8005 59.8677L22.8969 58.9648C22.8485 58.9197 22.8096 58.8652 22.7827 58.8048C22.7557 58.7443 22.7413 58.6791 22.7401 58.6129C22.7389 58.5467 22.7511 58.481 22.7759 58.4196C22.8007 58.3582 22.8376 58.3025 22.8844 58.2557C22.9312 58.2089 22.9869 58.172 23.0483 58.1472C23.1097 58.1224 23.1754 58.1102 23.2416 58.1114C23.3077 58.1126 23.373 58.1271 23.4335 58.154C23.4939 58.1809 23.5483 58.2198 23.5935 58.2682L24.497 59.1711C24.5659 59.24 24.6127 59.3278 24.6317 59.4234C24.6507 59.5189 24.6409 59.618 24.6037 59.708C24.5664 59.798 24.5033 59.8749 24.4223 59.9291C24.3414 59.9832 24.2462 60.0122 24.1487 60.0123ZM9.3098 60.0123C9.21238 60.0122 9.11718 59.9832 9.03621 59.9291C8.95524 59.8749 8.89213 59.798 8.85487 59.708C8.8176 59.618 8.80784 59.5189 8.82682 59.4234C8.8458 59.3278 8.89267 59.24 8.96151 59.1711L9.86508 58.2675C9.95851 58.1805 10.0821 58.1331 10.2098 58.1353C10.3375 58.1376 10.4593 58.1893 10.5496 58.2796C10.6399 58.3699 10.6916 58.4918 10.6939 58.6194C10.6961 58.7471 10.6487 58.8707 10.5617 58.9641L9.65874 59.8677C9.61306 59.9135 9.55878 59.9499 9.49901 59.9747C9.43925 59.9995 9.37517 60.0123 9.31046 60.0123H9.3098ZM23.2452 46.0775C23.1478 46.0775 23.0525 46.0485 22.9716 45.9944C22.8906 45.9402 22.8275 45.8632 22.7902 45.7732C22.753 45.6832 22.7432 45.5842 22.7622 45.4887C22.7812 45.3931 22.828 45.3053 22.8969 45.2364L23.8005 44.3328C23.8456 44.2844 23.9 44.2456 23.9604 44.2186C24.0209 44.1917 24.0862 44.1772 24.1523 44.176C24.2185 44.1749 24.2842 44.1871 24.3456 44.2118C24.407 44.2366 24.4627 44.2735 24.5095 44.3203C24.5563 44.3671 24.5932 44.4229 24.618 44.4842C24.6428 44.5456 24.655 44.6113 24.6538 44.6775C24.6526 44.7437 24.6382 44.809 24.6112 44.8694C24.5843 44.9299 24.5454 44.9843 24.497 45.0294L23.5935 45.933C23.5478 45.9788 23.4935 46.0152 23.4337 46.04C23.374 46.0648 23.3099 46.0776 23.2452 46.0775ZM12.6001 57.0893C12.376 57.0893 12.1585 57.0019 11.9923 56.8356C11.8757 56.7204 11.7947 56.5741 11.7588 56.4142C11.7229 56.2542 11.7337 56.0874 11.7899 55.9334L13.6726 50.6992C13.8092 50.3177 14.0287 49.9712 14.3152 49.6846C14.6018 49.398 14.9483 49.1785 15.3299 49.0419L20.5634 47.1599C20.7174 47.1035 20.8845 47.0926 21.0445 47.1285C21.2046 47.1644 21.351 47.2455 21.4663 47.3623C21.7055 47.6008 21.7824 47.9471 21.668 48.2652L19.7866 53.498C19.65 53.8795 19.4305 54.226 19.1439 54.5126C18.8573 54.7992 18.5108 55.0187 18.1293 55.1553L12.8965 57.038C12.7992 57.0729 12.6987 57.0893 12.6001 57.0893ZM20.6527 48.1751L15.6637 49.9698C15.4188 50.0574 15.1964 50.1982 15.0124 50.382C14.8285 50.5659 14.6875 50.7882 14.5998 51.0331L12.8058 56.0227L17.7948 54.2281C18.0398 54.1404 18.2622 53.9995 18.4462 53.8155C18.6301 53.6316 18.771 53.4091 18.8587 53.1642L20.6527 48.1751Z" fill="black"/>
<path d="M17.9617 54.692V54.792H17.9683V54.692V54.592H17.9617V54.692ZM10.2134 46.0775L10.2134 46.2775L10.2962 46.2775L10.3547 46.219L10.2134 46.0775ZM9.86508 45.933L10.0067 45.7918L10.0066 45.7916L9.86508 45.933ZM8.96217 45.0294L9.10373 44.8879L9.09851 44.8831L8.96217 45.0294ZM9.65874 44.3328L9.51233 44.4693L9.51737 44.4743L9.65874 44.3328ZM10.5623 45.2357L10.7038 45.0944L10.7037 45.0943L10.5623 45.2357ZM10.214 46.0769L10.2139 45.8769L10.1312 45.877L10.0727 45.9354L10.214 46.0769ZM24.1487 60.0123L24.1488 60.2123H24.1489L24.1487 60.0123ZM23.8005 59.8677L23.9421 59.7265L23.9418 59.7262L23.8005 59.8677ZM22.8969 58.9648L23.0383 58.8232L23.0332 58.8185L22.8969 58.9648ZM23.5935 58.2682L23.447 58.4046L23.4521 58.4097L23.5935 58.2682ZM24.497 59.1711L24.6385 59.0298L24.6384 59.0296L24.497 59.1711ZM9.3098 60.0123L9.30962 60.2123H9.3098V60.0123ZM8.96151 59.1711L8.82009 59.0297L8.82 59.0298L8.96151 59.1711ZM9.86508 58.2675L9.72865 58.1211L9.72366 58.1261L9.86508 58.2675ZM10.5617 58.9641L10.7032 59.1056L10.708 59.1005L10.5617 58.9641ZM9.65874 59.8677L9.51727 59.7263L9.51707 59.7265L9.65874 59.8677ZM9.31046 60.0123L9.3105 59.8123H9.31046V60.0123ZM23.2452 46.0775L23.245 46.2775H23.2451L23.2452 46.0775ZM22.8969 45.2364L22.7555 45.095L22.7554 45.0951L22.8969 45.2364ZM23.8005 44.3328L23.942 44.4743L23.9468 44.4692L23.8005 44.3328ZM24.497 45.0294L24.3606 44.883L24.3556 44.888L24.497 45.0294ZM23.5935 45.933L23.452 45.7916L23.4518 45.7918L23.5935 45.933ZM11.9923 56.8356L12.1337 56.6942L12.1329 56.6934L11.9923 56.8356ZM11.7899 55.9334L11.9778 56.0019L11.9781 56.0011L11.7899 55.9334ZM13.6726 50.6992L13.8608 50.7669L13.8609 50.7667L13.6726 50.6992ZM15.3299 49.0419L15.3973 49.2302L15.3976 49.2301L15.3299 49.0419ZM20.5634 47.1599L20.6311 47.3481L20.6321 47.3477L20.5634 47.1599ZM21.4663 47.3623L21.3239 47.5028L21.3251 47.5039L21.4663 47.3623ZM21.668 48.2652L21.8562 48.3328L21.8562 48.3328L21.668 48.2652ZM19.7866 53.498L19.5984 53.4303L19.5983 53.4306L19.7866 53.498ZM18.1293 55.1553L18.0619 54.967L18.0616 54.9671L18.1293 55.1553ZM12.8965 57.038L12.9639 57.2263L12.9642 57.2262L12.8965 57.038ZM20.6527 48.1751L20.8409 48.2428L20.9846 47.8432L20.585 47.987L20.6527 48.1751ZM15.6637 49.9698L15.7311 50.1581L15.7314 50.158L15.6637 49.9698ZM14.5998 51.0331L14.788 51.1007L14.7881 51.1005L14.5998 51.0331ZM12.8058 56.0227L12.6176 55.9551L12.4739 56.3547L12.8735 56.2109L12.8058 56.0227ZM17.7948 54.2281L17.7274 54.0398L17.7271 54.0399L17.7948 54.2281ZM18.8587 53.1642L18.6705 53.0965L18.6705 53.0968L18.8587 53.1642ZM16.7289 43.378V43.178C16.6513 43.178 16.5768 43.1472 16.5219 43.0922L16.3804 43.2337L16.239 43.3751C16.369 43.505 16.5452 43.578 16.7289 43.578V43.378ZM16.3804 43.2337L16.5219 43.0922C16.4669 43.0373 16.4361 42.9628 16.4361 42.8852H16.2361H16.0361C16.0361 43.0689 16.1091 43.2451 16.239 43.3751L16.3804 43.2337ZM16.2361 42.8852H16.4361V41.6077H16.2361H16.0361V42.8852H16.2361ZM16.2361 41.6077H16.4361C16.4361 41.53 16.4669 41.4555 16.5219 41.4006L16.3804 41.2592L16.239 41.1177C16.1091 41.2477 16.0361 41.4239 16.0361 41.6077H16.2361ZM16.3804 41.2592L16.5219 41.4006C16.5768 41.3457 16.6513 41.3148 16.7289 41.3148V41.1148V40.9148C16.5452 40.9148 16.369 40.9878 16.239 41.1177L16.3804 41.2592ZM16.7289 41.1148V41.3148C16.8066 41.3148 16.8811 41.3457 16.936 41.4006L17.0774 41.2592L17.2189 41.1177C17.0889 40.9878 16.9127 40.9148 16.7289 40.9148V41.1148ZM17.0774 41.2592L16.936 41.4006C16.9909 41.4555 17.0218 41.53 17.0218 41.6077H17.2218H17.4218C17.4218 41.4239 17.3488 41.2477 17.2189 41.1177L17.0774 41.2592ZM17.2218 41.6077H17.0218V42.8852H17.2218H17.4218V41.6077H17.2218ZM17.2218 42.8852H17.0218C17.0218 42.9628 16.9909 43.0373 16.936 43.0922L17.0774 43.2337L17.2189 43.3751C17.3488 43.2451 17.4218 43.0689 17.4218 42.8852H17.2218ZM17.0774 43.2337L16.936 43.0922C16.8811 43.1472 16.8066 43.178 16.7289 43.178V43.378V43.578C16.9127 43.578 17.0889 43.505 17.2189 43.3751L17.0774 43.2337ZM16.7289 63.0857V62.8857C16.6513 62.8857 16.5768 62.8549 16.5219 62.7999L16.3804 62.9414L16.239 63.0828C16.369 63.2127 16.5452 63.2857 16.7289 63.2857V63.0857ZM16.3804 62.9414L16.5219 62.7999C16.4669 62.745 16.4361 62.6705 16.4361 62.5929H16.2361H16.0361C16.0361 62.7766 16.1091 62.9529 16.239 63.0828L16.3804 62.9414ZM16.2361 62.5929H16.4361V61.3147H16.2361H16.0361V62.5929H16.2361ZM16.2361 61.3147H16.4361C16.4361 61.2371 16.4669 61.1626 16.5219 61.1076L16.3804 60.9662L16.239 60.8248C16.1091 60.9547 16.0361 61.131 16.0361 61.3147H16.2361ZM16.3804 60.9662L16.5219 61.1076C16.5768 61.0527 16.6513 61.0219 16.7289 61.0219V60.8219V60.6219C16.5452 60.6219 16.369 60.6949 16.239 60.8248L16.3804 60.9662ZM16.7289 60.8219V61.0219C16.8066 61.0219 16.8811 61.0527 16.936 61.1076L17.0774 60.9662L17.2189 60.8248C17.0889 60.6949 16.9127 60.6219 16.7289 60.6219V60.8219ZM17.0774 60.9662L16.936 61.1076C16.9909 61.1626 17.0218 61.2371 17.0218 61.3147H17.2218H17.4218C17.4218 61.131 17.3488 60.9547 17.2189 60.8248L17.0774 60.9662ZM17.2218 61.3147H17.0218V62.5922H17.2218H17.4218V61.3147H17.2218ZM17.2218 62.5922H17.0218C17.0218 62.6699 16.9909 62.7444 16.936 62.7993L17.0774 62.9407L17.2189 63.0821C17.3488 62.9522 17.4218 62.776 17.4218 62.5922H17.2218ZM17.0774 62.9407L16.936 62.7993C16.8806 62.8547 16.8059 62.8857 16.7289 62.8857V63.0857V63.2857C16.9134 63.2857 17.0894 63.2116 17.2189 63.0821L17.0774 62.9407ZM7.51448 52.5931V52.3931H6.237V52.5931V52.7931H7.51448V52.5931ZM6.237 52.5931V52.3931C6.15932 52.3931 6.08484 52.3623 6.02992 52.3073L5.88849 52.4488L5.74707 52.5902C5.87701 52.7201 6.05324 52.7931 6.237 52.7931V52.5931ZM5.88849 52.4488L6.02992 52.3073C5.975 52.2524 5.94414 52.1779 5.94414 52.1003H5.74414H5.54414C5.54414 52.284 5.61714 52.4603 5.74707 52.5902L5.88849 52.4488ZM5.74414 52.1003H5.94414C5.94414 52.0226 5.97499 51.9481 6.02992 51.8932L5.88849 51.7518L5.74707 51.6103C5.61714 51.7403 5.54414 51.9165 5.54414 52.1003H5.74414ZM5.88849 51.7518L6.02992 51.8932C6.08484 51.8383 6.15933 51.8074 6.237 51.8074V51.6074V51.4074C6.05324 51.4074 5.87701 51.4804 5.74707 51.6103L5.88849 51.7518ZM6.237 51.6074V51.8074H7.51448V51.6074V51.4074H6.237V51.6074ZM7.51448 51.6074V51.8074C7.59215 51.8074 7.66664 51.8383 7.72156 51.8932L7.86299 51.7518L8.00441 51.6103C7.87447 51.4804 7.69824 51.4074 7.51448 51.4074V51.6074ZM7.86299 51.7518L7.72156 51.8932C7.77649 51.9481 7.80734 52.0226 7.80734 52.1003H8.00734H8.20734C8.20734 51.9165 8.13434 51.7403 8.00441 51.6103L7.86299 51.7518ZM8.00734 52.1003H7.80734C7.80734 52.1779 7.77649 52.2524 7.72156 52.3073L7.86299 52.4488L8.00441 52.5902C8.13434 52.4603 8.20734 52.284 8.20734 52.1003H8.00734ZM7.86299 52.4488L7.72156 52.3073C7.66665 52.3623 7.59216 52.3931 7.51448 52.3931V52.5931V52.7931C7.69824 52.7931 7.87447 52.7201 8.00441 52.5902L7.86299 52.4488ZM27.2215 52.5931V52.3931H25.9441V52.5931V52.7931H27.2215V52.5931ZM25.9441 52.5931V52.3931C25.8664 52.3931 25.7919 52.3623 25.737 52.3073L25.5956 52.4488L25.4541 52.5902C25.5841 52.7201 25.7603 52.7931 25.9441 52.7931V52.5931ZM25.5956 52.4488L25.737 52.3073C25.6821 52.2524 25.6512 52.1779 25.6512 52.1003H25.4512H25.2512C25.2512 52.284 25.3242 52.4603 25.4541 52.5902L25.5956 52.4488ZM25.4512 52.1003H25.6512C25.6512 52.0226 25.6821 51.9481 25.737 51.8932L25.5956 51.7518L25.4541 51.6103C25.3242 51.7403 25.2512 51.9165 25.2512 52.1003H25.4512ZM25.5956 51.7518L25.737 51.8932C25.7919 51.8383 25.8664 51.8074 25.9441 51.8074V51.6074V51.4074C25.7603 51.4074 25.5841 51.4804 25.4541 51.6103L25.5956 51.7518ZM25.9441 51.6074V51.8074H27.2215V51.6074V51.4074H25.9441V51.6074ZM27.2215 51.6074V51.8074C27.2992 51.8074 27.3737 51.8383 27.4286 51.8932L27.57 51.7518L27.7115 51.6103C27.5815 51.4804 27.4053 51.4074 27.2215 51.4074V51.6074ZM27.57 51.7518L27.4286 51.8932C27.4835 51.9481 27.5144 52.0226 27.5144 52.1003H27.7144H27.9144C27.9144 51.9165 27.8414 51.7403 27.7115 51.6103L27.57 51.7518ZM27.7144 52.1003H27.5144C27.5144 52.1779 27.4835 52.2524 27.4286 52.3073L27.57 52.4488L27.7115 52.5902C27.8414 52.4603 27.9144 52.284 27.9144 52.1003H27.7144ZM27.57 52.4488L27.4286 52.3073C27.3737 52.3623 27.2992 52.3931 27.2215 52.3931V52.5931V52.7931C27.4053 52.7931 27.5815 52.7201 27.7115 52.5902L27.57 52.4488ZM10.2134 46.0775L10.2133 45.8775C10.1749 45.8776 10.1369 45.87 10.1015 45.8553L10.0248 46.04L9.94814 46.2247C10.0322 46.2596 10.1224 46.2776 10.2134 46.2775L10.2134 46.0775ZM10.0248 46.04L10.1015 45.8553C10.066 45.8406 10.0338 45.819 10.0067 45.7918L9.86508 45.933L9.72342 46.0742C9.78769 46.1386 9.86406 46.1898 9.94814 46.2247L10.0248 46.04ZM9.86508 45.933L10.0066 45.7916L9.10364 44.888L8.96217 45.0294L8.8207 45.1708L9.72361 46.0743L9.86508 45.933ZM8.96217 45.0294L9.09851 44.8831C9.06974 44.8563 9.04666 44.8239 9.03066 44.788L8.84797 44.8694L8.66528 44.9508C8.70315 45.0358 8.75775 45.1123 8.82582 45.1757L8.96217 45.0294ZM8.84797 44.8694L9.03066 44.788C9.01465 44.7521 9.00604 44.7133 9.00535 44.674L8.80538 44.6775L8.60541 44.6811C8.60705 44.7741 8.62742 44.8658 8.66528 44.9508L8.84797 44.8694ZM8.80538 44.6775L9.00535 44.674C9.00466 44.6347 9.01189 44.5956 9.02662 44.5591L8.84117 44.4842L8.65573 44.4093C8.62088 44.4956 8.60377 44.588 8.60541 44.6811L8.80538 44.6775ZM8.84117 44.4842L9.02662 44.5591C9.04135 44.5227 9.06327 44.4896 9.09108 44.4617L8.94966 44.3203L8.80824 44.1789C8.74244 44.2447 8.69058 44.3231 8.65573 44.4093L8.84117 44.4842ZM8.94966 44.3203L9.09108 44.4617C9.11889 44.4339 9.15201 44.412 9.18848 44.3973L9.11358 44.2118L9.03867 44.0264C8.9524 44.0612 8.87403 44.1131 8.80824 44.1789L8.94966 44.3203ZM9.11358 44.2118L9.18848 44.3973C9.22494 44.3826 9.264 44.3753 9.30333 44.376L9.30686 44.176L9.31038 43.9761C9.21736 43.9744 9.12495 43.9915 9.03867 44.0264L9.11358 44.2118ZM9.30686 44.176L9.30333 44.376C9.34265 44.3767 9.38143 44.3853 9.41735 44.4013L9.49875 44.2186L9.58015 44.036C9.49516 43.9981 9.40342 43.9777 9.31038 43.9761L9.30686 44.176ZM9.49875 44.2186L9.41735 44.4013C9.45328 44.4173 9.48561 44.4404 9.51242 44.4692L9.65874 44.3328L9.80506 44.1965C9.74163 44.1284 9.66513 44.0738 9.58015 44.036L9.49875 44.2186ZM9.65874 44.3328L9.51737 44.4743L10.4209 45.3772L10.5623 45.2357L10.7037 45.0943L9.80011 44.1914L9.65874 44.3328ZM10.5623 45.2357L10.4208 45.3771C10.4617 45.418 10.4896 45.4702 10.5008 45.527L10.697 45.488L10.8932 45.449C10.8665 45.3147 10.8006 45.1913 10.7038 45.0944L10.5623 45.2357ZM10.697 45.488L10.5008 45.527C10.5121 45.5837 10.5063 45.6426 10.4842 45.6961L10.669 45.7726L10.8537 45.8491C10.9061 45.7226 10.9199 45.5834 10.8932 45.449L10.697 45.488ZM10.669 45.7726L10.4842 45.6961C10.462 45.7496 10.4245 45.7953 10.3764 45.8275L10.4876 45.9937L10.5988 46.1599C10.7126 46.0838 10.8014 45.9756 10.8537 45.8491L10.669 45.7726ZM10.4876 45.9937L10.3764 45.8275C10.3283 45.8596 10.2717 45.8768 10.2139 45.8769L10.214 46.0769L10.2142 46.2769C10.3511 46.2768 10.485 46.2361 10.5988 46.1599L10.4876 45.9937ZM10.214 46.0769L10.0727 45.9354L10.072 45.9361L10.2134 46.0775L10.3547 46.219L10.3554 46.2184L10.214 46.0769ZM24.1487 60.0123L24.1487 59.8123C24.1103 59.8123 24.0723 59.8047 24.0369 59.79L23.9602 59.9747L23.8835 60.1594C23.9676 60.1943 24.0577 60.2123 24.1488 60.2123L24.1487 60.0123ZM23.9602 59.9747L24.0369 59.79C24.0014 59.7753 23.9692 59.7537 23.9421 59.7265L23.8005 59.8677L23.6588 60.0089C23.7231 60.0734 23.7994 60.1245 23.8835 60.1594L23.9602 59.9747ZM23.8005 59.8677L23.9418 59.7262L23.0383 58.8233L22.8969 58.9648L22.7555 59.1062L23.6591 60.0092L23.8005 59.8677ZM22.8969 58.9648L23.0332 58.8185C23.0045 58.7916 22.9814 58.7593 22.9654 58.7234L22.7827 58.8048L22.6 58.8862C22.6379 58.9712 22.6925 59.0477 22.7605 59.1111L22.8969 58.9648ZM22.7827 58.8048L22.9654 58.7234C22.9494 58.6875 22.9408 58.6487 22.9401 58.6094L22.7401 58.6129L22.5401 58.6164C22.5418 58.7095 22.5621 58.8012 22.6 58.8862L22.7827 58.8048ZM22.7401 58.6129L22.9401 58.6094C22.9394 58.57 22.9466 58.531 22.9613 58.4945L22.7759 58.4196L22.5904 58.3447C22.5556 58.431 22.5385 58.5234 22.5401 58.6164L22.7401 58.6129ZM22.7759 58.4196L22.9613 58.4945C22.9761 58.4581 22.998 58.4249 23.0258 58.3971L22.8844 58.2557L22.743 58.1143C22.6772 58.1801 22.6253 58.2584 22.5904 58.3447L22.7759 58.4196ZM22.8844 58.2557L23.0258 58.3971C23.0536 58.3693 23.0867 58.3474 23.1232 58.3327L23.0483 58.1472L22.9734 57.9618C22.8871 57.9966 22.8087 58.0485 22.743 58.1143L22.8844 58.2557ZM23.0483 58.1472L23.1232 58.3327C23.1597 58.3179 23.1987 58.3107 23.238 58.3114L23.2416 58.1114L23.2451 57.9114C23.1521 57.9098 23.0597 57.9269 22.9734 57.9618L23.0483 58.1472ZM23.2416 58.1114L23.238 58.3114C23.2774 58.3121 23.3161 58.3207 23.3521 58.3367L23.4335 58.154L23.5149 57.9713C23.4299 57.9335 23.3381 57.9131 23.2451 57.9114L23.2416 58.1114ZM23.4335 58.154L23.3521 58.3367C23.388 58.3527 23.4203 58.3758 23.4471 58.4046L23.5935 58.2682L23.7398 58.1319C23.6763 58.0638 23.5999 58.0092 23.5149 57.9713L23.4335 58.154ZM23.5935 58.2682L23.4521 58.4097L24.3557 59.3126L24.497 59.1711L24.6384 59.0296L23.7348 58.1267L23.5935 58.2682ZM24.497 59.1711L24.3555 59.3125C24.3964 59.3534 24.4243 59.4056 24.4356 59.4623L24.6317 59.4234L24.8279 59.3844C24.8012 59.2501 24.7353 59.1267 24.6385 59.0298L24.497 59.1711ZM24.6317 59.4234L24.4356 59.4623C24.4468 59.5191 24.441 59.578 24.4189 59.6314L24.6037 59.708L24.7885 59.7845C24.8409 59.6579 24.8546 59.5187 24.8279 59.3844L24.6317 59.4234ZM24.6037 59.708L24.4189 59.6314C24.3967 59.6849 24.3592 59.7306 24.3111 59.7628L24.4223 59.9291L24.5335 60.0953C24.6474 60.0192 24.7361 59.911 24.7885 59.7845L24.6037 59.708ZM24.4223 59.9291L24.3111 59.7628C24.263 59.795 24.2065 59.8122 24.1486 59.8123L24.1487 60.0123L24.1489 60.2123C24.2859 60.2121 24.4197 60.1714 24.5335 60.0953L24.4223 59.9291ZM9.3098 60.0123L9.30997 59.8123C9.25208 59.8122 9.19551 59.795 9.14741 59.7628L9.03621 59.9291L8.92501 60.0953C9.03884 60.1714 9.17268 60.2121 9.30962 60.2123L9.3098 60.0123ZM9.03621 59.9291L9.14741 59.7628C9.09929 59.7306 9.0618 59.6849 9.03965 59.6314L8.85487 59.708L8.67008 59.7845C8.72247 59.911 8.81118 60.0192 8.92501 60.0953L9.03621 59.9291ZM8.85487 59.708L9.03965 59.6314C9.01751 59.578 9.01171 59.5191 9.02299 59.4623L8.82682 59.4234L8.63065 59.3844C8.60397 59.5187 8.61769 59.6579 8.67008 59.7845L8.85487 59.708ZM8.82682 59.4234L9.02299 59.4623C9.03427 59.4056 9.06212 59.3534 9.10302 59.3125L8.96151 59.1711L8.82 59.0298C8.72323 59.1267 8.65734 59.2501 8.63065 59.3844L8.82682 59.4234ZM8.96151 59.1711L9.10293 59.3125L10.0065 58.409L9.86508 58.2675L9.72366 58.1261L8.82009 59.0297L8.96151 59.1711ZM9.86508 58.2675L10.0014 58.4139C10.0569 58.3621 10.1304 58.334 10.2062 58.3353L10.2098 58.1353L10.2133 57.9354C10.0338 57.9322 9.86008 57.9988 9.72874 58.1212L9.86508 58.2675ZM10.2098 58.1353L10.2062 58.3353C10.2821 58.3367 10.3545 58.3674 10.4082 58.421L10.5496 58.2796L10.691 58.1382C10.5641 58.0113 10.3928 57.9385 10.2133 57.9354L10.2098 58.1353ZM10.5496 58.2796L10.4082 58.421C10.4618 58.4747 10.4925 58.5471 10.4939 58.623L10.6939 58.6194L10.8938 58.6159C10.8907 58.4364 10.8179 58.2651 10.691 58.1382L10.5496 58.2796ZM10.6939 58.6194L10.4939 58.623C10.4952 58.6988 10.4671 58.7723 10.4153 58.8278L10.5617 58.9641L10.708 59.1005C10.8304 58.9691 10.897 58.7954 10.8938 58.6159L10.6939 58.6194ZM10.5617 58.9641L10.4202 58.8227L9.51727 59.7263L9.65874 59.8677L9.80021 60.0091L10.7031 59.1055L10.5617 58.9641ZM9.65874 59.8677L9.51707 59.7265C9.48998 59.7537 9.45778 59.7753 9.42234 59.79L9.49901 59.9747L9.57569 60.1594C9.65978 60.1245 9.73614 60.0734 9.80041 60.0089L9.65874 59.8677ZM9.49901 59.9747L9.42234 59.79C9.38689 59.8047 9.34888 59.8123 9.3105 59.8123L9.31046 60.0123L9.31041 60.2123C9.40145 60.2123 9.4916 60.1943 9.57569 60.1594L9.49901 59.9747ZM9.31046 60.0123V59.8123H9.3098V60.0123V60.2123H9.31046V60.0123ZM23.2452 46.0775L23.2453 45.8775C23.1875 45.8775 23.1309 45.8603 23.0828 45.8281L22.9716 45.9944L22.8604 46.1606C22.9742 46.2367 23.1081 46.2774 23.245 46.2775L23.2452 46.0775ZM22.9716 45.9944L23.0828 45.8281C23.0347 45.7959 22.9972 45.7502 22.975 45.6967L22.7902 45.7732L22.6055 45.8498C22.6578 45.9763 22.7466 46.0844 22.8604 46.1606L22.9716 45.9944ZM22.7902 45.7732L22.975 45.6967C22.9529 45.6432 22.9471 45.5844 22.9584 45.5276L22.7622 45.4887L22.566 45.4497C22.5393 45.584 22.5531 45.7232 22.6055 45.8498L22.7902 45.7732ZM22.7622 45.4887L22.9584 45.5276C22.9696 45.4709 22.9975 45.4187 23.0384 45.3777L22.8969 45.2364L22.7554 45.0951C22.6586 45.192 22.5927 45.3154 22.566 45.4497L22.7622 45.4887ZM22.8969 45.2364L23.0383 45.3778L23.9419 44.4743L23.8005 44.3328L23.659 44.1914L22.7555 45.095L22.8969 45.2364ZM23.8005 44.3328L23.9468 44.4692C23.9736 44.4404 24.0059 44.4173 24.0418 44.4013L23.9604 44.2186L23.879 44.036C23.7941 44.0738 23.7176 44.1284 23.6541 44.1965L23.8005 44.3328ZM23.9604 44.2186L24.0418 44.4013C24.0778 44.3853 24.1165 44.3767 24.1559 44.376L24.1523 44.176L24.1488 43.9761C24.0558 43.9777 23.964 43.9981 23.879 44.036L23.9604 44.2186ZM24.1523 44.176L24.1559 44.376C24.1952 44.3753 24.2343 44.3826 24.2707 44.3973L24.3456 44.2118L24.4205 44.0264C24.3342 43.9915 24.2418 43.9744 24.1488 43.9761L24.1523 44.176ZM24.3456 44.2118L24.2707 44.3973C24.3072 44.412 24.3403 44.4339 24.3681 44.4617L24.5095 44.3203L24.651 44.1789C24.5852 44.1131 24.5068 44.0612 24.4205 44.0264L24.3456 44.2118ZM24.5095 44.3203L24.3681 44.4617C24.3959 44.4896 24.4178 44.5227 24.4326 44.5591L24.618 44.4842L24.8035 44.4093C24.7686 44.3231 24.7168 44.2447 24.651 44.1789L24.5095 44.3203ZM24.618 44.4842L24.4326 44.5591C24.4473 44.5956 24.4545 44.6347 24.4538 44.674L24.6538 44.6775L24.8538 44.6811C24.8554 44.588 24.8383 44.4956 24.8035 44.4093L24.618 44.4842ZM24.6538 44.6775L24.4538 44.674C24.4532 44.7133 24.4445 44.7521 24.4285 44.788L24.6112 44.8694L24.7939 44.9508C24.8318 44.8658 24.8521 44.7741 24.8538 44.6811L24.6538 44.6775ZM24.6112 44.8694L24.4285 44.788C24.4125 44.8239 24.3895 44.8563 24.3607 44.8831L24.497 45.0294L24.6334 45.1757C24.7014 45.1123 24.756 45.0358 24.7939 44.9508L24.6112 44.8694ZM24.497 45.0294L24.3556 44.888L23.452 45.7916L23.5935 45.933L23.7349 46.0744L24.6384 45.1708L24.497 45.0294ZM23.5935 45.933L23.4518 45.7918C23.4247 45.819 23.3925 45.8406 23.357 45.8553L23.4337 46.04L23.5104 46.2247C23.5945 46.1898 23.6709 46.1386 23.7351 46.0742L23.5935 45.933ZM23.4337 46.04L23.357 45.8553C23.3216 45.87 23.2836 45.8776 23.2452 45.8775L23.2452 46.0775L23.2451 46.2775C23.3362 46.2776 23.4263 46.2596 23.5104 46.2247L23.4337 46.04ZM12.6001 57.0893V56.8893C12.4288 56.8893 12.2623 56.8228 12.1337 56.6942L11.9923 56.8356L11.8508 56.9771C12.0548 57.181 12.3232 57.2893 12.6001 57.2893V57.0893ZM11.9923 56.8356L12.1329 56.6934C12.0435 56.6051 11.9814 56.493 11.9539 56.3704L11.7588 56.4142L11.5636 56.458C11.6079 56.6552 11.7079 56.8357 11.8516 56.9779L11.9923 56.8356ZM11.7588 56.4142L11.9539 56.3704C11.9264 56.2478 11.9347 56.1199 11.9777 56.0019L11.7899 55.9334L11.602 55.8649C11.5327 56.0548 11.5194 56.2607 11.5636 56.458L11.7588 56.4142ZM11.7899 55.9334L11.9781 56.0011L13.8608 50.7669L13.6726 50.6992L13.4844 50.6315L11.6017 55.8657L11.7899 55.9334ZM13.6726 50.6992L13.8609 50.7667C13.9875 50.4129 14.191 50.0917 14.4567 49.826L14.3152 49.6846L14.1738 49.5432C13.8664 49.8506 13.6309 50.2224 13.4843 50.6318L13.6726 50.6992ZM14.3152 49.6846L14.4567 49.826C14.7223 49.5604 15.0436 49.3569 15.3973 49.2302L15.3299 49.0419L15.2625 48.8536C14.8531 49.0002 14.4813 49.2357 14.1738 49.5432L14.3152 49.6846ZM15.3299 49.0419L15.3976 49.2301L20.631 47.3481L20.5634 47.1599L20.4957 46.9717L15.2622 48.8537L15.3299 49.0419ZM20.5634 47.1599L20.6321 47.3477C20.7502 47.3045 20.8781 47.2961 21.0008 47.3236L21.0445 47.1285L21.0883 46.9333C20.8908 46.889 20.6847 46.9025 20.4946 46.972L20.5634 47.1599ZM21.0445 47.1285L21.0008 47.3236C21.1235 47.3511 21.2356 47.4133 21.324 47.5028L21.4663 47.3623L21.6086 47.2218C21.4664 47.0777 21.2858 46.9776 21.0883 46.9333L21.0445 47.1285ZM21.4663 47.3623L21.3251 47.5039C21.509 47.6874 21.5681 47.952 21.4798 48.1975L21.668 48.2652L21.8562 48.3328C21.9967 47.9422 21.9019 47.5143 21.6075 47.2206L21.4663 47.3623ZM21.668 48.2652L21.4798 48.1975L19.5984 53.4303L19.7866 53.498L19.9748 53.5657L21.8562 48.3328L21.668 48.2652ZM19.7866 53.498L19.5983 53.4306C19.4716 53.7843 19.2681 54.1055 19.0025 54.3712L19.1439 54.5126L19.2853 54.654C19.5928 54.3466 19.8283 53.9748 19.9749 53.5655L19.7866 53.498ZM19.1439 54.5126L19.0025 54.3712C18.7368 54.6368 18.4156 54.8403 18.0619 54.967L18.1293 55.1553L18.1968 55.3436C18.6061 55.197 18.9779 54.9615 19.2853 54.654L19.1439 54.5126ZM18.1293 55.1553L18.0616 54.9671L12.8288 56.8498L12.8965 57.038L12.9642 57.2262L18.197 55.3435L18.1293 55.1553ZM12.8965 57.038L12.8291 56.8497C12.7542 56.8765 12.6765 56.8893 12.6001 56.8893V57.0893V57.2893C12.7208 57.2893 12.8443 57.2692 12.9639 57.2263L12.8965 57.038ZM20.6527 48.1751L20.585 47.987L15.596 49.7816L15.6637 49.9698L15.7314 50.158L20.7204 48.3633L20.6527 48.1751ZM15.6637 49.9698L15.5964 49.7815C15.3236 49.879 15.0759 50.0358 14.8711 50.2406L15.0124 50.382L15.1538 50.5235C15.3169 50.3606 15.514 50.2358 15.7311 50.1581L15.6637 49.9698ZM15.0124 50.382L14.8711 50.2406C14.6662 50.4453 14.5092 50.6929 14.4115 50.9656L14.5998 51.0331L14.7881 51.1005C14.8658 50.8835 14.9908 50.6865 15.1538 50.5235L15.0124 50.382ZM14.5998 51.0331L14.4116 50.9654L12.6176 55.9551L12.8058 56.0227L12.994 56.0904L14.788 51.1007L14.5998 51.0331ZM12.8058 56.0227L12.8735 56.2109L17.8625 54.4163L17.7948 54.2281L17.7271 54.0399L12.7381 55.8346L12.8058 56.0227ZM17.7948 54.2281L17.8623 54.4164C18.135 54.3187 18.3827 54.1618 18.5876 53.9569L18.4462 53.8155L18.3047 53.6741C18.1417 53.8372 17.9445 53.9621 17.7274 54.0398L17.7948 54.2281ZM18.4462 53.8155L18.5876 53.9569C18.7924 53.7521 18.9494 53.5044 19.047 53.2316L18.8587 53.1642L18.6705 53.0968C18.5927 53.3139 18.4678 53.511 18.3047 53.6741L18.4462 53.8155ZM18.8587 53.1642L19.0469 53.2319L20.8409 48.2428L20.6527 48.1751L20.4645 48.1075L18.6705 53.0965L18.8587 53.1642Z" fill="black" mask="url(#path-11-outside-3_395_6747)"/>
<path d="M54.0488 56.004C54.3826 56.0042 54.6628 56.2347 54.7314 56.5626V56.5635C54.9041 57.4145 55.3243 58.1957 55.9395 58.8087L56.1768 59.0303C56.7475 59.5265 57.4382 59.869 58.1826 60.0215H58.1816C58.3397 60.0523 58.4823 60.1367 58.585 60.2608C58.6877 60.3852 58.7438 60.5419 58.7441 60.7032C58.7444 60.8644 58.6891 61.0208 58.5869 61.1456C58.4848 61.2702 58.3426 61.3553 58.1846 61.3868L58.1787 61.3878C57.33 61.5637 56.551 61.9843 55.9385 62.5977C55.3248 63.2123 54.9055 63.9939 54.7314 64.8448C54.7004 65.0026 54.6154 65.1448 54.4912 65.2471C54.3667 65.3495 54.21 65.4045 54.0488 65.4044V65.4053C53.7149 65.4053 53.434 65.1746 53.3652 64.8467V64.8458C53.1933 63.9943 52.7717 63.2136 52.1543 62.6026L52.1533 62.6016C51.5441 61.9839 50.7651 61.5611 49.915 61.3878V61.3868C49.7565 61.3566 49.6129 61.2736 49.5098 61.1495C49.4063 61.025 49.35 60.868 49.3496 60.7061C49.3493 60.5444 49.4051 60.3876 49.5078 60.2628C49.6107 60.1378 49.7542 60.0522 49.9131 60.0215C50.7645 59.8473 51.5459 59.4253 52.1582 58.8087L52.3789 58.5714C52.8732 58.0002 53.2142 57.3102 53.3652 56.5665V56.5655C53.4339 56.2348 53.7147 56.004 54.0488 56.004ZM54.0479 58.1866C53.8153 58.651 53.5214 59.0819 53.1709 59.4649L52.9961 59.6475C52.5681 60.0766 52.073 60.4316 51.5322 60.7032C52.0684 60.9725 52.5611 61.3291 52.9922 61.7637L53.167 61.9454C53.5191 62.3275 53.8158 62.7571 54.0488 63.2217C54.5924 62.1325 55.4748 61.2489 56.5635 60.7042C56.0232 60.4325 55.5292 60.0764 55.1016 59.6475C54.6733 59.2204 54.3181 58.7266 54.0479 58.1866ZM20.5293 47.0655C20.7013 47.0026 20.8877 46.9913 21.0664 47.0313C21.2448 47.0713 21.4085 47.1611 21.5371 47.2911C21.8039 47.5571 21.89 47.9446 21.7627 48.2989L19.8809 53.5323C19.7449 53.9091 19.5304 54.2531 19.252 54.5411C19.1975 54.5975 19.1325 54.6428 19.0605 54.6739C18.9999 54.7 18.9348 54.7129 18.8691 54.7178L18.8652 54.7227H18.8242C18.667 54.7226 18.5163 54.6601 18.4053 54.5489L14.2793 50.4229C14.2237 50.3673 14.1792 50.3013 14.1494 50.2286C14.1196 50.1557 14.1047 50.0768 14.1055 49.9981C14.1062 49.9195 14.1232 49.8418 14.1543 49.7696C14.1854 49.6973 14.2304 49.6318 14.2871 49.5772C14.5795 49.2957 14.9193 49.0839 15.2959 48.9483V48.9473L20.5293 47.0655ZM15.6982 50.0635C15.6737 50.0725 15.6501 50.0838 15.626 50.0938L18.7334 53.2003C18.7431 53.1769 18.756 53.1548 18.7646 53.1309L20.4863 48.3409L15.6982 50.0635ZM5.72266 2.88776C6.4666 2.88848 7.17999 3.184 7.70605 3.71002C8.23213 4.2361 8.52857 4.94944 8.5293 5.69342L8.51465 5.97076C8.45066 6.61333 8.16735 7.2179 7.70703 7.67877C7.24669 8.13964 6.64251 8.4236 6 8.48834L5.72266 8.50299C4.97781 8.50209 4.26405 8.20539 3.7373 7.67877C3.21055 7.15215 2.91417 6.43827 2.91309 5.69342C2.91312 4.14641 4.17328 2.88781 5.72266 2.88776ZM5.72266 4.0733C5.29276 4.07333 4.88062 4.24441 4.57617 4.54791C4.27175 4.85152 4.09987 5.26349 4.09863 5.69342L4.10645 5.85358C4.14381 6.22527 4.30869 6.57448 4.5752 6.84088C4.87966 7.14522 5.29217 7.3169 5.72266 7.31744C6.15285 7.31744 6.56592 7.14605 6.87012 6.84186C7.17405 6.53776 7.34466 6.12533 7.34473 5.69537C7.34473 5.26522 7.17426 4.8521 6.87012 4.54791C6.56599 4.24379 6.15295 4.0733 5.72266 4.0733Z" fill="black" stroke="black" stroke-width="0.2"/>
</svg>
