<svg width="95" height="146" viewBox="0 0 95 146" fill="none" xmlns="http://www.w3.org/2000/svg">
<path d="M95 108.902C80.485 110.22 72.1455 111.433 67.0257 115.442C61.0086 120.136 59.5835 128.734 58 145.928C56.3638 128.101 54.8859 119.556 48.2882 114.967C43.1683 111.381 34.8816 110.22 21 108.954C35.4622 107.636 43.8545 106.423 48.9215 102.467C54.9914 97.72 56.4165 89.1754 58 71.9281C59.4779 87.8041 60.7974 96.2959 65.7061 101.201C70.6148 106.106 79.1655 107.478 95 108.902Z" fill="black"/>
<path d="M40.4708 0C34.0714 11.821 30.5357 17.7159 26.9708 17.7159C23.4058 17.7159 19.8701 11.821 13.5 0C19.8701 11.821 22.9091 18.059 21.1266 21.334C19.3442 24.6089 12.7695 24.952 0 24.952C13.237 24.952 19.8117 25.2951 21.3019 28.9132C22.7045 32.2817 19.6656 38.4885 13.5 49.9041C19.8993 38.083 23.4351 32.1881 27 32.1881C30.5649 32.1881 34.1007 38.083 40.5 49.9041C33.7208 37.3345 30.7403 31.0965 33.2532 27.9775C35.474 25.2327 42.0195 24.952 54 24.952C40.5 24.952 33.9253 24.5777 32.6104 20.7414C31.4123 17.3105 34.4513 11.1348 40.4708 0Z" fill="black"/>
</svg>
