<svg width="69" height="69" viewBox="0 0 69 69" fill="none" xmlns="http://www.w3.org/2000/svg">
<path d="M63.9514 49.584C62.1358 49.584 60.6021 50.8094 60.1311 52.4762H51.1213V50.4276H51.4549C52.8334 50.4276 53.955 49.306 53.955 47.9272V44.3072C53.955 42.0329 53.4243 38.9437 48.8358 38.3754C44.804 37.8761 43.3619 35.8191 41.9671 33.8299C40.5856 31.8596 39.1571 29.8222 35.632 29.8222H29.9921C25.8914 29.8222 24.541 32.1504 23.111 34.6153C22.6851 35.3496 22.2445 36.1089 21.7001 36.8858C21.1513 37.6687 20.4666 38.1517 19.5451 38.406C16.8956 39.1372 15.0451 41.5639 15.0451 44.3071V47.927C15.0451 48.044 15.056 48.1583 15.0716 48.2711H8.86893C8.39792 46.6042 6.86429 45.3787 5.04859 45.3787C2.85932 45.379 1.07812 47.1599 1.07812 49.3493C1.07812 51.5387 2.85932 53.3198 5.04859 53.3198C6.86415 53.3198 8.39778 52.0944 8.86893 50.4276H20.4227C20.6319 52.6018 22.2371 54.373 24.3288 54.834V57.3764H18.0145C17.5434 55.7095 16.0096 54.4841 14.1941 54.4841C12.0048 54.4841 10.2237 56.2653 10.2237 58.4545C10.2237 60.6438 12.0048 62.4248 14.1941 62.4248C16.0096 62.4248 17.5434 61.1994 18.0145 59.5326H25.407C25.6929 59.5326 25.9671 59.4191 26.1693 59.2169C26.3715 59.0147 26.4851 58.7405 26.4851 58.4545V54.834C28.5768 54.3731 30.182 52.6018 30.3913 50.4276H32.8126V60.2148C32.8126 60.5008 32.9262 60.775 33.1284 60.9772C33.3306 61.1794 33.6048 61.2929 33.8907 61.2929L46.6739 61.2931C47.1451 62.9599 48.6787 64.1853 50.4943 64.1853C52.6835 64.1853 54.4647 62.4041 54.4647 60.2148C54.4647 58.0256 52.6835 56.2445 50.4943 56.2445C48.6786 56.2445 47.1449 57.4699 46.6739 59.1368L34.9688 59.1367V50.4276H37.9406C38.1848 52.963 40.3266 54.9521 42.9249 54.9521C45.5232 54.9521 47.665 52.963 47.9092 50.4276H48.9651V53.5543C48.9651 53.8402 49.0787 54.1145 49.2808 54.3167C49.483 54.5188 49.7573 54.6324 50.0432 54.6324H60.1311C60.6022 56.2993 62.1358 57.5248 63.9514 57.5248C66.1407 57.5248 67.9219 55.7436 67.9219 53.5543C67.9219 51.365 66.1407 49.584 63.9514 49.584ZM5.04859 51.1634C4.04822 51.1634 3.23438 50.3496 3.23438 49.3492C3.23438 48.3488 4.04822 47.5351 5.04859 47.5351C6.04896 47.5351 6.86267 48.3488 6.86267 49.3492C6.86267 50.3496 6.04896 51.1634 5.04859 51.1634ZM14.1939 60.2685C13.1936 60.2685 12.3798 59.4547 12.3798 58.4544C12.3798 57.454 13.1936 56.6402 14.1939 56.6402C15.1943 56.6402 16.0081 57.454 16.0081 58.4544C16.0081 59.4547 15.1943 60.2685 14.1939 60.2685ZM50.4943 58.4007C51.4946 58.4007 52.3085 59.2145 52.3085 60.2148C52.3085 61.2152 51.4946 62.029 50.4943 62.029C49.4939 62.029 48.6802 61.2152 48.6802 60.2148C48.6802 59.2145 49.4939 58.4007 50.4943 58.4007ZM40.2015 35.0678C40.9559 36.1438 41.8027 37.3514 43.0836 38.3672H32.6613V31.9785H35.632C38.0354 31.9785 38.944 33.2742 40.2015 35.0678ZM24.9762 35.6973C26.3672 33.2994 27.1334 31.9785 29.9921 31.9785H30.505V38.3672H23.2863C23.3473 38.2878 23.4073 38.2069 23.4659 38.1234C24.0635 37.271 24.5484 36.4349 24.9762 35.6973ZM25.4068 52.7958C23.8344 52.7958 22.555 51.5165 22.555 49.9441C22.555 48.3716 23.8344 47.0923 25.4068 47.0923C26.9793 47.0923 28.2586 48.3716 28.2586 49.9441C28.2586 51.5165 26.9793 52.7958 25.4068 52.7958ZM42.9249 52.7958C41.3524 52.7958 40.0731 51.5165 40.0731 49.9441C40.0731 48.3716 41.3524 47.0923 42.9249 47.0923C44.4973 47.0923 45.7766 48.3716 45.7766 49.9441C45.7766 51.5165 44.4973 52.7958 42.9249 52.7958ZM42.9249 44.9359C40.7499 44.9359 38.8952 46.3301 38.2052 48.2712H30.1267C29.4366 46.3301 27.5819 44.9359 25.4071 44.9359C23.2322 44.9359 21.3776 46.3299 20.6875 48.2711H17.5449C17.3589 48.2705 17.2018 48.1134 17.2018 47.927V44.3071C17.2018 42.5729 18.3462 41.0369 19.9983 40.5234H48.6303C51.306 40.8716 51.7989 42.074 51.7989 44.3071V47.927C51.7989 48.1137 51.6414 48.2712 51.455 48.2712H47.6448C46.9545 46.3301 45.0997 44.9359 42.9249 44.9359ZM63.9514 55.3685C62.951 55.3685 62.1373 54.5547 62.1373 53.5543C62.1373 52.5539 62.951 51.7402 63.9514 51.7402C64.9518 51.7402 65.7656 52.5539 65.7656 53.5543C65.7656 54.5547 64.9518 55.3685 63.9514 55.3685ZM67.2311 33.0384L62.3961 31.1773C61.7274 28.5953 60.701 26.1195 59.3469 23.8216L61.451 19.084C61.5394 18.8848 61.5655 18.6636 61.5257 18.4494C61.4859 18.2352 61.3821 18.0381 61.2281 17.884L55.0376 11.6937C54.8835 11.5396 54.6864 11.4358 54.4722 11.3961C54.258 11.3563 54.0368 11.3823 53.8377 11.4708L49.0984 13.5757C46.8011 12.222 44.326 11.1959 41.7449 10.5271L39.8834 5.69081C39.8051 5.48748 39.667 5.31264 39.4874 5.18932C39.3078 5.06601 39.0951 5 38.8772 5H30.1228C29.9049 5 29.6922 5.06601 29.5126 5.18932C29.333 5.31264 29.1949 5.48748 29.1167 5.69081L27.2555 10.5257C24.6736 11.1944 22.1978 12.2208 19.9 13.575L15.1622 11.4708C14.9631 11.3823 14.7419 11.3563 14.5277 11.3961C14.3134 11.4358 14.1163 11.5396 13.9623 11.6937L7.77193 17.8841C7.61789 18.0382 7.51413 18.2353 7.47434 18.4495C7.43455 18.6637 7.46059 18.885 7.54903 19.0841L9.65394 23.8235C8.30034 26.1208 7.27421 28.5958 6.60527 31.1769L1.76893 33.0384C1.56562 33.1167 1.39079 33.2548 1.26748 33.4344C1.14417 33.614 1.07815 33.8268 1.07812 34.0447V42.7989C1.07813 43.0849 1.19171 43.3591 1.3939 43.5613C1.59609 43.7635 1.87031 43.8771 2.15625 43.8771H12.748C12.9076 43.8771 13.0651 43.8417 13.2093 43.7734C13.3535 43.7052 13.4808 43.6058 13.5819 43.4824C13.6831 43.359 13.7556 43.2147 13.7942 43.0599C13.8328 42.9051 13.8366 42.7436 13.8053 42.5872C13.5314 41.2157 13.3935 39.8205 13.3934 38.4219C13.3934 26.7836 22.8618 17.3153 34.5 17.3153C46.1382 17.3153 55.6066 26.7836 55.6066 38.4219C55.6066 39.8205 55.4687 41.2157 55.1947 42.5872C55.1635 42.7436 55.1674 42.905 55.206 43.0598C55.2447 43.2146 55.3172 43.3588 55.4183 43.4822C55.5194 43.6055 55.6466 43.705 55.7908 43.7732C55.935 43.8415 56.0925 43.877 56.252 43.8771H66.8438C67.1297 43.8771 67.4039 43.7635 67.6061 43.5613C67.8083 43.3591 67.9219 43.0849 67.9219 42.7989V34.0446C67.9219 33.8267 67.8558 33.6139 67.7325 33.4343C67.6092 33.2547 67.4344 33.1167 67.2311 33.0384ZM65.7656 41.7208H57.5296C57.6848 40.628 57.7627 39.5256 57.7628 38.4219C57.7628 25.5946 47.3271 15.159 34.5 15.159C21.6729 15.159 11.2372 25.5947 11.2372 38.422C11.2372 39.5252 11.3155 40.63 11.4704 41.7209H3.23438V34.7851L7.90346 32.9879C8.06687 32.925 8.21249 32.8232 8.32773 32.6914C8.44298 32.5596 8.52438 32.4017 8.56489 32.2314C9.21798 29.4874 10.3051 26.8653 11.7853 24.4642C11.877 24.3151 11.9311 24.1458 11.9428 23.9711C11.9546 23.7964 11.9236 23.6215 11.8525 23.4614L9.82024 18.8856L14.9636 13.7421L19.5378 15.7737C19.6978 15.8448 19.8728 15.8758 20.0476 15.8641C20.2223 15.8523 20.3916 15.7982 20.5407 15.7063C22.9422 14.2257 25.565 13.1385 28.3097 12.4858C28.48 12.4453 28.6379 12.3639 28.7698 12.2486C28.9016 12.1333 29.0033 11.9877 29.0662 11.8243L30.8629 7.15652H38.1368L39.934 11.8256C39.9969 11.989 40.0987 12.1347 40.2305 12.2499C40.3623 12.3652 40.5202 12.4466 40.6906 12.487C43.4346 13.14 46.0567 14.2271 48.4578 15.7073C48.6069 15.7991 48.7762 15.8532 48.9509 15.865C49.1256 15.8767 49.3006 15.8456 49.4606 15.7745L54.0363 13.7422L59.1798 18.8856L57.1483 23.4598C57.0772 23.6199 57.0462 23.7948 57.058 23.9696C57.0697 24.1443 57.1239 24.3136 57.2157 24.4627C58.6963 26.8642 59.7835 29.487 60.4361 32.2317C60.4766 32.402 60.558 32.56 60.6733 32.6918C60.7885 32.8236 60.9342 32.9254 61.0976 32.9883L65.7656 34.7848V41.7208ZM35.8114 42.9043C35.8114 43.1903 35.6978 43.4645 35.4956 43.6667C35.2934 43.8689 35.0192 43.9824 34.7333 43.9824H33.2921C33.0062 43.9824 32.7319 43.8689 32.5297 43.6667C32.3276 43.4645 32.214 43.1903 32.214 42.9043C32.214 42.6184 32.3276 42.3442 32.5297 42.142C32.7319 41.9398 33.0062 41.8262 33.2921 41.8262H34.7333C35.0192 41.8262 35.2934 41.9398 35.4956 42.142C35.6978 42.3442 35.8114 42.6184 35.8114 42.9043Z" fill="black"/>
</svg>
