<svg width="51" height="52" viewBox="0 0 51 52" fill="none" xmlns="http://www.w3.org/2000/svg">
<path d="M24.9998 13.8125C22.5894 13.8125 20.2331 14.5273 18.2288 15.8665C16.2246 17.2056 14.6625 19.1091 13.7401 21.336C12.8176 23.563 12.5763 26.0135 13.0465 28.3777C13.5168 30.7418 14.6775 32.9134 16.382 34.6179C18.0864 36.3223 20.258 37.4831 22.6222 37.9533C24.9863 38.4236 27.4368 38.1822 29.6638 37.2598C31.8908 36.3373 33.7942 34.7752 35.1334 32.771C36.4726 30.7668 37.1873 28.4105 37.1873 26C37.1873 22.7677 35.9033 19.6677 33.6177 17.3821C31.3321 15.0965 28.2322 13.8125 24.9998 13.8125ZM20.783 16.3231C20.0921 17.2666 19.5445 18.307 19.158 19.4106C18.4809 19.2834 17.811 19.1207 17.1511 18.9231C18.1615 17.8063 19.4001 16.9197 20.783 16.3231ZM16.1355 20.3125C16.9796 20.6046 17.8429 20.8381 18.7192 21.0113C18.3837 22.3798 18.1904 23.7793 18.1423 25.1875H14.478C14.6155 23.4497 15.1853 21.7739 16.1355 20.3125ZM16.1355 31.7525C15.1967 30.288 14.6382 28.6124 14.5105 26.8775H18.1748C18.2207 28.2966 18.414 29.7071 18.7517 31.0862C17.8668 31.226 16.9926 31.4269 16.1355 31.6875V31.7525ZM17.1836 33.1094C17.8435 32.9118 18.5134 32.7491 19.1905 32.6219C19.577 33.7255 20.1246 34.7659 20.8155 35.7094C19.4296 35.1033 18.1908 34.2054 17.1836 33.0769V33.1094ZM24.1873 36.4163C22.8386 35.9694 21.6442 34.4581 20.8317 32.3538C21.9455 32.2165 23.0654 32.1351 24.1873 32.11V36.4163ZM24.1873 30.4525C22.8989 30.4792 21.6131 30.5796 20.3361 30.7531C20.0052 29.4639 19.8146 28.1427 19.7673 26.8125H24.1873V30.4525ZM24.1873 25.1875H19.7673C19.8146 23.8573 20.0052 22.5361 20.3361 21.2469C21.6131 21.4204 22.8989 21.5208 24.1873 21.5475V25.1875ZM24.1873 19.9225C23.0654 19.8974 21.9455 19.816 20.8317 19.6787C21.6442 17.5419 22.8386 16.0306 24.1873 15.6162V19.9225ZM32.8161 18.915C32.1566 19.1163 31.4866 19.2818 30.8092 19.4106C30.4212 18.3077 29.8737 17.2674 29.1842 16.3231C30.565 16.9197 31.803 17.8032 32.8161 18.915ZM25.8123 15.5838C27.1611 16.0306 28.3555 17.5419 29.168 19.6463C28.0546 19.7873 26.9344 19.8686 25.8123 19.89V15.5838ZM25.8123 21.5475C27.1008 21.5205 28.3866 21.4201 29.6636 21.2469C29.9933 22.5363 30.184 23.8574 30.2323 25.1875H25.8123V21.5475ZM25.8123 26.8125H30.2323C30.1851 28.1427 29.9944 29.4639 29.6636 30.7531C28.3866 30.5796 27.1008 30.4792 25.8123 30.4525V26.8125ZM25.8123 36.4163V32.0775C26.9343 32.1026 28.0542 32.184 29.168 32.3212C28.3555 34.4581 27.1611 35.9694 25.8123 36.4163ZM29.2167 35.6769C29.9076 34.7334 30.4552 33.693 30.8417 32.5894C31.5188 32.7166 32.1886 32.8793 32.8486 33.0769C31.8382 34.1937 30.5996 35.0803 29.2167 35.6769ZM33.8642 31.6875C33.0201 31.3954 32.1568 31.1619 31.2805 30.9888C31.6159 29.6202 31.8093 28.2207 31.8573 26.8125H35.5623C35.4126 28.5539 34.8288 30.23 33.8642 31.6875ZM35.4892 25.1875H31.8573C31.811 23.7657 31.6176 22.3526 31.2805 20.9706C32.1564 20.8137 33.0199 20.5938 33.8642 20.3125C34.8288 21.77 35.4126 23.4461 35.5623 25.1875H35.4892ZM1.87609 40.8931L5.60547 47.5231C5.67633 47.6482 5.7791 47.7522 5.90328 47.8245C6.02746 47.8969 6.16862 47.935 6.31234 47.935C6.45607 47.935 6.59723 47.8969 6.72141 47.8245C6.84559 47.7522 6.94835 47.6482 7.01922 47.5231L10.7486 40.8931C11.4198 39.7219 11.5983 38.3321 11.2448 37.0293C10.8913 35.7265 10.0348 34.6175 8.8636 33.9462C7.69242 33.275 6.30255 33.0965 4.99976 33.45C3.69697 33.8035 2.58797 34.6601 1.91672 35.8312C1.46546 36.5969 1.22409 37.468 1.21696 38.3567C1.20983 39.2454 1.43718 40.1203 1.87609 40.8931ZM3.32234 36.6519C3.77918 35.8546 4.53403 35.2714 5.42085 35.0306C6.30766 34.7899 7.25379 34.9113 8.0511 35.3681C8.8484 35.825 9.43158 36.5798 9.67233 37.4666C9.91308 38.3534 9.79168 39.2996 9.33484 40.0969L6.31234 45.5L3.28984 40.0969C2.99161 39.5706 2.83756 38.9749 2.84327 38.37C2.84897 37.7651 3.01423 37.1724 3.32234 36.6519Z" fill="black"/>
<path d="M6.3125 39.8125C7.20996 39.8125 7.9375 39.085 7.9375 38.1875C7.9375 37.29 7.20996 36.5625 6.3125 36.5625C5.41504 36.5625 4.6875 37.29 4.6875 38.1875C4.6875 39.085 5.41504 39.8125 6.3125 39.8125Z" fill="black"/>
<path d="M6.3125 51.1876C9.5625 51.1876 12 49.7901 12 47.9376C11.9667 47.4379 11.7978 46.9567 11.5115 46.5459C11.2252 46.135 10.8323 45.81 10.375 45.6057L9.5625 47.0195C10.0825 47.312 10.375 47.6532 10.375 47.9376C10.375 48.6039 8.79062 49.5626 6.3125 49.5626C3.83438 49.5626 2.25 48.6039 2.25 47.9376C2.25 47.6532 2.55875 47.312 3.0625 47.0195L2.25 45.6057C1.79274 45.81 1.39981 46.135 1.11349 46.5459C0.827166 46.9567 0.658281 47.4379 0.625 47.9376C0.625 49.7901 3.0625 51.1876 6.3125 51.1876ZM31.6625 48.612L31.1994 47.052C30.7038 47.1982 30.1919 47.3282 29.6881 47.4339L30.0294 49.0589C30.5737 48.9045 31.1263 48.7501 31.6625 48.612ZM1.77875 22.7014L3.40375 22.9126C3.46875 22.4007 3.55812 21.8807 3.66375 21.3689L2.03875 21.0438C1.94125 21.5963 1.85188 22.1489 1.77875 22.7014ZM34.1325 45.9551C33.6531 46.1745 33.1737 46.3695 32.6862 46.5564L33.255 48.0757C33.775 47.8807 34.295 47.6614 34.8069 47.4339L34.1325 45.9551ZM28.1444 47.7182C27.6325 47.7914 27.1125 47.8401 26.5925 47.8807L26.7062 49.5057C27.2669 49.5057 27.8275 49.4001 28.38 49.3189L28.1444 47.7182ZM25 47.9376C24.4719 47.9376 23.9519 47.8807 23.4481 47.8401L23.3019 49.4651C23.8381 49.5139 24.3825 49.5464 24.9675 49.5707L25 47.9376ZM48.5625 26.0001V25.9107H46.9375V26.0001C46.9375 26.5201 46.9375 27.0482 46.8806 27.5682L48.5056 27.682C48.5625 27.1214 48.5625 26.5607 48.5625 26.0001ZM17.3463 46.532L16.8019 48.0595C17.33 48.2464 17.8662 48.417 18.4269 48.5632L18.8656 46.9951C18.3294 46.857 17.8256 46.7026 17.3463 46.532ZM20.3687 47.3689L20.0275 48.9939C20.5637 49.1076 21.1162 49.2051 21.6525 49.2864L21.8881 47.6614C21.3844 47.572 20.8725 47.4745 20.3687 47.3689ZM35.5625 45.2482L36.375 46.6782C36.8625 46.4101 37.3419 46.1176 37.8131 45.817L36.9356 44.452C36.4319 44.7364 35.9769 45.0045 35.5625 45.2482ZM19.93 3.06323C19.3694 3.17698 18.8331 3.3151 18.305 3.46135L18.7437 5.02948C19.2394 4.89135 19.7512 4.76135 20.2712 4.6476L19.93 3.06323ZM26.4869 4.11135L26.6006 2.48635C26.0725 2.4376 25.5444 2.4376 25 2.4376H24.9106L25 4.0626C25.5037 4.0626 25.9994 4.07885 26.4869 4.11135ZM5.10188 13.2601L6.48313 14.1214C6.75938 13.6745 7.05188 13.2357 7.36062 12.8214L6.04437 11.8626C5.71125 12.3176 5.4025 12.7889 5.10188 13.2601ZM28.25 2.6651L28.0225 4.2901C28.5425 4.36323 29.0625 4.4526 29.5662 4.55823L29.8994 2.97385C29.3875 2.83573 28.8269 2.73823 28.25 2.6651ZM9.37563 10.4489L8.22188 9.30323C7.83188 9.70135 7.45 10.1157 7.08437 10.5464L8.31938 11.5945C8.66063 11.2045 9.01 10.8145 9.37563 10.4489ZM23.2288 2.55135C22.66 2.60823 22.1156 2.67323 21.6038 2.7626L21.8475 4.3876C22.3594 4.31448 22.8794 4.24948 23.4156 4.20073L23.2288 2.55135ZM16.7044 3.97323C16.1763 4.1601 15.6563 4.37135 15.1444 4.59073L15.7944 6.0776C16.2656 5.87448 16.7531 5.67948 17.2487 5.50073L16.7044 3.97323ZM13.625 5.31385C13.1294 5.58198 12.6419 5.85823 12.1706 6.12635L13.0319 7.49948C13.4706 7.22323 13.9256 6.96323 14.3806 6.68698L13.625 5.31385ZM46.4419 35.7501L44.9631 35.0757C44.7438 35.5551 44.5081 36.0264 44.2644 36.4732L45.6862 37.2857C45.9787 36.8036 46.2306 36.2918 46.4419 35.7501ZM2.43687 19.4107L4.005 19.8414C4.14312 19.3376 4.30562 18.8339 4.47625 18.3464L2.94062 17.8101C2.75375 18.3382 2.59125 18.8745 2.43687 19.4107ZM40.5187 41.5107L41.6644 42.6564C42.0625 42.2582 42.4769 41.8439 42.81 41.4295L41.5831 40.357C41.25 40.7551 40.8844 41.137 40.5187 41.5107ZM3.55 16.2501L5.045 16.9001C5.24813 16.4207 5.47563 15.9495 5.71125 15.4864L4.27312 14.7307C4.01312 15.2263 3.76937 15.7301 3.55 16.2501ZM48.3269 29.3476L46.7019 29.1201C46.6287 29.6401 46.5312 30.152 46.4256 30.6639L48.0506 31.0051C48.1481 30.4607 48.2456 29.9001 48.3269 29.3476ZM48.4975 24.2126C48.4569 23.6601 48.3919 23.0995 48.3106 22.547L46.6856 22.7826C46.7669 23.2945 46.8237 23.8226 46.8563 24.3345L48.4975 24.2126ZM47.6119 32.6382L46.06 32.1751C45.9137 32.6789 45.7431 33.1745 45.5644 33.662L47.0838 34.2307C47.2788 33.7026 47.4575 33.1664 47.6119 32.6382ZM10.7731 7.10135C10.3263 7.43448 9.87937 7.78385 9.45687 8.14948L10.5212 9.38448C10.9113 9.04323 11.3175 8.71823 11.74 8.40948L10.7731 7.10135ZM46.0275 19.7276C46.1738 20.2314 46.3119 20.7351 46.4175 21.2389L48.0425 20.8895C47.9206 20.3451 47.7744 19.8007 47.62 19.2645L46.0275 19.7276ZM1.55938 26.0001H3.18438C3.18438 25.4964 3.18438 24.9845 3.23312 24.4807L1.60813 24.3751C1.57563 24.9114 1.55938 25.4557 1.55938 26.0001ZM1.61625 27.7226C1.61625 28.2832 1.71375 28.8439 1.78688 29.3964L3.41187 29.177C3.34687 28.657 3.29 28.137 3.2575 27.617L1.61625 27.7226ZM39.3731 42.5751C38.9831 42.9164 38.5606 43.2414 38.1544 43.5582L39.1294 44.8582C39.5762 44.517 40.015 44.1676 40.4375 43.802L39.3731 42.5751ZM42.5662 39.1464L43.8662 40.1132C44.1994 39.6664 44.5244 39.2032 44.825 38.7401L43.46 37.8545C43.1838 38.2932 42.875 38.7239 42.5662 39.1464ZM50.1875 5.27323C50.2136 5.06609 50.1589 4.85686 50.0349 4.68894C49.9108 4.52102 49.7269 4.40729 49.5213 4.37135L48.8469 4.26573C46.4891 3.86412 44.319 2.72644 42.6475 1.01573C42.572 0.939572 42.4821 0.879127 42.3831 0.837877C42.2841 0.796628 42.1779 0.775391 42.0706 0.775391C41.9634 0.775391 41.8572 0.796628 41.7582 0.837877C41.6591 0.879127 41.5693 0.939572 41.4937 1.01573C39.8223 2.72644 37.6521 3.86412 35.2944 4.26573L34.62 4.37135C34.4129 4.40356 34.2263 4.51453 34.0991 4.68108C33.972 4.84762 33.9141 5.05687 33.9375 5.2651C34.1875 7.40745 34.8888 9.47246 35.9952 11.3239C37.1016 13.1754 38.588 14.7713 40.3563 16.0064L41.5831 16.9082C41.7225 17.0092 41.8904 17.0632 42.0625 17.0626C42.242 17.062 42.4163 17.002 42.5581 16.892L44.0938 15.7057C45.7632 14.4721 47.1643 12.9118 48.2119 11.1198C49.2595 9.32772 49.9316 7.34131 50.1875 5.28135V5.27323ZM43.0944 14.422L42.0462 15.2345L41.315 14.6901C38.3339 12.6062 36.3027 9.42345 35.6681 5.84198C38.0467 5.42713 40.2617 4.3548 42.0625 2.74635C43.8633 4.3548 46.0783 5.42713 48.4569 5.84198C47.8189 9.27729 45.9027 12.3432 43.0944 14.422Z" fill="black"/>
<path d="M40.4376 8.24687L39.292 9.3925L41.0145 11.115C41.09 11.1912 41.1799 11.2516 41.2789 11.2928C41.3779 11.3341 41.4841 11.3553 41.5914 11.3553C41.6986 11.3553 41.8048 11.3341 41.9038 11.2928C42.0028 11.2516 42.0927 11.1912 42.1682 11.115L45.6132 7.67L44.5001 6.5L41.6239 9.36812L40.4376 8.24687Z" fill="black"/>
</svg>
