<svg width="69" height="69" viewBox="0 0 69 69" fill="none" xmlns="http://www.w3.org/2000/svg">
<path d="M29.7563 18.5976H26.4275C23.5436 18.5976 21.2121 20.9426 21.2121 23.8131C21.2121 24.7969 22.0207 25.6054 23.0045 25.6054H33.1928C34.1766 25.6054 34.9852 24.7969 34.9852 23.8131C34.9717 20.9291 32.6268 18.5976 29.7563 18.5976ZM23.0988 23.7187C23.1527 21.9263 24.6217 20.4844 26.4275 20.4844H29.7563C31.5621 20.4844 33.0311 21.9263 33.085 23.7187H23.0988ZM28.0852 17.789C30.2279 17.789 31.9799 16.0371 31.9799 13.8943C31.9799 11.7515 30.2279 9.99958 28.0852 9.99958C25.9424 9.99958 24.1904 11.7515 24.1904 13.8943C24.1904 16.0506 25.9424 17.789 28.0852 17.789ZM28.0852 11.8998C29.1902 11.8998 30.0932 12.8027 30.0932 13.9078C30.0932 15.0129 29.1902 15.9158 28.0852 15.9158C26.9801 15.9158 26.0771 15.0129 26.0771 13.9078C26.0906 12.7892 26.9801 11.8998 28.0852 11.8998ZM28.0852 5.30974C21.1986 5.30974 15.5789 10.916 15.5789 17.816C15.5789 24.7025 21.1852 30.3088 28.0852 30.3088C34.9852 30.3088 40.5914 24.7025 40.5914 17.816C40.5914 10.916 34.9852 5.30974 28.0852 5.30974ZM28.0852 28.4086C22.2363 28.4086 17.4791 23.6513 17.4791 17.8025C17.4791 11.9537 22.2363 7.19646 28.0852 7.19646C33.934 7.19646 38.6912 11.9537 38.6912 17.8025C38.7047 23.6513 33.9475 28.4086 28.0852 28.4086ZM8.32852 38.9068C8.32852 38.3812 8.74629 37.9635 9.27188 37.9635H34.8639C35.3895 37.9635 35.8072 38.3812 35.8072 38.9068C35.8072 39.4324 35.3895 39.8502 34.8639 39.8502H9.27188C8.74629 39.8502 8.32852 39.4324 8.32852 38.9068ZM8.32852 42.8959C8.32852 42.3703 8.74629 41.9525 9.27188 41.9525H34.8639C35.3895 41.9525 35.8072 42.3703 35.8072 42.8959C35.8072 43.4215 35.3895 43.8392 34.8639 43.8392H9.27188C8.74629 43.8392 8.32852 43.408 8.32852 42.8959ZM38.0309 46.8715C38.0309 46.3459 38.4486 45.9281 38.9742 45.9281H46.8984C47.424 45.9281 47.8418 46.3459 47.8418 46.8715C47.8418 47.397 47.424 47.8148 46.8984 47.8148H38.9742C38.4621 47.8148 38.0309 47.397 38.0309 46.8715ZM8.32852 46.8715C8.32852 46.3459 8.74629 45.9281 9.27188 45.9281H34.8639C35.3895 45.9281 35.8072 46.3459 35.8072 46.8715C35.8072 47.397 35.3895 47.8148 34.8639 47.8148H9.27188C8.74629 47.8148 8.32852 47.397 8.32852 46.8715ZM38.9877 51.8039C38.4621 51.8039 38.0443 51.3861 38.0443 50.8605C38.0443 50.3349 38.4621 49.9172 38.9877 49.9172H46.9119C47.4375 49.9172 47.8553 50.3349 47.8553 50.8605C47.8553 51.3861 47.4375 51.8039 46.9119 51.8039H38.9877ZM8.32852 50.8605C8.32852 50.3349 8.74629 49.9172 9.27188 49.9172H34.8639C35.3895 49.9172 35.8072 50.3349 35.8072 50.8605C35.8072 51.3861 35.3895 51.8039 34.8639 51.8039H9.27188C8.74629 51.8039 8.32852 51.3726 8.32852 50.8605ZM34.9986 54.3779H9.2584C8.73281 54.3779 8.31504 54.7957 8.31504 55.3213V59.499C8.31504 60.0246 8.73281 60.4424 9.2584 60.4424H34.9986C35.5242 60.4424 35.942 60.0246 35.942 59.499V55.3213C35.942 54.8092 35.5242 54.3779 34.9986 54.3779ZM34.0553 58.5556H10.2018V56.2646H34.0553V58.5556ZM69 31.0769C69 23.7996 63.3264 17.8295 56.1838 17.3443V5.5658C56.1838 2.62791 53.7984 0.242554 50.8605 0.242554H5.32324C2.38535 0.25603 0 2.64138 0 5.5658V63.4207C0 66.3586 2.38535 68.7439 5.32324 68.7439H44.1223C44.1492 68.7439 44.1762 68.7439 44.1896 68.7304H44.2031C44.2301 68.7304 44.257 68.717 44.284 68.7035C44.3109 68.69 44.3379 68.69 44.3648 68.6765L44.4457 68.6361C44.4727 68.6226 44.4861 68.6092 44.5131 68.5957H44.5266C44.5535 68.5822 44.567 68.5687 44.5939 68.5553C44.5939 68.5553 44.6074 68.5553 44.6074 68.5418C44.6344 68.5283 44.6479 68.5013 44.6748 68.4744L55.8873 57.2619L55.9547 57.1945L55.9682 57.181C55.9816 57.1676 55.9951 57.1406 56.0086 57.1271C56.0086 57.1271 56.0086 57.1136 56.0221 57.1136C56.0355 57.0867 56.049 57.0732 56.0625 57.0463V57.0328L56.1029 56.9519C56.1164 56.925 56.1299 56.898 56.1299 56.8711C56.1434 56.8441 56.1434 56.8172 56.1568 56.7902V56.7633C56.1568 56.7363 56.1703 56.7228 56.1703 56.6959V44.823C63.3264 44.3244 69 38.3543 69 31.0769ZM1.88672 63.4342V5.5658C1.88672 3.67908 3.42305 2.12927 5.32324 2.12927H50.8605C52.7473 2.12927 54.2971 3.6656 54.2971 5.5658V17.3443C47.141 17.8295 41.4809 23.7996 41.4809 31.0769C41.4809 33.5836 42.1547 35.942 43.3271 37.9635H38.9877C38.4621 37.9635 38.0443 38.3812 38.0443 38.9068C38.0443 39.4324 38.4621 39.8502 38.9877 39.8502H44.6479C45.2947 40.6183 46.009 41.3326 46.8041 41.939H38.9877C38.4621 41.939 38.0443 42.3568 38.0443 42.8824C38.0443 43.408 38.4621 43.8258 38.9877 43.8258H46.9119C47.4375 43.8258 47.8553 43.408 47.8553 42.8824C47.8553 42.815 47.8418 42.7342 47.8283 42.6668C49.715 43.8797 51.9252 44.6343 54.2971 44.7961V55.6312H45.3756C44.1088 55.6312 43.0846 56.6554 43.0846 57.9222V66.8437H5.32324C3.42305 66.8572 1.88672 65.3209 1.88672 63.4342ZM52.9629 57.5314L44.9713 65.523V57.9357C44.9713 57.7066 45.16 57.5314 45.3756 57.5314H52.9629ZM55.2404 42.9498C48.6908 42.9498 43.3676 37.6265 43.3676 31.0769C43.3676 24.5273 48.6908 19.2041 55.2404 19.2041C61.79 19.2041 67.1133 24.5273 67.1133 31.0769C67.1133 37.6265 61.79 42.9498 55.2404 42.9498ZM62.1674 26.6027L53.7041 36.7506C53.6906 36.7775 53.6637 36.791 53.6502 36.8179C53.5693 36.8988 53.4885 36.9527 53.3941 37.0066C53.2594 37.074 53.1246 37.101 52.9898 37.101H52.9764C52.8416 37.101 52.7068 37.074 52.5855 37.0201C52.4912 36.9797 52.3969 36.9123 52.3295 36.8449L52.2621 36.7775L48.3404 32.3302C47.99 31.9394 48.0305 31.3465 48.4213 30.9961C48.8121 30.6457 49.4051 30.6861 49.7555 31.0769L52.9629 34.7156L60.7254 25.4033C60.8047 25.3073 60.9023 25.2279 61.0124 25.1698C61.1226 25.1117 61.2432 25.076 61.3672 25.0647C61.4912 25.0534 61.6163 25.0668 61.7351 25.1041C61.854 25.1414 61.9642 25.2019 62.0596 25.282C62.4504 25.6054 62.5043 26.1984 62.1674 26.6027Z" fill="black"/>
</svg>
