<svg width="90" height="90" viewBox="0 0 90 90" fill="none" xmlns="http://www.w3.org/2000/svg">
<path d="M54.9166 52.6959C53.5666 52.6959 52.4696 53.7928 52.4696 55.1411C52.4696 56.4894 53.5666 57.5864 54.9149 57.5864C56.2632 57.5864 57.3601 56.4894 57.3601 55.1411C57.3601 53.7928 56.2649 52.6959 54.9166 52.6959ZM54.9166 55.243C54.8895 55.243 54.8636 55.2323 54.8445 55.2132C54.8254 55.1941 54.8147 55.1682 54.8147 55.1411L54.9166 55.0393V55.243ZM35.0996 52.6959C33.7513 52.6959 32.6543 53.7928 32.6543 55.1411C32.6543 56.4894 33.7513 57.5864 35.0996 57.5864C36.4479 57.5864 37.5449 56.4894 37.5449 55.1411C37.5449 53.7928 36.4479 52.6959 35.0996 52.6959ZM35.0996 55.243C35.0726 55.243 35.0466 55.2323 35.0275 55.2132C35.0084 55.1941 34.9977 55.1682 34.9977 55.1411L35.0996 55.0393V55.243Z" fill="url(#paint0_linear_155_2635)"/>
<path d="M85.7663 56.0989V45.6504C85.7663 23.1708 67.4777 4.88379 44.9997 4.88379C22.5218 4.88379 4.23145 23.1725 4.23145 45.6504V61.2289C4.23145 61.2459 4.23994 61.2594 4.24163 61.2747V64.4672C4.24163 65.3679 4.59945 66.2318 5.23637 66.8687C5.87328 67.5056 6.73713 67.8634 7.63786 67.8634H10.0831V52.7162H7.63786C7.34709 52.7124 7.05741 52.7524 6.77861 52.8351V45.6504C6.77861 24.5768 23.9245 7.43096 44.9997 7.43096C66.075 7.43096 83.2192 24.5768 83.2192 45.6504V52.8351C82.9438 52.7529 82.6575 52.7129 82.3701 52.7162H79.9248V67.8634H82.3701C83.2709 67.8634 84.1347 67.5056 84.7716 66.8687C85.4085 66.2318 85.7663 65.3679 85.7663 64.4672V56.0989Z" fill="url(#paint1_linear_155_2635)"/>
<path d="M75.6847 50.6462H71.9115V49.2708C71.9115 45.3821 68.753 42.2236 64.8644 42.2236H58.2315V34.3579C58.2315 34.2798 58.1993 34.2119 58.1874 34.1372C58.9412 33.8829 59.5964 33.399 60.0611 32.7533C60.5259 32.1077 60.7768 31.3327 60.7787 30.5372C60.7787 29.5239 60.3762 28.552 59.6596 27.8355C58.9431 27.119 57.9713 26.7164 56.9579 26.7164C55.9446 26.7164 54.9728 27.119 54.2563 27.8355C53.5397 28.552 53.1372 29.5239 53.1372 30.5372C53.1372 32.2149 54.224 33.6244 55.7285 34.1372C55.7149 34.2119 55.6844 34.2798 55.6844 34.3579V42.2219H34.3306V34.3596C34.3306 34.2798 34.3 34.2119 34.2864 34.1389C35.0402 33.8846 35.6955 33.4007 36.1602 32.755C36.6249 32.1094 36.8759 31.3344 36.8777 30.5389C36.8777 29.5256 36.4752 28.5537 35.7587 27.8372C35.0421 27.1207 34.0703 26.7181 33.057 26.7181C32.0437 26.7181 31.0718 27.1207 30.3553 27.8372C29.6388 28.5537 29.2362 29.5256 29.2362 30.5389C29.2362 32.2149 30.3247 33.6244 31.8293 34.1389C31.8157 34.2119 31.7834 34.2798 31.7834 34.3596V42.2219H25.1608C21.2551 42.2219 18.1136 45.3804 18.1136 49.2691V50.6445H14.3319C13.8815 50.6445 13.4496 50.8235 13.1312 51.1419C12.8127 51.4604 12.6338 51.8923 12.6338 52.3427V68.237C12.6338 68.6874 12.8127 69.1193 13.1312 69.4377C13.4496 69.7562 13.8815 69.9351 14.3319 69.9351H18.117V78.0691C18.117 81.9577 21.2585 85.1162 25.1642 85.1162H64.8661C68.7547 85.1162 71.9132 81.9577 71.9132 78.0691V69.9351H75.6864C76.1368 69.9351 76.5687 69.7562 76.8872 69.4377C77.2056 69.1193 77.3845 68.6874 77.3845 68.237V52.3427C77.3845 51.8923 77.2056 51.4604 76.8872 51.1419C76.5687 50.8235 76.1368 50.6445 75.6864 50.6445L75.6847 50.6462ZM18.1068 68.237V52.3427C18.1068 52.3308 18.1136 52.3172 18.1153 52.3036V68.2608C18.1153 68.2523 18.1068 68.2438 18.1068 68.237ZM45.0134 79.8351C40.1568 79.8351 36.1493 76.1842 35.6228 71.4634C35.5549 70.8861 36.0474 70.3936 36.6247 70.3936H53.3851C53.9625 70.3936 54.4549 70.8861 54.404 71.4634C54.1393 73.7682 53.0359 75.8951 51.3042 77.439C49.5725 78.9828 47.3334 79.8357 45.0134 79.8351ZM63.8115 59.7295C63.2107 60.3334 62.4962 60.8125 61.7093 61.1389C60.9223 61.4653 60.0786 61.6327 59.2266 61.6313H30.8002C29.9483 61.6313 29.1048 61.4636 28.3178 61.1376C27.5308 60.8116 26.8157 60.3338 26.2133 59.7314C25.611 59.129 25.1332 58.4139 24.8072 57.6269C24.4812 56.8399 24.3134 55.9964 24.3134 55.1445C24.3134 54.2927 24.4812 53.4492 24.8072 52.6622C25.1332 51.8751 25.611 51.16 26.2133 50.5577C26.8157 49.9553 27.5308 49.4775 28.3178 49.1515C29.1048 48.8255 29.9483 48.6578 30.8002 48.6578H59.2266C60.509 48.6585 61.7624 49.0394 62.8284 49.7522C63.8945 50.465 64.7253 51.4779 65.216 52.6627C65.7066 53.8475 65.8351 55.1512 65.5851 56.409C65.3351 57.6668 64.7179 58.8223 63.8115 59.7295Z" fill="url(#paint2_linear_155_2635)"/>
<defs>
<linearGradient id="paint0_linear_155_2635" x1="45.0072" y1="52.6959" x2="45.0072" y2="57.5864" gradientUnits="userSpaceOnUse">
<stop stop-color="#5DE7FF"/>
<stop offset="1" stop-color="#00A8C5"/>
</linearGradient>
<linearGradient id="paint1_linear_155_2635" x1="44.9989" y1="4.88379" x2="44.9989" y2="67.8634" gradientUnits="userSpaceOnUse">
<stop stop-color="#5DE7FF"/>
<stop offset="1" stop-color="#00A8C5"/>
</linearGradient>
<linearGradient id="paint2_linear_155_2635" x1="45.0092" y1="26.7164" x2="45.0092" y2="85.1162" gradientUnits="userSpaceOnUse">
<stop stop-color="#5DE7FF"/>
<stop offset="1" stop-color="#00A8C5"/>
</linearGradient>
</defs>
</svg>
