<svg width="90" height="90" viewBox="0 0 90 90" fill="none" xmlns="http://www.w3.org/2000/svg">
<path d="M0.650391 13.2891C2.58398 14.5898 4.23633 15.1699 6.75 15.9785V64.7051C0.966797 62.877 0.650391 61.2773 0.650391 60.9434V13.2891ZM24.2227 51.8731C26.4551 40.2363 31.5527 13.7285 33.7324 2.33789C36.2637 2.21484 38.918 2.12695 41.625 2.0918L41.4141 7.75195H48.5684L48.3574 2.0918C50.9238 2.12695 53.5605 2.21484 56.25 2.35547L65.7773 51.8731C65.1094 51.8027 64.459 51.75 63.791 51.6797C54.5449 39.0938 35.4727 39.1113 26.209 51.6797C25.5234 51.75 24.873 51.8203 24.2227 51.8731ZM40.834 23.5371H49.1836L48.6738 10.1074H41.3262L40.834 23.5371ZM40.2539 39.3223H49.7461L49.2363 25.8926H40.7285L40.2539 39.3223ZM46.3008 2.07422H43.6816L43.541 5.66016H46.4238L46.3008 2.07422ZM43.3125 12.1992L42.9785 21.4277H47.0391L46.6875 12.1992H43.3125ZM42.7324 28.002L42.3984 37.2305H47.6191L47.2676 28.002H42.7324ZM39.9023 66.0938C40.0781 72.9492 49.9922 72.8965 50.0801 66.041C49.7637 59.2734 40.1484 59.3262 39.9023 66.0938ZM61.998 52.8047C72.9316 66.7441 62.666 88.1016 45 87.9258C27.2988 88.1016 17.0508 66.7266 27.9844 52.7871C36.4043 41.5723 53.6133 41.502 61.998 52.8047ZM62.877 59.5371L62.9121 59.5195C62.332 58.043 61.6465 56.6016 60.7324 55.2656L60.1875 54.4395L60.1523 54.457C52.752 44.2969 37.125 44.3496 29.7598 54.5273L29.7246 54.5098C28.8281 55.8633 27.9141 57.375 27.3691 58.8164C27.3691 58.834 27.0527 59.6074 27.0527 59.625L27.0703 59.6426C22.8867 70.8223 30.5156 83.707 42.1348 85.2188V85.2539C43.9629 85.5 45.9844 85.5176 47.8301 85.2539V85.2188C59.4844 83.6543 67.1133 70.7168 62.877 59.5371ZM82.5293 66.1289C88.2949 64.2481 88.5938 62.5957 88.5938 62.2617V13.2188C86.6777 14.5547 85.043 15.1523 82.5293 15.9961V66.1289ZM58.377 2.46094L67.9219 52.1191C73.002 52.6992 77.5371 53.5078 81.1582 54.4395V15.1875C81.1582 14.7129 81.457 14.3086 81.9141 14.168C85.1309 13.1836 88.8223 12.0059 89.332 10.002H89.3496C89.3144 7.62891 79.6992 3.76172 58.377 2.46094ZM51.3281 62.7539C51.5566 63.2461 51.7676 63.7383 51.9082 64.2656L60.3281 58.7285C60.0996 58.2539 59.8711 57.7617 59.5723 57.3223L51.3281 62.7539ZM29.6543 58.7988L38.0742 64.3359C38.2324 63.8086 38.4082 63.3164 38.6367 62.8242L30.375 57.3926C30.0938 57.8496 29.8477 58.3242 29.6543 58.7988ZM0.650391 10.0195C1.17773 12.0234 4.83398 13.1836 8.06836 14.1855C8.50781 14.3262 8.82422 14.7305 8.82422 15.2051V54.4395C12.4453 53.5078 16.9629 52.7168 22.0605 52.1191L31.6055 2.46094C21.5859 3.11133 2.4082 5.15039 0.650391 10.0195ZM44.2266 73.3184V83.3203C44.7363 83.3379 45.2812 83.3379 45.791 83.3203V73.3184C45.2637 73.3711 44.7363 73.3711 44.2266 73.3184Z" fill="url(#paint0_linear_155_2564)"/>
<defs>
<linearGradient id="paint0_linear_155_2564" x1="45" y1="2.07422" x2="45" y2="87.9269" gradientUnits="userSpaceOnUse">
<stop stop-color="#5DE7FF"/>
<stop offset="1" stop-color="#00A8C5"/>
</linearGradient>
</defs>
</svg>
