<svg width="90" height="90" viewBox="0 0 90 90" fill="none" xmlns="http://www.w3.org/2000/svg">
<path d="M34.5148 39.4215C33.7776 39.4051 33.045 39.5421 32.3636 39.8238C31.6821 40.1055 31.0667 40.5258 30.5562 41.058C29.4875 42.1502 28.9531 43.5371 28.9531 45.2187C28.9531 47.0937 29.6258 48.5773 30.9711 49.6695C31.9813 50.5097 33.2573 50.9633 34.5711 50.9492C35.3029 50.9603 36.0289 50.8184 36.7028 50.5327C37.3766 50.247 37.9832 49.8236 38.484 49.2898C39.525 48.1798 40.1033 46.7144 40.101 45.1926C40.0988 43.6708 39.516 42.2071 38.4717 41.1002C37.9658 40.5598 37.3523 40.1313 36.6709 39.8422C35.9894 39.553 35.255 39.4097 34.5148 39.4215Z" fill="url(#paint0_linear_155_2482)"/>
<path d="M77.4896 23H12.5104C9.98533 23.0033 7.56472 24.008 5.77959 25.7938C3.99446 27.5796 2.99061 30.0006 2.98828 32.5256V57.8047C2.99061 60.3295 3.99451 62.7504 5.77969 64.5359C7.56487 66.3214 9.98549 67.3257 12.5104 67.3285H58.66L60.5408 58.7908C60.6569 58.261 60.8822 57.7613 61.2023 57.3235C61.5224 56.8857 61.9303 56.5195 62.3999 56.2482C62.8695 55.9769 63.3905 55.8066 63.9297 55.748C64.4689 55.6894 65.0143 55.7439 65.5312 55.908L79.7537 60.415C80.3271 60.597 80.8509 60.9086 81.2845 61.3256C81.718 61.7427 82.0496 62.254 82.2536 62.82C82.4576 63.3859 82.5285 63.9912 82.4608 64.589C82.3931 65.1867 82.1885 65.7609 81.8631 66.2668C83.4139 65.463 84.7141 64.2487 85.622 62.7565C86.5299 61.2643 87.0107 59.5514 87.0117 57.8047V32.5256C87.0094 30.0006 86.0055 27.5796 84.2204 25.7938C82.4353 24.008 80.0147 23.0033 77.4896 23ZM22.7268 51.3008C22.2687 52.053 21.6093 52.6619 20.823 53.0586C20.0461 53.4477 18.9727 53.6416 17.6027 53.6404H14.2875C13.906 53.64 13.5403 53.4881 13.2707 53.2181C13.001 52.9482 12.8496 52.5823 12.8496 52.2008V38.1277C12.8496 37.7464 13.0011 37.3806 13.2708 37.111C13.5404 36.8413 13.9061 36.6898 14.2875 36.6898H15.518C17.0648 36.6898 18.1963 36.7895 18.9123 36.9887C19.8598 37.2153 20.7092 37.7411 21.3346 38.4881C21.9342 39.2133 22.2541 40.1294 22.2363 41.0703C22.2441 41.6808 22.1036 42.284 21.8268 42.8281C21.6722 43.1196 21.4795 43.3891 21.2537 43.6297C21.1774 43.7154 21.1206 43.8166 21.0872 43.9264C21.0539 44.0361 21.0447 44.1518 21.0604 44.2655C21.0762 44.3791 21.1163 44.488 21.1782 44.5846C21.2401 44.6812 21.3223 44.7632 21.4189 44.825C21.9473 45.1635 22.4017 45.6054 22.7549 46.124C23.2432 46.8932 23.4916 47.7902 23.4686 48.701C23.4755 49.6207 23.218 50.5231 22.7268 51.3008ZM40.7707 51.4959C39.9691 52.327 39.0049 52.9842 37.9383 53.4267C36.8717 53.8691 35.7255 54.0873 34.5709 54.0676C32.0256 54.0676 29.9109 53.1887 28.227 51.4309C27.2662 50.4523 26.5437 49.2656 26.1155 47.9628C25.6874 46.66 25.565 45.2761 25.7579 43.9184C25.9509 42.5607 26.4539 41.2657 27.2281 40.1337C28.0023 39.0018 29.0267 38.0634 30.2221 37.3912C31.598 36.6226 33.1533 36.2332 34.7291 36.2627C37.0506 36.3049 39.0533 37.1727 40.7373 38.866C42.4635 40.6027 43.3266 42.7197 43.3266 45.217C43.3266 47.6932 42.4746 49.7879 40.7707 51.5012V51.4959ZM60.5971 51.4959C59.7954 52.327 58.8313 52.9842 57.7647 53.4267C56.6981 53.8691 55.5518 54.0873 54.3973 54.0676C51.852 54.0676 49.7373 53.1887 48.0533 51.4309C47.0926 50.4523 46.3701 49.2656 45.9419 47.9628C45.5137 46.66 45.3914 45.2761 45.5843 43.9184C45.7772 42.5607 46.2803 41.2657 47.0545 40.1337C47.8286 39.0018 48.8531 38.0634 50.0484 37.3912C51.4244 36.6226 52.9797 36.2332 54.5555 36.2627C56.8769 36.3049 58.8791 37.1727 60.5619 38.866C62.2904 40.6027 63.1541 42.7197 63.1529 45.217C63.1529 47.6932 62.301 49.7879 60.5971 51.5012V51.4959ZM75.6211 53.6404H75.5068C75.2601 53.6402 75.0171 53.5803 74.7986 53.4658C74.58 53.3514 74.3924 53.1857 74.2518 52.983L70.0594 46.9414C70.0208 46.8866 69.966 46.8454 69.9026 46.8236C69.8393 46.8018 69.7707 46.8006 69.7066 46.82C69.6425 46.8395 69.5862 46.8787 69.5457 46.9321C69.5052 46.9854 69.4826 47.0502 69.4811 47.1172V52.0039C69.4811 52.4365 69.3092 52.8515 69.0033 53.1574C68.6973 53.4633 68.2824 53.6352 67.8498 53.6352C67.4172 53.6352 67.0023 53.4633 66.6963 53.1574C66.3904 52.8515 66.2186 52.4365 66.2186 52.0039V38.3105C66.2186 37.8779 66.3904 37.463 66.6963 37.1571C67.0023 36.8512 67.4172 36.6793 67.8498 36.6793C68.2824 36.6793 68.6973 36.8512 69.0033 37.1571C69.3092 37.463 69.4811 37.8779 69.4811 38.3105V41.6064C69.48 41.673 69.4999 41.7381 69.5378 41.7927C69.5757 41.8474 69.6298 41.8888 69.6925 41.9111C69.7551 41.9334 69.8232 41.9355 69.8871 41.9171C69.951 41.8987 70.0076 41.8608 70.0488 41.8086L73.626 37.2664C73.881 36.9631 74.244 36.7708 74.6382 36.7301C75.0324 36.6894 75.427 36.8035 75.7387 37.0483C76.0503 37.2931 76.2547 37.6494 76.3085 38.0421C76.3623 38.4347 76.2614 38.8329 76.0272 39.1525L72.1828 44.0744C72.1408 44.1275 72.1169 44.1928 72.1146 44.2605C72.1124 44.3282 72.132 44.3948 72.1705 44.4506L76.8762 51.2516C77.0347 51.4805 77.1274 51.7485 77.1445 52.0265C77.1616 52.3044 77.1022 52.5817 76.973 52.8283C76.8437 53.075 76.6493 53.2815 76.411 53.4256C76.1727 53.5697 75.8996 53.6458 75.6211 53.6457V53.6404Z" fill="url(#paint1_linear_155_2482)"/>
<path d="M54.3412 39.4215C53.604 39.4051 52.8714 39.5421 52.19 39.8238C51.5085 40.1055 50.893 40.5258 50.3826 41.058C49.3139 42.1443 48.7795 43.5312 48.7795 45.2187C48.7795 47.0937 49.4522 48.5773 50.7975 49.6695C51.8076 50.5097 53.0836 50.9633 54.3975 50.9492C55.129 50.9604 55.8548 50.8186 56.5284 50.5328C57.2019 50.247 57.8083 49.8237 58.3086 49.2898C59.3498 48.18 59.9285 46.7148 59.9265 45.1929C59.9246 43.6711 59.3422 42.2074 58.298 41.1002C57.7921 40.5598 57.1787 40.1313 56.4973 39.8422C55.8158 39.553 55.0814 39.4097 54.3412 39.4215ZM16.7469 43.3396H16.782C17.5695 43.3396 18.1555 43.1744 18.5398 42.8439C18.7302 42.6766 18.8804 42.4684 18.9793 42.235C19.0782 42.0016 19.1233 41.7489 19.1111 41.4957C19.1213 41.258 19.0778 41.0211 18.9837 40.8026C18.8897 40.5841 18.7476 40.3896 18.568 40.2336C18.2059 39.923 17.6545 39.7678 16.9139 39.7678H16.7504C16.5728 39.7678 16.4024 39.8383 16.2768 39.9639C16.1512 40.0895 16.0807 40.2599 16.0807 40.4375V42.6699C16.0807 42.8469 16.1507 43.0168 16.2756 43.1423C16.4004 43.2677 16.5699 43.3387 16.7469 43.3396ZM19.475 46.857C18.9277 46.434 18.0184 46.2225 16.7469 46.2225C16.5694 46.2229 16.3993 46.2936 16.2738 46.4191C16.1483 46.5446 16.0776 46.7147 16.0771 46.8922V49.8945C16.0776 50.072 16.1483 50.2421 16.2738 50.3676C16.3993 50.4931 16.5694 50.5638 16.7469 50.5643H16.8857C18.2264 50.5643 19.1299 50.3955 19.5963 50.058C19.8272 49.89 20.0125 49.6669 20.1353 49.409C20.2581 49.1511 20.3145 48.8667 20.2994 48.5814C20.3111 48.2489 20.2422 47.9184 20.0987 47.6181C19.9551 47.3179 19.7412 47.0568 19.475 46.857ZM76.0484 68.8895C75.909 68.6472 75.8714 68.3595 75.9439 68.0896C76.0164 67.8197 76.1931 67.5895 76.4352 67.4498L79.4727 65.692C79.7746 65.5186 80.0195 65.2612 80.1775 64.9509C80.3356 64.6407 80.3999 64.2912 80.3626 63.9451C80.3253 63.5989 80.1881 63.2711 79.9676 63.0017C79.7471 62.7323 79.453 62.5328 79.1211 62.4277L64.8986 57.9207C64.661 57.8453 64.4103 57.8202 64.1624 57.8472C63.9146 57.8741 63.675 57.9524 63.4592 58.0772C63.2433 58.2019 63.0558 58.3703 62.9087 58.5715C62.7616 58.7728 62.658 59.0026 62.6047 59.2461L59.3949 73.8166C59.3216 74.1561 59.3484 74.5097 59.4721 74.8343C59.5957 75.1589 59.8109 75.4407 60.0916 75.6454C60.3722 75.8501 60.7062 75.969 61.0531 75.9876C61.4 76.0062 61.7448 75.9237 62.0457 75.7502L65.0832 73.9924C65.2436 73.9001 65.4255 73.8516 65.6106 73.8518C65.7025 73.8521 65.794 73.8639 65.883 73.8869C66.0171 73.9227 66.1428 73.9846 66.2529 74.0691C66.363 74.1535 66.4553 74.2589 66.5246 74.3791L73.8283 87.0354C74.178 87.6826 74.6539 88.2531 75.2279 88.7132C75.8019 89.1733 76.4623 89.5136 77.1702 89.714C77.878 89.9144 78.6188 89.9708 79.3488 89.8799C80.0788 89.789 80.7831 89.5527 81.4202 89.1848C82.0573 88.817 82.6141 88.3251 83.0577 87.7383C83.5014 87.1515 83.8229 86.4817 84.0032 85.7685C84.1834 85.0553 84.2189 84.3132 84.1074 83.5861C83.9958 82.8589 83.7396 82.1615 83.3539 81.5352L76.0484 68.8895Z" fill="url(#paint2_linear_155_2482)"/>
<defs>
<linearGradient id="paint0_linear_155_2482" x1="34.5271" y1="39.4202" x2="34.5271" y2="50.9498" gradientUnits="userSpaceOnUse">
<stop stop-color="#5DE7FF"/>
<stop offset="1" stop-color="#00A8C5"/>
</linearGradient>
<linearGradient id="paint1_linear_155_2482" x1="45" y1="23" x2="45" y2="67.3285" gradientUnits="userSpaceOnUse">
<stop stop-color="#5DE7FF"/>
<stop offset="1" stop-color="#00A8C5"/>
</linearGradient>
<linearGradient id="paint2_linear_155_2482" x1="50.124" y1="39.4202" x2="50.124" y2="89.9221" gradientUnits="userSpaceOnUse">
<stop stop-color="#5DE7FF"/>
<stop offset="1" stop-color="#00A8C5"/>
</linearGradient>
</defs>
</svg>
