<svg width="57" height="81" viewBox="0 0 57 81" fill="none" xmlns="http://www.w3.org/2000/svg">
<path fill-rule="evenodd" clip-rule="evenodd" d="M33.4626 0.611989C39.5306 1.62277 44.9707 4.62726 49.4298 9.43029C59.7898 20.5892 59.4792 37.8474 48.7269 48.5148C46.8348 50.3919 43.8888 52.6726 42.1805 53.5827L39.0746 55.2378L33.9503 67.9351C31.1321 74.9182 28.6442 80.4455 28.4211 80.2178C28.1985 79.9907 25.8799 74.5774 23.2694 68.189C20.6588 61.8006 18.3143 56.184 18.0591 55.7075C17.8039 55.231 16.4875 54.3049 15.1344 53.6498C11.9725 52.1197 5.30193 45.4768 3.46372 42.0289C1.67935 38.6811 -0.0113297 32.1962 5.72205e-05 28.7436C0.0601082 11.2831 16.178 -2.26756 33.4626 0.611989ZM32.5805 8.3534C38.7464 9.5588 44.0591 13.6928 46.9575 19.5407C48.8252 23.3097 48.9101 23.7072 48.9101 28.6811C48.9101 33.5198 48.7916 34.1217 47.2034 37.3384C45.0292 41.7429 41.5402 45.2187 37.2643 47.2392C34.1687 48.7022 33.4606 48.8303 28.4625 48.8303C23.6866 48.8303 22.6818 48.6677 20.18 47.4896C13.9691 44.5646 9.4753 38.7131 8.21894 31.9128C6.23009 21.1488 13.9184 10.4106 25.0874 8.35135C28.5273 7.71741 29.327 7.7174 32.5805 8.3534Z" fill="#4CD9ED"/>
<path d="M25.3253 32.725L38.0378 20.0125C38.3378 19.7125 38.6878 19.5625 39.0878 19.5625C39.4878 19.5625 39.8378 19.7125 40.1378 20.0125C40.4378 20.3125 40.5878 20.669 40.5878 21.082C40.5878 21.495 40.4378 21.851 40.1378 22.15L26.3753 35.95C26.0753 36.25 25.7253 36.4 25.3253 36.4C24.9253 36.4 24.5753 36.25 24.2753 35.95L17.8253 29.5C17.5253 29.2 17.3813 28.844 17.3933 28.432C17.4053 28.02 17.5618 27.6635 17.8628 27.3625C18.1638 27.0615 18.5203 26.9115 18.9323 26.9125C19.3443 26.9135 19.7003 27.0635 20.0003 27.3625L25.3253 32.725Z" fill="#4CD9ED"/>
</svg>
