<svg width="90" height="90" viewBox="0 0 90 90" fill="none" xmlns="http://www.w3.org/2000/svg">
<g clip-path="url(#clip0_155_2578)">
<path d="M51.6732 34.1158C52.4009 31.7021 52.9102 29.1939 52.9102 26.543C52.9102 11.9809 41.105 0 26.543 0C11.9809 0 0 11.9809 0 26.543C0 41.105 11.9809 52.9102 26.543 52.9102C29.1939 52.9102 31.7021 52.4009 34.1158 51.6732C37.3312 43.6968 43.6968 37.3312 51.6732 34.1158ZM34.4531 23.9062C35.9105 23.9062 37.0898 25.0856 37.0898 26.543V31.8164C37.0898 36.1782 33.5415 39.7266 29.1797 39.7266V42.3633C29.1797 43.8207 28.0004 45 26.543 45C25.0856 45 23.9062 43.8207 23.9062 42.3633V39.7266H18.6328C17.1754 39.7266 15.9961 38.5472 15.9961 37.0898C15.9961 35.6324 17.1754 34.4531 18.6328 34.4531H29.1797C30.6345 34.4531 31.8164 33.2712 31.8164 31.8164V29.1797H18.6328C17.1754 29.1797 15.9961 28.0004 15.9961 26.543V21.2695C15.9961 16.9077 19.5444 13.3594 23.9062 13.3594V10.7227C23.9062 9.26525 25.0856 8.08594 26.543 8.08594C28.0004 8.08594 29.1797 9.26525 29.1797 10.7227V13.3594H34.4531C35.9105 13.3594 37.0898 14.5387 37.0898 15.9961C37.0898 17.4535 35.9105 18.6328 34.4531 18.6328H23.9062C22.4515 18.6328 21.2695 19.8148 21.2695 21.2695V23.9062H34.4531ZM68.7305 55.5469H60.8203V60.8203H68.7305C70.1852 60.8203 71.3672 59.6384 71.3672 58.1836C71.3672 56.7288 70.1852 55.5469 68.7305 55.5469ZM68.7305 66.0938H60.8203V71.3672H68.7305C70.1852 71.3672 71.3672 70.1852 71.3672 68.7305C71.3672 67.2757 70.1852 66.0938 68.7305 66.0938Z" fill="url(#paint0_linear_155_2578)"/>
<path d="M63.4569 37.0898C48.8948 37.0898 37.0897 48.895 37.0897 63.457C37.0897 78.0191 48.8948 90 63.4569 90C78.019 90 89.9999 78.0191 89.9999 63.457C89.9999 48.895 78.019 37.0898 63.4569 37.0898ZM76.6405 68.7305C76.6405 72.1635 74.4295 75.0628 71.3671 76.1549V79.2773C71.3671 80.7347 70.1877 81.9141 68.7303 81.9141C67.2729 81.9141 66.0936 80.7347 66.0936 79.2773V76.6406H60.8202V79.2773C60.8202 80.7347 59.6409 81.9141 58.1835 81.9141C56.7261 81.9141 55.5467 80.7347 55.5467 79.2773V76.6406H52.91C51.4526 76.6406 50.2733 75.4613 50.2733 74.0039C50.2733 72.5465 51.4526 71.3672 52.91 71.3672H55.5467V55.5469H52.91C51.4526 55.5469 50.2733 54.3676 50.2733 52.9102C50.2733 51.4528 51.4526 50.2734 52.91 50.2734H55.5467V47.6367C55.5467 46.1793 56.7261 45 58.1835 45C59.6409 45 60.8202 46.1793 60.8202 47.6367V50.2734H66.0936V47.6367C66.0936 46.1793 67.2729 45 68.7303 45C70.1877 45 71.3671 46.1793 71.3671 47.6367V50.7591C74.4295 51.8512 76.6405 54.7506 76.6405 58.1836C76.6405 60.2169 75.8481 62.0543 74.5831 63.457C75.8481 64.8598 76.6405 66.6972 76.6405 68.7305ZM23.9061 79.2773H18.6327C17.1779 79.2773 15.996 78.0954 15.996 76.6406V72.459L16.7685 73.2315C17.7984 74.2614 19.4671 74.2614 20.497 73.2315C21.5269 72.2016 21.5269 70.5329 20.497 69.503L15.2236 64.2296C14.1937 63.1997 12.525 63.1997 11.4951 64.2296L6.22165 69.503C5.19174 70.5329 5.19174 72.2016 6.22165 73.2315C7.25155 74.2614 8.92024 74.2614 9.95014 73.2315L10.7225 72.459V76.6406C10.7225 81.0025 14.2708 84.5508 18.6327 84.5508H23.9061C25.3635 84.5508 26.5428 83.3715 26.5428 81.9141C26.5428 80.4567 25.3635 79.2773 23.9061 79.2773ZM71.3671 5.44922H66.0936C64.6362 5.44922 63.4569 6.62854 63.4569 8.08594C63.4569 9.54334 64.6362 10.7227 66.0936 10.7227H71.3671C72.8218 10.7227 74.0038 11.9046 74.0038 13.3594V17.541L73.2312 16.7685C72.2013 15.7386 70.5326 15.7386 69.5027 16.7685C68.4728 17.7984 68.4728 19.4671 69.5027 20.497L74.7762 25.7704C75.2912 26.2854 75.9658 26.543 76.6403 26.543C77.3148 26.543 77.9896 26.2854 78.5045 25.7704L83.7779 20.497C84.8078 19.4671 84.8078 17.7984 83.7779 16.7685C82.748 15.7386 81.0793 15.7386 80.0494 16.7685L79.2772 17.541V13.3594C79.2772 8.99754 75.7289 5.44922 71.3671 5.44922Z" fill="url(#paint1_linear_155_2578)"/>
</g>
<defs>
<linearGradient id="paint0_linear_155_2578" x1="35.6836" y1="0" x2="35.6836" y2="71.3672" gradientUnits="userSpaceOnUse">
<stop stop-color="#5DE7FF"/>
<stop offset="1" stop-color="#00A8C5"/>
</linearGradient>
<linearGradient id="paint1_linear_155_2578" x1="47.7245" y1="5.44922" x2="47.7245" y2="90" gradientUnits="userSpaceOnUse">
<stop stop-color="#5DE7FF"/>
<stop offset="1" stop-color="#00A8C5"/>
</linearGradient>
<clipPath id="clip0_155_2578">
<rect width="90" height="90" fill="white"/>
</clipPath>
</defs>
</svg>
