<svg width="90" height="90" viewBox="0 0 90 90" fill="none" xmlns="http://www.w3.org/2000/svg">
<path d="M35.9814 28.125H39.0189L37.5002 24.0938L35.9814 28.125Z" fill="url(#paint0_linear_155_2596)"/>
<path d="M46.875 63.75C46.875 58.2799 49.048 53.0339 52.9159 49.1659C56.7839 45.298 62.0299 43.125 67.5 43.125V9.375C67.5 7.38588 68.2902 5.47822 69.6967 4.0717C71.1032 2.66518 73.0109 1.875 75 1.875H13.125C11.1359 1.875 9.22822 2.66518 7.8217 4.0717C6.41518 5.47822 5.625 7.38588 5.625 9.375V88.125H67.5V84.375C62.0299 84.375 56.7839 82.202 52.9159 78.3341C49.048 74.4661 46.875 69.2201 46.875 63.75ZM47.0813 19.5938C46.8993 19.1567 46.8893 18.667 47.0535 18.2229C47.2176 17.7788 47.5436 17.4133 47.9661 17.1997C48.3886 16.9861 48.8763 16.9402 49.3312 17.0712C49.7861 17.2023 50.1747 17.5006 50.4187 17.9062L52.5 22.05L54.5813 17.9062C54.8253 17.5006 55.2139 17.2023 55.6688 17.0712C56.1237 16.9402 56.6114 16.9861 57.0339 17.1997C57.4564 17.4133 57.7824 17.7788 57.9465 18.2229C58.1107 18.667 58.1007 19.1567 57.9187 19.5938L54.6 26.25L57.9187 32.9062C58.0626 33.1917 58.1311 33.5091 58.1177 33.8285C58.1043 34.1478 58.0095 34.4584 57.8423 34.7308C57.6751 35.0032 57.4411 35.2284 57.1624 35.3849C56.8837 35.5414 56.5696 35.624 56.25 35.625C54.7687 35.625 54.6375 34.725 52.5 30.45C50.2875 34.8937 50.2125 35.625 48.75 35.625C48.4304 35.624 48.1163 35.5414 47.8376 35.3849C47.5589 35.2284 47.3249 35.0032 47.1577 34.7308C46.9905 34.4584 46.8957 34.1478 46.8823 33.8285C46.8689 33.5091 46.9374 33.1917 47.0813 32.9062L50.4 26.25L47.0813 19.5938ZM16.875 16.875H28.125C28.6223 16.875 29.0992 17.0725 29.4508 17.4242C29.8025 17.7758 30 18.2527 30 18.75C30 19.2473 29.8025 19.7242 29.4508 20.0758C29.0992 20.4275 28.6223 20.625 28.125 20.625H24.375V33.75C24.375 34.2473 24.1775 34.7242 23.8258 35.0758C23.4742 35.4275 22.9973 35.625 22.5 35.625C22.0027 35.625 21.5258 35.4275 21.1742 35.0758C20.8225 34.7242 20.625 34.2473 20.625 33.75V20.625H16.875C16.3777 20.625 15.9008 20.4275 15.5492 20.0758C15.1975 19.7242 15 19.2473 15 18.75C15 18.2527 15.1975 17.7758 15.5492 17.4242C15.9008 17.0725 16.3777 16.875 16.875 16.875ZM15 46.875H30C30.4973 46.875 30.9742 47.0725 31.3258 47.4242C31.6775 47.7758 31.875 48.2527 31.875 48.75C31.875 49.2473 31.6775 49.7242 31.3258 50.0758C30.9742 50.4275 30.4973 50.625 30 50.625H15C14.5027 50.625 14.0258 50.4275 13.6742 50.0758C13.3225 49.7242 13.125 49.2473 13.125 48.75C13.125 48.2527 13.3225 47.7758 13.6742 47.4242C14.0258 47.0725 14.5027 46.875 15 46.875ZM41.25 78.75H15C14.5027 78.75 14.0258 78.5525 13.6742 78.2008C13.3225 77.8492 13.125 77.3723 13.125 76.875C13.125 76.3777 13.3225 75.9008 13.6742 75.5492C14.0258 75.1975 14.5027 75 15 75H41.25C41.7473 75 42.2242 75.1975 42.5758 75.5492C42.9275 75.9008 43.125 76.3777 43.125 76.875C43.125 77.3723 42.9275 77.8492 42.5758 78.2008C42.2242 78.5525 41.7473 78.75 41.25 78.75ZM41.25 69.375H15C14.5027 69.375 14.0258 69.1775 13.6742 68.8258C13.3225 68.4742 13.125 67.9973 13.125 67.5C13.125 67.0027 13.3225 66.5258 13.6742 66.1742C14.0258 65.8225 14.5027 65.625 15 65.625H41.25C41.7473 65.625 42.2242 65.8225 42.5758 66.1742C42.9275 66.5258 43.125 67.0027 43.125 67.5C43.125 67.9973 42.9275 68.4742 42.5758 68.8258C42.2242 69.1775 41.7473 69.375 41.25 69.375ZM41.25 60H15C14.5027 60 14.0258 59.8025 13.6742 59.4508C13.3225 59.0992 13.125 58.6223 13.125 58.125C13.125 57.6277 13.3225 57.1508 13.6742 56.7992C14.0258 56.4475 14.5027 56.25 15 56.25H41.25C41.7473 56.25 42.2242 56.4475 42.5758 56.7992C42.9275 57.1508 43.125 57.6277 43.125 58.125C43.125 58.6223 42.9275 59.0992 42.5758 59.4508C42.2242 59.8025 41.7473 60 41.25 60ZM41.3625 34.4062L40.425 31.875H34.575L33.6375 34.4062C33.4635 34.8737 33.1108 35.2529 32.6572 35.4603C32.2036 35.6678 31.6862 35.6866 31.2188 35.5125C30.7513 35.3385 30.3721 34.9858 30.1647 34.5322C29.9572 34.0786 29.9384 33.5612 30.1125 33.0938L35.7375 18.0938C35.8689 17.7318 36.1085 17.419 36.4239 17.198C36.7392 16.977 37.1149 16.8585 37.5 16.8585C37.8851 16.8585 38.2608 16.977 38.5761 17.198C38.8915 17.419 39.1311 17.7318 39.2625 18.0938L44.8875 33.0938C45.0616 33.5612 45.0428 34.0786 44.8353 34.5322C44.6279 34.9858 44.2487 35.3385 43.7812 35.5125C43.3138 35.6866 42.7964 35.6678 42.3428 35.4603C41.8892 35.2529 41.5365 34.8737 41.3625 34.4062Z" fill="url(#paint1_linear_155_2596)"/>
<path d="M71.25 11.25V16.875H82.5V11.25C82.5 9.75816 81.9074 8.32742 80.8525 7.27252C79.7976 6.21763 78.3669 5.625 76.875 5.625C75.3832 5.625 73.9524 6.21763 72.8975 7.27252C71.8426 8.32742 71.25 9.75816 71.25 11.25ZM67.5 46.875C64.1624 46.875 60.8998 47.8647 58.1248 49.7189C55.3497 51.5732 53.1868 54.2087 51.9095 57.2922C50.6323 60.3757 50.2981 63.7687 50.9493 67.0422C51.6004 70.3156 53.2076 73.3224 55.5676 75.6824C57.9276 78.0424 60.9344 79.6496 64.2079 80.3008C67.4813 80.9519 70.8743 80.6177 73.9578 79.3405C77.0413 78.0632 79.6768 75.9003 81.5311 73.1253C83.3853 70.3502 84.375 67.0876 84.375 63.75C84.375 59.2745 82.5971 54.9823 79.4324 51.8176C76.2678 48.6529 71.9755 46.875 67.5 46.875ZM75.45 69.0563C75.7133 69.3174 75.8932 69.6507 75.9671 70.0141C76.0409 70.3775 76.0054 70.7547 75.8649 71.0979C75.7244 71.441 75.4853 71.7349 75.1778 71.9422C74.8704 72.1495 74.5083 72.2609 74.1375 72.2625C73.0875 72.2625 73.275 72.2625 67.5 66.3937C61.7438 72.15 61.875 72.2625 60.8625 72.2625C60.4917 72.2609 60.1296 72.1495 59.8222 71.9422C59.5147 71.7349 59.2756 71.441 59.1351 71.0979C58.9946 70.7547 58.9591 70.3775 59.0329 70.0141C59.1068 69.6507 59.2867 69.3174 59.55 69.0563L64.8563 63.75L59.55 58.4437C59.2428 58.0851 59.0823 57.6237 59.1005 57.1518C59.1188 56.6799 59.3144 56.2322 59.6483 55.8983C59.9823 55.5644 60.4299 55.3688 60.9018 55.3505C61.3737 55.3323 61.8351 55.4928 62.1938 55.8L67.5 61.1063L72.8063 55.8C73.165 55.4928 73.6263 55.3323 74.0982 55.3505C74.5701 55.3688 75.0178 55.5644 75.3517 55.8983C75.6856 56.2322 75.8812 56.6799 75.8995 57.1518C75.9177 57.6237 75.7572 58.0851 75.45 58.4437L70.1438 63.75L75.45 69.0563Z" fill="url(#paint2_linear_155_2596)"/>
<defs>
<linearGradient id="paint0_linear_155_2596" x1="37.5002" y1="24.0938" x2="37.5002" y2="28.125" gradientUnits="userSpaceOnUse">
<stop stop-color="#5DE7FF"/>
<stop offset="1" stop-color="#00A8C5"/>
</linearGradient>
<linearGradient id="paint1_linear_155_2596" x1="40.3125" y1="1.875" x2="40.3125" y2="88.125" gradientUnits="userSpaceOnUse">
<stop stop-color="#5DE7FF"/>
<stop offset="1" stop-color="#00A8C5"/>
</linearGradient>
<linearGradient id="paint2_linear_155_2596" x1="67.5" y1="5.625" x2="67.5" y2="80.625" gradientUnits="userSpaceOnUse">
<stop stop-color="#5DE7FF"/>
<stop offset="1" stop-color="#00A8C5"/>
</linearGradient>
</defs>
</svg>
