<svg width="86" height="86" viewBox="0 0 86 86" fill="none" xmlns="http://www.w3.org/2000/svg">
<path d="M0.812504 34.5625C0.811579 33.8236 0.956442 33.0917 1.2388 32.4088C1.52115 31.7259 1.93545 31.1055 2.45796 30.583C2.98048 30.0604 3.60094 29.6461 4.28382 29.3638C4.96669 29.0814 5.69856 28.9366 6.4375 28.9375H8.84219C8.18025 31.2226 7.84412 33.5897 7.84375 35.9688C7.84434 37.3829 7.96666 38.7943 8.20938 40.1875H6.4375C5.69877 40.1877 4.96723 40.0423 4.28469 39.7597C3.60215 39.4771 2.98198 39.0628 2.45962 38.5404C1.93725 38.018 1.52292 37.3979 1.24031 36.7153C0.957688 36.0328 0.81232 35.3012 0.812504 34.5625ZM65.5 40.1875V34.5625C65.5002 33.8238 65.3548 33.0922 65.0722 32.4097C64.7896 31.7271 64.3753 31.107 63.8529 30.5846C63.3305 30.0622 62.7104 29.6479 62.0278 29.3653C61.3453 29.0827 60.6137 28.9373 59.875 28.9375H57.4703C58.1323 31.2226 58.4684 33.5897 58.4688 35.9688C58.4682 37.3829 58.3458 38.7943 58.1031 40.1875H65.5ZM46.5719 40.1875C47.0029 38.8228 47.2211 37.3999 47.2188 35.9688C47.2188 32.2391 45.7372 28.6623 43.0999 26.0251C40.4627 23.3878 36.8859 21.9062 33.1563 21.9062C29.4266 21.9062 25.8498 23.3878 23.2126 26.0251C20.5753 28.6623 19.0938 32.2391 19.0938 35.9688C19.0914 37.3999 19.3096 38.8228 19.7406 40.1875H35.8422C35.9273 39.9629 35.9702 39.7245 35.9688 39.4844C35.9691 39.2073 35.9148 38.9328 35.8089 38.6767C35.7031 38.4206 35.5477 38.1879 35.3518 37.992C35.1558 37.7961 34.9231 37.6407 34.667 37.5348C34.411 37.4289 34.1365 37.3746 33.8594 37.375H32.4531C31.2114 37.3749 30.0159 36.9046 29.1069 36.0587C28.198 35.2127 27.6431 34.0539 27.554 32.8154C27.4649 31.577 27.8482 30.3507 28.6267 29.3833C29.4052 28.416 30.5211 27.7794 31.75 27.6016V26.125C31.75 25.752 31.8982 25.3944 32.1619 25.1306C32.4256 24.8669 32.7833 24.7188 33.1563 24.7188C33.5292 24.7188 33.8869 24.8669 34.1506 25.1306C34.4143 25.3944 34.5625 25.752 34.5625 26.125V27.5312H37.375C37.748 27.5312 38.1057 27.6794 38.3694 27.9431C38.6331 28.2069 38.7813 28.5645 38.7813 28.9375C38.7813 29.3105 38.6331 29.6681 38.3694 29.9319C38.1057 30.1956 37.748 30.3438 37.375 30.3438H32.4531C31.8937 30.3438 31.3572 30.566 30.9616 30.9616C30.566 31.3572 30.3438 31.8937 30.3438 32.4531C30.3438 33.0126 30.566 33.5491 30.9616 33.9447C31.3572 34.3403 31.8937 34.5625 32.4531 34.5625H33.8594C35.1643 34.564 36.4153 35.083 37.338 36.0057C38.2607 36.9284 38.7798 38.1795 38.7813 39.4844C38.7841 39.72 38.7652 39.9553 38.725 40.1875H46.5719ZM16.8156 40.1875C16.1728 37.6941 16.109 35.0867 16.6293 32.5649C17.1496 30.043 18.24 27.6737 19.8172 25.6384C21.3944 23.603 23.4164 21.9555 25.7285 20.8221C28.0406 19.6887 30.5813 19.0995 33.1563 19.0995C35.7312 19.0995 38.272 19.6887 40.584 20.8221C42.8961 21.9555 44.9181 23.603 46.4953 25.6384C48.0725 27.6737 49.1629 30.043 49.6832 32.5649C50.2035 35.0867 50.1397 37.6941 49.4969 40.1875H55.2484C55.5205 38.7977 55.657 37.3849 55.6563 35.9688C55.6563 30.0014 53.2857 24.2784 49.0662 20.0588C44.8466 15.8393 39.1236 13.4688 33.1563 13.4688C27.1889 13.4688 21.4659 15.8393 17.2464 20.0588C13.0268 24.2784 10.6563 30.0014 10.6563 35.9688C10.6555 37.3849 10.792 38.7977 11.0641 40.1875H16.8156ZM51.4375 64.0938C51.4394 61.8566 52.3289 59.7115 53.9109 58.1296C55.4928 56.5477 57.6378 55.6581 59.875 55.6562H71.125V50.0312C71.1243 48.1667 70.3832 46.3787 69.0648 45.0602C67.7463 43.7418 65.9583 43.0007 64.0938 43H6.4375C4.35808 43.0047 2.35191 42.2323 0.812504 40.8344V78.1562C0.81325 80.0208 1.55428 81.8088 2.87273 83.1273C4.19119 84.4457 5.97918 85.1868 7.84375 85.1875H64.0938C65.9583 85.1868 67.7463 84.4457 69.0648 83.1273C70.3832 81.8088 71.1243 80.0208 71.125 78.1562V72.5312H59.875C57.6378 72.5294 55.4928 71.6398 53.9109 70.0579C52.3289 68.476 51.4394 66.3309 51.4375 64.0938ZM72.5313 58.4688H59.875C58.3832 58.4688 56.9524 59.0614 55.8975 60.1163C54.8426 61.1712 54.25 62.6019 54.25 64.0938C54.25 65.5856 54.8426 67.0163 55.8975 68.0712C56.9524 69.1261 58.3832 69.7188 59.875 69.7188H72.5313C72.9042 69.7188 73.2619 69.5706 73.5256 69.3069C73.7893 69.0431 73.9375 68.6855 73.9375 68.3125V59.875C73.9375 59.502 73.7893 59.1444 73.5256 58.8806C73.2619 58.6169 72.9042 58.4688 72.5313 58.4688ZM85.0511 14.2731C84.9374 14.0325 84.7576 13.8292 84.5328 13.6868C84.308 13.5444 84.0474 13.4688 83.7813 13.4688H78.1563V2.21875C78.1563 1.84579 78.0081 1.4881 77.7444 1.22438C77.4807 0.960658 77.123 0.8125 76.75 0.8125H65.5C65.127 0.8125 64.7694 0.960658 64.5056 1.22438C64.2419 1.4881 64.0938 1.84579 64.0938 2.21875V13.4688H58.4688C58.2026 13.4688 57.9419 13.5444 57.717 13.6867C57.4921 13.829 57.3122 14.0322 57.1982 14.2727C57.0842 14.5132 57.0408 14.7811 57.0731 15.0453C57.1053 15.3095 57.2118 15.5591 57.3803 15.7652L70.0366 31.2339C70.1686 31.3949 70.3347 31.5246 70.5229 31.6137C70.7112 31.7027 70.9168 31.7489 71.125 31.7489C71.3332 31.7489 71.5389 31.7027 71.7271 31.6137C71.9153 31.5246 72.0814 31.3949 72.2134 31.2339L84.8697 15.7652C85.0382 15.5592 85.1448 15.3097 85.1772 15.0456C85.2095 14.7815 85.1649 14.5136 85.0511 14.2731ZM33.1563 10.6562C33.5292 10.6562 33.8869 10.5081 34.1506 10.2444C34.4143 9.98065 34.5625 9.62296 34.5625 9.25V2.21875C34.5625 1.84579 34.4143 1.4881 34.1506 1.22438C33.8869 0.960658 33.5292 0.8125 33.1563 0.8125C32.7833 0.8125 32.4256 0.960658 32.1619 1.22438C31.8982 1.4881 31.75 1.84579 31.75 2.21875V9.25C31.75 9.62296 31.8982 9.98065 32.1619 10.2444C32.4256 10.5081 32.7833 10.6562 33.1563 10.6562ZM19.0938 13.4688C19.4667 13.4688 19.8244 13.3206 20.0881 13.0569C20.3518 12.7931 20.5 12.4355 20.5 12.0625V5.03125C20.5 4.65829 20.3518 4.3006 20.0881 4.03688C19.8244 3.77316 19.4667 3.625 19.0938 3.625C18.7208 3.625 18.3631 3.77316 18.0994 4.03688C17.8357 4.3006 17.6875 4.65829 17.6875 5.03125V12.0625C17.6875 12.4355 17.8357 12.7931 18.0994 13.0569C18.3631 13.3206 18.7208 13.4688 19.0938 13.4688ZM47.2188 13.4688C47.5917 13.4688 47.9494 13.3206 48.2131 13.0569C48.4768 12.7931 48.625 12.4355 48.625 12.0625V5.03125C48.625 4.65829 48.4768 4.3006 48.2131 4.03688C47.9494 3.77316 47.5917 3.625 47.2188 3.625C46.8458 3.625 46.4881 3.77316 46.2244 4.03688C45.9607 4.3006 45.8125 4.65829 45.8125 5.03125V12.0625C45.8125 12.4355 45.9607 12.7931 46.2244 13.0569C46.4881 13.3206 46.8458 13.4688 47.2188 13.4688Z" fill="url(#paint0_linear_849_3218)"/>
<defs>
<linearGradient id="paint0_linear_849_3218" x1="43.0001" y1="0.8125" x2="43.0001" y2="85.1875" gradientUnits="userSpaceOnUse">
<stop stop-color="#5DE7FF"/>
<stop offset="1" stop-color="#00A8C5"/>
</linearGradient>
</defs>
</svg>
