<svg width="90" height="90" viewBox="0 0 90 90" fill="none" xmlns="http://www.w3.org/2000/svg">
<path fill-rule="evenodd" clip-rule="evenodd" d="M23.0065 23.4938L21.619 22.1063C20.7003 21.1875 19.4628 20.6625 18.1503 20.6625C16.8378 20.6625 15.619 21.1875 14.7003 22.1063C13.3503 23.4563 11.5878 25.2188 10.2003 26.625C8.77527 28.05 7.65027 30.7313 7.50027 34.4063C7.21902 41.8688 10.8565 53.8688 23.4565 66.4875C36.0565 79.125 48.019 82.7813 55.4628 82.4813C59.119 82.3313 61.8003 81.2063 63.2253 79.7813C64.6128 78.3938 66.3753 76.6313 67.7253 75.2625C68.644 74.3438 69.1503 73.1063 69.1503 71.7938C69.1503 70.4813 68.6253 69.2438 67.7253 68.325L66.5253 67.125C76.0503 61.5938 82.4815 51.2625 82.4815 39.4313C82.4815 21.7875 68.194 7.46252 50.6065 7.46252C38.8128 7.46252 28.5003 13.8938 22.9878 23.4563L23.0065 23.4938ZM63.7878 64.3875C72.6753 59.6438 78.7503 50.25 78.7503 39.4688C78.7503 23.9063 66.1503 11.25 50.6253 11.25C39.8628 11.25 30.4878 17.325 25.7628 26.25L29.2878 29.7938C30.2065 30.7125 30.7128 31.95 30.7128 33.2625C30.7128 34.575 30.1878 35.8125 29.2878 36.7313L26.3628 39.675C25.7253 41.2125 22.7628 49.8563 31.4253 58.5375C40.069 67.2188 48.694 64.2375 50.2315 63.6L53.1565 60.675C54.0753 59.7563 55.3128 59.2313 56.6253 59.2313C57.9378 59.2313 59.1565 59.7375 60.0753 60.675L63.7878 64.4063V64.3875ZM65.6253 48.7313C65.6253 46.6688 63.9378 44.9813 61.8753 44.9813H39.3753C37.3128 44.9813 35.6253 46.6688 35.6253 48.7313V50.6063C35.6253 52.6688 37.3128 54.3563 39.3753 54.3563H61.8753C63.9378 54.3563 65.6253 52.6688 65.6253 50.6063V48.7313ZM61.8753 35.625C61.8753 29.4188 56.8315 24.375 50.6253 24.375C44.419 24.375 39.3753 29.4188 39.3753 35.625V41.2313H61.8753V35.625ZM45.919 28.3688C43.8565 29.625 42.9565 31.4625 43.144 33.8813C43.1813 34.3761 43.4136 34.8358 43.7899 35.1593C44.1661 35.4828 44.6555 35.6436 45.1503 35.6063C45.6451 35.569 46.1048 35.3367 46.4283 34.9604C46.7518 34.5842 46.9126 34.0948 46.8753 33.6C46.8003 32.7188 47.1003 32.0438 47.8503 31.575C48.7315 31.0313 49.0128 29.8875 48.469 29.0063C47.9253 28.125 46.7815 27.8438 45.9003 28.3875L45.919 28.3688ZM64.294 23.0625L62.419 24.9375C62.2454 25.1111 62.1077 25.3172 62.0138 25.544C61.9198 25.7708 61.8715 26.0139 61.8715 26.2594C61.8715 26.5049 61.9198 26.748 62.0138 26.9748C62.1077 27.2016 62.2454 27.4077 62.419 27.5813C62.5926 27.7549 62.7987 27.8926 63.0255 27.9865C63.2523 28.0805 63.4954 28.1288 63.7409 28.1288C63.9864 28.1288 64.2295 28.0805 64.4563 27.9865C64.6831 27.8926 64.8892 27.7549 65.0628 27.5813L66.9378 25.7063C67.1114 25.5327 67.2491 25.3266 67.343 25.0998C67.437 24.873 67.4853 24.6299 67.4853 24.3844C67.4853 24.1389 67.437 23.8958 67.343 23.669C67.2491 23.4422 67.1114 23.2361 66.9378 23.0625C66.7642 22.8889 66.5581 22.7512 66.3313 22.6573C66.1045 22.5633 65.8614 22.515 65.6159 22.515C65.3704 22.515 65.1273 22.5633 64.9005 22.6573C64.6737 22.7512 64.4676 22.8889 64.294 23.0625ZM34.294 25.7063L36.169 27.5813C36.3426 27.7549 36.5487 27.8926 36.7755 27.9865C37.0023 28.0805 37.2454 28.1288 37.4909 28.1288C37.7364 28.1288 37.9795 28.0805 38.2063 27.9865C38.4331 27.8926 38.6392 27.7549 38.8128 27.5813C38.9864 27.4077 39.1241 27.2016 39.218 26.9748C39.312 26.748 39.3603 26.5049 39.3603 26.2594C39.3603 26.0139 39.312 25.7708 39.218 25.544C39.1241 25.3172 38.9864 25.1111 38.8128 24.9375L36.9378 23.0625C36.7642 22.8889 36.5581 22.7512 36.3313 22.6573C36.1045 22.5633 35.8614 22.515 35.6159 22.515C35.3704 22.515 35.1273 22.5633 34.9005 22.6573C34.6737 22.7512 34.4676 22.8889 34.294 23.0625C34.1204 23.2361 33.9827 23.4422 33.8888 23.669C33.7948 23.8958 33.7465 24.1389 33.7465 24.3844C33.7465 24.6299 33.7948 24.873 33.8888 25.0998C33.9827 25.3266 34.1204 25.5327 34.294 25.7063ZM48.7503 18.75V20.6063C48.7503 21.6375 49.594 22.4813 50.6253 22.4813C51.6565 22.4813 52.5003 21.6375 52.5003 20.6063V18.75C52.5003 17.7188 51.6565 16.875 50.6253 16.875C49.594 16.875 48.7503 17.7188 48.7503 18.75Z" fill="url(#paint0_linear_155_2696)"/>
<defs>
<linearGradient id="paint0_linear_155_2696" x1="44.9834" y1="7.46252" x2="44.9834" y2="82.4981" gradientUnits="userSpaceOnUse">
<stop stop-color="#5DE7FF"/>
<stop offset="1" stop-color="#00A8C5"/>
</linearGradient>
</defs>
</svg>
