<svg width="28" height="27" viewBox="0 0 28 27" fill="none" xmlns="http://www.w3.org/2000/svg">
<path d="M1.03831 0.997822C3.10885 3.95197 4.38811 5.75876 6.9598 9.41188C8.54239 11.6539 10.0986 13.8695 10.4283 14.3311C10.7448 14.7795 10.9822 15.2279 10.9426 15.3202C10.9031 15.3993 9.7557 16.7577 8.38413 18.3139C7.02574 19.8833 4.90245 22.3099 3.67594 23.7211C2.44944 25.1322 1.32845 26.4246 1.18338 26.5829L0.919613 26.8862H2.09336H3.26711L5.24534 24.6179C6.33996 23.365 8.25225 21.1626 9.50512 19.6987C10.7712 18.248 11.8658 16.9819 11.9581 16.8896C12.09 16.7577 12.4725 17.2193 13.8177 19.1316C14.754 20.4636 16.363 22.7451 17.4048 24.209L19.3039 26.8862H23.4582C25.9772 26.8862 27.5861 26.8335 27.5334 26.7675C27.4938 26.7016 26.2409 24.908 24.7375 22.7715C20.9657 17.4171 19.7787 15.729 18.4995 13.8959C17.8928 13.0254 17.2598 12.1418 17.0883 11.944C16.9169 11.733 16.785 11.522 16.785 11.4692C16.785 11.4033 17.8664 10.1109 19.1984 8.59422C20.5173 7.07758 22.5746 4.7037 23.7616 3.33213C24.9485 1.96056 26.0695 0.681305 26.2541 0.470293L26.597 0.114212H25.3969H24.21L20.1216 4.83558C17.8664 7.43366 15.941 9.62289 15.8355 9.70202C15.6244 9.88666 15.6904 9.96579 11.9713 4.66414C10.758 2.9233 9.51831 1.18246 9.24136 0.799999L8.72702 0.114212H4.57274H0.405273L1.03831 0.997822ZM9.54469 4.29487C10.5074 5.66644 12.5516 8.55465 14.0814 10.7307C15.6113 12.9068 18.5127 17.0083 20.5173 19.8569C22.5219 22.6924 24.1704 25.0531 24.1704 25.0926C24.1704 25.1322 23.2868 25.1718 22.2053 25.1718H20.2403L17.1015 20.7142C15.3739 18.2743 13.1055 15.0564 12.0504 13.5662C10.9954 12.0759 9.59744 10.0845 8.93803 9.14812C8.27862 8.19857 6.86749 6.20716 5.79924 4.7037C4.731 3.20025 3.86058 1.93418 3.86058 1.89462C3.86058 1.85505 4.74419 1.82868 5.82562 1.82868H7.80385L9.54469 4.29487Z" fill="white"/>
</svg>
