<svg width="36" height="27" viewBox="0 0 36 27" fill="none" xmlns="http://www.w3.org/2000/svg">
<path d="M10.9711 0.540739C9.08549 1.03882 6.47056 1.99941 6.04363 2.37297C5.2965 3.03115 3.21523 7.0336 2.34359 9.45286C1.16954 12.7615 0.884918 14.4159 0.795975 18.5429L0.707031 22.3141L2.07676 23.2391C3.65995 24.3064 6.7196 25.8184 8.56962 26.4588L9.83261 26.8857L10.1706 26.441C10.5797 25.8896 11.5403 24.3064 11.6826 23.9506C11.7538 23.7549 11.3802 23.5059 10.3307 23.0078C9.04991 22.403 8.9076 22.2963 9.13885 22.065C9.37011 21.8338 9.49463 21.8516 10.224 22.154C15.1336 24.2708 21.5553 24.2708 26.4472 22.1717C27.0876 21.9049 27.2655 21.8871 27.5323 22.065C27.8169 22.2785 27.6924 22.3674 26.4294 22.9722C25.6645 23.328 24.9886 23.666 24.953 23.7016C24.8818 23.7727 26.0737 25.854 26.5184 26.441L26.8741 26.8857L28.0838 26.4766C29.916 25.8362 32.7622 24.4487 34.4699 23.328L35.9997 22.3318L35.9108 18.7385C35.7685 13.4375 35.0391 10.449 32.8511 6.07301C31.0545 2.49749 30.8588 2.28403 28.6886 1.48354C26.803 0.789782 24.277 0.113811 23.5477 0.113811C23.2275 0.113811 23.0496 0.309486 22.7472 0.949879L22.3736 1.80373H18.3356H14.2976L13.9418 0.949879C13.5149 -0.0462856 13.3548 -0.0818634 10.9711 0.540739ZM13.9418 11.7832C14.2264 11.9255 14.6533 12.3702 14.938 12.7793C15.3471 13.4197 15.4183 13.7043 15.4183 14.7895C15.4183 15.8746 15.3471 16.1592 14.938 16.7996C13.6216 18.7563 10.9177 18.5784 9.86819 16.4438C8.88981 14.5048 9.79704 12.1034 11.7538 11.4808C12.323 11.3029 13.2658 11.4452 13.9418 11.7832ZM25.6467 11.7654C25.9136 11.9077 26.3583 12.3524 26.6429 12.7615C27.0876 13.4197 27.1588 13.6688 27.1588 14.7717C27.1588 16.2125 26.7674 16.9952 25.6823 17.7424C24.953 18.2405 23.69 18.2938 22.8361 17.8313C20.9861 16.8707 20.6481 13.5798 22.2669 12.1212C23.103 11.3562 24.5616 11.1961 25.6467 11.7654Z" fill="white"/>
</svg>
