<svg width="32" height="31" viewBox="0 0 32 31" fill="none" xmlns="http://www.w3.org/2000/svg">
<path d="M7.50732 0C12.9548 0 18.4022 0 23.8499 0C23.9911 0.0167515 24.1322 0.0357201 24.2736 0.0497618C25.2894 0.149532 26.2552 0.426424 27.139 0.93562C29.7467 2.43833 31.1366 4.69781 31.1553 7.7143C31.1879 12.9075 31.1662 18.1012 31.1605 23.2947C31.16 23.7031 31.1359 24.1165 31.0716 24.5192C30.7972 26.24 30.0277 27.7109 28.7568 28.9037C27.289 30.2813 25.5392 30.9917 23.5243 30.9952C18.2951 31.004 13.0659 30.9979 7.83664 30.9984C7.34327 30.9984 6.8536 30.9565 6.37058 30.858C4.64565 30.5057 3.19881 29.6681 2.04705 28.3366C0.995784 27.1214 0.387637 25.7086 0.222607 24.1076C0.207089 23.9573 0.189601 23.8073 0.172852 23.6573C0.172852 18.2167 0.172852 12.7765 0.172852 7.33592C0.181719 7.28394 0.19231 7.23245 0.199207 7.18023C0.245268 6.83165 0.26916 6.47864 0.340098 6.13523C0.657596 4.59631 1.38102 3.27393 2.51036 2.18139C3.78429 0.948922 5.30602 0.236245 7.07134 0.0500081C7.21692 0.0344883 7.36199 0.0167515 7.50732 0ZM12.3888 15.5079C12.3816 15.5097 12.3745 15.5114 12.3673 15.5134C12.3567 15.4796 12.3449 15.4461 12.3358 15.4119C11.8491 13.5869 11.3619 11.7623 10.8786 9.93659C10.85 9.82893 10.8042 9.79666 10.6941 9.79715C9.45122 9.8011 8.20832 9.79962 6.96543 9.79986C6.91789 9.79986 6.87011 9.80381 6.80902 9.80676C6.81961 9.85184 6.82528 9.88264 6.83414 9.91244C7.43909 11.9716 8.04428 14.0308 8.64947 16.0898C9.26156 18.1724 9.87242 20.2553 10.4867 22.3371C10.5508 22.5544 10.5079 22.5221 10.7325 22.5224C11.7703 22.5238 12.8082 22.5206 13.8459 22.5258C13.9777 22.5266 14.0346 22.4916 14.0718 22.3583C14.5723 20.558 15.0797 18.7599 15.5856 16.9611C15.6108 16.8715 15.6386 16.7825 15.6751 16.6606C15.6911 16.7135 15.696 16.7288 15.7004 16.7441C16.2315 18.6286 16.7633 20.5129 17.2906 22.3987C17.3187 22.4992 17.3626 22.5248 17.4601 22.5246C18.5348 22.5216 19.6094 22.5214 20.6843 22.5251C20.7848 22.5253 20.8262 22.4931 20.8538 22.3975C21.1412 21.4037 21.4326 20.4112 21.724 19.4187C22.6056 16.4177 23.4879 13.417 24.3694 10.416C24.4276 10.2179 24.4832 10.0189 24.5436 9.80898C24.4901 9.80504 24.4542 9.79986 24.4182 9.79986C23.1549 9.79937 21.8913 9.80036 20.6279 9.79765C20.5375 9.79765 20.4984 9.82819 20.4757 9.91392C20.0986 11.3408 19.7195 12.7671 19.3402 14.1934C19.2259 14.6236 19.1104 15.0532 18.989 15.5069C18.9729 15.4523 18.9631 15.4217 18.9547 15.3907C18.4702 13.5781 17.985 11.7657 17.5044 9.95186C17.4741 9.83706 17.43 9.79568 17.3069 9.79642C16.228 9.80159 15.1492 9.8011 14.0706 9.79691C13.9578 9.79642 13.9065 9.82598 13.8767 9.93979C13.608 10.9638 13.3331 11.9867 13.0595 13.0095C12.8365 13.8424 12.6127 14.675 12.3892 15.5079H12.3888Z" fill="white"/>
</svg>
