<svg width="90" height="90" viewBox="0 0 90 90" fill="none" xmlns="http://www.w3.org/2000/svg">
<path d="M58.9914 25.2562C63.5898 25.2562 67.3305 21.5156 67.3305 16.9172C67.3305 12.3187 63.5898 8.57812 58.9914 8.57812C54.393 8.57812 50.6523 12.3187 50.6523 16.9172C50.6523 21.5156 54.393 25.2562 58.9914 25.2562Z" fill="url(#paint0_linear_286_6047)"/>
<path d="M65.165 42.736C64.3916 42.736 63.7588 43.3688 63.7588 44.1422V49.7672C63.7588 50.5406 64.3916 51.1735 65.165 51.1735C65.9385 51.1735 66.5713 50.5406 66.5713 49.7672V44.1422C66.5713 43.3688 65.9385 42.736 65.165 42.736Z" fill="url(#paint1_linear_286_6047)"/>
<path d="M41.4141 39.375C41.4141 40.1484 42.0469 40.7812 42.8203 40.7812H48.4453C49.2188 40.7812 49.8516 40.1484 49.8516 39.375C49.8516 38.6016 49.2188 37.9688 48.4453 37.9688H42.8203C42.0469 37.9688 41.4141 38.6016 41.4141 39.375Z" fill="url(#paint2_linear_286_6047)"/>
<path d="M39.9092 16.875H45.5342C46.3076 16.875 46.9404 16.2422 46.9404 15.4688C46.9404 14.6953 46.3076 14.0625 45.5342 14.0625H39.9092C39.1357 14.0625 38.5029 14.6953 38.5029 15.4688C38.5029 16.2422 39.1357 16.875 39.9092 16.875Z" fill="url(#paint3_linear_286_6047)"/>
<path d="M51.1592 55.8422H49.0498C48.2764 55.8422 47.6436 56.475 47.6436 57.2484C47.6436 58.0219 48.2764 58.6547 49.0498 58.6547H51.1592C51.9326 58.6547 52.5654 58.0219 52.5654 57.2484C52.5654 56.475 51.9326 55.8422 51.1592 55.8422Z" fill="url(#paint4_linear_286_6047)"/>
<path d="M61.1016 40.7812C61.8469 40.7812 62.4797 40.1906 62.5078 39.4313C62.5359 38.6578 61.9313 37.9969 61.1578 37.9688H55.4766C54.7031 37.9688 54.0703 38.5875 54.0703 39.375C54.0703 40.1625 54.7031 40.7812 55.4766 40.7812H61.1016Z" fill="url(#paint5_linear_286_6047)"/>
<path d="M62.7045 55.2234C62.1982 55.6312 61.5936 55.8421 60.9467 55.8421H58.1904C57.417 55.8421 56.7842 56.475 56.7842 57.2484C56.7842 58.0218 57.417 58.6546 58.1904 58.6546H60.9467C62.2264 58.6546 63.4779 58.2187 64.4764 57.4031C64.6204 57.2867 64.7401 57.1432 64.8287 56.9806C64.9172 56.8179 64.9729 56.6395 64.9925 56.4554C65.0121 56.2712 64.9952 56.0851 64.9428 55.9075C64.8905 55.7299 64.8036 55.5643 64.6873 55.4203C64.571 55.2762 64.4274 55.1565 64.2648 55.068C64.1022 54.9794 63.9237 54.9237 63.7396 54.9042C63.5555 54.8846 63.3693 54.9014 63.1917 54.9538C63.0141 55.0062 62.8485 55.093 62.7045 55.2093V55.2234Z" fill="url(#paint6_linear_286_6047)"/>
<path d="M17.7607 31.6969V26.0719C17.7607 25.2985 17.1279 24.6656 16.3545 24.6656C15.5811 24.6656 14.9482 25.2985 14.9482 26.0719V31.6969C14.9482 32.4703 15.5811 33.1031 16.3545 33.1031C17.1279 33.1031 17.7607 32.4703 17.7607 31.6969Z" fill="url(#paint7_linear_286_6047)"/>
<path d="M24.5387 39.375C24.5387 38.6015 23.9059 37.9687 23.1324 37.9687H20.5731C19.884 37.9687 19.2231 37.7156 18.7028 37.2656C18.5652 37.1428 18.4048 37.0483 18.2306 36.9875C18.0565 36.9267 17.8722 36.9007 17.688 36.9112C17.5039 36.9216 17.3237 36.9682 17.1576 37.0484C16.9914 37.1285 16.8427 37.2405 16.7199 37.3781C16.5971 37.5157 16.5026 37.6761 16.4418 37.8502C16.381 38.0243 16.3551 38.2087 16.3655 38.3928C16.376 38.5769 16.4226 38.7572 16.5027 38.9233C16.5828 39.0894 16.6949 39.2381 16.8324 39.3609C17.859 40.275 19.1809 40.7812 20.5731 40.7812H23.1324C23.9059 40.7812 24.5387 40.1484 24.5387 39.375Z" fill="url(#paint8_linear_286_6047)"/>
<path d="M83.0246 69.9047C82.2371 69.0469 81.098 68.5547 79.9309 68.5547H73.659V6.97498C73.659 4.65466 71.7605 2.75623 69.4402 2.75623H10.0684C7.74805 2.75623 5.84961 4.65466 5.84961 6.97498V76.1906C5.84961 81.3937 9.47774 85.8375 14.4418 86.9625C14.6527 87.089 14.8918 87.1875 15.159 87.1875H15.8762C16.2137 87.2297 16.5512 87.2437 16.9027 87.2437H73.3496C73.9684 87.2437 74.559 87.1172 75.1637 86.8359C76.7668 86.0906 79.7762 84.6843 82.3918 79.5515C83.3621 77.6531 83.9527 75.5015 84.1355 73.1531C84.1841 72.5643 84.1104 71.9719 83.9193 71.4129C83.7281 70.8539 83.4235 70.3404 83.0246 69.9047ZM15.6371 84.3187C13.6947 84.0218 11.9229 83.0385 10.6433 81.5473C9.36361 80.0561 8.66073 78.1556 8.66211 76.1906V6.97498C8.66211 6.20154 9.29492 5.56873 10.0684 5.56873H69.4402C70.2277 5.56873 70.8465 6.18748 70.8465 6.97498V68.5547H28.673C26.423 68.5547 24.5809 70.3265 24.4543 72.5906C24.3699 74.3062 23.8355 76.9359 23.0059 78.6656C21.5012 81.7453 17.7887 84.0094 15.6371 84.3187Z" fill="url(#paint9_linear_286_6047)"/>
<path d="M28.7578 39.375C28.7578 40.1484 29.3906 40.7812 30.1641 40.7812H35.7891C36.5625 40.7812 37.1953 40.1484 37.1953 39.375C37.1953 38.6016 36.5625 37.9688 35.7891 37.9688H30.1641C29.3906 37.9688 28.7578 38.6016 28.7578 39.375Z" fill="url(#paint10_linear_286_6047)"/>
<path d="M27.2529 16.875H32.8779C33.6514 16.875 34.2842 16.2422 34.2842 15.4688C34.2842 14.6953 33.6514 14.0625 32.8779 14.0625H27.2529C26.4795 14.0625 25.8467 14.6953 25.8467 15.4688C25.8467 16.2422 26.4795 16.875 27.2529 16.875Z" fill="url(#paint11_linear_286_6047)"/>
<path d="M33.6789 62.7749C38.2844 62.7749 42.018 59.0414 42.018 54.4359C42.018 49.8303 38.2844 46.0968 33.6789 46.0968C29.0734 46.0968 25.3398 49.8303 25.3398 54.4359C25.3398 59.0414 29.0734 62.7749 33.6789 62.7749Z" fill="url(#paint12_linear_286_6047)"/>
<path d="M16.1854 20.4328C16.2557 20.4328 16.326 20.4469 16.3963 20.4469C16.7331 20.4473 17.0588 20.3269 17.3143 20.1076C17.5697 19.8882 17.738 19.5845 17.7885 19.2516C17.9854 17.9578 19.0401 16.9875 20.3338 16.8891C21.1073 16.8188 21.6838 16.1438 21.6276 15.3703C21.5573 14.5969 20.8682 14.0203 20.1088 14.0906C18.8499 14.1898 17.6616 14.7121 16.7373 15.5726C15.8129 16.4331 15.2071 17.5811 15.0182 18.8297C14.9057 19.6031 15.426 20.3203 16.1854 20.4328Z" fill="url(#paint13_linear_286_6047)"/>
<defs>
<linearGradient id="paint0_linear_286_6047" x1="58.9914" y1="8.57812" x2="58.9914" y2="25.2562" gradientUnits="userSpaceOnUse">
<stop stop-color="#5DE7FF"/>
<stop offset="1" stop-color="#00A8C5"/>
</linearGradient>
<linearGradient id="paint1_linear_286_6047" x1="65.165" y1="42.736" x2="65.165" y2="51.1735" gradientUnits="userSpaceOnUse">
<stop stop-color="#5DE7FF"/>
<stop offset="1" stop-color="#00A8C5"/>
</linearGradient>
<linearGradient id="paint2_linear_286_6047" x1="45.6328" y1="37.9688" x2="45.6328" y2="40.7812" gradientUnits="userSpaceOnUse">
<stop stop-color="#5DE7FF"/>
<stop offset="1" stop-color="#00A8C5"/>
</linearGradient>
<linearGradient id="paint3_linear_286_6047" x1="42.7217" y1="14.0625" x2="42.7217" y2="16.875" gradientUnits="userSpaceOnUse">
<stop stop-color="#5DE7FF"/>
<stop offset="1" stop-color="#00A8C5"/>
</linearGradient>
<linearGradient id="paint4_linear_286_6047" x1="50.1045" y1="55.8422" x2="50.1045" y2="58.6547" gradientUnits="userSpaceOnUse">
<stop stop-color="#5DE7FF"/>
<stop offset="1" stop-color="#00A8C5"/>
</linearGradient>
<linearGradient id="paint5_linear_286_6047" x1="58.2895" y1="37.9688" x2="58.2895" y2="40.7812" gradientUnits="userSpaceOnUse">
<stop stop-color="#5DE7FF"/>
<stop offset="1" stop-color="#00A8C5"/>
</linearGradient>
<linearGradient id="paint6_linear_286_6047" x1="60.8923" y1="54.8962" x2="60.8923" y2="58.6546" gradientUnits="userSpaceOnUse">
<stop stop-color="#5DE7FF"/>
<stop offset="1" stop-color="#00A8C5"/>
</linearGradient>
<linearGradient id="paint7_linear_286_6047" x1="16.3545" y1="24.6656" x2="16.3545" y2="33.1031" gradientUnits="userSpaceOnUse">
<stop stop-color="#5DE7FF"/>
<stop offset="1" stop-color="#00A8C5"/>
</linearGradient>
<linearGradient id="paint8_linear_286_6047" x1="20.451" y1="36.9089" x2="20.451" y2="40.7812" gradientUnits="userSpaceOnUse">
<stop stop-color="#5DE7FF"/>
<stop offset="1" stop-color="#00A8C5"/>
</linearGradient>
<linearGradient id="paint9_linear_286_6047" x1="44.9998" y1="2.75623" x2="44.9998" y2="87.2437" gradientUnits="userSpaceOnUse">
<stop stop-color="#5DE7FF"/>
<stop offset="1" stop-color="#00A8C5"/>
</linearGradient>
<linearGradient id="paint10_linear_286_6047" x1="32.9766" y1="37.9688" x2="32.9766" y2="40.7812" gradientUnits="userSpaceOnUse">
<stop stop-color="#5DE7FF"/>
<stop offset="1" stop-color="#00A8C5"/>
</linearGradient>
<linearGradient id="paint11_linear_286_6047" x1="30.0654" y1="14.0625" x2="30.0654" y2="16.875" gradientUnits="userSpaceOnUse">
<stop stop-color="#5DE7FF"/>
<stop offset="1" stop-color="#00A8C5"/>
</linearGradient>
<linearGradient id="paint12_linear_286_6047" x1="33.6789" y1="46.0968" x2="33.6789" y2="62.7749" gradientUnits="userSpaceOnUse">
<stop stop-color="#5DE7FF"/>
<stop offset="1" stop-color="#00A8C5"/>
</linearGradient>
<linearGradient id="paint13_linear_286_6047" x1="18.3172" y1="14.0848" x2="18.3172" y2="20.4469" gradientUnits="userSpaceOnUse">
<stop stop-color="#5DE7FF"/>
<stop offset="1" stop-color="#00A8C5"/>
</linearGradient>
</defs>
</svg>
