<svg width="57" height="80" viewBox="0 0 57 80" fill="none" xmlns="http://www.w3.org/2000/svg">
<path fill-rule="evenodd" clip-rule="evenodd" d="M33.4626 0.38738C39.5306 1.39817 44.9707 4.40265 49.4298 9.20569C59.7898 20.3646 59.4792 37.6228 48.7269 48.2902C46.8348 50.1673 43.8888 52.448 42.1805 53.3581L39.0746 55.0131L33.9503 67.7105C31.1321 74.6936 28.6442 80.2209 28.4211 79.9932C28.1985 79.7661 25.8799 74.3528 23.2694 67.9644C20.6588 61.576 18.3143 55.9594 18.0591 55.4829C17.8039 55.0064 16.4875 54.0803 15.1344 53.4252C11.9725 51.8951 5.30193 45.2522 3.46372 41.8043C1.67935 38.4565 -0.0113297 31.9716 5.72205e-05 28.519C0.0601082 11.0585 16.178 -2.49217 33.4626 0.38738ZM32.5805 8.12879C38.7464 9.3342 44.0591 13.4682 46.9575 19.3161C48.8252 23.0851 48.9101 23.4826 48.9101 28.4565C48.9101 33.2952 48.7916 33.8971 47.2034 37.1138C45.0292 41.5183 41.5402 44.9941 37.2643 47.0146C34.1687 48.4776 33.4606 48.6056 28.4625 48.6056C23.6866 48.6056 22.6818 48.443 20.18 47.265C13.9691 44.34 9.4753 38.4885 8.21894 31.6882C6.23009 20.9242 13.9184 10.186 25.0874 8.12674C28.5273 7.49281 29.327 7.49279 32.5805 8.12879Z" fill="#BFBFBF"/>
<path d="M28.9829 15.9307C22.3217 15.9307 16.9111 17.623 16.9111 19.7059C16.9112 20.8429 18.557 21.8687 21.1038 22.5609C20.2199 22.1084 19.7058 21.5851 19.7058 21.0136C19.7058 19.3821 23.8572 18.0413 28.9829 18.0413C34.1085 18.0413 38.2885 19.382 38.2885 21.0136C38.2885 21.582 37.7655 22.1099 36.8905 22.5609C39.4216 21.8689 41.0529 20.8389 41.0529 19.7059C41.0529 17.623 35.644 15.9307 28.9829 15.9307ZM23.489 20.0106V21.5388H34.472V20.0106H23.489ZM23.7111 22.4877V33.1552H24.6601V22.4878H23.7112L23.7111 22.4877ZM25.698 22.4877C25.7334 25.6266 26.984 27.3848 28.3797 27.7595C26.9656 28.1391 25.6997 29.9381 25.6963 33.1551H32.2058C32.2025 29.9379 30.9387 28.1396 29.5256 27.7595C30.9205 27.3845 32.1688 25.6268 32.2043 22.4878H25.6979L25.698 22.4877ZM33.2103 22.4877V33.1552H34.1593V22.4878H33.2103V22.4877ZM21.1038 33.0932C18.557 33.7852 16.9112 34.811 16.9112 35.948C16.9112 38.0309 22.3217 39.7233 28.9829 39.7233C35.6441 39.7233 41.0529 38.031 41.0529 35.9481C41.0529 34.8151 39.4216 33.7851 36.8904 33.0932C37.7655 33.5441 38.2885 34.0704 38.2885 34.6388C38.2885 36.2704 34.1086 37.6127 28.9829 37.6127C23.8571 37.6127 19.7058 36.2702 19.7058 34.6387C19.7058 34.0672 20.2199 33.5455 21.1038 33.0931V33.0932ZM23.489 34.104V35.6306H34.472V34.104H23.489Z" fill="#BFBFBF"/>
</svg>
