<svg width="178" height="51" viewBox="0 0 178 51" fill="none" xmlns="http://www.w3.org/2000/svg">
<path d="M3.94237 12.964C4.75516 13.3297 5.56795 13.6548 6.42137 13.9393C8.2095 14.5082 8.49397 14.2644 7.68119 12.6795C7.35607 11.9886 6.99032 11.3384 6.58393 10.7288C5.81178 9.50961 5.24283 9.06258 4.02365 10.1192C3.77982 10.3224 3.53598 10.5662 3.33278 10.8101C2.56064 11.6229 2.56064 12.3137 3.94237 12.964Z" fill="#FF5B00"/>
<path d="M21.9449 47.5073C21.6198 46.6133 21.254 45.7598 20.807 44.9064C19.8723 43.1183 19.5065 43.1183 18.897 44.9064C18.6531 45.6785 18.4093 46.4507 18.2467 47.2228C17.9216 48.7265 17.9623 49.4986 19.7097 49.6206C20.0755 49.6612 20.4006 49.6612 20.7664 49.6206C21.9855 49.5393 22.4732 49.0516 21.9449 47.5073Z" fill="#4D40CA"/>
<mask id="mask0_560_1772" style="mask-type:luminance" maskUnits="userSpaceOnUse" x="0" y="0" width="178" height="51">
<path d="M178 0H0V50.5553H178V0Z" fill="white"/>
</mask>
<g mask="url(#mask0_560_1772)">
<path d="M46.5318 34.4215C45.8409 33.6087 45.1907 32.7146 44.5811 31.7799C43.3213 29.7886 43.5245 29.4228 45.6784 29.8292C46.6131 29.9918 47.4665 30.2356 48.3606 30.5201C50.0674 31.0484 50.7583 31.5361 49.9049 33.4055C49.7423 33.7712 49.5391 34.137 49.3359 34.4621C48.6044 35.6406 47.751 35.8845 46.5318 34.4215Z" fill="#00CBD0"/>
</g>
<mask id="mask1_560_1772" style="mask-type:luminance" maskUnits="userSpaceOnUse" x="0" y="0" width="178" height="51">
<path d="M178 0H0V50.5553H178V0Z" fill="white"/>
</mask>
<g mask="url(#mask1_560_1772)">
<path d="M34.8276 3.08859C34.1774 3.6169 33.5271 4.10457 32.8363 4.5516C31.3326 5.48631 31.0481 5.32375 31.3733 3.69818C31.4952 3.00731 31.6984 2.35708 31.9016 1.66621C32.308 0.365757 32.6737 -0.162551 34.0961 0.487677C34.3806 0.609595 34.6244 0.772155 34.9089 0.934712C35.7623 1.5443 35.9249 2.15389 34.8276 3.08859Z" fill="#FFC200"/>
</g>
<mask id="mask2_560_1772" style="mask-type:luminance" maskUnits="userSpaceOnUse" x="0" y="0" width="178" height="51">
<path d="M178 0H0V50.5553H178V0Z" fill="white"/>
</mask>
<g mask="url(#mask2_560_1772)">
<path d="M8.41185 32.9991C1.46254 37.1443 -0.569425 31.9019 0.121443 25.0745C1.2187 14.3457 8.41185 14.1425 11.7849 21.8233C13.8169 26.4156 13.0447 30.2356 8.41185 32.9991Z" fill="#00CBD0"/>
</g>
<mask id="mask3_560_1772" style="mask-type:luminance" maskUnits="userSpaceOnUse" x="0" y="0" width="178" height="51">
<path d="M178 0H0V50.5553H178V0Z" fill="white"/>
</mask>
<g mask="url(#mask3_560_1772)">
<path d="M16.5404 40.4361C16.5404 41.6146 16.4998 42.7525 16.4185 43.8904C16.2153 46.2069 14.7117 48.1576 11.6231 46.2069C10.3633 45.3941 9.18474 44.5 8.04684 43.5247C5.48657 41.2082 4.83634 38.9731 8.04684 36.169C8.85963 35.4375 9.71305 34.7872 10.5665 34.137C14.5898 31.1297 16.1341 33.1617 16.4185 37.3881C16.4998 38.3635 16.5404 39.3795 16.5404 40.4361Z" fill="#FF5B00"/>
</g>
<mask id="mask4_560_1772" style="mask-type:luminance" maskUnits="userSpaceOnUse" x="0" y="0" width="178" height="51">
<path d="M178 0H0V50.5553H178V0Z" fill="white"/>
</mask>
<g mask="url(#mask4_560_1772)">
<path d="M39.7861 38.1603C37.3071 36.047 34.6656 34.0964 31.9021 32.3895C25.9688 28.6507 24.8309 29.2603 26.0907 35.7219C26.619 38.4448 27.3099 41.1269 28.1633 43.7279C29.8295 48.8078 31.2925 50.921 36.8194 48.3607C37.9167 47.8731 38.9733 47.2635 39.9893 46.6132C43.5249 44.2562 44.1345 41.8585 39.7861 38.1603Z" fill="#FFC200"/>
</g>
<mask id="mask5_560_1772" style="mask-type:luminance" maskUnits="userSpaceOnUse" x="0" y="0" width="178" height="51">
<path d="M178 0H0V50.5553H178V0Z" fill="white"/>
</mask>
<g mask="url(#mask5_560_1772)">
<path d="M36.9412 11.9073C36.1691 12.8827 35.4376 13.8987 34.7467 14.9553C30.5608 21.0918 31.0079 21.3356 36.9412 23.9366C39.0951 24.8713 41.2896 25.684 43.5248 26.4155C51.7745 29.0165 53.0344 26.1311 50.6367 18.9379C49.9458 16.906 49.0111 14.9959 47.8325 13.2078C44.175 7.72149 41.1677 6.33975 36.9412 11.9073Z" fill="#FF5B00"/>
</g>
<mask id="mask6_560_1772" style="mask-type:luminance" maskUnits="userSpaceOnUse" x="0" y="0" width="178" height="51">
<path d="M178 0H0V50.5553H178V0Z" fill="white"/>
</mask>
<g mask="url(#mask6_560_1772)">
<path d="M23.8964 0.0406639C21.8238 0.24386 19.8325 0.690893 17.963 1.38176C12.8019 3.21053 13.574 5.36441 16.4188 9.46898C16.9877 10.3224 17.5973 11.1352 18.2475 11.9886C21.5393 16.337 22.4334 17.3124 25.1156 11.1352C26.0096 9.10322 26.7818 7.03062 27.432 4.95802C28.5293 1.38176 28.3667 -0.365729 23.8964 0.0406639Z" fill="#4D40CA"/>
</g>
<path d="M170.198 17.3936L162.436 25.8872V9.10321C162.436 8.53426 161.867 8.12787 161.298 8.33107L157.315 9.83472C156.99 9.95664 156.787 10.2818 156.787 10.6069V38.5667C156.787 39.0137 157.152 39.3795 157.6 39.3795H161.582C162.029 39.3795 162.436 39.0137 162.436 38.5667V29.6667L170.726 39.095C170.889 39.2576 171.132 39.3795 171.336 39.3795H176.537C177.269 39.3795 177.635 38.526 177.147 37.9977L167.922 27.6347L176.415 18.4909C176.903 17.9626 176.537 17.1091 175.806 17.1091H170.767C170.604 17.1091 170.36 17.2311 170.198 17.3936ZM140.937 40.111C134.476 40.111 129.233 34.6247 129.233 27.9192C129.233 21.5795 134.313 16.5808 140.775 16.5808C147.562 16.5808 152.479 21.5388 152.479 28.3256C152.479 35.153 147.602 40.111 140.937 40.111ZM141.1 34.8279C144.473 34.8279 146.911 32.1863 146.911 28.4881C146.911 24.5868 144.514 21.8639 141.1 21.8639C137.524 21.8639 135.045 24.5055 135.045 28.2443C135.045 32.0238 137.646 34.8279 141.1 34.8279ZM114.278 40.111C107.816 40.111 102.574 34.6247 102.574 27.9192C102.574 21.5795 107.654 16.5808 114.116 16.5808C120.902 16.5808 125.82 21.5388 125.82 28.3256C125.82 35.153 120.943 40.111 114.278 40.111ZM114.441 34.8279C117.814 34.8279 120.252 32.1863 120.252 28.4881C120.252 24.5868 117.854 21.8639 114.441 21.8639C110.864 21.8639 108.385 24.5055 108.385 28.2443C108.426 32.105 110.946 34.8279 114.441 34.8279ZM92.5767 38.6886L92.6173 10.5662C92.6173 10.2005 92.8205 9.916 93.1457 9.79408L97.047 8.33107C97.5753 8.12787 98.1849 8.53426 98.1849 9.10321L98.1443 38.6886C98.1443 39.1356 97.7785 39.542 97.2908 39.542H93.3895C92.9424 39.542 92.5767 39.1763 92.5767 38.6886ZM81.6854 17.3936L73.9233 25.8872V9.10321C73.9233 8.53426 73.3543 8.12787 72.7854 8.33107L68.8027 9.83472C68.4776 9.95664 68.2744 10.2818 68.2744 10.6069V38.5667C68.2744 39.0137 68.6402 39.3795 69.1278 39.3795H73.1105C73.5575 39.3795 73.9233 39.0137 73.9233 38.5667V29.6667L82.2137 39.095C82.3762 39.2576 82.6201 39.3795 82.8233 39.3795H88.0251C88.7566 39.3795 89.1224 38.526 88.6347 37.9977L79.4096 27.6347L87.9032 18.4909C88.3908 17.9626 88.0251 17.1091 87.2936 17.1091H82.2543C82.0511 17.1091 81.8479 17.2311 81.6854 17.3936Z" fill="#FF5B00"/>
</svg>
