<svg width="176" height="43" viewBox="0 0 176 43" fill="none" xmlns="http://www.w3.org/2000/svg">
<path d="M67.2967 9.93103C64.8092 9.93103 62.439 11.0575 60.8432 12.9583V11.0105H54.3896V42.5038H61.5238V31.4507C63.143 32.7883 65.1847 33.5158 67.2967 33.5158C73.6564 33.5158 78.7489 28.2356 78.7489 21.6882C78.7489 15.2112 73.5625 9.93103 67.2967 9.93103ZM78.7489 21.7821C78.7489 15.2347 73.6564 9.9545 67.2967 9.9545L78.7489 21.7821ZM66.5223 27.0623C63.7766 27.0623 61.5238 24.7155 61.5238 21.876C61.5238 18.9425 63.7766 16.6897 66.5223 16.6897C69.268 16.6897 71.5209 19.0364 71.5209 21.876C71.6148 24.6216 69.4792 26.9449 66.7101 27.0388C66.6397 27.0623 66.5693 27.0623 66.5223 27.0623Z" fill="#287DFA"/>
<path d="M86.2819 33.5862C88.6537 33.5862 90.5764 31.6635 90.5764 29.2917C90.5764 26.9199 88.6537 24.9972 86.2819 24.9972C83.91 24.9972 81.9873 26.9199 81.9873 29.2917C81.9873 31.6635 83.91 33.5862 86.2819 33.5862Z" fill="#FFB400"/>
<path d="M45.7756 8.0771C47.9919 8.0771 49.7886 6.28045 49.7886 4.06417C49.7886 1.84789 47.9919 0.051239 45.7756 0.051239C43.5593 0.051239 41.7627 1.84789 41.7627 4.06417C41.7627 6.28045 43.5593 8.0771 45.7756 8.0771Z" fill="#287DFA"/>
<path d="M49.3909 11.0105H42.2568V32.5302H49.3909V11.0105Z" fill="#287DFA"/>
<path d="M-0.00878906 1.0369V6.99763H9.28432V32.5302H16.4184V6.99763H25.7115V1.0369H-0.00878906Z" fill="#287DFA"/>
<path d="M105.548 27.0623C102.803 27.0623 100.55 24.7156 100.55 21.876C100.55 18.9426 102.803 16.6897 105.548 16.6897C106.933 16.6662 108.247 17.2295 109.162 18.262L113.856 13.5685C111.65 11.3626 108.669 10.1188 105.548 10.1423C99.0009 10.1423 93.6973 15.4225 93.6973 21.9699C93.6973 28.5173 98.9774 33.8209 105.525 33.8209C108.646 33.8209 111.65 32.6006 113.879 30.3947L109.186 25.7012C108.294 26.3583 107.027 27.0623 105.548 27.0623Z" fill="#287DFA"/>
<path d="M168.277 9.93103C165.344 9.93103 162.997 11.0105 161.636 13.4511C160.369 11.1983 158.022 9.93103 155.182 9.93103C152.343 9.93103 150.301 11.1983 148.916 13.4511V11.0105H142.439V32.4363H149.574V19.1303C149.574 17.2763 150.935 15.7979 152.695 15.7979C154.455 15.7979 155.816 17.2763 155.816 19.1303V32.5302H162.575V19.1303C162.575 17.2763 163.936 15.7979 165.696 15.7979C167.456 15.7979 168.817 17.2763 168.817 19.1303V32.5302H175.998V17.7692C176.092 12.9583 173.064 9.93103 168.277 9.93103Z" fill="#287DFA"/>
<path d="M127.068 9.93103C120.52 9.93103 115.24 15.2347 115.24 21.7821C115.24 28.3295 120.544 33.6097 127.091 33.6097C133.639 33.6097 138.919 28.306 138.919 21.7586C138.825 15.2112 133.545 9.93103 127.068 9.93103ZM127.068 27.0623C124.322 27.0623 122.069 24.7155 122.069 21.876C122.069 18.9425 124.322 16.6897 127.068 16.6897C129.814 16.6897 132.066 19.0364 132.066 21.876C132.066 24.7155 129.814 27.0623 127.068 27.0623Z" fill="#287DFA"/>
<path d="M37.1649 10.9167C34.5366 10.8932 32.0959 12.2309 30.7114 14.4368V11.0106H24.2578V32.5302H31.3919V23.5187C31.3919 19.8108 34.1376 17.558 37.3526 17.558C37.7516 17.558 38.1271 17.6518 38.4321 17.6518V11.1044C38.0332 10.9871 37.6108 10.9167 37.1649 10.9167Z" fill="#287DFA"/>
</svg>
