<svg width="170" height="84" viewBox="0 0 170 84" fill="none" xmlns="http://www.w3.org/2000/svg">
<path d="M96.6014 39.9666C94.7703 39.9666 93.249 41.4597 93.249 43.319C93.249 45.1501 94.7421 46.6713 96.6014 46.6713C98.4325 46.6713 99.9537 45.1782 99.9537 43.319C99.9537 41.4597 98.4325 39.9666 96.6014 39.9666Z" fill="#00A991"/>
<path d="M73.53 35.2058C73.6145 34.9522 73.699 34.6987 73.699 34.4451C73.699 33.5155 72.9665 32.7267 72.0369 32.7267C71.9806 32.7267 71.9242 32.7267 71.8679 32.7267C71.0791 32.6985 70.3748 33.2338 70.234 34.0226L66.4591 45.5727L62.1207 33.9099C61.839 33.0084 60.8812 32.5013 59.9797 32.7831C59.4445 32.9521 59.0219 33.3746 58.8529 33.9099L54.5427 45.5727L50.7678 34.0226C50.627 33.2338 49.9227 32.6985 49.1339 32.7267C48.2043 32.6422 47.3592 33.3465 47.3028 34.2761C47.3028 34.3324 47.3028 34.3888 47.3028 34.4451C47.331 34.6987 47.3873 34.9804 47.4718 35.2058L52.768 50.897C52.9652 51.6576 53.6694 52.1365 54.4582 52.052C55.247 52.0801 55.9513 51.6012 56.1767 50.8406L60.515 38.9243L64.9097 50.8406C65.135 51.6012 65.8393 52.0801 66.6281 52.052C67.3887 52.1083 68.093 51.6294 68.3183 50.897L73.53 35.2058ZM34.1188 48.4743L27.8649 42.2485L34.1188 36.0227C34.9076 35.2339 34.9076 33.9662 34.1188 33.1774C33.33 32.3887 32.0623 32.3887 31.2735 33.1774L23.6674 40.7836C22.8786 41.6006 22.8786 42.8964 23.6674 43.7134L31.2735 51.3195C32.0623 52.1083 33.33 52.1083 34.1188 51.3195C34.9076 50.5307 34.9076 49.2631 34.1188 48.4743ZM22.0898 49.8828V34.586C22.0898 33.4592 21.1883 32.5577 20.0615 32.5577C18.9347 32.5577 18.0332 33.4592 18.0332 34.586V49.8828C18.0332 51.0096 18.9347 51.9111 20.0615 51.9111C21.1883 51.9111 22.0898 51.0096 22.0898 49.8828ZM39.1896 34.7268V50.0237C39.1896 51.1505 40.0911 52.052 41.2179 52.052C42.3447 52.052 43.2462 51.1505 43.2462 50.0237V34.7268C43.2462 33.6 42.3447 32.6985 41.2179 32.6985C40.0911 32.6985 39.1896 33.6 39.1896 34.7268ZM77.8119 34.7268V50.0237C77.8119 51.1505 78.7134 52.052 79.8403 52.052C80.9671 52.052 81.8686 51.1505 81.8686 50.0237V34.7268C81.8686 33.6 80.9671 32.6985 79.8403 32.6985C78.7134 32.6985 77.8119 33.6 77.8119 34.7268ZM77.8119 34.7268V50.0237C77.8119 51.1505 78.7134 52.052 79.8403 52.052C80.9671 52.052 81.8686 51.1505 81.8686 50.0237V34.7268C81.8686 33.6 80.9671 32.6985 79.8403 32.6985C78.7134 32.6985 77.8119 33.6 77.8119 34.7268ZM77.8119 34.7268V50.0237C77.8119 51.1505 78.7134 52.052 79.8403 52.052C80.9671 52.052 81.8686 51.1505 81.8686 50.0237V34.7268C81.8686 33.6 80.9671 32.6985 79.8403 32.6985C78.7134 32.6985 77.8119 33.6 77.8119 34.7268ZM77.8119 34.7268V50.0237C77.8119 51.1505 78.7134 52.052 79.8403 52.052C80.9671 52.052 81.8686 51.1505 81.8686 50.0237V34.7268C81.8686 33.6 80.9671 32.6985 79.8403 32.6985C78.7134 32.6985 77.8119 33.6 77.8119 34.7268Z" fill="#252A31"/>
<path d="M91.7559 60.0807C91.2488 59.6863 90.6009 59.4891 89.953 59.4891C88.9952 59.4891 88.0937 59.9399 87.5021 60.7287C83.4455 66.1093 78.093 70.3913 71.9799 73.2084C65.1344 76.3917 57.6691 78.0538 50.1193 77.9975C38.372 77.9975 27.3571 74.2225 19.1031 67.3488C15.2718 64.25 12.1448 60.3624 9.86299 55.9959C5.41198 47.4038 5.41198 37.2059 9.86299 28.6138C13.1026 22.219 18.5396 16.782 25.526 12.8662C33.0477 8.7251 41.5271 6.58411 50.1193 6.64045C57.6691 6.61228 65.1626 8.24619 72.0081 11.4577C78.1212 14.3029 83.4737 18.6131 87.5303 23.9938C88.0937 24.7825 89.0233 25.2333 89.9811 25.2333C91.6432 25.2333 92.9954 23.8811 92.9954 22.1908C92.9954 21.5429 92.7982 20.9231 92.4039 20.3879C87.7556 14.1903 81.6425 9.23218 74.5998 5.96435C66.9373 2.35847 58.5706 0.527356 50.1193 0.555526C36.9634 0.555526 24.5682 4.83751 15.2155 12.5845C10.7645 16.2186 7.10224 20.7259 4.45417 25.853C-0.87014 36.1636 -0.87014 48.418 4.45417 58.7285C8.25725 66.1938 14.5112 72.5041 22.5681 77.0115C30.9912 81.6597 40.4848 84.0824 50.1193 83.9979C58.5706 84.026 66.9091 82.1949 74.5435 78.6172C81.558 75.3494 87.6711 70.4195 92.3193 64.25C93.3898 62.9823 93.1081 61.0949 91.7559 60.0807Z" fill="#00A991"/>
<path d="M118.828 36.2763C120.265 36.2763 121.645 36.7833 122.715 37.7411C123.054 37.9947 123.476 38.1355 123.927 38.1637C124.856 38.1637 125.645 37.4313 125.645 36.5016C125.645 36.4734 125.645 36.4453 125.645 36.4171C125.645 35.9382 125.42 35.4875 125.082 35.1494C123.392 33.5718 121.166 32.6985 118.856 32.7549C113.278 32.7549 109.391 36.6988 109.391 42.3612C109.391 48.0235 113.278 51.9675 118.856 51.9675C121.166 52.0238 123.392 51.1787 125.082 49.6011C125.448 49.2631 125.645 48.8123 125.673 48.3334C125.702 47.4038 124.969 46.615 124.04 46.5868C124.011 46.5868 123.983 46.5868 123.955 46.5868C123.504 46.5868 123.082 46.7558 122.715 47.0094C121.645 47.939 120.293 48.4461 118.856 48.4461C115.504 48.4461 113.194 45.9389 113.194 42.3612C113.194 38.7835 115.504 36.2763 118.828 36.2763Z" fill="#252A31"/>
<path d="M137.647 48.5306C133.872 48.5306 131.9 45.4318 131.9 42.3612C131.9 38.3046 134.773 36.1917 137.647 36.1917C141.422 36.1917 143.394 39.2906 143.394 42.3612C143.394 46.4178 140.492 48.5306 137.647 48.5306ZM137.647 32.7549C132.491 32.6704 128.21 36.7552 128.125 41.9386C128.125 42.0795 128.125 42.2203 128.125 42.3612C128.125 47.6291 132.379 51.883 137.647 51.883C142.915 51.883 147.169 47.6291 147.169 42.3612C147.309 37.2059 143.225 32.8957 138.069 32.7549C137.928 32.7549 137.788 32.7549 137.647 32.7549Z" fill="#252A31"/>
<path d="M167.734 32.8676C167.001 32.8676 166.381 33.3183 166.1 33.9662L160.212 46.277L160.156 46.1643L154.268 33.9381C153.986 33.2902 153.338 32.8394 152.606 32.8676C151.648 32.8676 150.831 33.6282 150.831 34.6142V34.6424V50.0519C150.831 51.0378 151.62 51.8548 152.606 51.8548C153.592 51.8548 154.409 51.066 154.409 50.08V41.8823L158.663 50.897C158.916 51.5168 159.536 51.9111 160.212 51.883C160.888 51.883 161.508 51.4886 161.761 50.897L165.959 41.9105V50.1364C165.959 51.1224 166.776 51.9111 167.762 51.9111C168.748 51.9111 169.537 51.1224 169.537 50.1364V34.7269C169.593 33.7972 168.86 32.9803 167.931 32.9239C167.874 32.8676 167.79 32.8676 167.734 32.8676Z" fill="#252A31"/>
</svg>
