<svg width="221" height="19" viewBox="0 0 221 19" fill="none" xmlns="http://www.w3.org/2000/svg">
<path d="M49 0.346636H34.8228V4.02965H49V0.346636ZM33.0285 14.927H25.2532V11.2657H32.1867V7.60433H25.2532V4.00798H32.8956V0.324971H21.0443V18.5884H33.0063V14.927H33.0285ZM7.88608 19C10.5886 19 12.981 17.6568 14.3766 15.577V18.6317H18.0538V8.47092H8.1962V11.9806H12.3386C11.962 13.8655 10.2563 15.317 8.21835 15.317C5.93671 15.317 4.0981 13.5188 4.0981 10.8974V8.18928C4.0981 5.61117 6.06962 3.70467 8.83861 3.70467C10.9873 3.70467 12.9146 4.85291 13.5348 6.52109L17.4114 5.19954C16.3481 1.99316 12.8481 0 8.83861 0C3.76582 0 0 3.33637 0 8.18928V10.8974C0.0221519 15.5336 3.5443 19 7.88608 19ZM39.807 18.61H43.9937V15.2087H39.807V18.61ZM44.0158 10.3558H39.8291V13.7571H44.0158V10.3558ZM44.0158 5.48119H39.8291V8.88256H44.0158V5.48119Z" fill="#FF5533"/>
<path d="M77.459 4.32802C76.2385 4.32802 75.2622 5.2369 75.2622 6.47039C75.2622 7.68223 76.2385 8.61276 77.459 8.61276C78.6794 8.61276 79.6558 7.70387 79.6558 6.47039C79.6558 5.25854 78.6794 4.32802 77.459 4.32802Z" fill="#FF5533"/>
<path d="M81.3644 4.76082C80.1439 4.76082 79.1676 3.85194 79.1676 2.61845C79.1676 1.38497 80.1439 0.476082 81.3644 0.476082C82.5848 0.476082 83.5612 1.38497 83.5612 2.61845C83.5612 3.8303 82.5848 4.76082 81.3644 4.76082Z" fill="#FF5533"/>
<path d="M84.5153 3.85194V0C89.974 0 94.3232 4.17654 94.3232 9.5C94.3232 14.8235 89.974 19 84.5153 19C79.0566 19 74.7074 14.8235 74.7074 9.5H79.0123C79.0123 12.7027 81.4309 15.1481 84.5153 15.1481C87.5775 15.1481 90.0184 12.7027 90.0184 9.5C90.0184 6.29727 87.5997 3.85194 84.5153 3.85194Z" fill="#FF5533"/>
<path d="M112.519 0.367883V11.5125C112.519 15.8189 109.213 18.9784 104.708 18.9784C100.204 18.9784 96.8972 15.8189 96.8972 11.5125V0.367883H101.069V11.5774C101.069 13.6765 102.6 15.2346 104.708 15.2346C106.816 15.2346 108.347 13.6765 108.347 11.5774V0.367883H112.519Z" fill="#FF5533"/>
<path d="M68.2502 18.6105H64.0564H64.0342V11.7289L57 0.367883H61.7264L66.0978 7.83371L70.5358 0.367883H75.2844L68.2502 11.6856V18.6105Z" fill="#FF5533"/>
<path d="M119.908 11.7722L122.083 14.0011L119.952 16.2733L122.305 18.6321H117.933L115.625 16.295L117.778 14.0228L115.603 11.7938L117.756 9.52164L115.581 7.29271L117.733 5.0205L115.559 2.79157L117.911 0.367883H122.26L119.864 2.76993L122.038 4.99886L119.886 7.27107L122.06 9.5L119.908 11.7722Z" fill="#FF5533"/>
<path d="M127.896 11.6424L133 18.6105V18.6321H127.896L123.325 11.9886V8.48292H125.633C126.853 8.48292 127.808 7.53075 127.808 6.27563C127.808 5.0205 126.853 4.06834 125.633 4.06834H123.325V0.367883H125.788C129.316 0.367883 132.112 2.87813 132.112 6.16743C132.112 8.76424 130.382 10.885 127.896 11.6424Z" fill="#FF5533"/>
<path d="M213.179 11.2961V14.9317H221V18.6105H208.933V0.367886H220.888V4.0467H213.179V7.63896H220.173V11.2961H213.179Z" fill="#FF5533"/>
<path d="M170.05 15.2563C172.173 15.2563 173.715 13.6982 173.715 11.5991V0.389521H177.916V11.5342C177.916 15.8189 174.587 19 170.05 19C165.514 19 162.184 15.8405 162.184 11.5342V0.389521H166.385V11.5991C166.385 13.6982 167.927 15.2563 170.05 15.2563Z" fill="#FF5533"/>
<path d="M153.447 11.967H149.268V8.48291H159.212V18.6321H155.503V15.5809C154.095 17.6583 151.682 19 148.955 19C144.575 19 141.022 15.5376 141 10.885V8.17996C141 3.33258 144.799 0 149.916 0C153.961 0 157.492 1.99089 158.564 5.19362L154.654 6.51367C154.028 4.84738 152.084 3.70045 149.916 3.70045C147.123 3.70045 145.134 5.60479 145.134 8.17996V10.885C145.134 13.5034 146.989 15.2995 149.291 15.2995C151.346 15.2995 153.067 13.8497 153.447 11.967Z" fill="#FF5533"/>
<path d="M187.57 5.82119C187.57 7.50912 186.52 8.418 185.894 8.959C185.514 9.30524 185.469 9.37016 185.447 9.43508C185.447 9.54328 185.492 9.6082 185.894 9.95444C186.52 10.4954 187.57 11.426 187.57 13.0923C187.57 14.7802 186.52 15.6891 185.894 16.2301L185.827 16.295C185.514 16.6196 185.447 17.074 185.447 17.2904V18.5672H181.201V16.8576V16.7927C181.201 15.1048 182.251 14.1959 182.877 13.6549C183.324 13.2654 183.324 13.2437 183.324 13.0923C183.324 12.9408 183.324 12.9191 182.877 12.5296C182.296 12.0103 181.291 11.1446 181.223 9.58656V9.5V9.45672V9.41344V9.32688C181.291 7.76879 182.274 6.90319 182.877 6.38383C183.324 5.99431 183.324 5.97267 183.324 5.82119C183.324 5.66971 183.324 5.64807 182.877 5.25855C182.251 4.71754 181.201 3.78701 181.201 2.12073V2.05581V0.346244H185.447V1.62301L185.447 1.62813C185.47 1.84651 185.516 2.29639 185.827 2.61846L185.894 2.68337C186.52 3.22437 187.57 4.1549 187.57 5.82119Z" fill="#FF5533"/>
<path fill-rule="evenodd" clip-rule="evenodd" d="M206.408 9.5C206.408 14.7369 202.274 18.6105 196.441 18.6105H190.229V0.346244H196.441C202.274 0.346244 206.408 4.2631 206.408 9.5ZM196.777 4.02506C199.927 4.02506 202.073 6.38383 202.073 9.5C202.073 12.6162 199.927 14.9533 196.777 14.9533H194.453V4.02506H196.777Z" fill="#FF5533"/>
</svg>
