<svg width="184" height="46" viewBox="0 0 184 46" fill="none" xmlns="http://www.w3.org/2000/svg">
<path d="M180.92 39.5656C182.36 39.4856 183.6 40.6047 183.68 42.0834C183.76 43.5221 182.64 44.7611 181.16 44.841C179.719 44.9209 178.479 43.8019 178.399 42.3232C178.399 42.2832 178.399 42.2432 178.399 42.2033C178.399 40.7645 179.519 39.6055 180.92 39.5656ZM180.92 39.1659C179.239 39.1659 177.919 40.5247 177.919 42.1633C177.919 43.8419 179.279 45.1607 180.92 45.1607C182.56 45.1607 183.92 43.8019 183.92 42.1633C183.96 40.5247 182.6 39.1659 180.92 39.1659ZM181.36 42.2433C181.72 42.1633 182 41.8436 182 41.4439C182 40.8844 181.52 40.6446 180.84 40.6446H179.959V43.642H180.479V42.2832H180.88L181.52 43.2824C181.72 43.6021 181.76 43.6021 182.04 43.6021H182.28V43.642L181.36 42.2433ZM180.84 42.2033H180.479V40.8445H180.8C181.32 40.8445 181.52 41.0443 181.52 41.5239C181.52 42.0035 181.36 42.2033 180.84 42.2033Z" fill="#196C6E"/>
<path d="M50.9711 9.03217H39.8486V45.1607H50.9711V9.03217Z" fill="#196C6E"/>
<path d="M111.904 41.5638C108.623 41.5638 107.063 39.6055 107.063 36.2485V12.0295H115.945V9.03214H107.103V0H96.4208L95.9007 9.03214H91.1396V12.0295H95.9007V35.8488C95.9007 42.0035 99.4215 46 106.623 46C112.024 46 115.225 43.8019 116.545 40.8445L116.025 40.285C114.825 41.1242 113.385 41.6038 111.904 41.5638Z" fill="#196C6E"/>
<path d="M135.189 8.23285C123.307 8.23285 115.785 16.5057 115.785 27.2963C115.785 38.0069 122.827 46 134.949 46C147.312 46 154.354 37.7272 154.354 26.9366C154.314 16.2259 146.952 8.23285 135.189 8.23285ZM135.109 43.4022C129.148 43.4022 128.308 38.5665 128.308 27.0165C128.308 15.6664 129.108 10.7507 135.029 10.7507C140.991 10.7507 141.831 15.6664 141.831 27.1764C141.791 38.4865 141.071 43.4022 135.109 43.4022Z" fill="#196C6E"/>
<path d="M169.917 15.2667L169.677 9.03214H158.875V45.1607H170.037V16.2259C170.718 16.0261 171.398 15.9062 172.118 15.9062C174.118 15.9062 176.399 16.7055 183.36 19.9826L184 19.7428V9.59165C182.72 8.67245 181.16 8.19287 179.6 8.19287C176.439 8.23284 172.798 10.1911 169.917 15.2667Z" fill="#196C6E"/>
<path d="M76.6963 40.8445L77.9766 45.1607H87.4987V17.3449C87.4987 11.1903 82.6576 8.19287 74.7359 8.19287C69.4147 8.19287 62.8533 9.67158 58.3723 11.1503L57.8522 17.4648L58.4923 17.7845C67.0142 12.0695 69.5348 10.7506 72.1753 10.7506C75.176 10.7506 76.4163 12.3093 76.4163 15.5864V23.0999C63.8135 25.6976 56.1318 27.616 56.1318 36.1685C56.1318 42.0434 60.0527 46 66.3741 46C71.2151 46 74.8159 43.722 76.6963 40.8445ZM67.1342 34.1303C67.1342 28.5751 69.0146 27.1764 76.4563 25.6177V39.5256C75.096 40.6047 73.4156 41.1642 71.6952 41.0843C68.5345 41.0843 67.1342 39.2858 67.1342 34.1303Z" fill="#196C6E"/>
<path d="M28.406 21.861C32.1623 21.861 35.2075 18.8192 35.2075 15.0669C35.2075 11.3146 32.1623 8.2728 28.406 8.2728C24.6496 8.2728 21.6045 11.3146 21.6045 15.0669C21.6045 18.8192 24.6496 21.861 28.406 21.861Z" fill="#196C6E"/>
<path d="M20.9246 45.2007L24.4853 37.2476L11.9226 9.03217H0L16.1235 45.2007H20.9246Z" fill="#196C6E"/>
</svg>
