<svg width="90" height="90" viewBox="0 0 90 90" fill="none" xmlns="http://www.w3.org/2000/svg">
<g clip-path="url(#clip0_855_3614)">
<path fill-rule="evenodd" clip-rule="evenodd" d="M39.2711 0.979917C34.4625 1.64407 29.0031 3.34199 24.8858 5.4537C7.74876 14.243 -1.29101 33.9362 2.75895 53.6582C4.80239 63.6092 10.6012 72.8241 18.8047 79.1565C20.5677 80.5174 25.0404 83.2316 27.1312 84.2091C29.5428 85.3366 32.9691 86.4794 35.9588 87.1529C38.4327 87.7102 39.4081 87.7778 44.8894 87.771C50.5791 87.7643 51.2645 87.7108 53.9856 87.0606C62.1725 85.1045 69.0596 81.2381 74.9939 75.2669C84.3897 65.8121 88.9683 52.8662 87.5445 39.7808C85.4221 20.2758 71.9033 5.23726 53.1121 1.47742C49.8161 0.817851 42.3788 0.550522 39.2711 0.979917ZM39.5387 3.02513C22.1323 5.25314 8.34028 18.0987 4.61618 35.5512C3.79645 39.3926 3.59901 46.6366 4.20899 50.4926C7.02534 68.2959 20.1747 82.0137 37.6659 85.3955C41.4055 86.1186 48.846 86.0481 52.5142 85.2553C63.79 82.8173 73.3012 76.2003 79.3544 66.5821C82.3176 61.8738 84.612 55.4313 85.4031 49.5982C86.5771 40.9406 84.5556 30.8176 80.0818 22.9493C74.1043 12.4363 62.7894 4.8469 50.5365 3.13201C48.6089 2.86226 41.3619 2.79172 39.5387 3.02513ZM39.4049 4.08368C36.2416 4.65683 33.0726 5.43782 31.1432 6.11974C17.8129 10.8307 7.50905 23.4081 5.29144 37.6756C4.71811 41.3641 4.8575 49.2512 5.55149 52.377C7.28084 60.1675 10.7526 66.8276 15.8487 72.1303C24.5238 81.1568 34.9274 85.4607 46.6284 84.8636C57.0526 84.3316 65.8896 80.2296 73.2867 72.4894C85.7646 59.4329 88.2805 40.0888 79.5652 24.2176C77.7158 20.8497 75.5535 18.0182 72.7476 15.2897C67.2383 9.93234 61.1542 6.55236 53.8815 4.80786C51.4181 4.21694 50.3174 4.11625 45.5582 4.04464C42.5418 3.99941 39.7728 4.01691 39.4049 4.08368ZM40.9098 6.84284C40.1832 7.65075 39.9579 8.83287 40.3512 9.77431C40.7747 10.7874 41.5653 11.2501 42.7039 11.1513C43.1745 11.1107 43.6973 11.1629 43.8658 11.2679C44.3674 11.5797 45.0876 11.1863 44.7546 10.7822C44.5555 10.541 44.5635 10.2384 44.7813 9.75735C45.2008 8.83125 44.8709 7.26093 44.1505 6.7532C43.3195 6.16766 41.4711 6.21881 40.9098 6.84284ZM48.7545 6.66005C48.7467 6.85496 48.5865 7.959 48.3987 9.11339C48.2106 10.2678 48.1269 11.2553 48.2122 11.3083C48.2975 11.3611 48.9391 11.4903 49.6382 11.5955C50.6746 11.7517 50.909 11.7124 50.909 11.3826C50.909 11.1336 50.5491 10.9101 49.9726 10.8014C48.9913 10.6161 48.8933 10.485 49.2791 9.8723C49.4311 9.63082 49.7503 9.55894 50.1834 9.66851C50.6326 9.78185 50.9004 9.71374 50.9964 9.46202C51.1859 8.96532 50.955 8.76449 50.1954 8.76449C49.7072 8.76449 49.5713 8.61723 49.5713 8.08823C49.5713 7.45019 49.6315 7.42165 50.6414 7.58426C51.5112 7.72425 51.7116 7.6766 51.7116 7.33039C51.7116 7.04799 51.3737 6.84715 50.7083 6.73408C50.1566 6.6404 49.4945 6.50552 49.2369 6.43445C48.9661 6.35988 48.7628 6.45491 48.7545 6.66005ZM37.5488 7.35112C37.5578 7.75844 37.7144 8.87837 37.8966 9.84027C38.1355 11.1021 38.3546 11.6136 38.6826 11.6771C38.9346 11.7261 39.1374 11.5985 39.1374 11.3912C39.1374 11.0151 38.7018 8.34532 38.4562 7.21651C38.2636 6.32999 37.5284 6.43902 37.5488 7.35112ZM41.4267 7.74767C41.1977 8.07665 41.0101 8.53431 41.0101 8.76449C41.0101 9.52259 41.8165 10.3798 42.5295 10.3798C43.0798 10.3798 43.1558 10.3068 42.9123 10.0118C42.6814 9.73177 42.7055 9.56271 43.0134 9.30561C43.2914 9.07355 43.418 9.06224 43.418 9.27007C43.418 9.43618 43.5383 9.57213 43.6855 9.57213C43.8326 9.57213 43.953 9.15243 43.953 8.63931C43.953 7.16859 42.2486 6.5669 41.4267 7.74767ZM33.0731 7.95685L32.4934 8.19214L33.1002 10.4301C33.5373 12.0427 33.838 12.6939 34.1759 12.7604C34.5842 12.8409 34.6208 12.7106 34.4598 11.7509C34.3579 11.1449 34.3699 10.649 34.486 10.649C34.6024 10.649 35.0743 11.0165 35.5347 11.4655C36.1019 12.0185 36.522 12.2242 36.8363 12.1027C37.2422 11.9461 37.1943 11.8131 36.4567 11.0474C35.9278 10.4982 35.7215 10.1038 35.9037 9.99049C36.2943 9.74739 36.2739 8.4137 35.8734 8.01069C35.5053 7.64025 33.9285 7.60983 33.0731 7.95685ZM54.5378 10.0419C53.7221 12.5626 53.7462 12.6447 55.3883 12.9629C57.2354 13.3209 58.4267 12.3843 58.4789 10.5338C58.5118 9.36295 57.8943 8.64765 56.4114 8.13911L55.2791 7.75117L54.5378 10.0419ZM33.8348 9.10101C33.891 9.49863 34.1042 9.70674 34.4555 9.70674C34.8068 9.70674 35.02 9.49863 35.0762 9.10101C35.1463 8.60404 35.0347 8.49528 34.4555 8.49528C33.8763 8.49528 33.7647 8.60404 33.8348 9.10101ZM55.4803 10.1386C55.2995 10.7462 55.0929 11.3966 55.0215 11.584C54.8206 12.1111 56.0323 12.2998 56.7177 11.8478C57.562 11.2911 57.7811 10.2225 57.1864 9.56136C56.4191 8.70822 55.8487 8.90125 55.4803 10.1386ZM28.7704 9.48975C28.4014 9.63028 28.2709 14.9599 28.6366 14.9524C29.0877 14.9429 29.4574 14.5152 29.546 13.9005C29.6725 13.0224 30.9444 12.5671 31.6012 13.1653C31.9115 13.448 32.1876 13.5026 32.4551 13.3344C32.7711 13.1354 32.4747 12.712 30.9775 11.2238C29.9475 10.1999 28.9544 9.41949 28.7704 9.48975ZM52.1019 9.59017C51.8766 9.95684 51.9553 10.0268 52.8491 10.2524C53.4064 10.3932 53.5843 10.3405 53.5843 10.0338C53.5843 9.40091 52.4302 9.05524 52.1019 9.59017ZM60.0223 10.4471C59.8917 10.7801 59.4795 11.7388 59.1062 12.5774C58.5244 13.8839 58.4858 14.1243 58.8368 14.2599C59.0621 14.3469 59.2855 14.418 59.3331 14.418C59.5592 14.418 61.0774 10.3319 60.9367 10.1027C60.666 9.66205 60.2714 9.81065 60.0223 10.4471ZM29.2386 11.5495C29.2386 12.0847 29.3729 12.2643 29.7736 12.2643C30.0679 12.2643 30.3087 12.162 30.3087 12.0368C30.3087 11.9116 30.0679 11.5899 29.7736 11.322C29.2514 10.8463 29.2386 10.8517 29.2386 11.5495ZM61.4418 12.9405C60.5737 14.5152 60.4099 15.0051 60.6775 15.2286C60.93 15.4394 61.1526 15.3266 61.5411 14.7898C62.2324 13.8349 62.7891 14.1549 62.5615 15.3766C62.4256 16.1051 62.4965 16.3283 62.9387 16.5666C63.4481 16.8409 63.4831 16.7833 63.4831 15.6682C63.4831 14.6234 63.5653 14.4557 64.148 14.3084C64.8398 14.1337 65.2767 13.1467 64.9923 12.401C64.8291 11.973 63.264 10.9147 62.8143 10.9284C62.6671 10.933 62.0497 11.8384 61.4418 12.9405ZM24.6313 11.8166L23.6356 12.4366L24.8333 14.495C25.6862 15.9614 26.1458 16.5092 26.4308 16.3994C26.9316 16.2058 26.9332 16.0031 26.438 15.3443C25.8778 14.5992 25.9356 14.2777 26.6916 13.931C27.1189 13.735 27.3003 13.4822 27.2007 13.2213C27.0654 12.8665 26.9543 12.8638 26.3093 13.1992C25.7547 13.4881 25.4968 13.5064 25.2654 13.2735C24.7983 12.8035 24.885 12.6293 25.7708 12.26C26.5865 11.9199 26.7144 11.3764 26.0059 11.2596C25.7975 11.2251 25.1787 11.4757 24.6313 11.8166ZM62.8496 12.5644C62.3442 13.2905 62.5018 13.6103 63.3651 13.6103C64.1086 13.6103 64.2745 12.8135 63.641 12.2845C63.3421 12.0349 63.1779 12.093 62.8496 12.5644ZM40.2075 13.4814C28.6406 15.0929 19.1629 23.1181 15.2387 34.6235C12.8022 41.7671 13.321 50.2497 16.6451 57.6267C18.6377 62.0496 23.3624 67.7171 27.1392 70.2157C37.293 76.9328 48.675 77.6497 59.0193 72.2237C72.1834 65.3184 78.8439 48.9712 74.2902 34.7436C71.6569 26.5156 65.8559 19.8749 58.0612 16.1654C52.333 13.4394 46.6463 12.5844 40.2075 13.4814ZM66.6251 13.8303C66.4124 14.0796 65.7339 14.9817 65.117 15.8354C64.152 17.1707 64.0591 17.4119 64.4508 17.5632C64.7571 17.6816 65.0894 17.5102 65.4656 17.0404L66.0247 16.3412L66.6754 16.8759C67.3129 17.3998 67.3167 17.4259 66.8605 18.2028C66.4279 18.9397 66.4565 19.533 66.9244 19.533C67.0341 19.533 67.7682 18.6799 68.5561 17.6372C69.6835 16.1447 69.9184 15.6722 69.66 15.4162C69.4026 15.1613 69.1939 15.2509 68.6942 15.8313C67.9368 16.7111 67.73 16.7394 67.108 16.0478C66.6566 15.546 66.6607 15.49 67.2003 14.7273C67.867 13.7853 67.8782 13.7121 67.3875 13.5226C67.1807 13.4429 66.8375 13.5813 66.6251 13.8303ZM40.463 14.426C36.0069 15.0536 30.2284 17.4318 26.8115 20.0443C21.5386 24.076 17.475 30.1535 15.6681 36.711C15.0051 39.1161 14.9495 39.7095 14.9562 44.3006C14.9626 48.8175 15.0289 49.5261 15.6665 51.9132C18.3686 62.0281 25.9016 70.0961 35.6594 73.3272C40.0045 74.7656 45.6465 75.1533 50.0395 74.3147C59.3361 72.54 67.1612 66.5393 71.4493 57.8959C75.541 49.6483 75.7777 39.734 72.0724 31.7777C68.1061 23.2608 60.7511 17.1954 51.6572 14.9429C49.0924 14.3073 43.2277 14.0368 40.463 14.426ZM20.5875 14.7566C20.1662 15.0673 20.1881 15.2539 20.8981 17.3793C21.3741 18.8043 21.8045 19.6676 22.0394 19.6676C22.2915 19.6676 22.399 19.4003 22.364 18.86C22.2976 17.8407 23.4039 16.8635 24.031 17.3871C24.2429 17.564 24.5982 17.6386 24.8207 17.5524C25.6357 17.2377 25.4727 17.0926 21.8629 14.9171C21.1914 14.5125 20.9589 14.4831 20.5875 14.7566ZM21.4988 16.0944C21.5092 16.2828 21.6023 16.6522 21.7056 16.9155C21.8674 17.3276 21.9611 17.3438 22.384 17.0326C22.8501 16.6899 22.8394 16.6479 22.1775 16.2115C21.6796 15.8833 21.4854 15.8496 21.4988 16.0944ZM43.2842 17.116C39.9574 17.788 36.8467 19.9253 35.2798 22.6163C33.8851 25.011 33.4448 28.3126 34.1599 31.015C34.7164 33.1181 35.7672 34.8472 38.0854 37.4734C39.2433 38.7853 40.1947 39.9523 40.1992 40.067C40.2038 40.1814 38.1309 40.242 35.5925 40.2016L30.9775 40.1278L30.8933 39.2472C30.778 38.0431 31.5295 35.5504 32.4784 33.9887C33.1735 32.8454 33.2342 32.5802 33.0041 31.7004C32.861 31.1531 32.7077 29.9605 32.6633 29.0503C32.5672 27.0753 32.3746 27.096 30.4502 29.2888C25.1554 35.3227 24.7097 43.9445 29.3713 50.1673C33.3747 55.5118 41.6338 57.7217 46.5955 54.7757L47.5072 54.2344L48.2296 54.9308C49.2583 55.9226 51.4435 56.6847 53.2528 56.6828C54.8942 56.6812 56.7947 56.2621 56.7947 55.9016C56.7947 55.781 56.081 55.6173 55.2085 55.5376C52.9837 55.3346 51.0184 54.2236 49.8971 52.5356L49.0188 51.2132L49.6823 50.5165C50.5403 49.6149 51.1765 48.0653 51.1765 46.877C51.1765 45.7687 50.2637 43.1589 49.4752 42.0123C49.1697 41.5681 47.1701 39.3749 45.0317 37.1382C40.4266 32.3215 39.3372 30.6747 39.1871 28.3056C39.0536 26.1939 39.4432 24.7768 40.5165 23.4692C43.1772 20.2273 48.2483 20.927 51.0128 24.9173L51.4791 25.5903L53.2007 23.7424C54.1475 22.7262 54.922 21.7877 54.922 21.6568C54.922 21.0963 52.9339 19.277 51.4542 18.4834C48.9105 17.119 45.8255 16.6026 43.2842 17.116ZM16.9113 18.1662C16.021 19.0624 15.937 19.5702 16.574 20.2112C17.0151 20.6551 17.8777 20.6524 19.2729 20.2028C19.7517 20.0483 19.8748 20.1118 19.8748 20.5138C19.8748 20.7916 19.634 21.1701 19.3397 21.3551C18.8081 21.6892 18.5936 22.4944 19.0361 22.4944C19.454 22.4944 20.6424 21.4146 20.8101 20.8823C21.0199 20.2174 20.5621 19.3486 19.8885 19.1335C19.6014 19.042 18.9957 19.1599 18.5428 19.3955C18.0895 19.6313 17.6018 19.7516 17.4592 19.6628C16.9758 19.3621 17.1957 18.7135 17.8683 18.4562C18.604 18.1748 18.7865 17.3793 18.1152 17.3793C17.8833 17.3793 17.3415 17.7333 16.9113 18.1662ZM71.5092 18.272C71.1413 18.4352 70.0667 18.9114 69.1209 19.3303C67.5679 20.0179 67.4416 20.132 67.8164 20.5089C68.1693 20.864 68.3175 20.8726 68.8119 20.5663C69.3315 20.244 69.4454 20.2761 69.8941 20.8705C70.2748 21.3747 70.3302 21.6579 70.1236 22.0459C69.9214 22.4263 69.9567 22.6626 70.2614 22.9695C70.6293 23.3397 70.7882 23.1445 71.8179 21.0552C72.8212 19.0194 72.9154 18.6815 72.5713 18.3517C72.2655 18.0588 72.0293 18.041 71.5092 18.272ZM70.7708 19.6208C70.2981 19.8849 70.2368 20.0295 70.4899 20.2841C70.9551 20.7523 71.1175 20.6941 71.4605 19.9368C71.7997 19.1874 71.6606 19.1235 70.7708 19.6208ZM72.9138 22.6629C71.9942 23.1895 71.2417 23.7909 71.2417 23.9995C71.2417 24.5549 71.7128 24.4677 73.0861 23.6579L74.3084 22.937L73.8014 23.7252C72.4223 25.869 72.4873 25.7064 72.94 25.8811C73.1703 25.9699 73.9357 25.9209 74.641 25.7718L75.9235 25.5009L74.9973 26.286C74.4879 26.7178 73.9761 27.071 73.8603 27.071C73.5735 27.071 73.5922 27.8113 73.8836 27.9925C74.0123 28.0725 74.9141 27.5314 75.888 26.7897C77.4862 25.572 77.6261 25.3898 77.3297 24.9119C77.1491 24.6209 76.819 24.4362 76.5961 24.5011C76.3733 24.5662 75.7138 24.7049 75.1306 24.8091L74.0698 24.9989L74.4877 24.3522C75.6373 22.573 75.6418 22.5601 75.2726 22.1124C74.8162 21.5589 74.8598 21.5486 72.9138 22.6629ZM40.4788 27.4075C40.4842 29.9077 40.6498 30.3398 41.5088 30.097C42.6314 29.7798 45.0692 29.9303 46.1441 30.3831C47.7558 31.0621 49.4833 32.8572 49.9835 34.3734C50.2267 35.1094 50.3514 36.0089 50.2607 36.3718C50.12 36.9366 49.9397 37.0319 49.0129 37.0319H47.9297L48.5041 37.8436C49.4584 39.1923 50.2843 39.4548 53.5709 39.4548H56.5272L56.524 38.5799C56.5098 34.63 52.8505 29.159 48.9506 27.257C47.2022 26.4042 44.086 25.7249 41.923 25.7249H40.4751L40.4788 27.4075ZM11.0258 29.1243L10.3773 29.8315L11.2947 29.3617C11.96 29.0209 12.5845 28.9307 13.5687 29.0338C14.8847 29.1714 14.9013 29.1647 14.1228 28.8085C12.8277 28.216 11.7589 28.325 11.0258 29.1243ZM11.0461 29.8977C10.0054 30.4585 9.93399 30.5482 10.5183 30.5587C10.8904 30.5654 11.456 30.3866 11.7752 30.1616C12.18 29.8762 12.7046 29.7987 13.5069 29.9058L14.6579 30.0593L13.7576 29.642C12.6075 29.1089 12.4898 29.12 11.0461 29.8977ZM11.5812 30.6941C11.2133 30.8995 10.5512 31.0139 10.1098 30.9485C9.45028 30.851 9.40266 30.8752 9.84222 31.0852C10.7021 31.4955 11.4766 31.4164 12.1535 30.8489C12.8836 30.2369 12.558 30.1486 11.5812 30.6941ZM79.2006 32.96C79.0904 33.4597 79.0002 35.1256 79.0002 36.6617V39.4548H78.2134C77.7805 39.4548 77.3522 39.576 77.2612 39.724C77.1555 39.896 77.9771 39.9932 79.5353 39.9932C81.0934 39.9932 81.915 39.896 81.8093 39.724C81.7184 39.576 81.2448 39.4548 80.7566 39.4548H79.8694L79.6351 35.7531C79.4641 33.0526 79.3466 32.2972 79.2006 32.96ZM8.81007 37.1668C8.16665 37.8142 7.73271 40.3766 8.14016 41.1245C8.46147 41.7146 8.48635 41.6871 8.68165 40.5317C9.20255 37.4457 9.16964 37.5321 9.79059 37.6209C10.2689 37.6893 10.3757 37.8791 10.3687 38.6472C10.3639 39.1654 10.266 40.0565 10.1507 40.6272C9.98803 41.4324 10.0201 41.6392 10.293 41.5493C10.7489 41.3991 11.2794 39.8551 11.2987 38.6216C11.323 37.0558 9.80316 36.1672 8.81007 37.1668ZM8.90585 42.1469C8.90585 43.7264 9.29806 43.9359 9.5367 42.4835C9.77935 41.0066 9.75126 40.8009 9.30715 40.8009C9.00403 40.8009 8.90585 41.1299 8.90585 42.1469ZM7.73056 43.1113C7.31722 44.1954 7.64041 46.8598 8.21213 47.0805C8.44997 47.1723 8.53157 46.6078 8.52006 44.947C8.50963 43.4429 8.40235 42.6883 8.19875 42.6873C8.03047 42.6862 7.81992 42.877 7.73056 43.1113ZM9.92998 44.8539C10.0044 46.6937 10.0755 46.9756 10.3982 46.7061C11.0461 46.165 10.8276 42.6862 10.1453 42.6848C9.9372 42.6843 9.86978 43.3646 9.92998 44.8539ZM31.3788 44.3036C31.3788 46.2732 33.6698 49.4065 36.2517 50.9677C37.9032 51.9665 40.9507 52.7179 42.3478 52.4707C43.6087 52.2476 44.7556 51.6375 44.7556 51.1895C44.7556 50.7505 43.7144 50.0292 42.4396 49.585L41.5118 49.262L42.0872 48.5257C43.2197 47.077 44.7714 46.6533 46.2001 47.4031C46.6265 47.6268 47.0353 47.7501 47.1081 47.6766C47.3505 47.4327 46.3566 45.1982 45.7522 44.6283C44.6687 43.6069 43.8417 43.493 37.5148 43.493H31.3788V44.3036ZM79.2709 44.2438C78.6286 44.7675 78.2634 46.6853 78.5711 47.9189C78.8728 49.1295 79.2019 48.6614 79.3162 46.859C79.4344 44.9909 79.7571 44.3914 80.4914 44.6749C80.8871 44.8278 80.9251 45.1072 80.7729 46.7534C80.6386 48.2072 80.6752 48.6296 80.9283 48.5445C81.7671 48.2632 81.9257 45.0908 81.1405 44.3006C80.4799 43.636 80.0337 43.6225 79.2709 44.2438ZM8.95802 47.1737C9.04738 48.5523 9.71113 49.189 9.70471 47.8901C9.6999 46.8415 9.42915 45.9159 9.12764 45.9159C8.98959 45.9159 8.91334 46.4818 8.95802 47.1737ZM10.0624 48.3388C10.1456 48.709 10.2957 49.6459 10.3963 50.4207C10.552 51.6232 10.5095 51.8561 10.1049 52.0123C9.38046 52.2922 8.90585 51.395 8.90585 49.7458C8.90585 48.7047 8.81114 48.3254 8.57143 48.4048C7.8737 48.6361 8.05241 51.749 8.80713 52.5084C9.34407 53.0487 10.3639 53.025 10.926 52.4594C11.5745 51.8069 11.2751 48.9777 10.4763 48.2094L9.91098 47.6658L10.0624 48.3388ZM79.4392 48.3951C79.1944 49.315 79.2343 50.2233 79.5195 50.2233C79.8796 50.2233 80.0048 49.9434 80.1107 48.8999C80.2175 47.8494 79.6902 47.4529 79.4392 48.3951ZM53.7181 49.9051C52.9824 50.6121 52.0992 51.3853 51.7554 51.6235C51.2279 51.9888 51.1773 52.1444 51.4304 52.6207C51.7897 53.2961 52.5053 53.3381 53.6646 52.7513C54.6767 52.2387 56.5272 50.5127 56.5272 50.0809C56.5272 49.7961 55.4236 48.6013 55.1724 48.614C55.1082 48.6169 54.4538 49.1982 53.7181 49.9051ZM78.2334 49.8868C78.0957 50.1461 77.8963 50.9381 77.7907 51.6472C77.6355 52.6891 77.6898 53.038 78.0735 53.4644C78.6776 54.1361 79.5872 54.1399 80.1867 53.4733C81.0343 52.5308 81.354 49.6849 80.6124 49.6849C80.489 49.6849 80.3066 50.2812 80.207 51.0103C79.9863 52.6239 79.5254 53.3419 78.8715 53.0894C78.3988 52.9069 78.4092 52.037 78.9082 50.0214C79.0863 49.3021 78.5962 49.2044 78.2334 49.8868ZM22.1679 58.7227C21.9367 58.9555 21.7476 59.2498 21.7476 59.3766C21.7476 59.7449 22.5523 60.4534 22.9705 60.4534C23.1808 60.4534 23.3528 60.6438 23.3528 60.8767C23.3528 61.1593 23.1532 61.2732 22.7508 61.2202C21.8709 61.1041 21.7607 61.6092 22.601 61.9067C24.1329 62.4489 24.8435 60.5364 23.3426 59.9107C22.5732 59.5901 22.3656 58.8815 23.0917 59.0535C23.2792 59.098 23.6219 59.0611 23.8533 58.9717C24.2193 58.8304 24.2228 58.7765 23.8804 58.5587C23.2931 58.1851 22.6403 58.2475 22.1679 58.7227ZM25.2627 59.8044C24.9478 60.6319 24.6905 61.48 24.6905 61.6889C24.6905 62.1923 25.1273 62.1759 25.3224 61.6649C25.4069 61.4428 25.7847 61.2611 26.1619 61.2611C26.5391 61.2611 26.9169 61.4428 27.0014 61.6649C27.0862 61.887 27.3169 62.0687 27.5138 62.0687C27.8517 62.0687 27.5742 60.9507 26.6959 58.7709C26.3502 57.9137 25.8425 58.2801 25.2627 59.8044ZM28.436 60.1681C28.436 61.2557 28.5505 62.0687 28.7035 62.0687C28.8506 62.0687 28.971 61.7053 28.971 61.2611C28.971 60.5792 29.0751 60.4534 29.6399 60.4534C30.0077 60.4534 30.3087 60.3323 30.3087 60.1842C30.3087 60.0362 30.0077 59.915 29.6399 59.915C29.2236 59.915 28.971 59.7624 28.971 59.5112C28.971 59.2396 29.241 59.1074 29.7958 59.1074C30.9749 59.1074 30.6498 58.4556 29.4186 58.3509L28.436 58.2672V60.1681ZM31.3778 59.5139C30.6297 61.2697 30.4564 62.0687 30.8232 62.0687C30.9909 62.0687 31.1975 61.887 31.282 61.6649C31.3668 61.4428 31.728 61.2611 32.0846 61.2611C32.4415 61.2611 32.8027 61.4428 32.8872 61.6649C33.1103 62.2499 33.86 62.1856 33.6724 61.5976C33.1448 59.9449 32.4675 58.4405 32.2122 58.3549C32.0482 58.3 31.6726 58.8215 31.3778 59.5139ZM34.3217 60.1842C34.3217 61.2611 34.4365 62.0687 34.5893 62.0687C34.7364 62.0687 34.8568 61.8466 34.8568 61.5753C34.8568 60.7243 35.2051 60.6812 35.8205 61.4563C36.4901 62.2989 36.9388 62.1576 36.4588 61.2552C36.2319 60.8282 36.2258 60.5835 36.4371 60.3708C36.9861 59.8184 36.7734 58.8417 36.0433 58.5622C34.4884 57.9675 34.3217 58.1245 34.3217 60.1842ZM37.7106 58.4793C37.4225 58.769 37.5046 62.0687 37.7997 62.0687C37.9525 62.0687 38.0672 61.2611 38.0672 60.1842C38.0672 58.2892 38.0381 58.1498 37.7106 58.4793ZM39.4049 58.8382C38.3168 59.9331 39.0855 62.0687 40.5674 62.0687C40.9125 62.0687 41.424 61.8073 41.7044 61.488C42.2068 60.9154 42.2066 60.9095 41.679 61.0538C41.3847 61.1343 40.9422 61.2837 40.6955 61.3863C40.0208 61.6668 39.2666 60.4088 39.6628 59.6638C39.9716 59.0834 40.8582 58.9114 41.1439 59.3766C41.3914 59.7796 41.8127 59.701 41.8127 59.2514C41.8127 58.8191 41.0192 58.2997 40.3589 58.2997C40.1286 58.2997 39.6992 58.542 39.4049 58.8382ZM43.953 60.3188V62.0687H45.0232C45.6117 62.0687 46.0933 61.9476 46.0933 61.7995C46.0933 61.6514 45.7923 61.5303 45.4245 61.5303C44.9341 61.5303 44.7556 61.3868 44.7556 60.9919C44.7556 60.633 44.9341 60.4534 45.2907 60.4534C45.585 60.4534 45.8258 60.3323 45.8258 60.1842C45.8258 60.0362 45.585 59.915 45.2907 59.915C44.9935 59.915 44.7556 59.7355 44.7556 59.5112C44.7556 59.26 45.0082 59.1074 45.4245 59.1074C45.7923 59.1074 46.0933 58.9862 46.0933 58.8382C46.0933 58.6901 45.6117 58.569 45.0232 58.569H43.953V60.3188ZM48.7687 60.3188V62.0687H49.705C50.8565 62.0687 51.7116 61.2834 51.7116 60.226C51.7116 59.2081 50.9552 58.569 49.7508 58.569H48.7687V60.3188ZM52.2466 60.3188C52.2466 61.6948 52.3325 62.0687 52.6479 62.0687C52.9634 62.0687 53.0492 61.6948 53.0492 60.3188C53.0492 58.9429 52.9634 58.569 52.6479 58.569C52.3325 58.569 52.2466 58.9429 52.2466 60.3188ZM53.8518 60.3035C53.8518 61.6932 53.9372 62.0687 54.2531 62.0687C54.5121 62.0687 54.655 61.8065 54.6558 61.3284L54.6571 60.5881L55.3005 61.3957C56.0055 62.2801 56.4868 62.191 55.9953 61.267C55.7639 60.832 55.7637 60.5959 55.994 60.3164C56.1628 60.1121 56.2613 59.6655 56.2134 59.3241C56.1401 58.8034 55.9429 58.6901 54.9889 58.6209L53.8518 58.538V60.3035ZM56.7947 60.3188C56.7947 61.6948 56.8806 62.0687 57.196 62.0687C57.4457 62.0687 57.5973 61.8146 57.5973 61.3957C57.5973 60.8274 57.7223 60.7227 58.4 60.7227C59.0776 60.7227 59.2026 60.8274 59.2026 61.3957C59.2026 61.7659 59.3229 62.0687 59.4701 62.0687C59.621 62.0687 59.7376 61.306 59.7376 60.3188C59.7376 59.3316 59.621 58.569 59.4701 58.569C59.3229 58.569 59.2026 58.8718 59.2026 59.242C59.2026 59.8103 59.0776 59.915 58.4 59.915C57.7223 59.915 57.5973 59.8103 57.5973 59.242C57.5973 58.8231 57.4457 58.569 57.196 58.569C56.8806 58.569 56.7947 58.9429 56.7947 60.3188ZM61.3091 59.3093C60.3679 61.7276 60.2874 62.0687 60.6572 62.0687C60.8557 62.0687 61.0873 61.887 61.1722 61.6649C61.3774 61.1265 62.4071 61.1499 62.8081 61.7021C63.512 62.6704 63.6252 61.8582 63.0101 60.2515C62.3092 58.4201 61.7712 58.1221 61.3091 59.3093ZM64.0182 60.3188C64.0182 61.6948 64.1041 62.0687 64.4195 62.0687C64.71 62.0687 64.8267 61.7527 64.8419 60.9246C64.862 59.8383 64.8767 59.8178 65.1317 60.5208C65.2796 60.9278 65.5672 61.2611 65.7708 61.2611C65.9747 61.2611 66.3209 60.9278 66.5405 60.5208L66.9397 59.7804L66.9504 60.9246C66.9563 61.554 67.0815 62.0687 67.2286 62.0687C67.3795 62.0687 67.4962 61.306 67.4962 60.3188C67.4962 58.3625 67.017 57.9409 66.426 59.3766C66.2433 59.8208 66.0025 60.1842 65.891 60.1842C65.7794 60.1842 65.5386 59.8208 65.3559 59.3766C65.1534 58.8845 64.827 58.569 64.5209 58.569C64.0805 58.569 64.0182 58.7862 64.0182 60.3188ZM34.9076 59.5785C34.9574 59.8378 35.1752 60.0496 35.3919 60.0496C35.6086 60.0496 35.8264 59.8378 35.8761 59.5785C35.9393 59.2479 35.7948 59.1074 35.3919 59.1074C34.989 59.1074 34.8445 59.2479 34.9076 59.5785ZM49.5713 60.3188C49.5713 61.6264 49.6111 61.6719 50.3915 61.2517C51.2399 60.7945 50.993 59.1074 50.0777 59.1074C49.6558 59.1074 49.5713 59.3096 49.5713 60.3188ZM54.6545 59.6682C54.6545 60.3242 55.2797 60.2316 55.4097 59.5562C55.4611 59.2904 55.3246 59.1074 55.0753 59.1074C54.8273 59.1074 54.6545 59.3376 54.6545 59.6682ZM74.9203 59.4821C74.4457 59.8448 74.2857 60.4368 74.6527 60.4734C75.6284 60.5708 76.243 60.8026 76.5228 61.1792C76.9327 61.7311 76.7384 61.9874 76.2315 61.564C75.8877 61.277 74.9872 61.3978 74.9872 61.7314C74.9872 61.8103 75.198 62.0321 75.4553 62.2246C75.8502 62.5197 75.8708 62.6613 75.587 63.1292C75.0669 63.9858 75.8823 63.8582 76.5728 62.9746C77.7818 61.4283 76.9667 59.0888 75.5637 60.0776C75.0474 60.4416 74.9872 60.4403 74.9872 60.065C74.9872 59.8345 75.1225 59.6762 75.2881 59.7131C75.4537 59.75 75.6442 59.6291 75.7116 59.4439C75.8698 59.0105 75.5155 59.0274 74.9203 59.4821ZM11.715 59.7858L10.9124 60.1514L12.1163 60.1455C12.7784 60.142 13.8018 60.2203 14.3903 60.3194L15.4605 60.4995L14.4008 59.9382C13.1902 59.2966 12.8333 59.2764 11.715 59.7858ZM25.9348 59.7713C25.7309 60.3062 25.8542 60.5636 26.243 60.4141C26.3797 60.3616 26.4083 60.0854 26.3066 59.8001C26.1309 59.3071 26.1124 59.3058 25.9348 59.7713ZM31.9139 60.0337C31.9139 60.2645 32.0343 60.4534 32.1815 60.4534C32.3286 60.4534 32.449 60.3396 32.449 60.2001C32.449 60.0607 32.3286 59.8719 32.1815 59.7804C32.0343 59.6889 31.9139 59.803 31.9139 60.0337ZM61.7508 59.9043C61.524 60.2736 61.7249 60.5509 62.12 60.4141C62.2822 60.3581 62.3028 60.1681 62.1703 59.9535C62.0031 59.6827 61.8948 59.67 61.7508 59.9043ZM46.6284 60.4534C46.6284 60.6015 46.9896 60.7227 47.431 60.7227C47.8724 60.7227 48.2336 60.6015 48.2336 60.4534C48.2336 60.3054 47.8724 60.1842 47.431 60.1842C46.9896 60.1842 46.6284 60.3054 46.6284 60.4534ZM11.0461 60.6844C11.0461 60.8112 11.7861 60.993 12.6907 61.0883C15.1469 61.3464 15.6173 61.2686 14.1228 60.8511C12.6013 60.4257 11.0461 60.3417 11.0461 60.6844ZM47.1541 64.0991C46.7512 64.5878 47.1857 65.2145 47.7039 64.8922C47.9447 64.7423 47.934 64.6368 47.6603 64.462C47.393 64.2919 47.3855 64.2297 47.6316 64.2265C47.8157 64.2243 47.9661 64.1013 47.9661 63.9532C47.9661 63.5518 47.5428 63.628 47.1541 64.0991ZM40.4751 65.9723C40.4751 67.5876 40.5553 67.9914 40.8764 67.9914C41.1974 67.9914 41.2777 67.5876 41.2777 65.9723C41.2777 64.357 41.1974 63.9532 40.8764 63.9532C40.5553 63.9532 40.4751 64.357 40.4751 65.9723ZM15.7641 64.7805C14.6819 65.6369 14.942 67.1838 16.1678 67.1838C16.7377 67.1838 18.2086 65.9567 17.9507 65.6966C17.8488 65.5938 17.4274 65.7481 17.0143 66.0391C16.2238 66.5964 15.5942 66.5705 15.5942 65.9809C15.5942 65.7882 15.8952 65.432 16.2631 65.1895C16.9177 64.7579 17.1599 64.2224 16.7005 64.2224C16.5732 64.2224 16.1518 64.4736 15.7641 64.7805ZM53.0492 64.6263C53.0492 64.8731 53.1787 65.0314 53.3368 64.9784C53.495 64.9254 53.6244 64.7668 53.6244 64.6263C53.6244 64.4857 53.495 64.3272 53.3368 64.2741C53.1787 64.2211 53.0492 64.3794 53.0492 64.6263ZM55.903 64.402C55.5951 64.7116 55.708 65.0301 56.1259 65.0301C56.3466 65.0301 56.5272 64.8484 56.5272 64.6263C56.5272 64.2057 56.2107 64.0921 55.903 64.402ZM71.8182 65.1203C71.243 65.7362 71.2419 65.7545 71.746 66.2135C72.0812 66.5188 72.3196 66.5813 72.4349 66.3936C72.6706 66.0097 73.6495 66.0262 73.6495 66.4138C73.6495 66.5826 73.4387 66.8815 73.1813 67.0782C72.7872 67.3792 72.7789 67.4371 73.1278 67.4444C74.1032 67.4646 74.5291 66.1915 73.7616 65.5505C73.4298 65.2732 73.2287 65.2662 72.8287 65.5173C72.1026 65.9739 71.9833 65.9169 72.3241 65.2761C72.7532 64.4693 72.4991 64.391 71.8182 65.1203ZM44.0325 64.966C43.4121 65.0694 42.9891 65.8956 43.2984 66.3993C43.399 66.563 43.3305 66.9797 43.1464 67.3259C42.6408 68.2765 42.9779 68.7991 44.0959 68.7991C44.6253 68.7991 45.3212 68.6486 45.6428 68.4644C46.1856 68.1535 46.1415 68.1198 45.0232 67.9933C43.713 67.8447 43.4739 67.471 44.4212 67.0527C45.1671 66.7234 45.2013 66.3761 44.4881 66.3761C44.1909 66.3761 43.953 66.1966 43.953 65.9723C43.953 65.7481 44.1909 65.5685 44.4881 65.5685C44.7824 65.5685 45.0232 65.4546 45.0232 65.3152C45.0232 64.9595 44.7176 64.8519 44.0325 64.966ZM32.3842 65.5012C32.156 65.7602 31.9252 66.2133 31.8716 66.5078C31.7085 67.4024 30.9379 67.3205 30.7525 66.3888C30.5262 65.25 29.4256 65.2314 28.8472 66.357C28.6243 66.7907 28.1906 67.2258 27.8838 67.3238C26.762 67.6821 27.7521 67.8574 31.0067 67.8762C34.6096 67.8969 35.0532 67.7381 34.7527 66.5339C34.6604 66.164 34.2201 65.6918 33.7455 65.4535C32.7256 64.9418 32.8821 64.9361 32.3842 65.5012ZM38.2425 65.7701C38.1654 65.8956 38.213 66.174 38.3484 66.3891C38.7693 67.0586 38.6368 67.1838 37.507 67.1838C36.6295 67.1838 36.3836 67.0745 36.2691 66.6343C36.1907 66.3323 35.9912 66.1352 35.8261 66.1968C35.6608 66.2585 35.5685 66.4755 35.6206 66.679C35.9668 68.027 35.4778 68.9234 34.5224 68.6933C34.0114 68.57 33.883 68.9299 34.337 69.2123C34.8164 69.5106 35.8823 69.0955 36.0567 68.5428C36.1875 68.1274 36.5107 68.0019 37.6127 67.9376C38.9506 67.8598 39.0066 67.8251 39.0841 67.0263C39.1623 66.2203 38.5381 65.2888 38.2425 65.7701ZM46.8959 66.78C46.8959 67.6772 47 67.9914 47.2972 67.9914C47.5945 67.9914 47.6985 67.6772 47.6985 66.78C47.6985 65.8827 47.5945 65.5685 47.2972 65.5685C47 65.5685 46.8959 65.8827 46.8959 66.78ZM52.2065 66.3761C51.9823 67.0233 51.7726 67.1838 51.1503 67.1838C50.6385 67.1838 50.3739 67.0462 50.3739 66.78C50.3739 66.5579 50.1802 66.3761 49.9437 66.3761C49.6143 66.3761 49.5542 66.5398 49.6869 67.0721C49.949 68.1228 49.6347 68.7991 48.8845 68.7991C48.5265 68.7991 48.2336 68.9202 48.2336 69.0683C48.2336 69.2163 48.5974 69.3375 49.0418 69.3375C49.6446 69.3375 49.9279 69.1663 50.155 68.6645L50.4598 67.9914H55.7543C60.3859 67.9914 61.0796 67.936 61.2947 67.5494C61.5705 67.0529 61.4062 66.1069 61.044 66.1069C60.9142 66.1069 60.8078 66.3492 60.8078 66.6454C60.8078 67.2438 60.4035 67.3701 60.1611 66.8473C60.0365 66.578 59.9739 66.578 59.8492 66.8473C59.7633 67.0325 59.5324 67.1838 59.3363 67.1838C59.1402 67.1838 58.9093 67.0325 58.8235 66.8473C58.6988 66.578 58.6362 66.578 58.5115 66.8473C58.4256 67.0325 58.0728 67.1838 57.7274 67.1838C57.28 67.1838 57.0748 67.0096 57.0141 66.578C56.882 65.6431 55.5611 65.5828 55.1489 66.493C54.8059 67.2505 53.9466 67.4866 54.2291 66.7458C54.4578 66.1462 53.9217 65.5685 53.1365 65.5685C52.6546 65.5685 52.4138 65.7777 52.2065 66.3761ZM32.449 66.6677C32.449 67.3238 33.0742 67.2312 33.2042 66.5557C33.2556 66.29 33.1192 66.1069 32.8698 66.1069C32.6218 66.1069 32.449 66.3371 32.449 66.6677ZM29.3054 66.7127C29.3667 66.8979 29.5775 67.0492 29.7736 67.0492C29.9697 67.0492 30.1806 66.8979 30.2418 66.7127C30.3082 66.5124 30.1185 66.3761 29.7736 66.3761C29.4288 66.3761 29.2391 66.5124 29.3054 66.7127ZM33.7867 66.7641C33.7867 66.9948 33.9071 67.1838 34.0542 67.1838C34.2013 67.1838 34.3217 67.0699 34.3217 66.9305C34.3217 66.791 34.2013 66.6023 34.0542 66.5107C33.9071 66.4192 33.7867 66.5334 33.7867 66.7641ZM52.5811 66.7127C52.7496 67.222 53.5843 67.2944 53.5843 66.7996C53.5843 66.55 53.3556 66.3761 53.027 66.3761C52.7001 66.3761 52.5155 66.5153 52.5811 66.7127ZM55.5898 66.6472C55.498 66.7964 55.6165 66.9932 55.853 67.0844C56.3651 67.282 56.6505 67.0642 56.4044 66.6634C56.1824 66.3016 55.8065 66.2943 55.5898 66.6472ZM17.8509 67.5566C17.272 68.0622 16.8888 68.5694 16.9999 68.6836C17.1109 68.7974 17.517 68.5977 17.9025 68.2394L18.6035 67.5876L18.4154 68.2606C18.3119 68.6308 18.1717 69.1356 18.1037 69.3822C18.0358 69.6288 18.0898 69.8985 18.2233 69.9817C18.4785 70.1405 20.3834 68.8112 20.4003 68.4625C20.4147 68.1632 19.6653 68.2176 19.4735 68.5298C19.1051 69.1297 18.8571 68.7466 19.0883 67.9349C19.4537 66.6526 19.0329 66.5239 17.8509 67.5566ZM70.3561 66.956C70.1073 67.096 69.904 67.3862 69.904 67.6011C69.904 68.0684 70.3508 68.1236 70.4995 67.6746C70.7069 67.0484 71.2417 67.7731 71.2417 68.6803C71.2417 69.72 71.4854 69.8382 72.1366 69.1143C72.6765 68.514 72.7099 68.1527 72.2075 68.3465C71.9613 68.4418 71.785 68.2356 71.686 67.7365C71.5154 66.8777 71.0156 66.5845 70.3561 66.956ZM68.4515 68.9528C67.8496 69.5588 67.9317 70.2264 68.6974 70.9503C69.2702 71.4917 69.458 71.5367 70.0351 71.272C70.896 70.8774 70.9019 70.0479 70.0498 69.1908C69.2817 68.4176 69.0219 68.3791 68.4515 68.9528ZM20.0043 70.2334C19.4377 70.7261 19.096 71.205 19.245 71.2976C19.5391 71.4804 21.48 69.9949 21.48 69.5871C21.48 69.1358 21.049 69.3246 20.0043 70.2334ZM68.5663 69.6996C68.5663 69.8988 68.81 70.2835 69.1078 70.5546C69.8154 71.1994 70.3711 70.7543 69.9192 69.9047C69.587 69.2796 68.5663 69.1248 68.5663 69.6996ZM22.0748 70.4442C22.1459 70.6499 21.8428 71.2362 21.4016 71.7472C20.8363 72.4019 20.7039 72.7115 20.9541 72.7955C21.1491 72.8609 21.5763 72.5767 21.9035 72.1639C22.2808 71.688 22.6513 71.4726 22.917 71.5752C23.5296 71.8118 23.6824 71.3585 23.1457 70.8952C22.3498 70.2079 21.9324 70.0321 22.0748 70.4442ZM66.1531 70.8246C65.7326 71.3345 66.0135 71.6783 66.5111 71.2626C67.0232 70.8351 67.2286 71.1447 67.2286 72.3438C67.2286 72.9113 67.3188 73.373 67.4293 73.3698C67.8308 73.3576 68.9545 72.3303 68.7694 72.1443C68.6648 72.039 68.3956 72.1061 68.1714 72.2934C67.8244 72.5834 67.7637 72.5322 67.7637 71.9499C67.7637 70.4811 66.9218 69.8929 66.1531 70.8246ZM41.2108 70.9743C40.5513 71.3609 40.6292 71.9424 41.409 72.4566C42.1546 72.9482 42.0479 73.4871 41.2552 73.2338C40.9732 73.1439 40.7426 73.1913 40.7426 73.3393C40.7426 73.7052 41.6362 73.9653 42.1763 73.7569C42.8882 73.4818 42.7245 72.3274 41.9305 72.0234C41.145 71.723 41.2734 71.201 42.0805 71.4134C42.7111 71.5792 42.8085 71.0849 42.1921 70.847C41.6862 70.6515 41.7828 70.6391 41.2108 70.9743ZM43.418 72.4334V73.9141H44.3543C44.8693 73.9141 45.2907 73.793 45.2907 73.6449C45.2907 73.4968 44.9897 73.3757 44.6219 73.3757C44.2056 73.3757 43.953 73.223 43.953 72.9719C43.953 72.7476 44.1909 72.568 44.4881 72.568C44.7824 72.568 45.0232 72.4469 45.0232 72.2988C45.0232 72.1508 44.7824 72.0296 44.4881 72.0296C44.1938 72.0296 43.953 71.9085 43.953 71.7604C43.953 71.6123 44.254 71.4912 44.6219 71.4912C44.9897 71.4912 45.2907 71.37 45.2907 71.222C45.2907 71.0739 44.8693 70.9528 44.3543 70.9528H43.418V72.4334ZM45.8258 72.3072C45.8258 73.8263 46.1444 74.1203 47.3553 73.7168C47.9348 73.5238 48.1188 73.2755 48.1849 72.5971C48.2959 71.4608 47.8462 70.9528 46.7295 70.9528H45.8258V72.3072ZM46.4997 72.3441C46.7418 73.4799 46.7926 73.5278 47.3036 73.1011C47.9163 72.5896 47.6945 71.6444 46.9366 71.5364C46.355 71.4535 46.3229 71.513 46.4997 72.3441ZM23.3785 72.9342L22.5734 74.1114L23.2297 74.7317C23.9935 75.454 24.4622 75.24 23.7795 74.4808C23.2482 73.8899 23.6717 73.3986 24.2771 73.9039C24.5305 74.1155 24.6966 74.1222 24.8173 73.9251C24.9133 73.769 24.8036 73.5684 24.5735 73.4796C24.3437 73.3908 24.1554 73.1493 24.1554 72.9431C24.1554 72.484 24.4759 72.4598 24.8999 72.8865C25.2632 73.2521 25.6346 73.0163 25.3711 72.5874C25.2748 72.4302 24.9679 72.179 24.6897 72.0291C24.2613 71.7984 24.0601 71.9373 23.3785 72.9342ZM64.7242 73.2933C64.4045 73.615 64.5517 74.1833 64.9546 74.1833C65.1753 74.1833 65.3559 74.0089 65.3559 73.7954C65.3559 73.3455 64.9741 73.0421 64.7242 73.2933ZM25.4682 74.5791C24.8389 75.7728 24.8379 75.7857 25.3641 76.1857C26.0945 76.7414 26.7339 76.7037 27.3658 76.0678C28.0694 75.3598 28.0421 74.68 27.2818 73.961C26.4112 73.1382 26.1876 73.2144 25.4682 74.5791ZM61.3964 74.2372C61.2198 74.4148 61.0753 74.7134 61.0753 74.9008C61.0753 75.2911 61.9713 75.8406 62.4355 75.7351C62.6072 75.696 62.8025 75.8156 62.8699 76.0005C62.9374 76.1857 62.8092 76.337 62.5847 76.337C62.3605 76.337 62.1026 76.4582 62.0117 76.6062C61.7425 77.0443 62.8726 76.9129 63.3298 76.4531C63.9716 75.8072 63.4205 74.9926 62.3367 74.985L61.4766 74.9791L62.1455 74.4525C62.771 73.9601 62.7787 73.9257 62.2658 73.92C61.9641 73.9168 61.5729 74.0595 61.3964 74.2372ZM25.9535 74.9627C25.5551 75.6414 25.5476 75.762 25.8957 75.8966C26.7422 76.2234 27.5202 75.4395 27.1951 74.5871C26.9551 73.9577 26.4546 74.1093 25.9535 74.9627ZM59.3363 75.3081C59.042 75.4734 58.7627 75.6398 58.7156 75.6777C58.6386 75.7396 59.6716 77.9391 59.8957 78.1906C60.0504 78.3639 61.6104 77.6338 61.6104 77.388C61.6104 77.2615 61.2492 77.2308 60.8078 77.3197C59.9656 77.4893 59.6453 76.9974 60.4065 76.7037C61.0774 76.4444 60.8541 76.0457 60.1389 76.2264C59.3371 76.4291 59.2189 75.9152 60.0092 75.6627C60.3056 75.5682 60.479 75.3781 60.3947 75.2408C60.1991 74.9226 59.9995 74.9352 59.3363 75.3081ZM29.9917 76.5591C29.6364 76.9551 29.1733 77.507 28.963 77.7854C28.6021 78.2627 28.6305 78.2805 29.463 78.0963C30.2196 77.9292 30.3665 77.9819 30.4922 78.4652C30.7167 79.3293 31.0233 79.1382 31.2071 78.0196C31.5586 75.8802 31.0977 75.3264 29.9917 76.5591ZM56.8616 76.4035C55.9608 76.6943 55.6058 77.465 56.4782 77.2357C56.8541 77.1366 57.0462 77.3565 57.3237 78.2029C57.5214 78.8054 57.7841 79.2984 57.9077 79.2984C58.2215 79.2984 58.1881 78.82 57.798 77.7256C57.5305 76.9753 57.5305 76.7651 57.798 76.6746C58.1538 76.554 58.2705 76.049 57.9318 76.0953C57.8215 76.1104 57.3397 76.249 56.8616 76.4035ZM32.3746 78.0035C31.9062 79.4771 31.9918 80.0226 32.5672 79.2305C33.0188 78.6092 33.1965 78.6369 33.2998 79.3447C33.3468 79.6661 33.5264 79.976 33.6987 80.0331C33.9022 80.1004 33.9584 79.9305 33.8594 79.549C33.7588 79.1624 33.8576 78.876 34.1478 78.7126C35.028 78.2169 34.6005 77.1503 33.3701 76.7721C32.8952 76.6262 32.7585 76.7952 32.3746 78.0035ZM30.1864 77.1261C30.1016 77.2639 30.1549 77.4526 30.3044 77.5458C30.454 77.6387 30.5762 77.5259 30.5762 77.2952C30.5762 76.8222 30.4157 76.7527 30.1864 77.1261ZM54.483 77.3506C54.1657 77.5566 53.8585 80.3758 54.1536 80.3755C54.2459 80.3752 54.5054 80.1028 54.7302 79.7695C55.0766 79.2553 55.219 79.2122 55.6703 79.4844C56.5558 80.0185 56.5558 79.5611 55.6703 78.3203C55.2088 77.6737 54.8217 77.1466 54.8096 77.1487C54.7979 77.1511 54.651 77.2419 54.483 77.3506ZM33.1518 77.8258C33.0344 78.134 33.1165 78.2353 33.4341 78.1739C33.9092 78.0818 34.0007 77.6204 33.5721 77.4766C33.4322 77.4295 33.243 77.5867 33.1518 77.8258ZM35.4622 78.9705C34.657 80.1518 34.6789 80.8132 35.5008 80.1267C35.9395 79.7603 36.7296 80.0253 36.7296 80.5386C36.7296 80.7449 36.85 80.9137 36.9971 80.9137C37.1442 80.9137 37.2646 80.5653 37.2646 80.1397C37.2646 78.8838 36.9527 77.6826 36.6292 77.6917C36.4636 77.6966 35.9385 78.2719 35.4622 78.9705ZM50.9419 78.1954C50.6366 78.3901 50.6296 78.6655 50.9017 79.8064C51.2517 81.2749 51.7116 81.6505 51.7116 80.4681C51.7116 79.7926 51.7386 79.7778 52.2009 80.1989C52.9045 80.8396 53.5345 80.7944 52.9505 80.1451C52.6958 79.8618 52.5749 79.4521 52.6715 79.1993C53.0126 78.305 51.8389 77.6236 50.9419 78.1954ZM38.4659 79.2311C38.3776 79.7865 38.2612 80.4592 38.2074 80.7263C38.124 81.1419 38.2703 81.2001 39.2257 81.1301C40.3287 81.0491 40.3416 81.0359 40.3763 79.9714C40.4178 78.7037 40.1075 78.2215 39.2505 78.2215C38.7363 78.2215 38.5983 78.3992 38.4659 79.2311ZM54.6545 78.6412C54.6545 78.8719 54.7767 78.9847 54.9263 78.8919C55.0758 78.7987 55.1291 78.61 55.0443 78.4722C54.815 78.0988 54.6545 78.1682 54.6545 78.6412ZM49.185 79.7695C49.4236 81.4524 49.8388 81.8852 49.8388 80.4511C49.8388 79.191 49.6315 78.4907 49.2588 78.4907C49.1071 78.4907 49.0771 79.0098 49.185 79.7695ZM51.3622 78.6628C51.1484 78.8779 51.39 79.2984 51.7273 79.2984C51.8659 79.2984 51.9791 79.1167 51.9791 78.8946C51.9791 78.4784 51.6634 78.3596 51.3622 78.6628ZM36.0979 78.9468C35.7967 79.2499 35.9146 79.5676 36.3283 79.5676C36.549 79.5676 36.7296 79.4537 36.7296 79.3143C36.7296 78.9748 36.3117 78.7317 36.0979 78.9468ZM39.1374 79.1638C39.1374 79.4106 39.2669 79.5689 39.425 79.5159C39.5831 79.4629 39.7126 79.3043 39.7126 79.1638C39.7126 79.0232 39.5831 78.8647 39.425 78.8116C39.2669 78.7586 39.1374 78.9169 39.1374 79.1638ZM42.5164 79.3657C42.4278 79.699 42.3534 80.365 42.3516 80.8464C42.3481 81.6674 42.4053 81.7213 43.2842 81.7213C43.7992 81.7213 44.2206 81.6002 44.2206 81.4521C44.2206 81.304 43.9798 81.1829 43.6855 81.1829C42.9514 81.1829 43.0073 80.4409 43.7524 80.2937L44.3543 80.1744L43.7524 79.9741C43.0062 79.7262 42.9639 79.2984 43.6855 79.2984C43.9798 79.2984 44.2206 79.1772 44.2206 79.0292C44.2206 78.8811 43.8733 78.7599 43.4493 78.7599C42.8754 78.7599 42.6365 78.915 42.5164 79.3657ZM45.2907 80.2406C45.2907 81.055 45.4111 81.7213 45.5582 81.7213C45.7054 81.7213 45.8284 81.3277 45.8317 80.8464L45.8375 79.9714L46.3349 80.6221L46.832 81.2728L47.2544 80.4875L47.6771 79.7022L47.6878 80.5771C47.6937 81.0585 47.8189 81.4521 47.9661 81.4521C48.2582 81.4521 48.3318 79.8688 48.0712 79.1858C47.836 78.5688 47.4992 78.6617 47.0848 79.4575L46.7218 80.155L46.2675 79.4575C45.5724 78.3901 45.2907 78.6159 45.2907 80.2406ZM38.8698 80.3752C38.8698 80.5233 39.0504 80.6444 39.2711 80.6444C39.4919 80.6444 39.6725 80.5233 39.6725 80.3752C39.6725 80.2272 39.4919 80.106 39.2711 80.106C39.0504 80.106 38.8698 80.2272 38.8698 80.3752Z" fill="url(#paint0_linear_855_3614)"/>
<mask id="path-2-outside-1_855_3614" maskUnits="userSpaceOnUse" x="50" y="64" width="41" height="27" fill="black">
<rect fill="white" x="50" y="64" width="41" height="27"/>
<path d="M55.2024 81.4656C55.2024 75.3444 58.3671 69.0879 62.1419 69.0879C64.1841 69.0879 65.8922 70.2259 68.509 73.835C66.0259 77.5064 64.5204 79.8102 64.5204 79.8102C61.2132 84.8106 60.0663 85.9314 58.2268 85.9314C56.3315 85.9314 55.2047 84.3275 55.2047 81.4656M77.0074 79.1811L74.7225 75.5033C74.1034 74.5328 73.5095 73.6396 72.9408 72.8238C75.0031 69.7557 76.7045 68.227 78.7312 68.227C82.9336 68.227 86.3031 74.1914 86.3031 81.5192C86.3031 84.3104 85.3544 85.9335 83.3879 85.9335C81.5038 85.9335 80.6041 84.7334 77.0252 79.1833M71.0412 70.2774C67.9233 66.4578 65.3288 65.0021 62.2132 65.0021C55.8639 65.0021 51 72.9676 51 81.3969C51 86.6721 53.648 90 58.082 90C61.2734 90 63.5694 88.5486 67.6583 81.6738L70.4911 76.7807C70.9009 77.4191 71.3329 78.1069 71.7872 78.844L73.7003 81.9465C77.4283 87.9582 79.5039 89.9979 83.2766 89.9979C87.597 89.9979 90 86.6249 90 81.2401C90 72.4137 85.027 65 78.985 65C75.7848 65 73.2838 67.3231 71.0211 70.2753"/>
</mask>
<path d="M55.2024 81.4656C55.2024 75.3444 58.3671 69.0879 62.1419 69.0879C64.1841 69.0879 65.8922 70.2259 68.509 73.835C66.0259 77.5064 64.5204 79.8102 64.5204 79.8102C61.2132 84.8106 60.0663 85.9314 58.2268 85.9314C56.3315 85.9314 55.2047 84.3275 55.2047 81.4656M77.0074 79.1811L74.7225 75.5033C74.1034 74.5328 73.5095 73.6396 72.9408 72.8238C75.0031 69.7557 76.7045 68.227 78.7312 68.227C82.9336 68.227 86.3031 74.1914 86.3031 81.5192C86.3031 84.3104 85.3544 85.9335 83.3879 85.9335C81.5038 85.9335 80.6041 84.7334 77.0252 79.1833M71.0412 70.2774C67.9233 66.4578 65.3288 65.0021 62.2132 65.0021C55.8639 65.0021 51 72.9676 51 81.3969C51 86.6721 53.648 90 58.082 90C61.2734 90 63.5694 88.5486 67.6583 81.6738L70.4911 76.7807C70.9009 77.4191 71.3329 78.1069 71.7872 78.844L73.7003 81.9465C77.4283 87.9582 79.5039 89.9979 83.2766 89.9979C87.597 89.9979 90 86.6249 90 81.2401C90 72.4137 85.027 65 78.985 65C75.7848 65 73.2838 67.3231 71.0211 70.2753" fill="url(#paint1_linear_855_3614)"/>
<path d="M68.509 73.835L68.9232 74.1151L69.1194 73.8251L68.9138 73.5415L68.509 73.835ZM64.5204 79.8102L64.9374 80.086L64.9389 80.0837L64.5204 79.8102ZM74.7225 75.5033L75.1472 75.2394L75.144 75.2344L74.7225 75.5033ZM72.9408 72.8238L72.5259 72.5448L72.3349 72.8289L72.5306 73.1097L72.9408 72.8238ZM67.6583 81.6738L68.0881 81.9294L68.091 81.9243L67.6583 81.6738ZM70.4911 76.7807L70.9119 76.5107L70.4691 75.8208L70.0584 76.5302L70.4911 76.7807ZM71.7872 78.844L71.3616 79.1064L71.3616 79.1065L71.7872 78.844ZM73.7003 81.9465L73.2747 82.2089L73.2753 82.21L73.7003 81.9465ZM55.2024 81.4656H55.7024C55.7024 78.483 56.4752 75.4713 57.6961 73.2196C58.9351 70.9348 60.5406 69.5879 62.1419 69.5879V69.0879V68.5879C59.9684 68.5879 58.1041 70.3694 56.8171 72.743C55.512 75.1499 54.7024 78.3269 54.7024 81.4656H55.2024ZM62.1419 69.0879V69.5879C63.9244 69.5879 65.5016 70.5389 68.1042 74.1285L68.509 73.835L68.9138 73.5415C66.2829 69.9128 64.4438 68.5879 62.1419 68.5879V69.0879ZM68.509 73.835L68.0949 73.5549C66.8524 75.392 65.8544 76.887 65.1669 77.9229C64.8232 78.4409 64.557 78.8441 64.3768 79.118C64.2867 79.2549 64.218 79.3594 64.1718 79.4298C64.1487 79.465 64.1313 79.4917 64.1196 79.5096C64.1137 79.5185 64.1093 79.5253 64.1063 79.5298C64.1049 79.5321 64.1037 79.5338 64.103 79.5349C64.1026 79.5355 64.1023 79.5359 64.1021 79.5362C64.102 79.5364 64.102 79.5365 64.1019 79.5366C64.1019 79.5366 64.1019 79.5366 64.1019 79.5367C64.1018 79.5367 64.1018 79.5367 64.5204 79.8102C64.9389 80.0837 64.9389 80.0837 64.939 80.0837C64.939 80.0837 64.939 80.0837 64.939 80.0836C64.939 80.0836 64.9391 80.0835 64.9392 80.0833C64.9394 80.0831 64.9396 80.0827 64.94 80.0821C64.9407 80.081 64.9418 80.0794 64.9432 80.0772C64.9461 80.0728 64.9505 80.0661 64.9562 80.0573C64.9678 80.0396 64.9851 80.0132 65.008 79.9783C65.0539 79.9083 65.1222 79.8042 65.2121 79.6678C65.3917 79.3949 65.6571 78.9928 66.0001 78.4759C66.6862 77.4421 67.6825 75.9495 68.9232 74.1151L68.509 73.835ZM64.5204 79.8102L64.1033 79.5344C62.4457 82.0408 61.3599 83.5258 60.4745 84.3877C60.0381 84.8124 59.6676 85.068 59.3204 85.2202C58.9776 85.3705 58.6317 85.4314 58.2268 85.4314V85.9314V86.4314C58.7416 86.4314 59.2289 86.3522 59.7219 86.1361C60.2104 85.9219 60.6782 85.5848 61.172 85.1043C62.1466 84.1556 63.288 82.58 64.9374 80.086L64.5204 79.8102ZM58.2268 85.9314V85.4314C57.4422 85.4314 56.842 85.1102 56.4178 84.4896C55.9772 83.8451 55.7047 82.8416 55.7047 81.4656H55.2047H54.7047C54.7047 82.9515 54.9955 84.1809 55.5922 85.0539C56.2052 85.9506 57.1161 86.4314 58.2268 86.4314V85.9314ZM77.0074 79.1811L77.4321 78.9173L75.1472 75.2394L74.7225 75.5033L74.2978 75.7671L76.5827 79.445L77.0074 79.1811ZM74.7225 75.5033L75.144 75.2344C74.5218 74.259 73.9241 73.3601 73.351 72.5379L72.9408 72.8238L72.5306 73.1097C73.0948 73.9192 73.6849 74.8066 74.301 75.7722L74.7225 75.5033ZM72.9408 72.8238L73.3558 73.1027C75.4223 70.0283 76.991 68.727 78.7312 68.727V68.227V67.727C76.4181 67.727 74.5839 69.4831 72.5259 72.5448L72.9408 72.8238ZM78.7312 68.227V68.727C80.5747 68.727 82.3329 70.0394 83.6583 72.3722C84.9758 74.6909 85.8031 77.9255 85.8031 81.5192H86.3031H86.8031C86.8031 77.7851 85.9457 74.3736 84.5278 71.8782C83.1179 69.3968 81.0901 67.727 78.7312 67.727V68.227ZM86.3031 81.5192H85.8031C85.8031 82.8723 85.5707 83.8646 85.1618 84.5035C84.7743 85.1089 84.2075 85.4335 83.3879 85.4335V85.9335V86.4335C84.5348 86.4335 85.4255 85.9466 86.0041 85.0426C86.5612 84.1721 86.8031 82.9573 86.8031 81.5192H86.3031ZM83.3879 85.9335V85.4335C82.9751 85.4335 82.6447 85.3689 82.3228 85.2106C81.9935 85.0487 81.6412 84.7731 81.2113 84.3025C80.3385 83.347 79.2443 81.702 77.4455 78.9123L77.0252 79.1833L76.605 79.4542C78.385 82.2147 79.5302 83.9448 80.4729 84.9769C80.9508 85.5001 81.4004 85.8714 81.8816 86.108C82.3701 86.3482 82.8586 86.4335 83.3879 86.4335V85.9335ZM71.0412 70.2774L71.4285 69.9612C68.2613 66.0812 65.5386 64.5021 62.2132 64.5021V65.0021V65.5021C65.119 65.5021 67.5853 66.8345 70.6538 70.5936L71.0412 70.2774ZM62.2132 65.0021V64.5021C58.8122 64.5021 55.8729 66.6347 53.8083 69.7631C51.7403 72.8966 50.5 77.0928 50.5 81.3969H51H51.5C51.5 77.2717 52.6917 73.2705 54.6429 70.314C56.5975 67.3523 59.2648 65.5021 62.2132 65.5021V65.0021ZM51 81.3969H50.5C50.5 84.1123 51.1812 86.3868 52.4907 87.9927C53.8104 89.6108 55.7286 90.5 58.082 90.5V90V89.5C56.0013 89.5 54.3786 88.7252 53.2657 87.3607C52.1428 85.9837 51.5 83.9567 51.5 81.3969H51ZM58.082 90V90.5C59.7778 90.5 61.2664 90.1063 62.8514 88.8009C64.4053 87.5212 66.0376 85.3769 68.088 81.9294L67.6583 81.6738L67.2286 81.4182C65.1901 84.8455 63.6299 86.8643 62.2157 88.029C60.8327 89.168 59.5775 89.5 58.082 89.5V90ZM67.6583 81.6738L68.091 81.9243L70.9238 77.0313L70.4911 76.7807L70.0584 76.5302L67.2256 81.4233L67.6583 81.6738ZM70.4911 76.7807L70.0703 77.0508C70.4782 77.6863 70.9086 78.3715 71.3616 79.1064L71.7872 78.844L72.2129 78.5817C71.7572 77.8423 71.3235 77.1519 70.9119 76.5107L70.4911 76.7807ZM71.7872 78.844L71.3616 79.1065L73.2747 82.2089L73.7003 81.9465L74.1259 81.6841L72.2128 78.5816L71.7872 78.844ZM73.7003 81.9465L73.2753 82.21C75.1392 85.2157 76.6245 87.2883 78.1444 88.6045C79.6959 89.9482 81.2756 90.4979 83.2766 90.4979V89.9979V89.4979C81.5049 89.4979 80.1605 89.0277 78.799 87.8486C77.4059 86.6421 75.9893 84.689 74.1252 81.683L73.7003 81.9465ZM83.2766 89.9979V90.4979C85.5827 90.4979 87.4162 89.5894 88.658 87.9389C89.8857 86.307 90.5 83.9981 90.5 81.2401H90H89.5C89.5 83.8669 88.9128 85.9369 87.8589 87.3377C86.8191 88.7198 85.2909 89.4979 83.2766 89.4979V89.9979ZM90 81.2401H90.5C90.5 76.7381 89.2327 72.5782 87.1725 69.5302C85.1155 66.4868 82.2254 64.5 78.985 64.5V65V65.5C81.7867 65.5 84.4041 67.22 86.344 70.0901C88.2808 72.9555 89.5 76.9157 89.5 81.2401H90ZM78.985 65V64.5C75.5254 64.5 72.8921 67.0122 70.6243 69.9711L71.0211 70.2753L71.418 70.5794C73.6755 67.634 76.0442 65.5 78.985 65.5V65Z" fill="white" mask="url(#path-2-outside-1_855_3614)"/>
</g>
<defs>
<linearGradient id="paint0_linear_855_3614" x1="44.7998" y1="0.771484" x2="44.7998" y2="87.7715" gradientUnits="userSpaceOnUse">
<stop stop-color="#5DE7FF"/>
<stop offset="1" stop-color="#00A8C5"/>
</linearGradient>
<linearGradient id="paint1_linear_855_3614" x1="70.5" y1="65" x2="70.5" y2="90" gradientUnits="userSpaceOnUse">
<stop stop-color="#5DE7FF"/>
<stop offset="1" stop-color="#00A8C5"/>
</linearGradient>
<clipPath id="clip0_855_3614">
<rect width="90" height="90" fill="white"/>
</clipPath>
</defs>
</svg>
