<svg width="196" height="66" viewBox="0 0 196 66" fill="none" xmlns="http://www.w3.org/2000/svg">
<g filter="url(#filter0_f_494_2459)">
<ellipse cx="77" cy="43" rx="75" ry="38" fill="white" fill-opacity="0.5"/>
<path d="M77 5.5C97.6488 5.5 116.318 9.74197 129.807 16.5762C143.323 23.4247 151.5 32.7945 151.5 43C151.5 53.2055 143.323 62.5753 129.807 69.4238C116.318 76.258 97.6488 80.5 77 80.5C56.3512 80.5 37.682 76.258 24.1934 69.4238C10.6766 62.5753 2.5 53.2055 2.5 43C2.5 32.7945 10.6766 23.4247 24.1934 16.5762C37.682 9.74197 56.3512 5.5 77 5.5Z" stroke="black"/>
</g>
<defs>
<filter id="filter0_f_494_2459" x="-41.9" y="-38.9" width="237.8" height="163.8" filterUnits="userSpaceOnUse" color-interpolation-filters="sRGB">
<feFlood flood-opacity="0" result="BackgroundImageFix"/>
<feBlend mode="normal" in="SourceGraphic" in2="BackgroundImageFix" result="shape"/>
<feGaussianBlur stdDeviation="21.95" result="effect1_foregroundBlur_494_2459"/>
</filter>
</defs>
</svg>
