<svg width="90" height="90" viewBox="0 0 90 90" fill="none" xmlns="http://www.w3.org/2000/svg">
<g clip-path="url(#clip0_155_2676)">
<path d="M5.79376 42.1876C4.75537 42.1862 3.73728 42.4752 2.85448 43.022C1.97168 43.5687 1.25932 44.3514 0.797866 45.2816C0.33641 46.2118 0.144235 47.2525 0.243045 48.2862C0.341855 49.3199 0.727713 50.3054 1.35704 51.1313L10.0195 62.529C10.3016 62.8959 10.657 63.2 11.0632 63.4219C11.4693 63.6438 11.9173 63.7785 12.3784 63.8175C12.8396 63.8566 13.3038 63.799 13.7415 63.6486C14.1791 63.4982 14.5806 63.2581 14.9203 62.9438L19.4977 58.6547L26.1 72.1407C26.3313 72.6033 26.6671 73.0058 27.0809 73.3162C27.4946 73.6267 27.9749 73.8366 28.4837 73.9294C28.9926 74.0221 29.5161 73.9952 30.0127 73.8507C30.5094 73.7063 30.9656 73.4482 31.3453 73.0969L34.1719 70.4532L42.8906 86.9485C43.2642 87.6721 43.7994 88.2999 44.4547 88.7834C45.11 89.2668 45.8678 89.5929 46.6694 89.7364C47.471 89.8798 48.2948 89.8368 49.0771 89.6106C49.8594 89.3844 50.5791 88.9812 51.1805 88.4321L57.1711 82.8774C57.5472 82.5299 57.8363 82.0988 58.0149 81.6188L63.9633 66.3188L66.2203 68.4352C66.8387 69.0117 67.6537 69.3304 68.4991 69.3265C69.3445 69.3226 70.1565 68.9963 70.7695 68.4141L87.9117 52.0946C88.7172 51.3273 89.2747 50.3366 89.5125 49.2499C89.7504 48.1632 89.6577 47.0301 89.2464 45.9965C88.835 44.9629 88.1239 44.076 87.2044 43.4499C86.2849 42.8237 85.1992 42.4869 84.0867 42.4829L5.81486 42.1876H5.79376ZM51.6024 72.4712C51.6361 72.3066 51.7084 72.1524 51.8133 72.0212L64.1109 56.8337C64.1514 56.7806 64.2064 56.7405 64.2693 56.7182C64.3321 56.6959 64.4001 56.6924 64.465 56.708C64.5298 56.7237 64.5887 56.7578 64.6344 56.8064C64.6802 56.8549 64.7108 56.9157 64.7227 56.9813L66.6844 65.9813L65.0813 64.4766C64.8633 64.2773 64.6002 64.1339 64.3145 64.0588C64.0288 63.9837 63.7292 63.9792 63.4414 64.0456C63.1536 64.112 62.8863 64.2474 62.6624 64.4401C62.4385 64.6327 62.2648 64.8769 62.1563 65.1516L56.0461 80.8665C55.9827 81.0442 55.8764 81.2036 55.7367 81.3305L49.7461 86.8852C49.3478 87.2537 48.8609 87.5129 48.3328 87.6376L51.6024 72.4712ZM32.9766 59.4422C33.0118 59.3684 33.0718 59.3092 33.146 59.2748C33.2202 59.2404 33.3042 59.2329 33.3833 59.2538C33.4624 59.2746 33.5318 59.3224 33.5795 59.3889C33.6272 59.4553 33.6502 59.5364 33.6445 59.618L33.7078 68.2454C33.4498 68.3228 33.2137 68.4602 33.0188 68.6461L29.9039 71.5571C29.7664 71.6852 29.6009 71.7796 29.4205 71.8325C29.2401 71.8855 29.0499 71.8957 28.8649 71.8622C28.6799 71.8288 28.5052 71.7526 28.3548 71.6398C28.2044 71.5271 28.0824 71.3808 27.9984 71.2126L27.6188 70.4391L32.9766 59.4422ZM13.4789 61.404C13.3563 61.5192 13.2108 61.6074 13.052 61.6628C12.8931 61.7183 12.7243 61.7397 12.5566 61.7258C12.3889 61.7119 12.226 61.6629 12.0785 61.582C11.9309 61.5012 11.802 61.3902 11.7 61.2563C11.6086 61.1227 3.03751 49.8938 2.9672 49.7602L17.6555 57.4946L13.4789 61.404ZM42.3774 39.4524C43.175 39.9119 44.0795 40.1537 45 40.1537C45.9206 40.1537 46.825 39.9119 47.6227 39.4524L60.307 32.1258C61.1035 31.6645 61.7648 31.0021 62.2251 30.2051C62.6853 29.408 62.9283 28.5041 62.9297 27.5837V12.9376C62.9283 12.0171 62.6853 11.1132 62.2251 10.3162C61.7648 9.51907 61.1035 8.85674 60.307 8.39537L47.6227 1.07584C46.825 0.61636 45.9206 0.374512 45 0.374512C44.0795 0.374512 43.175 0.61636 42.3774 1.07584L29.693 8.39537C28.8966 8.85674 28.2352 9.51907 27.7749 10.3162C27.3147 11.1132 27.0717 12.0171 27.0703 12.9376V27.5837C27.0717 28.5041 27.3147 29.408 27.7749 30.2051C28.2352 31.0021 28.8966 31.6645 29.693 32.1258L42.3774 39.4524ZM51.1524 14.9415H56.4188C56.6985 14.9415 56.9667 15.0526 57.1645 15.2504C57.3623 15.4482 57.4734 15.7164 57.4734 15.9962C57.4734 16.2759 57.3623 16.5441 57.1645 16.7419C56.9667 16.9397 56.6985 17.0508 56.4188 17.0508H54.8367V24.7852C54.8367 25.0649 54.7256 25.3332 54.5278 25.531C54.33 25.7288 54.0618 25.8399 53.782 25.8399C53.5023 25.8399 53.2341 25.7288 53.0363 25.531C52.8385 25.3332 52.7274 25.0649 52.7274 24.7852V17.0508H51.1524C50.8726 17.0508 50.6044 16.9397 50.4066 16.7419C50.2088 16.5441 50.0977 16.2759 50.0977 15.9962C50.0977 15.7164 50.2088 15.4482 50.4066 15.2504C50.6044 15.0526 50.8726 14.9415 51.1524 14.9415ZM41.3086 15.9962C41.3086 15.7164 41.4197 15.4482 41.6175 15.2504C41.8153 15.0526 42.0836 14.9415 42.3633 14.9415H47.6367C47.9165 14.9415 48.1847 15.0526 48.3825 15.2504C48.5803 15.4482 48.6914 15.7164 48.6914 15.9962C48.6914 16.2759 48.5803 16.5441 48.3825 16.7419C48.1847 16.9397 47.9165 17.0508 47.6367 17.0508H43.418V19.6313H47.0531C47.3329 19.6313 47.6011 19.7424 47.7989 19.9402C47.9967 20.138 48.1078 20.4063 48.1078 20.686C48.1078 20.9657 47.9967 21.234 47.7989 21.4318C47.6011 21.6296 47.3329 21.7407 47.0531 21.7407H43.418V24.7852C43.418 25.0649 43.3069 25.3332 43.1091 25.531C42.9113 25.7288 42.643 25.8399 42.3633 25.8399C42.0836 25.8399 41.8153 25.7288 41.6175 25.531C41.4197 25.3332 41.3086 25.0649 41.3086 24.7852V15.9962ZM32.5266 15.9962C32.5284 15.7669 32.6049 15.5446 32.7444 15.3627C32.8839 15.1808 33.0788 15.0493 33.2997 14.9881C33.5206 14.927 33.7554 14.9394 33.9686 15.0236C34.1818 15.1078 34.3618 15.2591 34.4813 15.4547L37.793 20.9743V15.9962C37.793 15.7164 37.9041 15.4482 38.1019 15.2504C38.2997 15.0526 38.5679 14.9415 38.8477 14.9415C39.1274 14.9415 39.3957 15.0526 39.5934 15.2504C39.7912 15.4482 39.9024 15.7164 39.9024 15.9962V24.7852C39.9005 25.0144 39.8241 25.2368 39.6846 25.4187C39.5451 25.6006 39.3501 25.732 39.1292 25.7932C38.9083 25.8544 38.6735 25.842 38.4603 25.7578C38.2471 25.6736 38.0672 25.5222 37.9477 25.3266L34.6359 19.8071V24.7852C34.6359 25.0649 34.5248 25.3332 34.327 25.531C34.1292 25.7288 33.861 25.8399 33.5813 25.8399C33.3015 25.8399 33.0333 25.7288 32.8355 25.531C32.6377 25.3332 32.5266 25.0649 32.5266 24.7852V15.9962ZM13.0359 12.7632C13.2254 12.9212 13.4643 13.0078 13.7109 13.0079H22.1484C22.4282 13.0079 22.6964 12.8968 22.8942 12.699C23.092 12.5012 23.2031 12.2329 23.2031 11.9532C23.2031 11.6735 23.092 11.4052 22.8942 11.2074C22.6964 11.0096 22.4282 10.8985 22.1484 10.8985H14.0927L10.1672 7.62756C9.95104 7.46515 9.68077 7.39196 9.4122 7.42309C9.14363 7.45423 8.89727 7.58732 8.724 7.79488C8.55074 8.00243 8.4638 8.2686 8.48114 8.53842C8.49849 8.80823 8.61879 9.06108 8.8172 9.24475L13.0359 12.7632ZM22.1484 27.7735H13.7109C13.4643 27.7736 13.2254 27.8602 13.0359 28.0182L8.8172 31.5338C8.70283 31.6197 8.60714 31.728 8.53595 31.8521C8.46475 31.9762 8.41954 32.1135 8.40307 32.2556C8.38659 32.3977 8.3992 32.5416 8.44012 32.6787C8.48104 32.8158 8.54941 32.9431 8.64108 33.0529C8.73276 33.1627 8.84581 33.2527 8.97337 33.3175C9.10093 33.3822 9.24033 33.4204 9.38309 33.4295C9.52584 33.4387 9.66897 33.4187 9.80377 33.3709C9.93857 33.323 10.0622 33.2482 10.1672 33.151L14.0927 29.8829H22.1484C22.4282 29.8829 22.6964 29.7718 22.8942 29.574C23.092 29.3762 23.2031 29.1079 23.2031 28.8282C23.2031 28.5485 23.092 28.2802 22.8942 28.0824C22.6964 27.8846 22.4282 27.7735 22.1484 27.7735ZM9.4922 21.4454H22.1484C22.4282 21.4454 22.6964 21.3343 22.8942 21.1365C23.092 20.9387 23.2031 20.6704 23.2031 20.3907C23.2031 20.111 23.092 19.8427 22.8942 19.6449C22.6964 19.4471 22.4282 19.336 22.1484 19.336H9.4922C9.21248 19.336 8.94421 19.4471 8.74642 19.6449C8.54863 19.8427 8.43751 20.111 8.43751 20.3907C8.43751 20.6704 8.54863 20.9387 8.74642 21.1365C8.94421 21.3343 9.21248 21.4454 9.4922 21.4454ZM67.8516 13.0079H76.2891C76.5358 13.0078 76.7746 12.9212 76.9641 12.7632L81.1828 9.24756C81.2972 9.16163 81.3929 9.05333 81.4641 8.92926C81.5353 8.80518 81.5805 8.66792 81.597 8.52582C81.6134 8.38372 81.6008 8.23975 81.5599 8.10268C81.519 7.9656 81.4506 7.83828 81.3589 7.72847C81.2673 7.61865 81.1542 7.52863 81.0266 7.46388C80.8991 7.39914 80.7597 7.36101 80.6169 7.35184C80.4742 7.34266 80.3311 7.36262 80.1963 7.41051C80.0615 7.45839 79.9378 7.53319 79.8328 7.63037L75.9073 10.8985H67.8516C67.5719 10.8985 67.3036 11.0096 67.1058 11.2074C66.908 11.4052 66.7969 11.6735 66.7969 11.9532C66.7969 12.2329 66.908 12.5012 67.1058 12.699C67.3036 12.8968 67.5719 13.0079 67.8516 13.0079ZM67.8516 29.8829H75.9073L79.8328 33.1538C80.049 33.3162 80.3193 33.3894 80.5878 33.3583C80.8564 33.3271 81.1028 33.194 81.276 32.9865C81.4493 32.7789 81.5362 32.5128 81.5189 32.243C81.5015 31.9731 81.3812 31.7203 81.1828 31.5366L76.9641 28.021C76.7746 27.863 76.5358 27.7764 76.2891 27.7763H67.8516C67.5719 27.7763 67.3036 27.8874 67.1058 28.0852C66.908 28.283 66.7969 28.5513 66.7969 28.831C66.7969 29.1107 66.908 29.379 67.1058 29.5768C67.3036 29.7746 67.5719 29.8857 67.8516 29.8857V29.8829ZM67.8516 21.4454H80.5078C80.7875 21.4454 81.0558 21.3343 81.2536 21.1365C81.4514 20.9387 81.5625 20.6704 81.5625 20.3907C81.5625 20.111 81.4514 19.8427 81.2536 19.6449C81.0558 19.4471 80.7875 19.336 80.5078 19.336H67.8516C67.5719 19.336 67.3036 19.4471 67.1058 19.6449C66.908 19.8427 66.7969 20.111 66.7969 20.3907C66.7969 20.6704 66.908 20.9387 67.1058 21.1365C67.3036 21.3343 67.5719 21.4454 67.8516 21.4454Z" fill="url(#paint0_linear_155_2676)"/>
</g>
<defs>
<linearGradient id="paint0_linear_155_2676" x1="44.9296" y1="0.374512" x2="44.9296" y2="89.8193" gradientUnits="userSpaceOnUse">
<stop stop-color="#5DE7FF"/>
<stop offset="1" stop-color="#00A8C5"/>
</linearGradient>
<clipPath id="clip0_155_2676">
<rect width="90" height="90" fill="white"/>
</clipPath>
</defs>
</svg>
