<svg width="61" height="61" viewBox="0 0 61 61" fill="none" xmlns="http://www.w3.org/2000/svg">
<g clip-path="url(#clip0_1280_79980)">
<path d="M30.6178 13.0324C34.2166 13.0324 37.134 10.115 37.134 6.51621C37.134 2.91741 34.2166 0 30.6178 0C27.019 0 24.1016 2.91741 24.1016 6.51621C24.1016 10.115 27.019 13.0324 30.6178 13.0324Z" fill="url(#paint0_linear_1280_79980)"/>
<path d="M18.8989 49.1632C17.0596 51.1323 14.4432 52.3667 11.5424 52.3667C8.6416 52.3667 6.02517 51.1323 4.18582 49.1632C1.83453 50.7635 0.287109 53.461 0.287109 56.5134V58.8829C0.287109 59.8644 1.0828 60.6601 2.06426 60.6601H21.0205C22.002 60.6601 22.7977 59.8644 22.7977 58.8829V56.5134C22.7977 53.461 21.2502 50.7635 18.8989 49.1632ZM57.0484 49.1632C55.209 51.1323 52.5926 52.3667 49.6918 52.3667C46.7911 52.3667 44.1746 51.1323 42.3353 49.1632C39.984 50.7635 38.4366 53.461 38.4366 56.5134V58.8829C38.4366 59.8644 39.2323 60.6601 40.2137 60.6601H59.17C60.1514 60.6601 60.9471 59.8644 60.9471 58.8829V56.5134C60.9471 53.461 59.3997 50.7635 57.0484 49.1632ZM43.2612 43.3447C43.7642 46.4409 46.4558 48.8124 49.6918 48.8124C53.2849 48.8124 56.208 45.8892 56.208 42.2962C56.208 38.7032 53.2849 35.78 49.6918 35.78C46.9993 35.78 44.683 37.4216 43.6911 39.7565L35.9433 37.3504C35.8579 35.1235 34.4008 33.2431 32.3943 32.5314V24.8801H40.0952C41.0767 24.8801 41.8724 24.0845 41.8724 23.103V20.7335C41.8724 17.681 40.325 14.9836 37.9737 13.3833C36.1343 15.3524 33.5179 16.5868 30.6171 16.5868C27.7163 16.5868 25.0999 15.3524 23.2605 13.3833C20.9093 14.9836 19.3618 17.681 19.3618 20.7335V23.103C19.3618 24.0845 20.1575 24.8801 21.139 24.8801H28.84V32.5314C26.8334 33.2431 25.3764 35.1234 25.2909 37.3504L17.5431 39.7565C16.5512 37.4216 14.2349 35.78 11.5424 35.78C7.94934 35.78 5.02617 38.7032 5.02617 42.2962C5.02617 45.8892 7.94934 48.8124 11.5424 48.8124C14.7785 48.8124 17.47 46.4409 17.9731 43.3447L26.3458 40.7445C27.3188 42.0452 28.8714 42.8886 30.6171 42.8886C32.3629 42.8886 33.9154 42.0452 34.8884 40.7444L43.2612 43.3447Z" fill="url(#paint1_linear_1280_79980)"/>
</g>
<defs>
<linearGradient id="paint0_linear_1280_79980" x1="30.6178" y1="0" x2="30.6178" y2="13.0324" gradientUnits="userSpaceOnUse">
<stop stop-color="#5DE7FF"/>
<stop offset="1" stop-color="#00A8C5"/>
</linearGradient>
<linearGradient id="paint1_linear_1280_79980" x1="30.6171" y1="13.3833" x2="30.6171" y2="60.6601" gradientUnits="userSpaceOnUse">
<stop stop-color="#5DE7FF"/>
<stop offset="1" stop-color="#00A8C5"/>
</linearGradient>
<clipPath id="clip0_1280_79980">
<rect width="60.66" height="60.66" fill="white" transform="translate(0.287109)"/>
</clipPath>
</defs>
</svg>
