<svg width="91" height="90" viewBox="0 0 91 90" fill="none" xmlns="http://www.w3.org/2000/svg">
<path fill-rule="evenodd" clip-rule="evenodd" d="M31.8456 1.18005C10.939 6.25201 -3.04455 27.0663 0.568524 47.7367C5.57621 76.3876 36.9572 91.1182 62.423 76.7702L67.4567 73.9346L75.9273 81.963C84.3661 89.9608 87.3045 91.4088 89.882 88.8407C92.3883 86.3436 90.9436 83.624 82.856 75.607C78.3565 71.1469 74.6751 67.1797 74.6751 66.7913C74.6751 66.402 75.9581 64.0688 77.5259 61.6052C81.7665 54.9424 83.883 44.3142 82.6058 36.093C78.7617 11.3498 55.5972 -4.58235 31.8456 1.18005ZM33.7108 10.2816C28.7955 11.5474 20.8206 16.3288 17.6801 19.8923C12.4597 25.8158 9.79466 32.9438 9.74943 41.1017C9.71478 47.3608 10.1267 49.1569 12.8726 54.717C24.7426 78.7496 58.3585 78.8224 70.3354 54.8407C72.703 50.1006 73.1419 48.0522 73.1833 41.5639C73.2228 35.2386 72.7916 32.9581 70.7281 28.5738C67.2719 21.2329 63.268 17.0058 56.2344 13.2697C51.3672 10.6853 48.9591 10.0322 43.4481 9.804C39.7137 9.64961 35.3316 9.86442 33.7108 10.2816ZM32.6435 29.0456C28.4395 30.8829 27.5145 33.1068 27.5145 41.3711C27.5145 49.7918 29.4029 53.0973 34.7907 54.1042C38.0583 54.7151 43.8764 53.1328 43.8764 51.6339C43.8764 49.9222 41.0747 48.7868 38.2421 49.3516C33.6714 50.2626 32.3268 48.5605 32.3268 41.8631C32.3268 38.7282 32.7754 35.3287 33.323 34.3084C34.3894 32.3233 38.0429 31.8199 39.6646 33.4357C40.3364 34.1051 41.1699 33.8433 42.2873 32.6139C43.5924 31.1764 43.6762 30.6106 42.6974 29.8252C40.4789 28.0435 35.7705 27.6781 32.6435 29.0456ZM53.7743 28.3312C52.6011 28.5575 50.5443 30.0419 49.2026 31.6309C47.142 34.0705 46.7638 35.4821 46.7638 40.7257C46.7638 44.2787 47.3615 48.0858 48.1622 49.6278C51.0265 55.1476 60.1468 55.9282 64.0467 50.9886C66.4894 47.894 66.8214 36.793 64.5982 32.5103C63.4009 30.203 58.4788 27.3396 56.4856 27.7893C56.167 27.8613 54.9476 28.1048 53.7743 28.3312ZM16.9275 41.5639V54.5099H19.3336H21.7398V41.5639V28.6179H19.3336H16.9275V41.5639ZM53.0746 34.5855C51.3874 36.9839 51.0977 43.5432 52.5145 47.2553C53.7002 50.3623 58.6511 50.7517 60.2045 47.8604C61.7859 44.9154 61.4442 35.7104 59.6886 33.9603C57.5529 31.8333 54.8282 32.0903 53.0746 34.5855Z" fill="url(#paint0_linear_286_6068)"/>
<defs>
<linearGradient id="paint0_linear_286_6068" x1="45.5" y1="0" x2="45.5" y2="90" gradientUnits="userSpaceOnUse">
<stop stop-color="#5DE7FF"/>
<stop offset="1" stop-color="#00A8C5"/>
</linearGradient>
</defs>
</svg>
