<svg width="74" height="84" viewBox="0 0 74 84" fill="none" xmlns="http://www.w3.org/2000/svg">
<path d="M73.2922 77.2502C72.5018 62.2374 59.009 56.0269 59.009 56.0269C55.7853 54.5195 49.9405 51.5688 46.1085 49.6183C51.0181 44.2469 52.4682 35.4894 52.694 34.2432C53.7186 28.6048 53.2029 21.6259 53.2029 21.6259C52.266 8.05483 38.5643 7.84167 37.1294 7.85595C37.0502 7.85595 36.9987 7.85677 36.9987 7.85677C36.9987 7.85677 36.955 7.85595 36.89 7.85677C35.5891 7.83989 21.7365 7.97728 20.7945 21.6259C20.7945 21.6259 20.2789 28.604 21.3035 34.2432C21.3701 34.6064 21.5437 35.6183 21.8731 36.9866C24.4539 40.3746 28.4383 42.036 31.7084 42.8491C32.1196 42.4497 32.6799 42.2012 33.3008 42.2012H39.2611C40.5225 42.2012 41.5437 43.2232 41.5437 44.4845C41.5437 45.7467 40.5225 46.7696 39.2611 46.7696H33.3008C32.3597 46.7696 31.5551 46.2017 31.2037 45.3919C28.7645 44.7987 25.9419 43.7657 23.4226 41.9888C24.4277 44.5982 25.8601 47.3972 27.8906 49.6191C24.0586 51.5696 18.2163 54.5194 14.9902 56.0269C14.9902 56.0269 1.49908 62.2374 0.706981 77.2502C0.706981 77.2502 0.472686 79.7467 5.20373 80.692C5.20373 80.692 19.6975 83.9999 37.0004 83.9999C54.305 83.9999 68.7987 80.692 68.7987 80.692C73.5289 79.7467 73.2922 77.2502 73.2922 77.2502Z" fill="url(#paint0_linear_849_3200)"/>
<path d="M16.1575 39.11H17.5974V22.1972C17.6009 22.155 17.6109 22.1145 17.6109 22.0716V19.5742C17.6109 15.1221 18.9851 11.5134 21.6956 8.84759C27.3021 3.33131 36.8786 3.40639 37.0403 3.42904C37.1541 3.42066 46.6506 3.28409 52.2822 8.79612C55.0113 11.4671 56.3956 15.0926 56.3956 19.5742V22.2149C56.3956 22.2409 56.4023 22.2646 56.4023 22.2898V39.1099H57.8423C61.3861 39.1099 64.2584 36.2375 64.2584 32.6946V26.5287C64.2584 23.6783 62.3972 21.2652 59.824 20.4301V19.5749C59.824 14.137 58.0925 9.68664 54.681 6.34667C48.0301 -0.162793 37.4061 0.00575544 37.0345 0.000677001C36.5881 -0.00357791 25.9539 -0.134108 19.3061 6.3873C15.9065 9.72383 14.1817 14.1607 14.1817 19.5742V20.426C11.6052 21.2609 9.74219 23.6758 9.74219 26.5278V32.6938C9.74232 36.2377 12.6153 39.11 16.1575 39.11Z" fill="url(#paint1_linear_849_3200)"/>
<defs>
<linearGradient id="paint0_linear_849_3200" x1="36.9996" y1="7.85547" x2="36.9996" y2="83.9999" gradientUnits="userSpaceOnUse">
<stop stop-color="#5DE7FF"/>
<stop offset="1" stop-color="#00A8C5"/>
</linearGradient>
<linearGradient id="paint1_linear_849_3200" x1="37.0003" y1="-6.10352e-05" x2="37.0003" y2="39.11" gradientUnits="userSpaceOnUse">
<stop stop-color="#5DE7FF"/>
<stop offset="1" stop-color="#00A8C5"/>
</linearGradient>
</defs>
</svg>
