<svg width="90" height="90" viewBox="0 0 90 90" fill="none" xmlns="http://www.w3.org/2000/svg">
<path d="M70.0205 53.9874C69.3605 53.3328 68.8366 52.5542 68.4789 51.6962C68.1212 50.8383 67.9368 49.918 67.9363 48.9885V46.9785C67.9456 45.106 68.696 43.3135 70.0233 41.9928C71.3506 40.6721 73.1469 39.9306 75.0193 39.9306C76.8917 39.9306 78.688 40.6721 80.0153 41.9928C81.3426 43.3135 82.093 45.106 82.1023 46.9785V48.9885C82.105 50.3895 81.6913 51.7596 80.9138 52.9251C80.1363 54.0905 79.0301 54.9987 77.7356 55.5343C76.4411 56.0699 75.0166 56.2088 73.643 55.9334C72.2693 55.658 71.0085 54.9807 70.0205 53.9874ZM14.9859 56.0715C16.8615 56.0638 18.6581 55.3149 19.9839 53.9881C21.3097 52.6613 22.0572 50.8642 22.0635 48.9885V46.9785C22.0635 45.1007 21.3176 43.2998 19.9898 41.9719C18.662 40.6441 16.8611 39.8982 14.9832 39.8982C13.1054 39.8982 11.3045 40.6441 9.97672 41.9719C8.64891 43.2998 7.90295 45.1007 7.90295 46.9785V48.9885C7.90916 50.8651 8.65739 52.6631 9.98435 53.99C11.3113 55.317 13.1093 56.0652 14.9859 56.0715ZM17.2658 58.6846H12.7007C7.74369 58.6846 4.7925 61.0598 2.97809 64.4188C1.26422 67.5879 0.486738 71.6604 0 75.5273H29.9665C29.4799 71.6601 28.7023 67.5872 26.9884 64.4188C25.174 61.0598 22.2275 58.6846 17.2658 58.6846ZM87.0272 64.4188C85.2073 61.0598 82.2611 58.6846 77.2993 58.6846H72.7395C67.7777 58.6846 64.8313 61.0598 63.0116 64.4188C61.2977 67.5872 60.5253 71.661 60.0388 75.5273H90C89.5187 71.6604 88.7411 67.5879 87.0272 64.4188ZM51.75 59.3141C51.5037 59.0771 51.1742 58.9461 50.8324 58.9494C50.4905 58.9527 50.1636 59.09 49.9219 59.3317C49.6802 59.5734 49.5429 59.9003 49.5396 60.2421C49.5364 60.584 49.6673 60.9135 49.9043 61.1598L52.3958 63.646H34.4575C34.2859 63.646 34.116 63.6798 33.9575 63.7455C33.799 63.8112 33.655 63.9074 33.5336 64.0287C33.4123 64.1501 33.3161 64.2941 33.2504 64.4526C33.1847 64.6111 33.1509 64.781 33.1509 64.9526C33.1509 65.1242 33.1847 65.2941 33.2504 65.4526C33.3161 65.6112 33.4123 65.7552 33.5336 65.8765C33.655 65.9978 33.799 66.0941 33.9575 66.1597C34.116 66.2254 34.2859 66.2592 34.4575 66.2592H52.3951L49.9043 68.7511C49.6673 68.9974 49.5364 69.3269 49.5396 69.6687C49.5429 70.0106 49.6802 70.3374 49.9219 70.5792C50.1636 70.8209 50.4905 70.9581 50.8324 70.9614C51.1742 70.9647 51.5037 70.8338 51.75 70.5968L56.4685 65.8783C56.5904 65.7575 56.6872 65.6138 56.7532 65.4554C56.8193 65.297 56.8533 65.127 56.8533 64.9554C56.8533 64.7838 56.8193 64.6139 56.7532 64.4555C56.6872 64.2971 56.5904 64.1534 56.4685 64.0326L51.75 59.3141ZM47.5712 14.4723H42.4296V24.4215H47.5712V14.4723ZM60.5262 45.5179V14.4728H50.184V25.7295C50.184 25.9011 50.1503 26.071 50.0846 26.2296C50.019 26.3881 49.9228 26.5322 49.8014 26.6535C49.6801 26.7748 49.536 26.871 49.3775 26.9367C49.2189 27.0023 49.049 27.036 48.8774 27.0359H41.1226C40.7763 27.0352 40.4444 26.8973 40.1996 26.6525C39.9547 26.4077 39.8168 26.0758 39.816 25.7295V14.4728H29.4801V45.5184H31.8762C31.8107 44.9742 31.7772 44.4267 31.7758 43.8786C31.7758 40.3712 33.1691 37.0076 35.6491 34.5275C38.1292 32.0475 41.4929 30.6542 45.0002 30.6542C48.5075 30.6542 51.8712 32.0475 54.3512 34.5275C56.8313 37.0076 58.2246 40.3712 58.2246 43.8786C58.2259 44.4268 58.1923 44.9745 58.124 45.5184L60.5262 45.5179ZM34.3888 43.8786C34.3883 41.7791 35.0104 39.7267 36.1765 37.9809C37.3426 36.2351 39.0003 34.8743 40.9398 34.0706C42.8793 33.267 45.0136 33.0566 47.0728 33.4661C49.1319 33.8756 51.0233 34.8865 52.5078 36.371C53.9923 37.8556 55.0032 39.747 55.4127 41.8062C55.8221 43.8653 55.6117 45.9996 54.808 47.9391C54.0044 49.8786 52.6436 51.5362 50.8977 52.7023C49.1519 53.8684 47.0994 54.4905 45 54.4899C42.1873 54.4848 39.4913 53.3651 37.5024 51.3762C35.5135 49.3873 34.3939 46.6913 34.3888 43.8786ZM40.5831 41.5352C40.5831 42.6091 41.1332 43.5611 42.0165 44.2329C42.8836 44.8612 43.9292 45.195 45 45.1851C45.507 45.1691 46.0059 45.3155 46.4238 45.6032C46.5397 45.6598 46.6373 45.7479 46.7056 45.8573C46.7739 45.9667 46.8101 46.093 46.8101 46.222C46.8101 46.351 46.7739 46.4773 46.7056 46.5867C46.6373 46.6961 46.5397 46.7842 46.4238 46.8408C46.0059 47.1284 45.507 47.2749 45 47.2588C44.5908 47.2647 44.1863 47.1721 43.8203 46.989C43.579 46.8747 43.3794 46.688 43.2492 46.4548C43.1775 46.298 43.0754 46.1569 42.9488 46.0398C42.8222 45.9227 42.6736 45.8319 42.5117 45.7726C42.3497 45.7134 42.1776 45.6868 42.0053 45.6945C41.8331 45.7021 41.664 45.7439 41.508 45.8174C41.352 45.8908 41.212 45.9945 41.0964 46.1224C40.9807 46.2503 40.8915 46.3999 40.834 46.5625C40.7765 46.725 40.7519 46.8974 40.7615 47.0696C40.7711 47.2418 40.8147 47.4104 40.8899 47.5656C41.2599 48.3117 41.8611 48.9184 42.6037 49.2953C42.9501 49.4753 43.3157 49.6155 43.6936 49.7133V50.3375C43.6936 50.684 43.8312 51.0163 44.0763 51.2614C44.3213 51.5064 44.6536 51.644 45.0002 51.644C45.3467 51.644 45.679 51.5064 45.9241 51.2614C46.1691 51.0163 46.3068 50.684 46.3068 50.3375V49.7133C46.9122 49.5609 47.4819 49.2912 47.9835 48.9196C48.8721 48.2532 49.4223 47.301 49.4223 46.2219C49.4223 45.1428 48.8721 44.1907 47.9835 43.5242C47.1172 42.8944 46.071 42.5605 45 42.572C44.4944 42.5855 43.9978 42.4373 43.5823 42.1489C43.4754 42.0827 43.385 41.9931 43.318 41.8868C43.251 41.7804 43.2091 41.6602 43.1956 41.5352C43.209 41.4095 43.2508 41.2885 43.3178 41.1813C43.3848 41.0741 43.4752 40.9835 43.5823 40.9163C43.9978 40.628 44.4944 40.4797 45 40.4932C45.4114 40.4883 45.8178 40.5827 46.1849 40.7683C46.4274 40.8809 46.6276 41.0681 46.7562 41.3025C46.8292 41.4574 46.9319 41.5964 47.0586 41.7116C47.1853 41.8268 47.3334 41.9159 47.4945 41.9739C47.6556 42.0318 47.8266 42.0575 47.9976 42.0494C48.1686 42.0413 48.3364 41.9995 48.4913 41.9266C48.6462 41.8537 48.7852 41.7509 48.9004 41.6242C49.0156 41.4976 49.1047 41.3494 49.1627 41.1883C49.2206 41.0272 49.2463 40.8563 49.2382 40.6852C49.2301 40.5142 49.1883 40.3465 49.1154 40.1915C48.7452 39.4455 48.1441 38.8389 47.4015 38.4619C47.0538 38.281 46.6864 38.1408 46.3066 38.0439V37.4198C46.3066 37.0733 46.1689 36.741 45.9239 36.4959C45.6789 36.2509 45.3465 36.1132 45 36.1132C44.6535 36.1132 44.3211 36.2509 44.0761 36.4959C43.8311 36.741 43.6934 37.0733 43.6934 37.4198V38.0439C43.0891 38.1968 42.5198 38.4644 42.0165 38.8321C41.1328 39.5039 40.5831 40.4561 40.5831 41.5352Z" fill="url(#paint0_linear_155_2719)"/>
<defs>
<linearGradient id="paint0_linear_155_2719" x1="45" y1="14.4723" x2="45" y2="75.5273" gradientUnits="userSpaceOnUse">
<stop stop-color="#5DE7FF"/>
<stop offset="1" stop-color="#00A8C5"/>
</linearGradient>
</defs>
</svg>
