<svg width="90" height="90" viewBox="0 0 90 90" fill="none" xmlns="http://www.w3.org/2000/svg">
<path d="M65.1333 14.733C64.4358 14.2319 63.7017 13.7836 62.9373 13.392C62.6474 13.2565 62.3171 13.2355 62.0124 13.3332C61.7078 13.4309 61.4513 13.6401 61.2942 13.9189C61.1372 14.1976 61.0913 14.5254 61.1657 14.8366C61.24 15.1478 61.4292 15.4194 61.6953 15.597C62.3613 15.975 63.1263 16.362 63.8013 16.839C64.0805 17.0157 64.4185 17.0741 64.7409 17.0015C65.0633 16.929 65.3436 16.7313 65.5203 16.452C65.6969 16.1728 65.7554 15.8348 65.6828 15.5124C65.6102 15.19 65.4125 14.9097 65.1333 14.733ZM45.0003 4.50003C45.6425 4.49402 46.2795 4.61609 46.8741 4.8591C47.4686 5.10212 48.0088 5.4612 48.4629 5.91537C48.9171 6.36954 49.2762 6.90967 49.5192 7.50421C49.7622 8.09875 49.8843 8.73577 49.8783 9.37803C49.8866 10.3503 49.5981 11.302 49.0513 12.1061C48.5046 12.9102 47.7256 13.5283 46.8183 13.878C46.6663 13.9371 46.5372 14.0432 46.4498 14.1808C46.3624 14.3184 46.3212 14.4804 46.3323 14.643V22.014C46.3362 22.0777 46.3266 22.1415 46.304 22.2011C46.2814 22.2608 46.2464 22.315 46.2013 22.3601C46.1562 22.4052 46.102 22.4402 46.0424 22.4628C45.9827 22.4853 45.9189 22.495 45.8553 22.491C45.3197 22.393 44.7708 22.393 44.2353 22.491C44.1716 22.495 44.1078 22.4853 44.0482 22.4628C43.9885 22.4402 43.9343 22.4052 43.8892 22.3601C43.8441 22.315 43.8091 22.2608 43.7865 22.2011C43.764 22.1415 43.7543 22.0777 43.7583 22.014V14.634C43.744 14.477 43.6925 14.3257 43.608 14.1926C43.5234 14.0596 43.4083 13.9486 43.2723 13.869C42.2314 13.4509 41.3673 12.6856 40.8264 11.703C40.2854 10.7204 40.1011 9.58088 40.3045 8.47781C40.508 7.37474 41.0867 6.376 41.9426 5.65098C42.7985 4.92597 43.8788 4.51933 45.0003 4.50003ZM76.7163 28.125L65.5203 34.623C65.4177 34.6669 65.3026 34.6719 65.1966 34.6371C65.0906 34.6024 65.0009 34.5302 64.9443 34.434L64.0443 32.994C64.0009 32.8928 63.9962 32.7791 64.031 32.6746C64.0659 32.5701 64.1378 32.482 64.2333 32.427L75.4203 26.019C75.5535 25.9121 75.6584 25.7742 75.7259 25.6172C75.7934 25.4603 75.8213 25.2893 75.8073 25.119C75.6486 24.005 75.8815 22.8704 76.4662 21.9089C77.0509 20.9474 77.9511 20.2185 79.0132 19.8468C80.0754 19.475 81.2336 19.4834 82.2903 19.8704C83.3469 20.2575 84.2365 20.9992 84.8073 21.969C85.3544 22.9532 85.5443 24.0963 85.3446 25.2045C85.1449 26.3126 84.5679 27.3176 83.7116 28.0488C82.8553 28.7801 81.7725 29.1925 80.6467 29.2163C79.5209 29.24 78.4216 28.8735 77.5353 28.179C77.4065 28.0859 77.2555 28.0286 77.0974 28.0128C76.9393 27.9969 76.7799 28.0233 76.6353 28.089L76.7163 28.125ZM65.5203 55.377L76.6173 61.785C76.7603 61.8744 76.9256 61.9218 77.0943 61.9218C77.263 61.9218 77.4282 61.8744 77.5713 61.785C78.4423 61.07 79.5358 60.6818 80.6626 60.6876C81.7895 60.6934 82.8789 61.0928 83.7426 61.8167C84.6062 62.5406 85.1897 63.5436 85.3922 64.6521C85.5947 65.7607 85.4034 66.9051 84.8515 67.8876C84.2995 68.8701 83.4217 69.6288 82.3696 70.0326C81.3175 70.4364 80.1574 70.4599 79.0899 70.099C78.0224 69.738 77.1145 69.0154 76.5233 68.056C75.9321 67.0967 75.6948 65.9609 75.8523 64.845C75.8816 64.6737 75.8606 64.4975 75.792 64.3378C75.7233 64.178 75.6098 64.0416 75.4653 63.945L64.2783 57.6C64.1828 57.545 64.1109 57.4569 64.076 57.3524C64.0412 57.2479 64.0459 57.1343 64.0893 57.033L64.9893 55.593C65.0459 55.4969 65.1356 55.4247 65.2416 55.3899C65.3476 55.3551 65.4627 55.3601 65.5653 55.404L65.5203 55.377ZM46.2873 67.905V75.366C46.3015 75.523 46.3531 75.6743 46.4376 75.8074C46.5221 75.9405 46.6372 76.0514 46.7733 76.131C47.688 76.4697 48.4744 77.0851 49.0229 77.8917C49.5713 78.6983 49.8546 79.6559 49.8333 80.631C49.8333 81.9128 49.3241 83.1421 48.4177 84.0485C47.5114 84.9548 46.2821 85.464 45.0003 85.464C43.7185 85.464 42.4892 84.9548 41.5828 84.0485C40.6765 83.1421 40.1673 81.9128 40.1673 80.631C40.1459 79.6559 40.4292 78.6983 40.9777 77.8917C41.5262 77.0851 42.3125 76.4697 43.2273 76.131C43.3633 76.0514 43.4784 75.9405 43.563 75.8074C43.6475 75.6743 43.699 75.523 43.7133 75.366V67.905C43.7178 67.847 43.7338 67.7905 43.7602 67.7387C43.7867 67.687 43.8232 67.6409 43.8675 67.6033C43.9118 67.5656 43.9632 67.5371 44.0186 67.5194C44.074 67.5017 44.1323 67.4951 44.1903 67.5H45.8103C45.9245 67.4899 46.0382 67.5246 46.1272 67.5968C46.2163 67.6691 46.2737 67.7732 46.2873 67.887V67.905ZM25.7223 57.6L14.5353 63.981C14.3907 64.0776 14.2773 64.214 14.2086 64.3738C14.1399 64.5335 14.119 64.7097 14.1483 64.881C14.2944 65.8412 14.1434 66.8232 13.7155 67.6951C13.2876 68.567 12.6032 69.2872 11.7543 69.759C10.9877 70.1978 10.1157 70.4186 9.2327 70.3974C8.34968 70.3762 7.48928 70.1139 6.74464 69.6388C6 69.1638 5.39948 68.4941 5.00811 67.7023C4.61674 66.9104 4.44941 66.0266 4.52425 65.1465C4.59909 64.2664 4.91324 63.4236 5.43269 62.7092C5.95214 61.9948 6.65711 61.4361 7.47127 61.0936C8.28543 60.7511 9.17777 60.6379 10.0517 60.7661C10.9256 60.8943 11.7478 61.2591 12.4293 61.821C12.5531 61.9124 12.7029 61.9617 12.8568 61.9617C13.0106 61.9617 13.1605 61.9124 13.2843 61.821L24.4803 55.377C24.5829 55.3331 24.6979 55.3281 24.8039 55.3629C24.9099 55.3977 24.9996 55.4699 25.0563 55.566L25.9113 57.006C25.9546 57.1073 25.9593 57.2209 25.9245 57.3254C25.8897 57.4299 25.8177 57.518 25.7223 57.573V57.6ZM14.5353 26.019L25.7223 32.4C25.8177 32.455 25.8897 32.5431 25.9245 32.6476C25.9593 32.7521 25.9546 32.8658 25.9113 32.967L25.0563 34.407C24.9996 34.5032 24.9099 34.5754 24.8039 34.6101C24.6979 34.6449 24.5829 34.6399 24.4803 34.596L13.2843 28.125C13.1456 28.0675 12.9947 28.0456 12.8453 28.0613C12.696 28.0771 12.553 28.1299 12.4293 28.215C11.6701 28.8321 10.7392 29.2003 9.76337 29.2695C8.7875 29.3388 7.81398 29.1057 6.97527 28.602C6.42865 28.2882 5.94918 27.8698 5.56424 27.3708C5.17931 26.8717 4.89645 26.3016 4.73181 25.6932C4.56717 25.0848 4.52398 24.4499 4.6047 23.8248C4.68542 23.1997 4.88848 22.5967 5.20227 22.05C5.51607 21.5034 5.93445 21.0239 6.43355 20.639C6.93264 20.2541 7.50266 19.9712 8.11107 19.8066C8.71948 19.6419 9.35436 19.5987 9.97946 19.6795C10.6046 19.7602 11.2076 19.9632 11.7543 20.277C12.6177 20.7445 13.313 21.4708 13.7424 22.3538C14.1718 23.2368 14.3137 24.2322 14.1483 25.2C14.1342 25.3703 14.1622 25.5413 14.2297 25.6982C14.2971 25.8552 14.4021 25.9931 14.5353 26.1V26.019ZM30.8883 58.419C32.3325 57.6809 33.88 57.1651 35.4783 56.889C35.5873 56.8753 35.6924 56.839 35.7866 56.7825C35.8809 56.726 35.9624 56.6504 36.0259 56.5607C36.0894 56.4709 36.1335 56.369 36.1554 56.2613C36.1773 56.1535 36.1766 56.0424 36.1533 55.935C35.4562 53.0506 35.07 50.0997 35.0013 47.133C34.9933 47.0234 34.9637 46.9164 34.9139 46.8183C34.8642 46.7202 34.7955 46.633 34.7117 46.5618C34.6279 46.4906 34.5308 46.4368 34.426 46.4035C34.3212 46.3702 34.2108 46.3582 34.1013 46.368H25.8213C25.7093 46.3693 25.599 46.3946 25.4977 46.4422C25.3963 46.4898 25.3064 46.5586 25.2339 46.6439C25.1614 46.7292 25.108 46.829 25.0774 46.9367C25.0467 47.0444 25.0395 47.1573 25.0563 47.268C25.5013 51.3327 27.1675 55.1672 29.8353 58.266C29.9675 58.406 30.1411 58.5 30.3306 58.534C30.5202 58.568 30.7156 58.5403 30.8883 58.455V58.419ZM25.8213 43.803H34.1463C34.2558 43.8129 34.3662 43.8008 34.471 43.7675C34.5758 43.7343 34.6729 43.6805 34.7567 43.6092C34.8405 43.538 34.9092 43.4508 34.9589 43.3528C35.0087 43.2547 35.0383 43.1477 35.0463 43.038C35.1086 40.1035 35.4949 37.1848 36.1983 34.335C36.2296 34.2272 36.2362 34.1137 36.2175 34.0029C36.1989 33.8922 36.1555 33.787 36.0907 33.6954C36.0258 33.6037 35.9411 33.5278 35.8429 33.4734C35.7446 33.419 35.6354 33.3874 35.5233 33.381C33.8767 33.0565 32.2732 32.5431 30.7443 31.851C30.5884 31.7653 30.4073 31.7372 30.2328 31.7718C30.0584 31.8063 29.9016 31.9013 29.7903 32.04C27.1663 35.122 25.5322 38.9233 25.1013 42.948C25.083 43.0589 25.0891 43.1725 25.1191 43.2808C25.1491 43.3892 25.2024 43.4897 25.2752 43.5753C25.348 43.661 25.4386 43.7297 25.5407 43.7768C25.6427 43.8239 25.7539 43.8482 25.8663 43.848L25.8213 43.803ZM33.5703 30.222C34.4742 30.5226 35.4013 30.7483 36.3423 30.897C36.5319 30.9391 36.7302 30.9147 36.9039 30.8278C37.0776 30.7409 37.2162 30.597 37.2963 30.42C37.6112 29.4504 38.0307 28.5179 38.5473 27.639C38.5934 27.4887 38.5993 27.329 38.5644 27.1757C38.5296 27.0225 38.4552 26.881 38.3487 26.7654C38.2422 26.6498 38.1073 26.5641 37.9574 26.5168C37.8075 26.4696 37.6478 26.4624 37.4943 26.496C36.018 27.1121 34.612 27.8845 33.3003 28.8C33.1752 28.89 33.0787 29.014 33.0223 29.1574C32.966 29.3008 32.9522 29.4574 32.9826 29.6084C33.013 29.7595 33.0863 29.8985 33.1937 30.009C33.3011 30.1194 33.4381 30.1965 33.5883 30.231L33.5703 30.222ZM51.4533 27.639C51.9174 28.462 52.3031 29.3268 52.6053 30.222C52.6986 30.4349 52.8706 30.6034 53.0853 30.6923C53.3 30.7812 53.5408 30.7836 53.7573 30.699C54.6573 30.51 55.4763 30.222 56.1423 30.033C56.2887 29.9901 56.4196 29.9058 56.5193 29.7902C56.619 29.6746 56.6831 29.5327 56.704 29.3816C56.7249 29.2304 56.7017 29.0764 56.6372 28.9381C56.5727 28.7998 56.4696 28.6831 56.3403 28.602C55.1494 27.752 53.8625 27.0451 52.5063 26.496C52.3495 26.4254 52.1745 26.406 52.006 26.4404C51.8376 26.4749 51.6842 26.5615 51.5677 26.6879C51.4512 26.8144 51.3775 26.9743 51.3569 27.145C51.3364 27.3157 51.3701 27.4885 51.4533 27.639ZM58.9233 31.5C57.5195 32.279 56.0004 32.829 54.4233 33.129C54.2145 33.2029 54.0404 33.3512 53.9341 33.5455C53.8278 33.7398 53.7969 33.9664 53.8473 34.182C54.5022 37.1046 54.8878 40.0811 54.9993 43.074C54.9991 43.1864 55.0234 43.2976 55.0705 43.3996C55.1176 43.5017 55.1863 43.5923 55.272 43.6651C55.3576 43.7379 55.4581 43.7912 55.5665 43.8212C55.6748 43.8512 55.7884 43.8573 55.8993 43.839H64.1343C64.2597 43.8434 64.3845 43.8199 64.4997 43.7701C64.6149 43.7202 64.7176 43.6454 64.8003 43.551C64.9213 43.3866 64.9874 43.1882 64.9893 42.984C64.5314 38.7822 62.758 34.8323 59.9223 31.698C59.8091 31.5482 59.6447 31.4451 59.4605 31.4086C59.2763 31.3721 59.0851 31.4046 58.9233 31.5ZM64.0893 46.422H55.8543C55.7434 46.4037 55.6298 46.4098 55.5215 46.4398C55.4131 46.4699 55.3126 46.5232 55.227 46.596C55.1413 46.6688 55.0726 46.7594 55.0255 46.8614C54.9784 46.9635 54.9541 47.0746 54.9543 47.187C54.8855 50.1537 54.4993 53.1046 53.8023 55.989C53.6133 56.655 54.0903 56.943 54.7023 57.042C56.2062 57.3014 57.6606 57.7933 59.0133 58.5C59.1868 58.5842 59.3829 58.6104 59.5724 58.5748C59.762 58.5391 59.9352 58.4435 60.0663 58.302C62.7435 55.1777 64.4402 51.3335 64.9443 47.25C64.9443 47.0113 64.8494 46.7824 64.6807 46.6136C64.5119 46.4449 64.283 46.35 64.0443 46.35L64.0893 46.422ZM56.3403 60.066C55.4303 59.7526 54.5015 59.4971 53.5593 59.301C53.3738 59.2857 53.1885 59.3333 53.0334 59.4362C52.8783 59.539 52.7623 59.6912 52.7043 59.868C52.3173 60.768 51.9393 61.668 51.4533 62.568C51.3701 62.7185 51.3364 62.8914 51.3569 63.0621C51.3775 63.2328 51.4512 63.3927 51.5677 63.5191C51.6842 63.6456 51.8376 63.7322 52.006 63.7666C52.1745 63.8011 52.3495 63.7816 52.5063 63.711C53.9278 63.1372 55.2778 62.4003 56.5293 61.515C56.6298 61.4173 56.706 61.2974 56.752 61.1649C56.7979 61.0325 56.8123 60.8911 56.7939 60.7521C56.7756 60.6131 56.725 60.4803 56.6462 60.3643C56.5675 60.2483 56.4627 60.1524 56.3403 60.084V60.066ZM38.5473 62.55C38.0324 61.6734 37.613 60.7441 37.2963 59.778C37.2204 59.5977 37.0826 59.4504 36.9076 59.3629C36.7326 59.2754 36.5321 59.2535 36.3423 59.301C35.4076 59.4761 34.4824 59.6984 33.5703 59.967C33.4317 60.0193 33.3099 60.1083 33.2179 60.2243C33.1259 60.3403 33.067 60.4792 33.0476 60.626C33.0283 60.7728 33.049 60.9221 33.1078 61.0581C33.1665 61.194 33.2611 61.3115 33.3813 61.398C34.6377 62.3523 36.0223 63.1249 37.4943 63.693C37.6478 63.7267 37.8075 63.7195 37.9574 63.6722C38.1073 63.625 38.2422 63.5393 38.3487 63.4237C38.4552 63.3081 38.5296 63.1666 38.5644 63.0133C38.5993 62.86 38.5934 62.7003 38.5473 62.55ZM50.4003 33.858C46.7752 34.2289 43.1235 34.262 39.4923 33.957C39.3959 33.9345 39.296 33.9312 39.1984 33.9476C39.1008 33.964 39.0074 33.9995 38.9237 34.0523C38.84 34.1051 38.7675 34.1739 38.7106 34.2549C38.6537 34.3359 38.6135 34.4274 38.5923 34.524C37.9352 37.2876 37.5524 40.1093 37.4493 42.948C37.4413 43.0683 37.4591 43.1888 37.5016 43.3016C37.544 43.4144 37.61 43.5169 37.6952 43.6021C37.7804 43.6873 37.8829 43.7533 37.9957 43.7957C38.1085 43.8382 38.229 43.856 38.3493 43.848H51.6513C51.7715 43.856 51.8921 43.8382 52.0049 43.7957C52.1177 43.7533 52.2201 43.6873 52.3053 43.6021C52.3905 43.5169 52.4566 43.4144 52.499 43.3016C52.5414 43.1888 52.5592 43.0683 52.5513 42.948C52.4076 40.0765 51.9887 37.2255 51.3003 34.434C51.2812 34.336 51.2424 34.2428 51.1863 34.1601C51.1301 34.0775 51.0578 34.0071 50.9737 33.9532C50.8895 33.8994 50.7953 33.8632 50.6967 33.8468C50.5982 33.8304 50.4973 33.8343 50.4003 33.858ZM40.6443 31.5C43.511 31.7586 46.3965 31.7285 49.2573 31.41C49.3815 31.4098 49.5037 31.3782 49.6125 31.3181C49.7213 31.2581 49.8132 31.1715 49.8796 31.0665C49.946 30.9615 49.9848 30.8414 49.9925 30.7174C50.0001 30.5934 49.9763 30.4694 49.9233 30.357C48.6003 27.072 46.8003 25.065 45.0003 25.065C43.2003 25.065 41.4003 27.072 39.9783 30.42C39.9288 30.5343 39.9077 30.6589 39.9167 30.7831C39.9257 30.9073 39.9645 31.0276 40.0299 31.1336C40.0952 31.2396 40.1852 31.3282 40.2922 31.392C40.3992 31.4558 40.5199 31.4929 40.6443 31.5ZM39.5013 56.241C43.127 55.854 46.7836 55.854 50.4093 56.241C50.612 56.2877 50.8248 56.2536 51.0029 56.1461C51.1809 56.0386 51.3101 55.8661 51.3633 55.665C51.9789 52.8635 52.3612 50.0157 52.5063 47.151C52.4857 46.9313 52.38 46.7284 52.2119 46.5855C52.0438 46.4425 51.8264 46.371 51.6063 46.386H38.3493C38.1291 46.371 37.9118 46.4425 37.7437 46.5855C37.5755 46.7284 37.4699 46.9313 37.4493 47.151C37.5453 50.0201 37.9282 52.8723 38.5923 55.665C38.6353 55.8607 38.7543 56.0313 38.9231 56.1393C39.0918 56.2473 39.2966 56.2839 39.4923 56.241H39.5013ZM49.2573 58.725C46.3935 58.437 43.5081 58.437 40.6443 58.725C40.5209 58.7276 40.4001 58.7606 40.2926 58.8213C40.1851 58.8819 40.0943 58.9683 40.0283 59.0726C39.9624 59.1769 39.9233 59.2959 39.9145 59.419C39.9058 59.5421 39.9277 59.6655 39.9783 59.778C41.4093 63.126 43.1373 65.178 44.9553 65.178C46.7733 65.178 48.5553 63.171 50.0223 59.913C50.0717 59.7872 50.0899 59.6513 50.0754 59.5169C50.0609 59.3826 50.014 59.2537 49.9388 59.1414C49.8637 59.029 49.7624 58.9366 49.6437 58.8719C49.525 58.8072 49.3924 58.7723 49.2573 58.77V58.725ZM53.1813 9.56703C52.8617 9.51584 52.5345 9.58784 52.266 9.76848C51.9974 9.94912 51.8073 10.2249 51.7342 10.5403C51.6611 10.8556 51.7103 11.1869 51.872 11.4673C52.0337 11.7477 52.2958 11.9563 52.6053 12.051C53.2713 12.249 54.2343 12.438 54.9993 12.627C55.3155 12.7332 55.6611 12.7095 55.9598 12.5609C56.2585 12.4124 56.4861 12.1513 56.5923 11.835C56.6985 11.5188 56.6747 11.1732 56.5262 10.8745C56.3777 10.5758 56.1165 10.3482 55.8003 10.242C54.952 9.97086 54.0898 9.74553 53.2173 9.56703H53.1813ZM36.6303 9.56703C35.7851 9.76256 34.955 10.0182 34.1463 10.332C32.5173 10.719 33.3813 13.302 34.8123 12.726C35.598 12.4595 36.3971 12.2342 37.2063 12.051C37.5158 11.9563 37.7778 11.7477 37.9395 11.4673C38.1012 11.1869 38.1505 10.8556 38.0773 10.5403C38.0042 10.2249 37.8142 9.94912 37.5456 9.76848C37.277 9.58784 36.9499 9.51584 36.6303 9.56703ZM28.1163 15.597C28.2704 15.5243 28.4077 15.4202 28.5192 15.2914C28.6308 15.1626 28.7143 15.0119 28.7642 14.849C28.8142 14.6861 28.8296 14.5145 28.8095 14.3453C28.7893 14.176 28.7341 14.0129 28.6472 13.8663C28.5604 13.7196 28.4439 13.5928 28.3051 13.4938C28.1664 13.3947 28.0086 13.3258 27.8417 13.2913C27.6748 13.2569 27.5025 13.2576 27.3359 13.2935C27.1694 13.3295 27.0121 13.3998 26.8743 13.5C26.1158 13.9073 25.3798 14.3549 24.6693 14.841C23.3283 15.507 24.6693 17.991 26.1093 16.938C26.7753 16.461 27.4413 16.083 28.1163 15.606V15.597ZM20.4663 21.6C20.5994 21.4864 20.7073 21.3461 20.7828 21.1882C20.8584 21.0303 20.8999 20.8584 20.9049 20.6834C20.9098 20.5084 20.8779 20.3344 20.8113 20.1725C20.7447 20.0106 20.6449 19.8645 20.5183 19.7436C20.3918 19.6227 20.2412 19.5297 20.0764 19.4707C19.9117 19.4116 19.7363 19.3878 19.5618 19.4007C19.3872 19.4137 19.2173 19.4631 19.0631 19.5459C18.9088 19.6286 18.7736 19.7428 18.6663 19.881C18.0903 20.448 17.5143 21.123 16.9383 21.789C15.7773 23.148 18.0003 24.678 18.8373 23.4C19.2153 22.923 19.9803 22.059 20.4663 21.6ZM9.17127 38.259C8.99692 39.1123 8.87072 39.9746 8.79327 40.842C8.76847 41.0079 8.77729 41.1771 8.8192 41.3396C8.86112 41.502 8.93528 41.6544 9.03727 41.7876C9.13925 41.9207 9.26699 42.0321 9.41287 42.1149C9.55875 42.1977 9.71981 42.2504 9.88645 42.2697C10.0531 42.289 10.2219 42.2746 10.3829 42.2274C10.5438 42.1801 10.6937 42.101 10.8234 41.9946C10.9532 41.8883 11.0602 41.757 11.1382 41.6084C11.2162 41.4599 11.2635 41.2972 11.2773 41.13C11.3757 40.3132 11.5168 39.5021 11.7003 38.7C11.7316 38.5363 11.7304 38.3681 11.6967 38.2049C11.663 38.0416 11.5974 37.8867 11.5038 37.7488C11.3148 37.4703 11.0229 37.2783 10.6923 37.215C10.3617 37.1518 10.0195 37.2224 9.74101 37.4115C9.46252 37.6005 9.27053 37.8924 9.20727 38.223L9.17127 38.259ZM8.69427 48.681C8.77342 49.5607 8.90263 50.4351 9.08127 51.3C9.096 51.4722 9.14599 51.6395 9.22813 51.7915C9.31027 51.9436 9.42281 52.0771 9.55875 52.1838C9.69468 52.2905 9.85111 52.3681 10.0183 52.4117C10.1855 52.4554 10.3599 52.4642 10.5307 52.4376C10.7014 52.411 10.8648 52.3496 11.0108 52.2571C11.1568 52.1647 11.2822 52.0432 11.3793 51.9002C11.4763 51.7572 11.5429 51.5957 11.5749 51.4259C11.6069 51.2561 11.6036 51.0815 11.5653 50.913C11.4663 50.013 11.2773 49.293 11.1783 48.528C11.1532 48.1986 10.9983 47.8927 10.7477 47.6775C10.497 47.4623 10.1712 47.3555 9.84177 47.3805C9.51237 47.4056 9.20642 47.5605 8.99122 47.8111C8.77603 48.0618 8.66921 48.3876 8.69427 48.717V48.681ZM18.4503 66.276C18.3526 66.1428 18.229 66.0306 18.0868 65.9464C17.9447 65.8622 17.787 65.8076 17.6232 65.786C17.4594 65.7644 17.2929 65.7761 17.1338 65.8206C16.9746 65.865 16.8261 65.9412 16.6972 66.0446C16.5683 66.1479 16.4617 66.2763 16.3838 66.422C16.3058 66.5677 16.2582 66.7276 16.2437 66.8922C16.2292 67.0568 16.2482 67.2226 16.2995 67.3797C16.3508 67.5367 16.4334 67.6817 16.5423 67.806C17.0248 68.5194 17.5667 69.1908 18.1623 69.813C18.3902 70.0672 18.7098 70.2205 19.0508 70.2391C19.3917 70.2576 19.7261 70.14 19.9803 69.912C20.2345 69.6841 20.3877 69.3645 20.4063 69.0235C20.4249 68.6826 20.3072 68.3482 20.0793 68.094C19.486 67.5415 18.941 66.9393 18.4503 66.294V66.276ZM25.5333 72.9C24.2913 71.946 22.7613 74.052 24.0933 75.006C24.8673 75.483 25.6323 75.96 26.2983 76.446C27.6393 77.346 29.0703 75.105 27.6393 74.241C26.9121 73.8349 26.2089 73.3871 25.5333 72.9ZM34.2003 77.274C34.0396 77.2094 33.8672 77.1786 33.6941 77.1835C33.5209 77.1884 33.3507 77.229 33.1939 77.3027C33.0371 77.3764 32.8973 77.4817 32.783 77.6119C32.6687 77.7421 32.5825 77.8945 32.5298 78.0595C32.4771 78.2245 32.459 78.3986 32.4765 78.5709C32.4941 78.7432 32.5471 78.9101 32.632 79.0611C32.717 79.212 32.8322 79.3438 32.9704 79.4482C33.1086 79.5527 33.2669 79.6275 33.4353 79.668C34.3353 79.956 35.1543 80.244 35.9283 80.433C37.5483 80.811 38.2233 78.327 36.5943 77.949C35.7818 77.7789 34.9819 77.5534 34.2003 77.274ZM53.4333 77.949C53.1399 78.0566 52.8979 78.2707 52.7554 78.5487C52.6129 78.8268 52.5805 79.1483 52.6645 79.4492C52.7485 79.7501 52.9429 80.0083 53.2088 80.1723C53.4747 80.3363 53.7927 80.394 54.0993 80.334C54.9777 80.1592 55.846 79.9369 56.7003 79.668C57.0177 79.5487 57.2748 79.3081 57.4149 78.9992C57.555 78.6904 57.5666 78.3385 57.4473 78.021C57.3279 77.7036 57.0874 77.4465 56.7785 77.3064C56.4696 77.1663 56.1177 77.1547 55.8003 77.274C55.0353 77.463 54.2703 77.751 53.4153 77.949H53.4333ZM62.4333 74.124C62.1519 74.3064 61.9528 74.5915 61.8784 74.9184C61.8039 75.2454 61.8601 75.5885 62.0349 75.8748C62.2096 76.161 62.4892 76.3676 62.8141 76.4508C63.139 76.534 63.4835 76.4871 63.7743 76.32C64.5393 75.843 65.2053 75.366 65.9703 74.889C67.3113 73.926 65.8803 71.829 64.5393 72.783C63.8643 73.26 63.0993 73.737 62.4333 74.124ZM69.9933 67.995C68.9403 69.048 70.5603 70.965 71.7933 69.723C72.4137 69.0962 72.9882 68.4254 73.5123 67.716C73.6127 67.5902 73.6874 67.4457 73.7321 67.291C73.7767 67.1363 73.7904 66.9742 73.7725 66.8142C73.7545 66.6542 73.7052 66.4992 73.6273 66.3582C73.5495 66.2173 73.4446 66.093 73.3188 65.9925C73.1929 65.8921 73.0485 65.8174 72.8937 65.7727C72.739 65.7281 72.577 65.7144 72.4169 65.7323C72.2569 65.7503 72.102 65.7996 71.961 65.8775C71.82 65.9553 71.6957 66.0602 71.5953 66.186C71.1056 66.8295 70.5638 67.4316 69.9753 67.986L69.9933 67.995ZM80.8923 51.165C81.0706 50.2728 81.1998 49.3714 81.2793 48.465C81.3043 48.1356 81.1975 47.8098 80.9823 47.5591C80.7671 47.3085 80.4612 47.1536 80.1318 47.1285C79.8024 47.1035 79.4765 47.2103 79.2259 47.4255C78.9752 47.6407 78.8203 47.9466 78.7953 48.276C78.7102 49.0775 78.581 49.8737 78.4083 50.661C78.1203 52.38 80.7033 52.668 80.8923 51.138V51.165ZM78.7233 41.031C78.7362 41.2041 78.7847 41.3727 78.8658 41.5262C78.9469 41.6797 79.0589 41.8148 79.1947 41.9229C79.3304 42.0311 79.4871 42.1101 79.6548 42.1548C79.8226 42.1996 79.9977 42.2092 80.1693 42.1831C80.341 42.157 80.5053 42.0957 80.6522 42.0031C80.799 41.9104 80.9251 41.7884 81.0225 41.6448C81.12 41.5011 81.1867 41.3389 81.2185 41.1682C81.2503 40.9975 81.2465 40.8221 81.2073 40.653C81.1173 39.753 80.9193 38.925 80.8293 38.07C80.5413 36.441 77.8593 37.017 78.3363 38.547C78.4353 39.447 78.6243 40.167 78.7233 41.031ZM70.9743 23.337C71.1891 23.6032 71.5008 23.7731 71.841 23.8094C72.181 23.8457 72.5216 23.7454 72.7878 23.5305C73.0539 23.3157 73.2238 23.004 73.2601 22.6639C73.2964 22.3238 73.1961 21.9832 72.9813 21.717C72.4599 21.0085 71.8556 20.3649 71.1813 19.8C70.0383 18.558 68.3103 20.376 69.3813 21.519C69.9573 22.095 70.5333 22.77 71.0103 23.319L70.9743 23.337Z" fill="url(#paint0_linear_155_2615)"/>
<defs>
<linearGradient id="paint0_linear_155_2615" x1="44.9888" y1="4.49982" x2="44.9888" y2="85.464" gradientUnits="userSpaceOnUse">
<stop stop-color="#5DE7FF"/>
<stop offset="1" stop-color="#00A8C5"/>
</linearGradient>
</defs>
</svg>
