<svg width="90" height="90" viewBox="0 0 90 90" fill="none" xmlns="http://www.w3.org/2000/svg">
<path d="M18.2811 35.1562C19.7436 35.1562 21.0373 34.3969 21.7967 33.2578C22.5561 34.3969 23.8498 35.1562 25.3123 35.1562C26.7748 35.1562 28.0686 34.3969 28.8279 33.2578C29.5873 34.3969 30.8811 35.1562 32.3436 35.1562C33.8061 35.1562 35.0998 34.3969 35.8592 33.2578C36.6186 34.3969 37.9123 35.1562 39.3748 35.1562C40.8373 35.1562 42.1311 34.3969 42.8904 33.2578C43.3886 34.0161 44.1182 34.5933 44.9708 34.9036C45.8233 35.2139 46.7533 35.2407 47.6223 34.98C48.4913 34.7193 49.253 34.185 49.7939 33.4567C50.3349 32.7283 50.6263 31.8448 50.6248 30.9375C50.6248 28.6031 48.7404 26.7188 46.4061 26.7188V21.0938H18.2811V26.7188C15.9467 26.7188 14.0623 28.6031 14.0623 30.9375C14.0623 33.2719 15.9467 35.1562 18.2811 35.1562ZM71.7186 66.6563C71.9998 66.1641 72.5764 65.925 73.1107 66.0938L75.867 66.9937C76.4857 67.1906 77.1467 66.8531 77.3436 66.2344L79.692 59.0625H67.3732C64.3779 68.5687 55.4904 75.4734 44.9998 75.4734C34.5092 75.4734 25.6217 68.5687 22.6264 59.0625H10.3076L12.6561 66.2344C12.8529 66.8531 13.5139 67.1906 14.1326 66.9937L16.8889 66.0938C17.4232 65.925 17.9998 66.1641 18.2811 66.6563C19.5326 68.9484 21.0514 71.0438 22.8232 72.9281C23.217 73.3359 23.2732 73.9687 22.9357 74.4187L21.2342 76.7672C20.8545 77.2875 20.967 78.0328 21.4873 78.4125L27.1826 82.5328C27.7029 82.9266 28.4342 82.8 28.8139 82.2797L30.5154 79.9313C30.8529 79.4813 31.4576 79.3266 31.9779 79.5797C34.2842 80.6766 36.7592 81.4922 39.3467 81.9703C39.8951 82.0828 40.317 82.5469 40.317 83.1234V86.0203C40.317 86.6672 40.8373 87.1875 41.4842 87.1875H48.5154C49.1623 87.1875 49.6826 86.6672 49.6826 86.0203V83.1234C49.6826 82.5469 50.1045 82.0828 50.6529 81.9703C53.2404 81.4922 55.7154 80.6766 58.0217 79.5797C58.542 79.3266 59.1467 79.4813 59.4842 79.9313L61.1857 82.2797C61.5654 82.8 62.2967 82.9266 62.817 82.5328L68.5123 78.4125C69.0326 78.0328 69.1451 77.2875 68.7654 76.7672L67.0639 74.4187C66.9025 74.1974 66.8252 73.9259 66.8459 73.6527C66.8665 73.3796 66.9836 73.1227 67.1764 72.9281C68.9482 71.0438 70.467 68.9484 71.7186 66.6563Z" fill="url(#paint0_linear_155_2705)"/>
<path d="M84.375 53.4375H67.5V2.8125H36.5625V18.2812H46.4062C47.9531 18.2812 49.2188 19.5469 49.2188 21.0938V24.4969C51.6937 25.5797 53.4375 28.0688 53.4375 30.9375C53.4375 33.1734 52.3547 35.2406 50.625 36.5484V53.4375H47.8125V37.8281C46.129 38.1673 44.3795 37.8824 42.8906 37.0266C40.7812 38.25 37.9688 38.25 35.8594 37.0266C33.75 38.25 30.9375 38.25 28.8281 37.0266C26.7188 38.25 23.9062 38.25 21.7969 37.0266C20.7422 37.6312 19.5328 37.9688 18.2812 37.9688C17.8031 37.9688 17.325 37.9125 16.875 37.8281V53.4375H5.625V56.25H84.375V53.4375ZM47.8125 14.0625H42.1875V8.4375H47.8125V14.0625ZM39.375 49.2188H25.3125V42.1875H39.375V49.2188ZM61.875 46.4062H56.25V40.7812H61.875V46.4062ZM61.875 30.2344H56.25V24.6094H61.875V30.2344ZM61.875 14.0625H56.25V8.4375H61.875V14.0625Z" fill="url(#paint1_linear_155_2705)"/>
<defs>
<linearGradient id="paint0_linear_155_2705" x1="44.9998" y1="21.0938" x2="44.9998" y2="87.1875" gradientUnits="userSpaceOnUse">
<stop stop-color="#5DE7FF"/>
<stop offset="1" stop-color="#00A8C5"/>
</linearGradient>
<linearGradient id="paint1_linear_155_2705" x1="45" y1="2.8125" x2="45" y2="56.25" gradientUnits="userSpaceOnUse">
<stop stop-color="#5DE7FF"/>
<stop offset="1" stop-color="#00A8C5"/>
</linearGradient>
</defs>
</svg>
