<svg width="90" height="90" viewBox="0 0 90 90" fill="none" xmlns="http://www.w3.org/2000/svg">
<path fill-rule="evenodd" clip-rule="evenodd" d="M67.5004 2.8125C68.138 2.8126 68.7566 3.02933 69.2548 3.42716C69.7531 3.82498 70.1014 4.38029 70.2426 5.00203L71.7993 11.8448C72.152 13.3957 72.9359 14.8153 74.0605 15.9399C75.1851 17.0645 76.6047 17.8484 78.1556 18.2011L84.9998 19.7578C85.6212 19.8994 86.176 20.2479 86.5734 20.7461C86.9709 21.2443 87.1873 21.8627 87.1873 22.5C87.1873 23.1373 86.9709 23.7557 86.5734 24.2539C86.176 24.7521 85.6212 25.1006 84.9998 25.2422L78.1556 26.7989C76.6047 27.1516 75.1851 27.9355 74.0605 29.0601C72.9359 30.1847 72.152 31.6043 71.7993 33.1552L70.2426 39.998C70.101 40.6193 69.7525 41.1742 69.2543 41.5716C68.7561 41.9691 68.1377 42.1855 67.5004 42.1855C66.8631 42.1855 66.2447 41.9691 65.7465 41.5716C65.2483 41.1742 64.8998 40.6193 64.7582 39.998L63.2015 33.1552C62.8488 31.6043 62.0649 30.1847 60.9403 29.0601C59.8157 27.9355 58.3961 27.1516 56.8452 26.7989L50.001 25.2422C49.3797 25.1006 48.8248 24.7521 48.4274 24.2539C48.0299 23.7557 47.8135 23.1373 47.8135 22.5C47.8135 21.8627 48.0299 21.2443 48.4274 20.7461C48.8248 20.2479 49.3797 19.8994 50.001 19.7578L56.8452 18.2011C58.3961 17.8484 59.8157 17.0645 60.9403 15.9399C62.0649 14.8153 62.8488 13.3957 63.2015 11.8448L64.7582 5.00203C64.8994 4.38029 65.2477 3.82498 65.746 3.42716C66.2442 3.02933 66.8628 2.8126 67.5004 2.8125Z" fill="url(#paint0_linear_154_2462)"/>
<path d="M2.8125 33.75C2.8125 33.0041 3.10882 32.2887 3.63626 31.7613C4.16371 31.2338 4.87908 30.9375 5.625 30.9375H36.5625C37.3084 30.9375 38.0238 31.2338 38.5512 31.7613C39.0787 32.2887 39.375 33.0041 39.375 33.75C39.375 34.4959 39.0787 35.2113 38.5512 35.7387C38.0238 36.2662 37.3084 36.5625 36.5625 36.5625H5.625C4.87908 36.5625 4.16371 36.2662 3.63626 35.7387C3.10882 35.2113 2.8125 34.4959 2.8125 33.75ZM5.625 47.8125C4.87908 47.8125 4.16371 48.1088 3.63626 48.6363C3.10882 49.1637 2.8125 49.8791 2.8125 50.625C2.8125 51.3709 3.10882 52.0863 3.63626 52.6137C4.16371 53.1412 4.87908 53.4375 5.625 53.4375H84.375C85.1209 53.4375 85.8363 53.1412 86.3637 52.6137C86.8912 52.0863 87.1875 51.3709 87.1875 50.625C87.1875 49.8791 86.8912 49.1637 86.3637 48.6363C85.8363 48.1088 85.1209 47.8125 84.375 47.8125H5.625ZM2.8125 67.5C2.8125 66.7541 3.10882 66.0387 3.63626 65.5113C4.16371 64.9838 4.87908 64.6875 5.625 64.6875H84.375C85.1209 64.6875 85.8363 64.9838 86.3637 65.5113C86.8912 66.0387 87.1875 66.7541 87.1875 67.5C87.1875 68.2459 86.8912 68.9613 86.3637 69.4887C85.8363 70.0162 85.1209 70.3125 84.375 70.3125H5.625C4.87908 70.3125 4.16371 70.0162 3.63626 69.4887C3.10882 68.9613 2.8125 68.2459 2.8125 67.5ZM5.625 81.5625C4.87908 81.5625 4.16371 81.8588 3.63626 82.3863C3.10882 82.9137 2.8125 83.6291 2.8125 84.375C2.8125 85.1209 3.10882 85.8363 3.63626 86.3637C4.16371 86.8912 4.87908 87.1875 5.625 87.1875H84.375C85.1209 87.1875 85.8363 86.8912 86.3637 86.3637C86.8912 85.8363 87.1875 85.1209 87.1875 84.375C87.1875 83.6291 86.8912 82.9137 86.3637 82.3863C85.8363 81.8588 85.1209 81.5625 84.375 81.5625H5.625Z" fill="url(#paint1_linear_154_2462)"/>
<defs>
<linearGradient id="paint0_linear_154_2462" x1="67.5004" y1="2.8125" x2="67.5004" y2="42.1855" gradientUnits="userSpaceOnUse">
<stop stop-color="#5DE7FF"/>
<stop offset="1" stop-color="#00A8C5"/>
</linearGradient>
<linearGradient id="paint1_linear_154_2462" x1="45" y1="30.9375" x2="45" y2="87.1875" gradientUnits="userSpaceOnUse">
<stop stop-color="#5DE7FF"/>
<stop offset="1" stop-color="#00A8C5"/>
</linearGradient>
</defs>
</svg>
