<svg width="1440" height="58" viewBox="0 0 1440 58" fill="none" xmlns="http://www.w3.org/2000/svg">
<path d="M18.8928 54.4008C18.6196 54.8161 15.7516 54.6777 16.1614 55.3698C19.3025 55.7851 21.0779 56.4772 21.6243 57.3078C28.8625 57.1693 34.1887 57.8615 43.339 57.9999C49.2117 56.3388 62.8689 58.1383 68.7415 57.4462C66.1466 57.3078 64.6443 57.0309 64.2346 56.4772C66.9661 55.9235 71.1997 55.6467 73.2483 54.9546L71.8826 54.6777L72.2924 54.4009C71.3364 54.4009 70.517 54.4009 69.5609 54.4009C69.9707 53.7087 66.6929 53.7087 65.8735 53.2935C56.4501 54.6777 56.9963 50.9403 66.8295 51.3555C68.1952 50.8018 68.7415 50.1097 70.5168 49.6944C67.6489 49.0023 69.2877 48.4486 67.7854 47.4797C63.142 47.3412 63.9614 48.1718 62.3226 48.587C61.3666 48.0333 62.5957 47.4797 59.5912 46.926C56.0403 46.7875 55.2208 47.2028 51.3969 47.0644C52.2162 46.0954 55.0842 45.5417 57.6791 44.8496L56.3134 44.7112L56.7231 44.4343C53.7186 44.1575 58.3621 43.4654 55.7672 43.1885C58.089 43.1885 60.4105 43.1885 60.274 42.6348C59.8643 41.8043 55.6306 41.8043 55.7672 40.9737C58.2255 40.8353 56.7231 40.0048 60.274 40.0048C61.6398 40.2816 63.5518 40.5585 63.0054 41.2506C65.054 41.2506 66.6929 41.5274 68.4683 41.6658L68.8781 41.389C69.5609 41.6658 69.6975 41.8043 70.6536 42.0811L73.385 41.8043C73.7947 41.8043 74.0679 41.6658 74.3409 41.6658L73.9312 41.8043C74.2043 41.8043 74.4775 41.8043 74.8872 41.8043C76.5261 42.0811 75.9799 42.9117 78.5747 43.0501C84.8569 41.9427 79.8038 40.6969 84.8569 39.5895C90.7295 40.6969 83.4913 41.6658 86.6324 42.9117L87.9982 43.0501L87.5884 43.3269C93.1879 43.4654 94.2804 42.7732 98.5142 42.7732C99.3336 43.1885 103.158 42.9117 103.021 43.4654C100.426 43.7422 100.426 44.5728 99.3336 45.2649C108.484 44.2959 116.269 45.1264 128.287 45.2649C125.419 45.8186 129.653 46.0954 131.018 46.3723C129.516 46.6491 128.287 47.0644 128.287 47.6181C134.979 48.5871 138.666 50.9403 136.481 52.4629C140.715 52.8782 140.578 52.4629 144.676 52.0477C139.896 51.3555 145.631 50.1097 146.451 49.2792C150.958 49.4176 150.548 50.6634 157.377 50.3866C158.06 49.556 160.791 49.0023 166.39 49.1407C167.073 50.525 176.224 51.9092 170.078 53.0166C172.536 54.2624 178.955 53.5703 182.779 54.4009C185.784 53.8472 191.656 53.7087 195.48 53.2935C193.158 51.494 199.851 51.494 203.675 50.9403L202.309 50.8018L202.992 51.0787C198.895 50.8018 203.265 49.4176 205.723 49.2792C204.767 47.0644 211.596 46.3723 219.38 45.8186C228.94 46.0954 236.042 48.0334 244.783 48.3102C250.246 48.4486 254.07 47.7565 260.215 47.8949C259.669 49.0023 264.859 49.0023 265.678 49.8329C269.502 49.2792 273.19 49.0023 279.335 49.2792C281.521 50.2482 277.287 50.9403 278.379 52.1861C283.979 52.6014 286.164 52.3245 290.125 51.6324C284.798 50.525 291.354 48.8639 286.437 48.0334C288.486 48.0334 289.852 48.0334 290.125 47.6181L288.759 47.4797L289.169 47.2028C287.803 47.0644 284.525 47.4797 284.662 47.0644C289.442 45.4033 278.926 45.4033 278.379 44.2959C282.203 44.988 283.023 43.7422 286.574 43.7422C289.305 43.8806 287.666 44.988 292.856 44.7112C295.724 44.4343 290.671 43.7422 292.856 43.6038C293.539 43.7422 297.909 44.0191 298.319 43.6038L296.953 43.4654L298.729 43.327L299.138 43.4654C299.958 44.1575 297.363 44.2959 297.363 44.8496C299.002 45.1265 298.729 45.8186 301.87 45.8186C304.738 45.957 304.328 45.2649 306.377 45.2649C302.962 44.4343 306.104 43.6038 308.152 42.9117C309.381 42.9117 308.972 43.1885 309.928 43.327L311.293 43.1885L312.659 43.327C313.615 43.0501 314.161 42.7733 315.391 42.6348C318.258 43.0501 323.995 42.7733 327.136 42.6348C330.687 43.1885 336.149 43.4654 336.149 44.8496C335.876 45.2649 332.189 44.8496 332.462 45.4033C334.374 45.5417 335.33 45.8186 336.969 45.957L338.061 45.6802C338.608 45.957 338.881 46.2339 340.11 46.5107L338.744 46.7876C339.564 47.0644 340.11 47.3413 342.432 47.3413C341.612 46.7876 343.661 46.926 343.388 46.3723L341.749 46.3723L342.978 45.8186L343.388 46.0954C347.075 46.7876 352.811 45.957 357.864 46.5107C358.957 46.926 358.957 47.4797 361.552 47.6181C365.512 47.6181 371.112 46.6491 376.984 46.926C376.575 46.0954 378.623 45.957 376.984 45.2649C382.038 44.8496 387.091 44.4344 392.417 45.1265C398.699 44.0191 407.713 43.327 412.357 41.8043C408.533 41.6659 402.523 42.0811 402.387 41.2506C405.801 40.6969 413.586 40.9738 412.357 40.0048C414.951 40.4201 419.868 40.2816 421.37 40.9738C421.78 40.5585 421.507 39.7279 423.146 39.1742C420.824 39.0358 420.278 38.4821 418.639 38.2053C410.581 38.759 406.074 36.9595 406.894 35.9905C417 37.3747 424.511 34.0526 432.296 35.4368C432.296 34.4678 430.657 33.7757 427.789 33.4989C429.838 32.253 437.213 32.1146 439.534 31.0072C437.759 30.3151 429.291 30.0383 434.071 29.2077C432.433 29.0693 430.247 29.0693 429.565 28.7924C433.115 29.0693 429.838 27.9619 432.296 28.1003C432.433 28.2387 433.252 28.3772 434.071 28.5156L434.754 28.2387L435.984 27.9619C436.257 27.685 435.027 27.5466 435.027 27.2698C430.521 27.2698 428.335 27.8235 424.102 27.8235L423.009 28.1003L421.37 28.1003C420.687 28.654 423.146 28.5156 423.146 28.7924C420.824 29.3461 418.093 31.1457 424.102 31.2841C419.595 31.6993 414.269 31.8378 411.401 32.5299L411.81 32.8067C410.581 32.6683 409.352 32.6683 408.123 32.6683L407.713 32.5299C405.938 32.5299 404.708 31.4225 406.757 31.2841C409.352 31.2841 409.489 31.6993 412.22 31.6993C414.542 31.1456 417.819 30.8688 417.683 29.8998C410.991 30.1767 407.303 30.8688 401.294 30.0383L401.294 29.8998L399.928 29.623C401.704 29.4846 402.387 29.0693 401.021 28.7924L402.25 28.5156C401.84 27.8235 400.202 27.4082 400.475 26.7161C404.162 26.8545 405.665 26.5777 408.669 26.5777C408.396 25.8855 406.211 26.1624 407.713 25.4703C410.445 25.3318 410.991 25.6087 413.176 25.6087C414.405 24.9166 418.639 25.1934 423.146 24.9166C422.326 25.4703 421.643 25.7471 424.102 26.024C427.516 26.3008 424.238 25.1934 427.789 25.4703C427.789 25.7471 427.789 26.024 427.789 26.4392C430.657 26.4392 431.613 26.7161 435.027 26.5777L436.12 26.3008L437.759 26.4392C437.759 26.1624 438.852 26.1624 438.715 25.8855C441.037 26.024 444.041 26.1624 444.997 25.7471C444.861 26.4392 449.231 26.1624 448.685 26.8545C445.544 26.9929 442.949 27.5466 444.997 28.2387C447.729 28.3772 447.729 27.9619 450.46 28.1003C449.914 28.9309 451.143 29.3461 451.416 29.8998L453.055 29.7614L454.148 30.0383C455.104 30.0383 455.923 30.0383 456.879 30.0383L458.245 29.8998C458.381 30.0383 458.518 30.1767 458.654 30.3151L463.708 29.8998L463.298 30.1767C463.981 30.7304 461.522 30.592 461.522 30.8688L462.888 31.1457L462.478 31.4225C464.39 31.4225 461.249 31.9762 460.703 32.1146C461.113 32.3915 461.932 32.1146 463.434 32.1146C463.298 32.5299 461.113 32.5299 458.928 32.5299L458.518 32.8067L457.152 32.9452C461.522 34.4678 467.668 33.4989 472.585 34.7447C471.219 35.0215 471.902 35.7136 468.897 35.7136C466.166 35.2984 465.21 34.6063 463.434 34.4678C460.02 34.8831 462.615 35.8521 462.478 36.4058C470.263 37.0979 478.731 37.6516 485.149 38.6206C485.286 38.0669 488.7 38.0669 487.881 37.3747C486.515 37.3747 484.466 37.3747 484.193 37.2363C489.247 36.821 481.462 36.2673 480.506 35.9905C489.793 35.8521 491.159 37.3747 497.714 37.79C500.582 37.79 500.309 37.2363 503.996 37.3747C506.591 38.2053 512.327 38.2053 516.698 37.9284C520.795 38.6206 525.165 39.1743 526.667 40.2816C530.491 39.8664 535.271 40.2816 539.368 40.4201C540.598 40.0048 541.007 39.4511 544.831 39.4511C545.651 40.1432 542.373 40.1432 541.144 40.5585C547.836 41.8043 557.942 42.358 562.859 44.0191C577.199 44.1575 577.745 40.5585 593.724 41.6659C592.905 41.9427 592.495 42.2196 592.768 42.6349C599.46 42.9117 598.914 44.5728 601.782 45.5418C601.509 45.5418 601.236 45.5418 600.826 45.5418L599.597 45.8186L598.094 45.957C599.05 47.0644 603.421 47.6181 603.557 48.8639C604.65 49.0024 605.606 49.0024 606.289 49.2792C606.835 50.525 615.439 50.9403 612.571 52.1861C613.8 52.1861 613.8 52.463 615.302 52.3245L615.302 51.9093C616.122 52.0477 617.214 52.3245 617.761 52.463C618.58 52.463 619.4 52.463 620.356 52.463L619.946 52.7398C629.643 52.7398 628.823 55.093 638.929 54.5393C643.027 56.6157 662.42 55.5083 656.274 52.7398C659.688 52.3245 660.371 51.2172 662.556 50.525C662.283 50.2482 661.327 50.1098 661.6 49.8329C662.283 49.0024 665.971 48.8639 666.107 48.0334C661.191 47.7566 658.323 47.0644 652.45 47.3413C649.309 46.0955 644.392 45.2649 638.793 44.4344C636.744 44.5728 638.929 45.5418 635.105 45.4033C629.643 44.8496 626.638 43.8807 622.404 43.0501L621.039 43.1886C618.99 42.358 617.488 41.2506 613.8 40.6969L614.21 40.4201C612.025 38.6206 608.337 37.79 606.016 35.8521C617.078 35.8521 628.004 34.6063 624.999 38.0669C622.131 37.9284 620.902 38.2053 621.312 38.759C625.955 38.8974 628.823 39.3127 632.237 39.728C636.471 38.4821 644.392 39.3127 645.895 40.1432C645.758 40.0048 644.119 40.5585 644.119 40.6969C643.983 40.9738 645.075 41.2506 645.075 41.389C644.665 41.8043 642.89 42.0812 643.3 42.4964C644.119 43.6038 648.353 44.7112 651.494 45.2649C657.093 44.0191 649.719 41.2506 658.732 40.4201C653.952 40.4201 658.732 38.8974 655.045 38.4821L653.679 38.3437C654.089 38.0669 654.225 37.9284 654.635 37.6516L656.001 37.79C661.464 36.9595 653.816 33.9142 665.015 33.9142C665.834 35.16 672.526 35.2984 671.297 36.9595C669.795 36.9595 668.839 37.2363 670.341 37.3748C675.121 36.9595 674.575 39.0358 676.623 39.728C674.575 39.8664 673.619 39.8664 669.385 39.8664C669.248 40.5585 668.156 40.5585 669.385 41.1122C667.2 40.9738 667.473 41.389 664.878 41.2506L665.288 41.5275L663.922 41.8043C663.376 42.6349 668.565 42.358 669.385 42.9117L670.751 43.0501C670.068 43.1886 669.521 43.327 668.975 43.6038L668.565 43.327C666.38 43.327 668.019 44.1575 669.522 44.0191C670.204 44.7112 668.156 44.7112 668.565 45.2649C670.751 45.6802 672.39 45.1265 675.531 45.2649L676.077 45.1265C674.575 45.2649 673.755 45.6802 670.751 45.5418C670.204 45.957 669.385 46.3723 669.795 46.926C672.936 47.4797 678.945 47.4797 683.452 47.895C682.632 48.7255 685.637 48.7255 688.915 48.5871C690.281 46.7876 698.475 47.4797 703.391 46.3723C704.757 46.926 708.581 47.6181 712.405 47.0644C712.268 47.4797 712.269 47.895 714.181 48.0334C720.19 47.2029 718.551 45.5418 722.375 44.5728C726.609 44.9881 728.93 46.0955 733.301 45.957C733.574 47.4797 731.525 48.3103 730.569 49.9713L730.979 50.2482L729.613 50.3866C733.301 50.9403 738.9 50.2482 743.27 50.2482C746.412 50.6635 748.733 51.0787 749.553 51.9093C747.094 52.0477 744.5 52.0477 745.046 52.8782C750.099 52.6014 752.557 52.8782 757.747 52.7398C761.025 51.9093 762.664 50.525 770.448 51.0787C770.175 50.6635 772.36 50.6635 774.136 50.525C777.823 50.8019 781.101 51.0787 785.881 51.0787C789.705 50.9403 789.841 50.1098 792.163 49.6945C796.67 49.6945 798.172 50.1098 803.908 50.2482C804.045 49.4177 807.186 49.2792 808.415 48.864C805.001 48.0334 802.952 46.5107 794.758 47.2029C791.753 46.926 788.885 46.5107 787.52 45.9571C790.251 45.8186 791.617 45.2649 795.714 45.4034C794.895 43.7423 801.996 43.6038 809.371 43.6038C809.781 44.0191 813.332 44.1575 811.147 44.5728C814.151 44.5728 816.746 44.5728 817.429 44.9881L818.795 44.8497L820.16 44.9881C820.57 44.7112 823.028 44.8497 821.936 44.296C824.258 44.4344 827.808 44.4344 827.399 45.2649C825.487 44.7112 820.98 45.6802 820.16 45.2649L818.795 45.4034L817.429 45.2649C815.244 45.6802 812.922 45.2649 810.191 45.2649C808.415 45.9571 810.464 46.2339 811.966 46.6492C816.609 46.5108 817.975 47.0644 821.936 47.0644C822.892 46.2339 829.038 46.5108 833.681 46.5108L833.271 46.2339L834.637 46.3723C835.32 45.8186 832.862 45.9571 832.862 45.6802L831.496 45.8186L833.271 45.2649L833.681 45.5418C835.456 45.8186 839.28 45.8186 840.919 46.0955L842.558 45.9571L843.651 46.2339C844.607 46.2339 844.743 46.0955 845.426 46.0955L845.016 45.8186L846.382 45.5418C841.875 43.1886 821.663 44.5728 817.429 42.4965C819.341 42.0812 821.799 41.8043 826.443 41.9428C827.399 42.358 828.764 43.0502 830.95 42.6349C833.271 42.358 830.13 41.9428 831.906 41.5275C837.915 41.8043 838.051 40.8354 840.1 40.2817C839.144 39.8664 833.681 40.4201 832.862 39.8664C832.862 39.728 833.544 39.5896 833.818 39.4511L832.862 39.4511L832.862 39.3127C832.862 39.3127 832.725 39.1743 832.862 39.1743C834.774 37.9285 843.514 37.3748 845.563 36.8211C846.109 37.5132 842.422 37.2363 842.831 37.9285C845.153 38.0669 845.836 38.6206 848.294 38.8974C848.841 38.6206 849.66 38.4822 851.026 38.3437C850.616 39.3127 856.352 39.0359 856.489 40.0048C861.542 38.8974 857.171 37.3748 852.801 36.6826C854.03 36.4058 853.757 35.8521 853.757 35.4368C855.259 35.4368 856.079 35.2984 856.489 35.0216L855.533 35.0216L855.533 34.8831C855.533 34.7447 854.85 34.6063 854.577 34.4679C859.22 34.191 860.586 32.6684 860.039 31.9762C861.405 31.8378 864.683 32.2531 864.546 31.8378L863.181 31.6994L865.912 31.561L865.502 31.6994C866.731 31.6994 867.278 31.9762 869.19 31.8378C869.326 32.3915 870.829 32.5299 870.965 33.0836C867.005 33.6373 868.097 35.0216 861.951 35.0216C861.269 35.7137 863.317 35.7137 862.907 36.2674L864.273 36.129L863.863 36.4058C864.546 37.0979 868.37 37.0979 869.326 37.6516C871.648 37.5132 874.243 37.3748 877.521 37.5132C883.12 38.4822 881.071 39.728 881.208 41.1122L882.574 41.2506C880.662 41.3891 878.886 41.5275 878.067 41.9428L877.657 41.6659C875.882 41.6659 876.974 42.2196 874.926 42.2196L873.56 42.358L872.194 42.4965C872.604 42.7733 873.56 42.9117 873.97 43.1886C876.701 43.327 877.247 43.0502 879.433 43.0502C882.301 44.1575 890.358 43.4654 893.09 44.8497C893.363 45.2649 890.495 44.9881 890.358 45.4034C894.046 45.8186 894.319 47.0645 897.597 47.6181L898.006 47.3413L899.372 47.4797C903.333 47.7566 905.108 47.6182 909.342 47.4797C909.342 48.3103 909.342 49.0024 909.342 49.8329C916.307 50.1098 913.029 48.864 913.029 48.0334C914.122 47.895 915.078 47.895 915.761 47.6182L914.395 47.3413L914.805 47.0645C914.532 47.0645 914.258 47.0645 913.849 47.0645C913.302 46.7876 914.941 46.0955 912.893 46.0955C912.483 46.3723 911.937 46.5108 911.117 46.6492C910.025 45.9571 905.381 45.8186 904.835 44.9881C909.205 44.5728 905.654 43.7423 907.566 42.7733C904.698 42.7733 904.562 42.358 901.284 42.358C898.962 42.4965 898.553 42.9117 895.821 42.9117C893.5 42.358 890.495 42.0812 886.807 41.8043L887.217 42.0812L885.852 41.5275L886.807 41.6659C887.354 41.2506 888.583 41.1122 890.495 40.9738L891.588 40.6969L893.226 40.8354C893.909 39.728 896.914 39.1743 897.733 38.0669C892.817 37.9285 893.773 39.0359 887.763 38.759C888.037 38.4822 886.807 38.3437 886.807 38.0669C891.178 37.5132 898.143 35.9905 890.495 35.16L890.085 35.4368L888.72 35.5753C888.72 35.7137 888.72 35.8521 888.72 35.9905C888.173 35.9905 887.49 35.9905 886.944 35.9905C886.944 35.8521 886.944 35.7137 886.944 35.5753C887.217 35.5753 887.49 35.5753 887.9 35.5753L887.49 35.2984L888.856 35.16L888.856 35.0216C890.631 35.0216 889.949 34.4679 892.544 34.6063C896.914 35.8521 900.738 37.2363 909.752 37.5132C908.386 38.3437 904.152 37.5132 902.513 37.3748C901.011 39.0359 905.791 39.4511 907.976 40.2817C910.844 40.0048 913.712 39.8664 916.99 39.728C920.541 40.0048 919.585 40.697 924.228 40.2817C925.867 39.1743 920.541 39.4511 920.541 38.6206C922.453 38.4822 923.409 38.2053 925.048 38.0669C926.823 39.728 938.159 41.6659 929.555 43.1886C929.555 43.0502 929.555 42.9117 929.555 42.7733L928.189 42.6349L927.779 42.358C926.823 42.358 926.687 42.4965 926.004 42.4965C923.682 42.358 922.862 41.8043 919.721 41.8043C914.532 42.0812 913.985 43.1886 908.796 43.4654C911.527 43.7423 907.976 44.296 908.796 44.7112C913.029 44.5728 912.073 45.5418 915.078 45.6802C914.122 44.9881 914.395 44.1576 916.853 43.7423C920.131 44.7112 920.814 44.1576 925.867 43.8807C926.687 44.4344 924.501 44.4344 924.092 44.8497C926.823 44.9881 928.462 45.4034 931.33 45.5418C932.013 46.0955 929.828 46.0955 930.374 46.6492C935.291 47.0645 943.621 46.926 946.763 47.7566C944.987 47.7566 946.08 48.3103 944.031 48.3103L944.441 48.5871L943.075 48.864C943.895 49.6945 949.357 49.1408 953.045 49.0024C954.001 49.6945 958.644 49.4177 962.059 49.6945C963.698 49.8329 965.063 50.3866 966.566 50.3866C967.112 50.3866 970.936 49.6945 971.072 49.6945C972.575 49.6945 974.896 49.9714 977.355 50.1098C982.954 50.1098 986.232 50.9403 991.012 51.9093C994.563 51.7709 993.743 51.7709 997.294 51.9093C997.704 52.1862 998.66 52.3246 999.07 52.6014C1004.53 52.3246 1009.04 53.0167 1011.77 52.7398C1010.41 52.1862 1011.5 51.7709 1012.73 51.3556C1007.95 50.8019 1005.35 49.8329 1000.98 49.1408C1002.35 48.0334 996.338 47.0645 1000.03 46.6492C1005.63 47.3413 1014.09 46.926 1024.34 46.926C1025.43 46.0955 1029.66 45.8186 1030.62 44.9881C1031.98 44.9881 1033.49 45.8187 1033.35 44.9881C1033.49 44.1576 1029.8 44.0191 1029.66 43.1886C1030.75 42.358 1034.99 42.2196 1037.86 41.8044C1039.63 40.5585 1041.95 39.3127 1046.05 38.4822C1047.83 38.759 1048.65 39.1743 1051.51 39.1743C1054.24 39.1743 1052.33 38.2053 1055.2 38.2053C1055.34 38.3438 1058.21 38.759 1057.93 38.3438C1055.75 38.3438 1058.21 37.7901 1059.71 37.9285C1062.44 38.4822 1063.4 39.3127 1067.9 39.5896C1067.9 39.0359 1070.22 39.0359 1070.63 38.4822L1069.27 38.2053L1069.68 37.9285C1065.03 37.7901 1069.13 35.9905 1063.4 36.129C1065.17 36.8211 1062.44 36.9595 1060.66 37.3748C1060.53 36.2674 1059.02 35.4369 1055.2 35.0216C1056.7 33.3605 1050.42 33.3605 1050.69 31.9763C1050.83 31.4226 1053.7 31.4226 1054.38 31.0073C1050.42 30.8689 1049.46 30.0383 1049.87 29.0693C1045.64 28.9309 1047.14 27.5467 1043.59 27.2698C1038.95 27.6851 1036.35 27.962 1029.93 27.6851C1033.35 28.6541 1026.93 28.5156 1030.89 29.3462C1029.12 29.7615 1026.66 30.0383 1023.65 30.3152C1020.65 29.7615 1015.32 29.623 1014.64 28.6541C1015.32 28.3772 1017.51 28.3772 1017.37 27.9619C1016.14 25.6087 1027.2 26.5777 1033.76 26.8546C1035.94 26.4393 1039.49 26.1624 1041.95 25.7472L1041.54 25.4703C1042.64 25.7472 1044 25.7472 1045.37 25.6087L1050.01 25.8856L1051.1 26.1624C1052.2 26.3009 1053.15 26.3009 1053.84 26.5777C1052.74 27.2698 1049.74 27.6851 1049.33 28.5157C1055.2 28.6541 1057.66 27.4083 1062.99 27.1314C1063.8 27.1314 1064.49 27.2698 1065.72 27.2698C1067.22 27.2698 1069.27 26.993 1070.22 26.8546C1076.23 26.7161 1080.06 26.993 1082.92 27.4083C1082.38 27.962 1083.61 28.2388 1083.88 28.6541C1088.39 28.2388 1093.71 28.3772 1097.54 29.0694L1098.9 29.3462L1098.49 29.623C1101.09 29.7615 1100.82 29.3462 1103 29.4846C1106.14 30.1767 1114.2 29.7615 1119.25 30.4536C1120.35 32.1147 1119.8 34.8832 1131 33.7758C1135.64 34.8832 1149.71 35.4369 1150.94 37.0979C1151.48 37.9285 1148.34 38.6206 1146.43 39.4512C1147.25 38.759 1144.11 39.3127 1142.74 39.0359C1140.15 38.6206 1139.33 37.7901 1137.28 37.2364C1133.32 37.7901 1131.13 36.8211 1128.27 37.2364L1129.63 37.3748L1128.27 37.5132C1129.5 37.7901 1129.22 38.3438 1129.22 38.759L1129.63 39.0359L1129.22 39.3127C1131.54 39.728 1134.69 40.0049 1135.51 40.697C1134 41.9428 1129.36 42.6349 1128.27 44.0191L1129.63 43.8807L1130.04 44.1576C1132.77 44.296 1133.32 44.0191 1135.51 44.0191C1136.73 44.296 1137.42 45.6802 1134.55 45.6802C1130.18 44.9881 1129.09 46.3724 1124.58 46.2339C1124.58 46.0955 1123.9 45.9571 1123.62 45.8187C1124.44 45.4034 1126.08 45.1265 1126.35 44.5728C1124.17 44.1576 1120.76 43.8807 1117.34 44.1576C1116.11 44.7113 1117.89 45.1265 1116.38 45.4034C1113.79 45.265 1111.74 45.1265 1109.15 44.9881C1108.87 45.5418 1105.73 45.6802 1104.64 46.0955C1109.01 45.9571 1111.33 46.3724 1117.34 46.0955C1119.94 46.926 1121.03 48.1719 1124.58 48.864C1131.41 48.3103 1140.83 48.864 1146.29 49.833C1150.94 49.833 1149.57 48.7256 1152.58 48.4487C1155.72 49.9714 1149.44 51.2172 1147.11 52.3246C1148.75 52.463 1150.94 52.463 1151.62 52.7399C1149.85 53.432 1146.43 53.8473 1147.11 55.0931C1149.3 55.2315 1149.03 54.8162 1151.62 54.9546C1151.62 55.0931 1151.76 55.2315 1152.58 55.0931L1153.53 54.9546L1154.08 54.6778C1154.08 53.7088 1153.26 52.463 1159.54 52.7399C1159.95 52.1862 1156.81 52.1862 1155.85 51.7709C1154.35 50.6635 1157.08 49.2793 1161.32 48.7256C1160.22 48.4487 1158.31 48.3103 1158.59 47.6182C1159.13 47.2029 1159.41 46.6492 1162.27 46.6492C1164.73 47.7566 1175.11 48.0334 1181.26 47.3413C1182.62 46.7876 1183.85 46.2339 1187.54 46.0955C1190.13 46.7876 1195.05 47.7566 1201.2 47.2029L1200.79 46.9261L1202.15 46.6492C1202.15 46.3724 1201.88 46.0955 1201.2 45.9571C1202.84 45.8187 1203.52 45.4034 1206.66 45.5418C1208.84 45.1265 1208.3 44.1576 1212.12 44.1576C1215.81 44.8497 1220.86 45.265 1225.78 45.8187C1227.14 46.7876 1230.83 47.3413 1233.02 48.1719L1234.11 47.895L1235.75 48.0335C1236.3 46.6492 1244.9 46.0955 1249.41 46.0955C1246.67 45.5418 1245.31 44.5729 1245.72 43.327L1244.35 43.4655L1244.76 43.1886C1243.26 42.7733 1236.57 43.327 1237.52 42.4965C1241.08 42.4965 1241.76 41.9428 1245.72 41.9428C1255.55 43.327 1267.57 42.0812 1274.67 40.9738C1274.26 40.0049 1273.85 38.8975 1270.16 38.6206C1266.75 39.0359 1269.48 39.728 1270.16 40.2817C1268.53 40.4201 1268.66 40.9738 1266.48 40.9738C1263.47 41.1123 1262.24 40.8354 1260.2 40.8354C1259.24 41.1123 1258.69 41.3891 1257.46 41.5275C1252.27 41.2507 1248.86 39.728 1252.96 38.759L1251.59 38.6206C1252.96 38.4822 1253.5 38.4822 1254.32 38.0669L1253.91 38.3438C1255.14 38.3438 1256.37 38.3438 1257.6 38.3438C1258.56 37.6517 1259.1 36.9595 1263.88 37.3748C1266.2 36.2674 1260.6 34.3295 1254.87 35.4369C1252.68 35.16 1251.04 34.8832 1249.41 34.4679C1251.04 32.6684 1271.39 31.4226 1272.08 34.0526C1283 32.9452 1291.61 35.8521 1301.99 35.4369C1304.99 35.2984 1305.13 34.6063 1309.22 34.7448C1310.18 33.6374 1315.37 32.6684 1318.24 31.2842C1319.06 30.8689 1318.37 30.1768 1319.19 29.8999C1319.88 29.6231 1323.02 29.2078 1323.7 28.6541C1325.75 27.1314 1329.98 26.8546 1332.71 25.7472C1333.53 25.4703 1332.99 25.0551 1333.67 24.7782C1337.9 23.5324 1345.69 23.5324 1353.61 23.8093C1352.65 24.7782 1349.92 25.4703 1346.37 26.024C1346.1 26.7162 1345.01 27.2699 1340.91 27.2699C1340.91 26.8546 1339.41 26.7162 1339.95 26.1625C1337.36 26.1625 1336.13 25.8856 1333.67 25.7472C1332.31 26.7162 1328.34 27.1314 1329.16 28.5157C1327.93 28.5157 1327.12 28.6541 1326.43 28.6541C1325.34 29.3462 1325.89 29.7615 1325.48 30.4536C1323.97 32.8068 1312.91 34.4679 1306.49 36.129C1304.44 36.6827 1304.85 37.3748 1301.03 37.5132C1299.8 37.5132 1299.25 37.2364 1297.34 37.3748C1293.25 38.3438 1292.15 40.0049 1283.69 40.1433C1280.68 40.9738 1282.59 41.8044 1276.45 42.0812C1276.45 42.4965 1276.45 42.9118 1276.45 43.327C1280.41 43.1886 1280.13 43.8807 1281.91 44.296C1287.1 44.4344 1289.29 44.0192 1290.92 43.327C1299.25 42.4965 1308.13 42.6349 1319.06 42.9118C1323.02 41.9428 1328.07 41.1123 1332.71 40.1433C1335.31 40.4201 1338.72 40.5586 1340.91 40.8354C1337.22 41.3891 1342.96 42.9118 1336.4 43.0502C1336.4 42.9118 1336.27 42.7733 1335.45 42.9118L1334.08 43.0502L1334.49 42.7733C1332.17 42.7733 1331.49 43.0502 1331.76 43.4655L1333.12 43.327L1332.71 43.6039C1333.67 44.1576 1335.86 44.5729 1339 44.7113C1341.18 44.7113 1342.68 44.296 1345.28 44.0192C1345.14 41.666 1354.98 40.4201 1364.26 41.1123C1364.67 40.8354 1365.63 40.697 1366.04 40.4201L1365.63 40.1433L1366.04 39.8664C1363.58 39.1743 1368.77 38.4822 1372.32 38.3438C1378.06 37.3748 1382.29 36.2674 1388.71 35.4369C1389.67 34.0526 1388.03 33.2221 1389.67 32.1147C1391.17 31.1457 1395.81 30.592 1396.9 29.7615C1397.59 29.2078 1394.86 28.6541 1397.86 28.1004C1396.08 27.8236 1393.49 27.2699 1396.08 26.7162C1395.26 26.3009 1392.12 27.1314 1390.62 26.5777C1392.53 25.8856 1396.36 25.4704 1394.31 24.363C1398.13 24.0861 1397.86 24.7782 1400.59 24.7782C1400.59 25.0551 1400.59 25.3319 1400.59 25.4704C1407.83 27.4083 1413.7 30.3152 1413.29 33.2221C1411.38 33.3605 1410.15 33.6374 1409.6 33.9142C1404.28 33.3605 1398.27 33.9142 1399.64 35.2985C1398 35.4369 1394.72 35.2985 1395.13 35.8522C1392.4 35.9906 1393.35 35.2985 1390.62 35.4369C1388.57 35.8522 1387.34 36.4058 1386.11 37.098C1377.37 37.3748 1376.69 39.3128 1367.95 39.5896L1368.5 40.1433L1368.91 40.4201C1370.41 40.9738 1372.05 41.3891 1374.37 41.666C1376.01 41.3891 1379.7 41.666 1380.65 41.2507C1379.7 41.2507 1378.06 41.2507 1377.92 41.1123C1377.37 39.4512 1398.54 40.0049 1395.13 37.5132C1398.13 36.8211 1401.41 36.129 1406.87 35.8522C1410.7 35.9906 1411.65 36.6827 1412.34 37.5132C1423.67 37.7901 1430.77 37.098 1436.78 36.2674C1437.06 36.6827 1440.74 36.4059 1441.29 36.8211C1434.6 37.3748 1428.32 38.0669 1425.86 39.5896L1427.22 39.8665L1426.81 40.1433C1431.32 40.0049 1433.1 39.4512 1436.78 39.1743C1440.61 39.0359 1444.98 39.3128 1448.53 39.0359C1460 37.6517 1456.04 35.0216 1460 33.2221L1460 0.000335693L1295.43 0.000321306L1290.92 0.000320912C1290.65 0.000320888 1290.38 0.000320865 1289.97 0.000320829L1239.16 0.000316387L1228.24 0.000315432L1166.64 0.000310047L1123.21 0.000306251L1110.38 0.000305128L1106.69 0.000304806L1100 0.000304221L1097.26 0.000303982L1023.38 0.000297523L597.275 0.000260272L594.953 0.000260069L-18.5279 0.000206436L-18.528 49.1407C-13.8845 49.556 -9.65088 50.1097 -6.50977 50.9402C10.2886 50.3866 13.1567 52.6013 18.8928 54.4008Z" fill="#0B0B0F"/>
</svg>
