<svg width="90" height="90" viewBox="0 0 90 90" fill="none" xmlns="http://www.w3.org/2000/svg">
<path fill-rule="evenodd" clip-rule="evenodd" d="M63.7352 54.9952L58.6587 68.5973C57.9598 70.4702 56.8677 72.1926 55.5278 70.7735C55.1291 70.3512 54.7903 69.7849 54.8535 69.1627L55.9729 58.1238C55.9757 58.0926 55.9869 58.0628 56.0054 58.0375C56.0239 58.0123 56.049 57.9926 56.0779 57.9805L63.5014 54.7729C63.5329 54.7589 63.5679 54.7546 63.6018 54.7606C63.6358 54.7667 63.6671 54.7827 63.6919 54.8068C63.7439 54.8563 63.7603 54.9279 63.7352 54.9952ZM54.1087 82.915V86.6963C54.1096 86.7866 54.146 86.873 54.2099 86.9369C54.2737 87.0008 54.3601 87.0371 54.4505 87.0381H58.667C58.7573 87.037 58.8436 87.0007 58.9075 86.9368C58.9714 86.8729 59.0077 86.7866 59.0088 86.6963V82.915C59.0087 82.8686 58.9902 82.824 58.9573 82.7912C58.9245 82.7583 58.8799 82.7398 58.8335 82.7397H54.2841C54.2377 82.7398 54.1931 82.7582 54.1602 82.7911C54.1273 82.824 54.1087 82.8685 54.1087 82.915ZM30.9905 82.915V86.6963C30.9905 86.882 31.1468 87.0381 31.3323 87.0381H35.5489C35.6392 87.037 35.7255 87.0007 35.7894 86.9368C35.8532 86.8729 35.8896 86.7866 35.8907 86.6963V82.915C35.8906 82.8686 35.8721 82.824 35.8392 82.7912C35.8064 82.7583 35.7618 82.7398 35.7154 82.7397H31.166C31.1195 82.7398 31.0749 82.7582 31.0421 82.7911C31.0092 82.824 30.9906 82.8685 30.9905 82.915ZM87.9053 26.5498C85.5435 20.859 72.5259 22.7895 66.0644 24.1065C66.0293 24.1133 65.9971 24.1309 65.9723 24.1569C65.9476 24.1828 65.9315 24.2158 65.9264 24.2512C65.9204 24.2866 65.9257 24.3229 65.9414 24.3552C65.957 24.3875 65.9824 24.414 66.0139 24.4312C66.72 24.8281 67.3453 25.3541 67.8572 25.9819C67.8769 26.0067 67.903 26.0255 67.9326 26.0364C67.9623 26.0472 67.9944 26.0497 68.0254 26.0435C72.1787 25.2668 75.826 24.9003 78.769 24.9721C86.9196 25.171 88.1339 28.3122 82.5038 34.2024C80.9641 35.8132 78.9697 37.5293 76.5887 39.2994C76.5636 39.3176 76.5438 39.3422 76.5316 39.3706C76.5194 39.3991 76.5151 39.4303 76.5192 39.4611C76.5225 39.4919 76.534 39.5212 76.5527 39.546C76.5713 39.5707 76.5963 39.59 76.625 39.6016L78.6706 40.466C78.7303 40.4912 78.7942 40.4831 78.8457 40.4435C80.9418 38.8314 82.7267 37.2613 84.1519 35.7702C87.5095 32.258 88.9433 29.0509 87.9053 26.5498ZM74.5928 40.7254C73.7873 40.484 72.9725 40.3749 72.158 40.3983C70.2611 40.4527 69.0411 41.1433 67.4474 41.9458C67.4208 41.9597 67.391 41.9663 67.361 41.965C67.331 41.9637 67.3019 41.9545 67.2766 41.9384C67.2508 41.923 67.2295 41.9011 67.2149 41.8749C67.2002 41.8486 67.1928 41.819 67.1932 41.789V31.5979C67.1932 28.0735 64.3139 25.1943 60.7895 25.1943H29.2098C25.6856 25.1943 22.8063 28.0735 22.8063 31.5979V62.3677C22.8065 62.4084 22.7925 62.448 22.7666 62.4795C22.7406 62.511 22.7045 62.5324 22.6645 62.5399C19.9072 63.0769 17.3582 63.439 15.073 63.618C9.06689 64.0883 5.05649 63.3627 4.19645 61.2906C3.48293 59.5715 5.01149 56.9193 8.22881 53.7694C11.165 50.8946 15.4533 47.7263 20.7323 44.5381C20.7585 44.5229 20.7801 44.5009 20.795 44.4745C20.8099 44.4482 20.8175 44.4183 20.8171 44.388V42.149C20.8171 42.0842 20.7849 42.0288 20.7287 41.9967C20.6726 41.9647 20.6083 41.9652 20.5525 41.9982C14.664 45.4783 9.87563 48.9746 6.63419 52.1482C2.72315 55.9775 0.981831 59.4837 2.09405 62.1637C3.38051 65.2635 8.21117 66.4403 15.2422 65.8897C20.6449 65.4665 28.1678 63.5591 35.191 61.3775C35.333 61.3334 35.4779 61.2977 35.6165 61.2448C37.8599 60.3859 33.1914 54.4453 32.0212 52.551C31.9904 52.501 31.9861 52.4445 32.0092 52.3905C32.0322 52.3365 32.0758 52.3003 32.1332 52.2877C32.1919 52.2749 32.2545 52.2803 32.3283 52.3188L39.2047 55.9156C40.7329 56.7148 42.3061 57.2253 43.8436 56.4477L69.8747 43.2808C71.4018 42.5085 73.0036 42.4631 74.5988 43.1444L78.7186 44.9043C79.0806 45.0589 79.0784 45.5654 78.7202 45.7148C60.6535 53.5212 42.4119 63.1296 22.9487 66.8428C22.9085 66.8502 22.8722 66.8715 22.8461 66.903C22.8201 66.9344 22.8059 66.9741 22.8061 67.0149V74.652C22.8061 78.1762 25.6854 81.0556 29.2096 81.0556H60.7892C64.3134 81.0556 67.1928 78.1764 67.1928 74.652V53.2932C67.1928 53.2217 67.233 53.1605 67.2987 53.1322L79.6199 47.8086C81.8071 46.8659 81.8024 43.7478 79.6093 42.811L77.106 41.7418L77.1029 41.7406L74.6079 40.7311C74.603 40.7289 74.598 40.727 74.5928 40.7254ZM52.3295 23.0422V11.5369C52.3295 11.4885 52.3468 11.4469 52.3812 11.4127C52.3973 11.3962 52.4167 11.3831 52.4381 11.3743C52.4595 11.3655 52.4824 11.3612 52.5056 11.3616C53.3206 11.3643 53.9996 11.3622 54.6922 10.6695C54.9115 10.451 55.0855 10.1914 55.2041 9.90553C55.3228 9.61965 55.3839 9.31315 55.3838 9.00361V5.31937C55.3838 4.02031 54.3252 2.96173 53.0263 2.96173H36.9734C35.6743 2.96173 34.6157 4.02031 34.6157 5.31937V9.00361C34.6157 10.3025 35.6743 11.3611 36.9734 11.3611H37.4947C37.5913 11.3611 37.67 11.4399 37.67 11.5364V23.042C37.67 23.1387 37.7488 23.2173 37.8453 23.2173H39.7751C39.8215 23.2172 39.8661 23.1987 39.8989 23.1659C39.9318 23.133 39.9503 23.0885 39.9504 23.042V11.5364C39.9504 11.4397 40.0292 11.3611 40.1257 11.3611H49.8733C49.9699 11.3611 50.0486 11.4399 50.0486 11.5364V23.042C50.0486 23.1387 50.1274 23.2173 50.2239 23.2173H52.1537C52.1767 23.2174 52.1996 23.2129 52.2209 23.2041C52.2422 23.1953 52.2615 23.1824 52.2779 23.1662C52.2942 23.1499 52.3072 23.1306 52.316 23.1093C52.3249 23.088 52.3295 23.0652 52.3295 23.0422ZM40.094 44.6443C40.0916 44.6426 40.0891 44.6409 40.0865 44.6393C38.4647 43.6086 39.1573 42.4086 41.0678 42.9435L41.0743 42.9451L57.04 46.7721C57.113 46.7896 57.1649 46.8483 57.1733 46.923C57.1818 46.9977 57.1445 47.0664 57.077 47.0997L49.2125 51.0082C49.1842 51.0228 49.1524 51.0291 49.1207 51.0267C49.0889 51.0242 49.0585 51.0129 49.0328 50.9942L40.094 44.6443Z" fill="url(#paint0_linear_155_2520)"/>
<defs>
<linearGradient id="paint0_linear_155_2520" x1="45.0006" y1="2.96173" x2="45.0006" y2="87.0381" gradientUnits="userSpaceOnUse">
<stop stop-color="#5DE7FF"/>
<stop offset="1" stop-color="#00A8C5"/>
</linearGradient>
</defs>
</svg>
