<svg width="90" height="90" viewBox="0 0 90 90" fill="none" xmlns="http://www.w3.org/2000/svg">
<path d="M64.2857 33.75C65.9604 33.7512 67.6115 34.1442 69.1071 34.8975V24.1071C69.1071 23.6809 68.9378 23.2721 68.6364 22.9707C68.335 22.6693 67.9262 22.5 67.5 22.5H16.0714V28.432C16.3141 28.567 16.5375 28.7341 16.7368 28.9286L19.9511 32.1429C20.5554 32.7439 20.8945 33.562 20.8929 34.4154V43.3929C20.8929 44.2453 20.5542 45.0629 19.9514 45.6657C19.3486 46.2685 18.5311 46.6071 17.6786 46.6071H16.0714V69.1071H37.6811L54.9643 39.1404C55.8991 37.4948 57.2554 36.128 58.8938 35.1806C60.5321 34.2332 62.3932 33.7394 64.2857 33.75ZM8.03572 43.3929V34.4154C8.03411 33.5636 8.37321 32.7439 8.9775 32.1429L12.1918 28.9286C12.3911 28.7357 12.6145 28.567 12.8571 28.432V22.5H1.60714C1.1809 22.5 0.772119 22.6693 0.470721 22.9707C0.169324 23.2721 0 23.6809 0 24.1071L0 67.5C0 67.9262 0.169324 68.335 0.470721 68.6364C0.772119 68.9378 1.1809 69.1071 1.60714 69.1071H12.8571V46.6071H11.25C10.3975 46.6071 9.57995 46.2685 8.97716 45.6657C8.37436 45.0629 8.03572 44.2453 8.03572 43.3929Z" fill="url(#paint0_linear_155_2656)"/>
<path d="M11.2499 43.3929H17.6784V34.4154L14.4722 31.2091L14.4641 31.2107L14.4561 31.2091L11.2499 34.4154V43.3929ZM4.82129 73.9286C4.82129 74.3548 4.99061 74.7636 5.29201 75.065C5.59341 75.3664 6.00219 75.5357 6.42843 75.5357H11.2499C11.6761 75.5357 12.0849 75.3664 12.3863 75.065C12.6877 74.7636 12.857 74.3548 12.857 73.9286V72.3214H4.82129V73.9286ZM22.4999 14.4643C22.4999 13.6118 22.8385 12.7943 23.4413 12.1915C24.0441 11.5887 24.8617 11.25 25.7141 11.25H44.9999C45.8523 11.25 46.6699 11.5887 47.2727 12.1915C47.8755 12.7943 48.2141 13.6118 48.2141 14.4643V19.2857H53.0356V14.4643C53.033 12.3339 52.1856 10.2914 50.6791 8.78501C49.1727 7.27858 47.1303 6.43114 44.9999 6.42859L25.7141 6.42859C23.5837 6.43114 21.5413 7.27858 20.0349 8.78501C18.5284 10.2914 17.681 12.3339 17.6784 14.4643V19.2857H22.4999V14.4643ZM66.0309 62.6786L67.3472 48.2143H61.224L62.5402 62.6786H66.0309Z" fill="url(#paint1_linear_155_2656)"/>
<path d="M88.9743 72.2154L70.8249 40.746C70.1637 39.5966 69.2112 38.6418 68.0634 37.9778C66.9156 37.3139 65.613 36.9644 64.287 36.9644C62.961 36.9644 61.6585 37.3139 60.5106 37.9778C59.3628 38.6418 58.4103 39.5966 57.7492 40.746L39.5981 72.2154C38.934 73.365 38.5839 74.6691 38.583 75.9967C38.5821 77.3243 38.9304 78.6288 39.5929 79.7793C40.2554 80.9298 41.2089 81.8859 42.3576 82.5515C43.5063 83.2171 44.8099 83.5688 46.1375 83.5715H82.4365C83.764 83.5686 85.0673 83.2166 86.2158 82.5509C87.3643 81.8851 88.3176 80.9291 88.9799 79.7786C89.6422 78.6282 89.9904 77.3238 89.9894 75.9963C89.9884 74.6688 89.6384 73.3649 88.9743 72.2154ZM58.85 46.0463C59.4608 45.3777 60.3254 44.9985 61.2318 45.0001H67.355C67.8014 45.0005 68.2428 45.0938 68.6512 45.2742C69.0595 45.4546 69.4257 45.7181 69.7266 46.0479C70.0275 46.3776 70.2564 46.7664 70.3987 47.1895C70.541 47.6126 70.5937 48.0607 70.5533 48.5052L69.2386 62.9695C69.1692 63.7705 68.8008 64.516 68.2067 65.0577C67.6126 65.5993 66.8363 65.8975 66.0324 65.8929H62.5384C61.7353 65.8963 60.9603 65.5976 60.3672 65.056C59.7741 64.5145 59.4064 63.7697 59.337 62.9695L58.0224 48.5052C57.9819 48.0604 58.0346 47.6119 58.1771 47.1886C58.3196 46.7652 58.5488 46.3762 58.85 46.0463ZM64.2854 80.3572C62.5804 80.3572 60.9453 79.6799 59.7397 78.4743C58.5341 77.2687 57.8568 75.6336 57.8568 73.9286C57.8568 72.2237 58.5341 70.5885 59.7397 69.3829C60.9453 68.1774 62.5804 67.5001 64.2854 67.5001C65.9904 67.5001 67.6255 68.1774 68.8311 69.3829C70.0367 70.5885 70.714 72.2237 70.714 73.9286C70.714 75.6336 70.0367 77.2687 68.8311 78.4743C67.6255 79.6799 65.9904 80.3572 64.2854 80.3572Z" fill="url(#paint2_linear_155_2656)"/>
<path d="M64.2856 77.1429C66.0608 77.1429 67.4999 75.7038 67.4999 73.9286C67.4999 72.1534 66.0608 70.7144 64.2856 70.7144C62.5104 70.7144 61.0713 72.1534 61.0713 73.9286C61.0713 75.7038 62.5104 77.1429 64.2856 77.1429Z" fill="url(#paint3_linear_155_2656)"/>
<defs>
<linearGradient id="paint0_linear_155_2656" x1="34.5536" y1="22.5" x2="34.5536" y2="69.1071" gradientUnits="userSpaceOnUse">
<stop stop-color="#5DE7FF"/>
<stop offset="1" stop-color="#00A8C5"/>
</linearGradient>
<linearGradient id="paint1_linear_155_2656" x1="36.0842" y1="6.42859" x2="36.0842" y2="75.5357" gradientUnits="userSpaceOnUse">
<stop stop-color="#5DE7FF"/>
<stop offset="1" stop-color="#00A8C5"/>
</linearGradient>
<linearGradient id="paint2_linear_155_2656" x1="64.2862" y1="36.9644" x2="64.2862" y2="83.5715" gradientUnits="userSpaceOnUse">
<stop stop-color="#5DE7FF"/>
<stop offset="1" stop-color="#00A8C5"/>
</linearGradient>
<linearGradient id="paint3_linear_155_2656" x1="64.2856" y1="70.7144" x2="64.2856" y2="77.1429" gradientUnits="userSpaceOnUse">
<stop stop-color="#5DE7FF"/>
<stop offset="1" stop-color="#00A8C5"/>
</linearGradient>
</defs>
</svg>
