<svg width="1440" height="58" viewBox="0 0 1440 58" fill="none" xmlns="http://www.w3.org/2000/svg">
<path d="M1416.11 3.73696C1416.38 3.32267 1419.25 3.46077 1418.84 2.77029C1415.7 2.35601 1413.92 1.66553 1413.38 0.836961C1406.14 0.975056 1400.81 0.28458 1391.66 0.146484C1385.79 1.80363 1372.13 0.00838915 1366.26 0.698865C1368.85 0.836961 1370.36 1.11315 1370.77 1.66553C1368.03 2.21791 1363.8 2.4941 1361.75 3.18458L1363.12 3.46077L1362.71 3.73696C1363.66 3.73696 1364.48 3.73696 1365.44 3.73696C1365.03 4.42744 1368.31 4.42744 1369.13 4.84172C1378.55 3.46077 1378 7.18934 1368.17 6.77506C1366.8 7.32744 1366.26 8.01791 1364.48 8.4322C1367.35 9.12267 1365.71 9.67506 1367.21 10.6417C1371.86 10.7798 1371.04 9.95125 1372.68 9.53696C1373.63 10.0893 1372.4 10.6417 1375.41 11.1941C1378.96 11.3322 1379.78 10.9179 1383.6 11.056C1382.78 12.0227 1379.92 12.5751 1377.32 13.2655L1378.69 13.4036L1378.28 13.6798C1381.28 13.956 1376.64 14.6465 1379.23 14.9227C1376.91 14.9227 1374.59 14.9227 1374.73 15.4751C1375.14 16.3036 1379.37 16.3036 1379.23 17.1322C1376.77 17.2703 1378.28 18.0989 1374.73 18.0989C1373.36 17.8227 1371.45 17.5465 1371.99 16.856C1369.95 16.856 1368.31 16.5798 1366.53 16.4417L1366.12 16.7179C1365.44 16.4417 1365.3 16.3036 1364.35 16.0274L1361.61 16.3036C1361.21 16.3036 1360.93 16.4417 1360.66 16.4417L1361.07 16.3036C1360.8 16.3036 1360.52 16.3036 1360.11 16.3036C1358.47 16.0274 1359.02 15.1989 1356.43 15.0608C1350.14 16.1655 1355.2 17.4084 1350.14 18.5132C1344.27 17.4084 1351.51 16.4417 1348.37 15.1989L1347 15.0608L1347.41 14.7846C1341.81 14.6465 1340.72 15.337 1336.49 15.337C1335.67 14.9227 1331.84 15.1989 1331.98 14.6465C1334.57 14.3703 1334.57 13.5417 1335.67 12.8512C1326.52 13.8179 1318.73 12.9893 1306.71 12.8512C1309.58 12.2989 1305.35 12.0227 1303.98 11.7465C1305.48 11.4703 1306.71 11.056 1306.71 10.5036C1300.02 9.53696 1296.33 7.18934 1298.52 5.67029C1294.29 5.25601 1294.42 5.67029 1290.32 6.08458C1295.1 6.77506 1289.37 8.01791 1288.55 8.84648C1284.04 8.70839 1284.45 7.46553 1277.62 7.74172C1276.94 8.57029 1274.21 9.12267 1268.61 8.98458C1267.93 7.60363 1258.78 6.22267 1264.92 5.11791C1262.46 3.87506 1256.04 4.56553 1252.22 3.73696C1249.22 4.28934 1243.34 4.42744 1239.52 4.84172C1241.84 6.63696 1235.15 6.63696 1231.33 7.18934L1232.69 7.32744L1232.01 7.05125C1236.11 7.32744 1231.74 8.70839 1229.28 8.84648C1230.23 11.056 1223.4 11.7465 1215.62 12.2989C1206.06 12.0227 1198.96 10.0893 1190.22 9.81315C1184.75 9.67506 1180.93 10.3655 1174.78 10.2274C1175.33 9.12267 1170.14 9.12267 1169.32 8.2941C1165.5 8.84648 1161.81 9.12267 1155.66 8.84648C1153.48 7.87982 1157.71 7.18934 1156.62 5.94648C1151.02 5.5322 1148.84 5.80839 1144.88 6.49887C1150.2 7.60363 1143.65 9.26077 1148.56 10.0893C1146.51 10.0893 1145.15 10.0893 1144.88 10.5036L1146.24 10.6417L1145.83 10.9179C1147.2 11.056 1150.47 10.6417 1150.34 11.056C1145.56 12.7132 1156.07 12.7132 1156.62 13.8179C1152.8 13.1274 1151.98 14.3703 1148.43 14.3703C1145.69 14.2322 1147.33 13.1274 1142.14 13.4036C1139.28 13.6798 1144.33 14.3703 1142.14 14.5084C1141.46 14.3703 1137.09 14.0941 1136.68 14.5084L1138.05 14.6465L1136.27 14.7846L1135.86 14.6465C1135.04 13.956 1137.64 13.8179 1137.64 13.2655C1136 12.9893 1136.27 12.2989 1133.13 12.2989C1130.26 12.1608 1130.67 12.8512 1128.62 12.8512C1132.04 13.6798 1128.9 14.5084 1126.85 15.1989C1125.62 15.1989 1126.03 14.9227 1125.07 14.7846L1123.71 14.9227L1122.34 14.7846C1121.39 15.0608 1120.84 15.337 1119.61 15.4751C1116.74 15.0608 1111.01 15.337 1107.86 15.4751C1104.31 14.9227 1098.85 14.6465 1098.85 13.2655C1099.12 12.8512 1102.81 13.2655 1102.54 12.7132C1100.63 12.5751 1099.67 12.2989 1098.03 12.1608L1096.94 12.437C1096.39 12.1608 1096.12 11.8846 1094.89 11.6084L1096.26 11.3322C1095.44 11.056 1094.89 10.7798 1092.57 10.7798C1093.39 11.3322 1091.34 11.1941 1091.61 11.7465H1093.25L1092.02 12.2989L1091.61 12.0227C1087.92 11.3322 1082.19 12.1608 1077.14 11.6084C1076.04 11.1941 1076.04 10.6417 1073.45 10.5036C1069.49 10.5036 1063.89 11.4703 1058.02 11.1941C1058.43 12.0227 1056.38 12.1608 1058.02 12.8512C1052.96 13.2655 1047.91 13.6798 1042.58 12.9893C1036.3 14.0941 1027.29 14.7846 1022.64 16.3036C1026.47 16.4417 1032.48 16.0274 1032.61 16.856C1029.2 17.4084 1021.41 17.1322 1022.64 18.0989C1020.05 17.6846 1015.13 17.8227 1013.63 17.1322C1013.22 17.5465 1013.49 18.3751 1011.85 18.9274C1014.18 19.0655 1014.72 19.6179 1016.36 19.8941C1024.42 19.3417 1028.93 21.137 1028.11 22.1036C1018 20.7227 1010.49 24.037 1002.7 22.656C1002.7 23.6227 1004.34 24.3132 1007.21 24.5893C1005.16 25.8322 997.787 25.9703 995.466 27.0751C997.241 27.7655 1005.71 28.0417 1000.93 28.8703C1002.57 29.0084 1004.75 29.0084 1005.44 29.2846C1001.88 29.0084 1005.16 30.1132 1002.7 29.9751C1002.57 29.837 1001.75 29.6989 1000.93 29.5608L1000.25 29.837L999.016 30.1132C998.743 30.3893 999.973 30.5274 999.973 30.8036C1004.48 30.8036 1006.66 30.2512 1010.9 30.2512L1011.99 29.9751H1013.63C1014.31 29.4227 1011.85 29.5608 1011.85 29.2846C1014.18 28.7322 1016.91 26.937 1010.9 26.7989C1015.41 26.3846 1020.73 26.2465 1023.6 25.556L1023.19 25.2798C1024.42 25.4179 1025.65 25.4179 1026.88 25.4179L1027.29 25.556C1029.06 25.556 1030.29 26.6608 1028.24 26.7989C1025.65 26.7989 1025.51 26.3846 1022.78 26.3846C1020.46 26.937 1017.18 27.2132 1017.32 28.1798C1024.01 27.9036 1027.7 27.2132 1033.71 28.0417V28.1798L1035.07 28.456C1033.3 28.5941 1032.61 29.0084 1033.98 29.2846L1032.75 29.5608C1033.16 30.2512 1034.8 30.6655 1034.53 31.356C1030.84 31.2179 1029.34 31.4941 1026.33 31.4941C1026.6 32.1846 1028.79 31.9084 1027.29 32.5989C1024.56 32.737 1024.01 32.4608 1021.82 32.4608C1020.59 33.1512 1016.36 32.8751 1011.85 33.1512C1012.67 32.5989 1013.36 32.3227 1010.9 32.0465C1007.48 31.7703 1010.76 32.8751 1007.21 32.5989C1007.21 32.3227 1007.21 32.0465 1007.21 31.6322C1004.34 31.6322 1003.39 31.356 999.973 31.4941L998.88 31.7703L997.241 31.6322C997.241 31.9084 996.148 31.9084 996.285 32.1846C993.963 32.0465 990.959 31.9084 990.003 32.3227C990.139 31.6322 985.769 31.9084 986.315 31.2179C989.456 31.0798 992.051 30.5274 990.003 29.837C987.271 29.6989 987.271 30.1132 984.54 29.9751C985.086 29.1465 983.857 28.7322 983.584 28.1798L981.945 28.3179L980.852 28.0417C979.896 28.0417 979.077 28.0417 978.121 28.0417L976.755 28.1798C976.619 28.0417 976.482 27.9036 976.346 27.7655L971.292 28.1798L971.702 27.9036C971.019 27.3512 973.478 27.4893 973.478 27.2132L972.112 26.937L972.522 26.6608C970.61 26.6608 973.751 26.1084 974.297 25.9703C973.887 25.6941 973.068 25.9703 971.566 25.9703C971.702 25.556 973.887 25.556 976.072 25.556L976.482 25.2798L977.848 25.1417C973.478 23.6227 967.332 24.5893 962.415 23.3465C963.781 23.0703 963.098 22.3798 966.103 22.3798C968.834 22.7941 969.79 23.4846 971.566 23.6227C974.98 23.2084 972.385 22.2417 972.522 21.6893C964.737 20.9989 956.269 20.4465 949.851 19.4798C949.714 20.0322 946.3 20.0322 947.119 20.7227C948.485 20.7227 950.534 20.7227 950.807 20.8608C945.753 21.2751 953.538 21.8274 954.494 22.1036C945.207 22.2417 943.841 20.7227 937.286 20.3084C934.418 20.3084 934.691 20.8608 931.004 20.7227C928.409 19.8941 922.673 19.8941 918.302 20.1703C914.205 19.4798 909.835 18.9274 908.333 17.8227C904.509 18.237 899.729 17.8227 895.632 17.6846C894.402 18.0989 893.993 18.6512 890.169 18.6512C889.349 17.9608 892.627 17.9608 893.856 17.5465C887.164 16.3036 877.058 15.7512 872.141 14.0941C857.801 13.956 857.255 17.5465 841.276 16.4417C842.095 16.1655 842.505 15.8893 842.232 15.4751C835.54 15.1989 836.086 13.5417 833.218 12.5751C833.491 12.5751 833.764 12.5751 834.174 12.5751L835.403 12.2989L836.906 12.1608C835.95 11.056 831.579 10.5036 831.443 9.26077C830.35 9.12267 829.394 9.12267 828.711 8.84648C828.165 7.60363 819.561 7.18934 822.429 5.94648C821.2 5.94648 821.2 5.67029 819.698 5.80839V6.22267C818.878 6.08458 817.786 5.80839 817.239 5.67029C816.42 5.67029 815.6 5.67029 814.644 5.67029L815.054 5.3941C805.357 5.3941 806.177 3.04648 796.071 3.59887C791.973 1.52744 772.58 2.6322 778.726 5.3941C775.312 5.80839 774.629 6.91315 772.444 7.60363C772.717 7.87982 773.673 8.01791 773.4 8.2941C772.717 9.12267 769.029 9.26077 768.893 10.0893C773.809 10.3655 776.677 11.056 782.55 10.7798C785.691 12.0227 790.608 12.8512 796.207 13.6798C798.256 13.5417 796.071 12.5751 799.895 12.7132C805.357 13.2655 808.362 14.2322 812.596 15.0608L813.961 14.9227C816.01 15.7512 817.512 16.856 821.2 17.4084L820.79 17.6846C822.975 19.4798 826.663 20.3084 828.984 22.2417C817.922 22.2417 806.996 23.4846 810.001 20.0322C812.869 20.1703 814.098 19.8941 813.688 19.3417C809.045 19.2036 806.177 18.7893 802.763 18.3751C798.529 19.6179 790.608 18.7893 789.105 17.9608C789.242 18.0989 790.881 17.5465 790.881 17.4084C791.017 17.1322 789.925 16.856 789.925 16.7179C790.335 16.3036 792.11 16.0274 791.7 15.6132C790.881 14.5084 786.647 13.4036 783.506 12.8512C777.907 14.0941 785.281 16.856 776.268 17.6846C781.048 17.6846 776.268 19.2036 779.955 19.6179L781.321 19.756C780.911 20.0322 780.775 20.1703 780.365 20.4465L778.999 20.3084C773.536 21.137 781.184 24.1751 769.985 24.1751C769.166 22.9322 762.474 22.7941 763.703 21.137C765.205 21.137 766.161 20.8608 764.659 20.7227C759.879 21.137 760.425 19.0655 758.377 18.3751C760.425 18.237 761.381 18.237 765.615 18.237C765.752 17.5465 766.844 17.5465 765.615 16.9941C767.8 17.1322 767.527 16.7179 770.122 16.856L769.712 16.5798L771.078 16.3036C771.624 15.4751 766.435 15.7512 765.615 15.1989L764.249 15.0608C764.932 14.9227 765.479 14.7846 766.025 14.5084L766.435 14.7846C768.62 14.7846 766.981 13.956 765.478 14.0941C764.796 13.4036 766.844 13.4036 766.435 12.8512C764.249 12.437 762.61 12.9893 759.469 12.8512L758.923 12.9893C760.425 12.8512 761.245 12.437 764.249 12.5751C764.796 12.1608 765.615 11.7465 765.205 11.1941C762.064 10.6417 756.055 10.6417 751.548 10.2274C752.368 9.39887 749.363 9.39887 746.085 9.53696C744.719 11.3322 736.525 10.6417 731.609 11.7465C730.243 11.1941 726.419 10.5036 722.595 11.056C722.732 10.6417 722.731 10.2274 720.819 10.0893C714.81 10.9179 716.449 12.5751 712.625 13.5417C708.391 13.1274 706.07 12.0227 701.699 12.1608C701.426 10.6417 703.475 9.81315 704.431 8.15601L704.021 7.87982L705.387 7.74172C701.699 7.18934 696.1 7.87982 691.73 7.87982C688.588 7.46553 686.267 7.05125 685.447 6.22267C687.906 6.08458 690.5 6.08458 689.954 5.25601C684.901 5.5322 682.443 5.25601 677.253 5.3941C673.975 6.22267 672.336 7.60363 664.552 7.05125C664.825 7.46553 662.64 7.46553 660.864 7.60363C657.177 7.32744 653.899 7.05125 649.119 7.05125C645.295 7.18934 645.159 8.01791 642.837 8.4322C638.33 8.4322 636.828 8.01791 631.092 7.87982C630.955 8.70839 627.814 8.84648 626.585 9.26077C629.999 10.0893 632.048 11.6084 640.242 10.9179C643.247 11.1941 646.115 11.6084 647.48 12.1608C644.749 12.2989 643.383 12.8512 639.286 12.7132C640.105 14.3703 633.004 14.5084 625.629 14.5084C625.219 14.0941 621.668 13.956 623.853 13.5417C620.849 13.5417 618.254 13.5417 617.571 13.1274L616.205 13.2655L614.84 13.1274C614.43 13.4036 611.972 13.2655 613.064 13.8179C610.742 13.6798 607.192 13.6798 607.601 12.8512C609.513 13.4036 614.02 12.437 614.84 12.8512L616.205 12.7132L617.571 12.8512C619.756 12.437 622.078 12.8512 624.809 12.8512C626.585 12.1608 624.536 11.8846 623.034 11.4703C618.391 11.6084 617.025 11.056 613.064 11.056C612.108 11.8846 605.962 11.6084 601.319 11.6084L601.729 11.8846L600.363 11.7465C599.68 12.2989 602.138 12.1608 602.138 12.437L603.504 12.2989L601.729 12.8512L601.319 12.5751C599.544 12.2989 595.72 12.2989 594.081 12.0227L592.442 12.1608L591.349 11.8846C590.393 11.8846 590.257 12.0227 589.574 12.0227L589.984 12.2989L588.618 12.5751C593.125 14.9227 613.337 13.5417 617.571 15.6132C615.659 16.0274 613.201 16.3036 608.557 16.1655C607.601 15.7512 606.236 15.0608 604.05 15.4751C601.729 15.7512 604.87 16.1655 603.094 16.5798C597.085 16.3036 596.949 17.2703 594.9 17.8227C595.856 18.237 601.319 17.6846 602.138 18.237C602.138 18.3751 601.456 18.5131 601.182 18.6512H602.138V18.7893C602.138 18.7893 602.275 18.9274 602.138 18.9274C600.226 20.1703 591.486 20.7227 589.437 21.2751C588.891 20.5846 592.578 20.8608 592.169 20.1703C589.847 20.0322 589.164 19.4798 586.706 19.2036C586.159 19.4798 585.34 19.6179 583.974 19.756C584.384 18.7893 578.648 19.0655 578.511 18.0989C573.458 19.2036 577.829 20.7227 582.199 21.4132C580.97 21.6893 581.243 22.2417 581.243 22.656C579.741 22.656 578.921 22.7941 578.511 23.0703H579.467V23.2084C579.467 23.3465 580.15 23.4846 580.423 23.6227C575.78 23.8989 574.414 25.4179 574.961 26.1084C573.595 26.2465 570.317 25.8322 570.454 26.2465L571.819 26.3846L569.088 26.5227L569.498 26.3846C568.269 26.3846 567.722 26.1084 565.81 26.2465C565.674 25.6941 564.171 25.556 564.035 25.0036C567.995 24.4512 566.903 23.0703 573.049 23.0703C573.731 22.3798 571.683 22.3798 572.093 21.8274L570.727 21.9655L571.137 21.6893C570.454 20.9989 566.63 20.9989 565.674 20.4465C563.352 20.5846 560.757 20.7227 557.479 20.5846C551.88 19.6179 553.929 18.3751 553.792 16.9941L552.426 16.856C554.338 16.7179 556.114 16.5798 556.933 16.1655L557.343 16.4417C559.118 16.4417 558.026 15.8893 560.074 15.8893L561.44 15.7512L562.806 15.6132C562.396 15.337 561.44 15.1989 561.03 14.9227C558.299 14.7846 557.753 15.0608 555.567 15.0608C552.699 13.956 544.642 14.6465 541.91 13.2655C541.637 12.8512 544.505 13.1274 544.642 12.7132C540.954 12.2989 540.681 11.056 537.403 10.5036L536.994 10.7798L535.628 10.6417C531.667 10.3655 529.892 10.5036 525.658 10.6417C525.658 9.81315 525.658 9.12267 525.658 8.2941C518.693 8.01791 521.971 9.26077 521.971 10.0893C520.878 10.2274 519.922 10.2274 519.239 10.5036L520.605 10.7798L520.195 11.056C520.468 11.056 520.742 11.056 521.151 11.056C521.698 11.3322 520.059 12.0227 522.107 12.0227C522.517 11.7465 523.063 11.6084 523.883 11.4703C524.975 12.1608 529.619 12.2989 530.165 13.1274C525.795 13.5417 529.346 14.3703 527.434 15.337C530.302 15.337 530.438 15.7512 533.716 15.7512C536.038 15.6132 536.447 15.1989 539.179 15.1989C541.5 15.7512 544.505 16.0274 548.193 16.3036L547.783 16.0274L549.148 16.5798L548.193 16.4417C547.646 16.856 546.417 16.9941 544.505 17.1322L543.412 17.4084L541.774 17.2703C541.091 18.3751 538.086 18.9274 537.267 20.0322C542.183 20.1703 541.227 19.0655 547.237 19.3417C546.963 19.6179 548.193 19.756 548.193 20.0322C543.822 20.5846 536.857 22.1036 544.505 22.9322L544.915 22.656L546.28 22.5179C546.28 22.3798 546.28 22.2417 546.28 22.1036C546.827 22.1036 547.51 22.1036 548.056 22.1036C548.056 22.2417 548.056 22.3798 548.056 22.5179C547.783 22.5179 547.51 22.5179 547.1 22.5179L547.51 22.7941L546.144 22.9322V23.0703C544.369 23.0703 545.051 23.6227 542.456 23.4846C538.086 22.2417 534.262 20.8608 525.248 20.5846C526.614 19.756 530.848 20.5846 532.487 20.7227C533.989 19.0655 529.209 18.6512 527.024 17.8227C524.156 18.0989 521.288 18.237 518.01 18.3751C514.459 18.0989 515.415 17.4084 510.772 17.8227C509.133 18.9274 514.459 18.6512 514.459 19.4798C512.547 19.6179 511.591 19.8941 509.952 20.0322C508.177 18.3751 496.841 16.4417 505.445 14.9227C505.445 15.0608 505.445 15.1989 505.445 15.337L506.811 15.4751L507.221 15.7512C508.177 15.7512 508.313 15.6132 508.996 15.6132C511.318 15.7512 512.138 16.3036 515.279 16.3036C520.468 16.0274 521.015 14.9227 526.204 14.6465C523.473 14.3703 527.024 13.8179 526.204 13.4036C521.971 13.5417 522.927 12.5751 519.922 12.437C520.878 13.1274 520.605 13.956 518.147 14.3703C514.869 13.4036 514.186 13.956 509.133 14.2322C508.313 13.6798 510.499 13.6798 510.908 13.2655C508.177 13.1274 506.538 12.7132 503.67 12.5751C502.987 12.0227 505.172 12.0227 504.626 11.4703C499.709 11.056 491.379 11.1941 488.237 10.3655C490.013 10.3655 488.92 9.81315 490.969 9.81315L490.559 9.53696L491.925 9.26077C491.105 8.4322 485.643 8.98458 481.955 9.12267C480.999 8.4322 476.356 8.70839 472.941 8.4322C471.302 8.2941 469.937 7.74172 468.434 7.74172C467.888 7.74172 464.064 8.4322 463.928 8.4322C462.425 8.4322 460.104 8.15601 457.645 8.01791C452.046 8.01791 448.768 7.18934 443.988 6.22267C440.437 6.36077 441.257 6.36077 437.706 6.22267C437.296 5.94648 436.34 5.80839 435.93 5.5322C430.467 5.80839 425.961 5.11791 423.229 5.3941C424.595 5.94648 423.502 6.36077 422.273 6.77506C427.053 7.32744 429.648 8.2941 434.018 8.98458C432.653 10.0893 438.662 11.056 434.974 11.4703C429.375 10.7798 420.907 11.1941 410.665 11.1941C409.572 12.0227 405.338 12.2989 404.382 13.1274C403.017 13.1274 401.514 12.2989 401.651 13.1274C401.514 13.956 405.202 14.0941 405.338 14.9227C404.246 15.7512 400.012 15.8893 397.144 16.3036C395.368 17.5465 393.047 18.7893 388.95 19.6179C387.174 19.3417 386.355 18.9274 383.487 18.9274C380.755 18.9274 382.667 19.8941 379.799 19.8941C379.663 19.756 376.795 19.3417 377.068 19.756C379.253 19.756 376.795 20.3084 375.292 20.1703C372.561 19.6179 371.605 18.7893 367.098 18.5132C367.098 19.0655 364.776 19.0655 364.367 19.6179L365.732 19.8941L365.323 20.1703C369.966 20.3084 365.869 22.1036 371.605 21.9655C369.83 21.2751 372.561 21.137 374.336 20.7227C374.473 21.8274 375.975 22.656 379.799 23.0703C378.297 24.7274 384.579 24.7274 384.306 26.1084C384.17 26.6608 381.302 26.6608 380.619 27.0751C384.579 27.2132 385.535 28.0417 385.126 29.0084C389.359 29.1465 387.857 30.5274 391.408 30.8036C396.051 30.3893 398.646 30.1131 405.065 30.3893C401.651 29.4227 408.07 29.5608 404.109 28.7322C405.885 28.3179 408.343 28.0417 411.347 27.7655C414.352 28.3179 419.678 28.456 420.361 29.4227C419.678 29.6989 417.493 29.6989 417.63 30.1132C418.859 32.4608 407.797 31.4941 401.241 31.2179C399.056 31.6322 395.505 31.9084 393.047 32.3227L393.456 32.5989C392.364 32.3227 390.998 32.3227 389.632 32.4608L384.989 32.1846L383.896 31.9084C382.804 31.7703 381.848 31.7703 381.165 31.4941C382.258 30.8036 385.262 30.3893 385.672 29.5608C379.799 29.4227 377.341 30.6655 372.015 30.9417C371.195 30.9417 370.512 30.8036 369.283 30.8036C367.781 30.8036 365.732 31.0798 364.776 31.2179C358.767 31.356 354.943 31.0798 352.075 30.6655C352.621 30.1132 351.392 29.837 351.119 29.4227C346.612 29.837 341.286 29.6989 337.462 29.0084L336.096 28.7322L336.506 28.456C333.911 28.3179 334.184 28.7322 331.999 28.5941C328.858 27.9036 320.8 28.3179 315.747 27.6274C314.654 25.9703 315.201 23.2084 304.002 24.3132C299.358 23.2084 285.291 22.656 284.062 20.9989C283.516 20.1703 286.657 19.4798 288.569 18.6512C287.75 19.3417 290.891 18.7893 292.257 19.0655C294.852 19.4798 295.671 20.3084 297.72 20.8608C301.68 20.3084 303.865 21.2751 306.733 20.8608L305.368 20.7227L306.733 20.5846C305.504 20.3084 305.777 19.756 305.777 19.3417L305.368 19.0655L305.777 18.7893C303.456 18.3751 300.314 18.0989 299.495 17.4084C300.997 16.1655 305.641 15.4751 306.733 14.0941L305.368 14.2322L304.958 13.956C302.226 13.8179 301.68 14.0941 299.495 14.0941C298.266 13.8179 297.583 12.437 300.451 12.437C304.821 13.1274 305.914 11.7465 310.421 11.8846C310.421 12.0227 311.104 12.1608 311.377 12.2989C310.557 12.7132 308.918 12.9893 308.645 13.5417C310.83 13.956 314.245 14.2322 317.659 13.956C318.888 13.4036 317.113 12.9893 318.615 12.7132C321.21 12.8512 323.258 12.9893 325.853 13.1274C326.126 12.5751 329.268 12.437 330.36 12.0227C325.99 12.1608 323.668 11.7465 317.659 12.0227C315.064 11.1941 313.972 9.95125 310.421 9.26077C303.592 9.81315 294.169 9.26077 288.706 8.2941C284.062 8.2941 285.428 9.39887 282.423 9.67506C279.282 8.15601 285.565 6.91315 287.886 5.80839C286.247 5.67029 284.062 5.67029 283.379 5.3941C285.155 4.70363 288.569 4.28934 287.886 3.04648C285.701 2.90839 285.974 3.32267 283.379 3.18458C283.379 3.04648 283.243 2.90839 282.423 3.04648L281.467 3.18458L280.921 3.46077C280.921 4.42744 281.741 5.67029 275.458 5.3941C275.049 5.94648 278.19 5.94648 279.146 6.36077C280.648 7.46553 277.917 8.84648 273.683 9.39886C274.775 9.67506 276.687 9.81315 276.414 10.5036C275.868 10.9179 275.595 11.4703 272.727 11.4703C270.269 10.3655 259.889 10.0893 253.743 10.7798C252.378 11.3322 251.148 11.8846 247.461 12.0227C244.866 11.3322 239.95 10.3655 233.804 10.9179L234.214 11.1941L232.848 11.4703C232.848 11.7465 233.121 12.0227 233.804 12.1608C232.165 12.2989 231.482 12.7132 228.341 12.5751C226.156 12.9893 226.702 13.956 222.878 13.956C219.191 13.2655 214.137 12.8512 209.221 12.2989C207.855 11.3322 204.168 10.7798 201.983 9.95125L200.89 10.2274L199.251 10.0893C198.705 11.4703 190.101 12.0227 185.594 12.0227C188.325 12.5751 189.691 13.5417 189.281 14.7846L190.647 14.6465L190.237 14.9227C191.74 15.337 198.432 14.7846 197.476 15.6132C193.925 15.6132 193.242 16.1655 189.281 16.1655C179.448 14.7846 167.43 16.0274 160.328 17.1322C160.738 18.0989 161.148 19.2036 164.835 19.4798C168.249 19.0655 165.518 18.3751 164.835 17.8227C166.474 17.6846 166.337 17.1322 168.522 17.1322C171.527 16.9941 172.756 17.2703 174.805 17.2703C175.761 16.9941 176.307 16.7179 177.536 16.5798C182.726 16.856 186.14 18.3751 182.043 19.3417L183.409 19.4798C182.043 19.6179 181.497 19.6179 180.677 20.0322L181.087 19.756C179.858 19.756 178.629 19.756 177.4 19.756C176.444 20.4465 175.897 21.137 171.117 20.7227C168.796 21.8274 174.395 23.7608 180.131 22.656C182.316 22.9322 183.955 23.2084 185.594 23.6227C183.955 25.4179 163.606 26.6608 162.923 24.037C151.997 25.1417 143.393 22.2417 133.014 22.656C130.009 22.7941 129.873 23.4846 125.775 23.3465C124.819 24.4512 119.63 25.4179 116.762 26.7989C115.942 27.2132 116.625 27.9036 115.806 28.1798C115.123 28.456 111.982 28.8703 111.299 29.4227C109.25 30.9417 105.016 31.2179 102.285 32.3227C101.466 32.5989 102.012 33.0131 101.329 33.2893C97.0953 34.5322 89.3107 34.5322 81.3896 34.256C82.3456 33.2893 85.077 32.5989 88.6279 32.0465C88.901 31.356 89.9936 30.8036 94.0907 30.8036C94.0907 31.2179 95.593 31.356 95.0468 31.9084C97.6416 31.9084 98.8708 32.1846 101.329 32.3227C102.695 31.356 106.655 30.9417 105.836 29.5608C107.065 29.5608 107.885 29.4227 108.567 29.4227C109.66 28.7322 109.114 28.3179 109.523 27.6274C111.026 25.2798 122.088 23.6227 128.507 21.9655C130.555 21.4132 130.146 20.7227 133.97 20.5846C135.199 20.5846 135.745 20.8608 137.657 20.7227C141.754 19.756 142.847 18.0989 151.314 17.9608C154.319 17.1322 152.407 16.3036 158.553 16.0274C158.553 15.6132 158.553 15.1989 158.553 14.7846C154.592 14.9227 154.865 14.2322 153.09 13.8179C147.9 13.6798 145.715 14.0941 144.076 14.7846C135.745 15.6132 126.868 15.4751 115.942 15.1989C111.982 16.1655 106.929 16.9941 102.285 17.9608C99.6902 17.6846 96.2759 17.5465 94.0907 17.2703C97.7782 16.7179 92.0422 15.1989 98.5976 15.0608C98.5976 15.1989 98.7342 15.337 99.5536 15.1989L100.919 15.0608L100.51 15.337C102.831 15.337 103.514 15.0608 103.241 14.6465L101.875 14.7846L102.285 14.5084C101.329 13.956 99.1439 13.5417 96.0028 13.4036C93.8176 13.4036 92.3153 13.8179 89.7204 14.0941C89.857 16.4417 80.0238 17.6846 70.7369 16.9941C70.3272 17.2703 69.3712 17.4084 68.9615 17.6846L69.3712 17.9608L68.9615 18.237C71.4198 18.9274 66.2301 19.6179 62.6792 19.756C56.9432 20.7227 52.7094 21.8274 46.2906 22.656C45.3346 24.037 46.9734 24.8655 45.3346 25.9703C43.8323 26.937 39.1888 27.4893 38.0962 28.3179C37.4134 28.8703 40.1448 29.4227 37.1402 29.9751C38.9157 30.2512 41.5105 30.8036 38.9157 31.356C39.7351 31.7703 42.8763 30.9417 44.3786 31.4941C42.4665 32.1846 38.6425 32.5989 40.6911 33.7036C36.8671 33.9798 37.1402 33.2893 34.4088 33.2893C34.4088 33.0131 34.4088 32.737 34.4088 32.5989C27.1705 30.6655 21.2979 27.7655 21.7076 24.8655C23.6196 24.7274 24.8488 24.4512 25.3951 24.1751C30.7214 24.7274 36.7305 24.1751 35.3648 22.7941C37.0037 22.656 40.2814 22.7941 39.8717 22.2417C42.6031 22.1036 41.6471 22.7941 44.3786 22.656C46.4271 22.2417 47.6563 21.6893 48.8854 20.9989C57.626 20.7227 58.3089 18.7893 67.0495 18.5132L66.5032 17.9608L66.0935 17.6846C64.5912 17.1322 62.9523 16.7179 60.6306 16.4417C58.9918 16.7179 55.3043 16.4417 54.3483 16.856C55.3043 16.856 56.9432 16.856 57.0797 16.9941C57.626 18.6512 36.4574 18.0989 39.8717 20.5846C36.8671 21.2751 33.5894 21.9655 28.1265 22.2417C24.3025 22.1036 23.3465 21.4132 22.6636 20.5846C11.3281 20.3084 4.2264 20.9989 -1.78277 21.8274C-2.05591 21.4132 -5.74335 21.6893 -6.28964 21.2751C0.402384 20.7227 6.68469 20.0322 9.14299 18.5132L7.77727 18.237L8.18699 17.9608C3.68011 18.0989 1.90467 18.6512 -1.78277 18.9274C-5.60678 19.0655 -9.97709 18.7893 -13.528 19.0655C-25 20.4465 -21.0394 23.0703 -25 24.8655V58.0084H139.569H144.076C144.349 58.0084 144.622 58.0084 145.032 58.0084H195.837H206.763H268.357H311.786H324.624H328.312H335.004H337.735H411.621H837.725H840.047H1453.53V8.98458C1448.88 8.57029 1444.65 8.01791 1441.51 7.18934C1424.71 7.74172 1421.84 5.5322 1416.11 3.73696Z" fill="#0B0B0F"/>
</svg>
