<svg width="90" height="90" viewBox="0 0 90 90" fill="none" xmlns="http://www.w3.org/2000/svg">
<path d="M87.709 20.4409C87.6953 20.3727 87.6953 20.3045 87.668 20.25C87.5674 19.9611 87.449 19.6788 87.3135 19.4045C87.2589 19.2954 87.218 19.1864 87.1771 19.0773C87.0544 18.8864 86.9317 18.6954 86.7953 18.5182C85.9635 17.3045 84.7635 16.3909 83.3317 15.9818L62.9453 9.98181L63.3408 12.8045L77.7271 17.0318L70.1317 42.8727L68.2771 49.2L71.2908 71.4682C71.4135 72.4227 71.4271 73.3636 71.3317 74.3045C71.468 74.2091 71.6044 74.1273 71.7408 74.0182C71.8771 73.9091 71.9862 73.8136 72.109 73.6909C72.2726 73.5409 72.4226 73.3909 72.5726 73.2273C72.6817 73.0909 72.7908 72.9818 72.8999 72.8318C73.0362 72.6545 73.1453 72.4636 73.268 72.2727C73.3635 72.1364 73.4453 72 73.5135 71.85C73.6362 71.6045 73.7317 71.3455 73.8271 71.0864C73.868 70.9773 73.9226 70.8818 73.9499 70.7727L81.218 46.1045L87.7226 23.9454C88.0362 22.7864 88.0226 21.5864 87.709 20.4409ZM85.1862 23.2364L79.0362 44.1409L72.968 42.3545L80.209 17.7682L82.5953 18.4773C83.318 18.6818 83.9317 19.1045 84.4226 19.6636L84.4499 19.6909C84.4908 19.7318 84.518 19.7864 84.5453 19.8273C84.668 19.9773 84.7908 20.1545 84.8862 20.3318C85.3771 21.2182 85.4726 22.2409 85.1862 23.2364Z" fill="url(#paint0_linear_155_2503)"/>
<path d="M69.1364 39.1091L74.6728 20.3318C74.7683 20.0046 74.741 19.6364 74.5637 19.3364C74.3961 19.0341 74.1173 18.8091 73.7864 18.7091L63.7228 15.75L66.9955 39.8318L67.5274 39.9818C67.6501 40.0227 67.7728 40.0364 67.8955 40.0364C68.4546 40.05 68.9728 39.6818 69.1364 39.1091ZM59.0592 10.2818C58.7768 8.21855 57.6884 6.3512 56.0323 5.08865C54.3761 3.82609 52.2872 3.2712 50.2228 3.54547L8.85007 9.15001C6.77734 9.42274 4.93643 10.5 3.66825 12.1637C3.03948 12.9843 2.57956 13.9214 2.31508 14.9208C2.05059 15.9202 1.98679 16.9622 2.12734 17.9864L10.4728 79.7046C10.7539 81.7694 11.8415 83.6388 13.4975 84.9038C15.1535 86.1688 17.2431 86.7264 19.3092 86.4546L60.6683 80.8637C64.1864 80.3864 66.9546 77.5909 67.4046 74.0591C67.4864 73.3773 67.4864 72.6955 67.391 72.0137L59.0592 10.2818ZM64.8274 73.7182C64.6819 74.8663 64.1624 75.9346 63.349 76.7579C62.5356 77.5811 61.4737 78.1135 60.3274 78.2728L18.9683 83.8637C16.1046 84.2455 13.4455 82.2273 13.0501 79.35L4.70462 17.6318C4.51371 16.2409 4.88189 14.8637 5.74098 13.7455C6.15535 13.1959 6.67504 12.7344 7.26973 12.3879C7.86442 12.0414 8.52218 11.8168 9.20462 11.7273L50.5637 6.13638C50.7955 6.10911 51.041 6.08183 51.2728 6.08183C53.8637 6.08183 56.1137 8.00456 56.4819 10.6364L64.8274 72.3546C64.8819 72.8046 64.8819 73.2682 64.8274 73.7182Z" fill="url(#paint1_linear_155_2503)"/>
<path d="M24.0408 68.1955L51.2726 64.5137C51.9817 64.4182 52.4862 63.7637 52.3908 63.0546C52.2953 62.3455 51.6408 61.841 50.9317 61.9364L23.6999 65.6182C22.9908 65.7137 22.4862 66.3682 22.5817 67.0773C22.6771 67.7319 23.2226 68.2091 23.8635 68.2091C23.9181 68.1955 23.9726 68.1955 24.0408 68.1955ZM51.9681 69.6682L24.7362 73.35C24.0271 73.4455 23.5226 74.1 23.6181 74.8091C23.7135 75.4637 24.259 75.941 24.8999 75.941C24.9544 75.941 25.0226 75.941 25.0771 75.9273L52.309 72.2455C53.0181 72.15 53.5226 71.4955 53.4272 70.7864C53.3317 70.0773 52.6772 69.5864 51.9681 69.6682ZM36.0135 55.1319H36.1362C36.1635 55.1319 36.2044 55.1182 36.2317 55.1046C36.9408 55.0091 37.6362 54.8728 38.3181 54.6955C39.3544 54.4228 40.3499 54.041 41.3181 53.6046C43.6771 52.541 45.8181 51.0273 47.5771 49.1182C48.5726 48.041 49.4453 46.841 50.1681 45.5319C52.1543 41.9699 52.9296 37.859 52.3772 33.8182V33.791C51.8181 29.7137 50.0181 26.0046 47.1408 23.0864C45.5915 21.4992 43.7782 20.1934 41.7817 19.2273C39.1406 17.9646 36.2403 17.3387 33.3135 17.4C32.5772 17.4137 31.8272 17.4682 31.0772 17.5637C25.1044 18.3819 19.9908 21.8728 17.0453 27.15C15.0544 30.7364 14.2908 34.8 14.8362 38.8773C15.3817 42.9546 17.1953 46.65 20.0726 49.5819C23.659 53.2228 28.5953 55.2682 33.6408 55.2682C34.4181 55.2819 35.2226 55.2273 36.0135 55.1319ZM28.6362 51.8864C28.3772 51.8046 28.1317 51.7091 27.8862 51.6273C27.5726 51.5046 27.259 51.3819 26.9453 51.2455C26.6999 51.1364 26.4681 51.0273 26.2362 50.9046C25.9226 50.7546 25.6226 50.5773 25.3226 50.4C25.1044 50.2773 24.8862 50.141 24.6681 50.0046C24.3681 49.8137 24.0817 49.5955 23.7817 49.3773C23.5908 49.2273 23.3862 49.091 23.1953 48.9273C23.1408 48.8864 23.0862 48.8319 23.0453 48.791C24.0953 48.0955 25.3226 47.4682 26.6726 46.9091C27.6135 49.05 28.7453 50.8637 29.9862 52.241L29.6317 52.1591C29.2908 52.0773 28.9635 51.9955 28.6362 51.8864ZM18.7772 29.441C20.2772 29.9864 21.9817 30.3682 23.8226 30.6C23.7135 32.4137 23.7544 34.3364 23.959 36.341L17.2499 37.241C17.1135 34.541 17.6317 31.8955 18.7772 29.441ZM38.3317 20.6864C38.6453 20.7819 38.9453 20.891 39.2453 21.0137C39.4635 21.0955 39.6681 21.1637 39.8862 21.2455C40.2544 21.3955 40.5953 21.5728 40.9499 21.75C41.0862 21.8182 41.2362 21.8728 41.3726 21.9546C41.8499 22.2137 42.3272 22.5 42.7772 22.8137C42.9272 22.9091 43.0635 23.0319 43.1999 23.141C43.5135 23.3728 43.8135 23.591 44.1135 23.8364L44.1681 23.891C43.1181 24.5864 41.8908 25.2273 40.5408 25.7864C39.5862 23.6182 38.4408 21.791 37.1726 20.4137C37.3226 20.441 37.4726 20.4819 37.6226 20.5228C37.8544 20.5773 38.0862 20.6182 38.3317 20.6864ZM48.3953 43.2546C46.8953 42.7091 45.2044 42.3273 43.3635 42.1091C43.4726 40.2682 43.4181 38.3319 43.2135 36.3682L49.909 35.4546C50.0726 38.1546 49.5408 40.8137 48.3953 43.2546ZM46.9635 45.7228C46.8271 45.9273 46.6635 46.1182 46.5135 46.3091C46.2953 46.5955 46.0635 46.8819 45.8317 47.1546C45.6681 47.3455 45.4908 47.5364 45.3135 47.7137C45.0681 47.9591 44.8226 48.2046 44.5635 48.4364C44.3726 48.6137 44.1817 48.7773 43.9771 48.941C43.7181 49.1591 43.4453 49.3637 43.159 49.5682C42.9544 49.7182 42.7362 49.8682 42.5317 50.0046C42.2453 50.1955 41.9453 50.3728 41.6453 50.5364C41.5362 50.591 41.4272 50.6591 41.3317 50.7137C41.6999 49.991 42.0272 49.1864 42.3135 48.3C42.6681 47.1819 42.9272 45.9546 43.1044 44.6728C44.5499 44.85 45.8999 45.1364 47.0862 45.5319C47.0453 45.6 47.0044 45.6682 46.9635 45.7228ZM26.4271 30.8046C26.8499 30.8182 27.2726 30.8319 27.709 30.8319C28.9499 30.8319 30.2317 30.75 31.5135 30.6137L32.1408 35.2364L26.5635 35.9864C26.3726 34.1455 26.3317 32.4137 26.4271 30.8046ZM40.7726 41.891C39.1362 41.8364 37.4317 41.9046 35.6862 42.0819L35.059 37.4728L40.6362 36.7228C40.8135 38.4955 40.8681 40.241 40.7726 41.891ZM37.0362 52.0364L36.0408 44.6455C37.5681 44.4955 39.0681 44.441 40.4999 44.4955C40.3362 45.5728 40.1044 46.5955 39.8181 47.5364C39.1362 49.7182 38.1544 51.2728 37.0362 52.0364ZM34.7181 34.8819L34.0908 30.2728C35.809 29.9864 37.4862 29.591 39.0408 29.1C39.559 30.6273 39.9817 32.3046 40.2953 34.1319L34.7181 34.8819ZM33.7362 27.6955L32.7408 20.3319C34.5408 20.9591 36.5181 23.2091 38.0726 26.6591C36.709 27.0819 35.2499 27.4364 33.7362 27.6955ZM30.1635 20.6728L31.159 28.05C29.6317 28.2 28.1317 28.2546 26.6999 28.2C27.2862 24.4637 28.5953 21.75 30.1635 20.6728ZM32.4817 37.8137L33.109 42.4228C31.3772 42.7091 29.7135 43.1046 28.159 43.5955C27.6408 42.0819 27.2181 40.391 26.9044 38.5637L32.4817 37.8137ZM33.4499 45L34.4453 52.3773C32.6317 51.75 30.6544 49.4864 29.0999 46.0364C30.4908 45.6137 31.9499 45.2591 33.4499 45ZM42.8726 33.7773C42.5317 31.7864 42.0681 29.9182 41.4817 28.2C43.1999 27.491 44.7408 26.6728 46.0362 25.7455C47.7953 27.8046 48.9953 30.2182 49.5681 32.8637L42.8726 33.7773ZM20.2226 26.9591C20.359 26.7682 20.509 26.5773 20.6453 26.4C20.8772 26.1 21.109 25.8137 21.3544 25.5273C21.5181 25.3364 21.6953 25.1591 21.859 24.9819C22.1044 24.7228 22.3635 24.4773 22.6226 24.2319L23.1953 23.741C23.4681 23.5228 23.7408 23.3046 24.0272 23.1C24.2317 22.95 24.4362 22.8 24.6544 22.6637C24.9544 22.4728 25.2544 22.2955 25.5544 22.1182C25.6771 22.05 25.7862 21.9819 25.909 21.9273C25.0635 23.591 24.4362 25.65 24.0953 27.9955C22.6499 27.8182 21.2999 27.5319 20.0999 27.1364C20.1544 27.0819 20.1817 27.0137 20.2226 26.9591ZM24.3272 38.9182C24.6681 40.9091 25.1317 42.7773 25.7181 44.4955C23.9999 45.2046 22.4726 46.0228 21.1635 46.95C19.4119 44.9084 18.1979 42.4617 17.6317 39.8319L24.3272 38.9182Z" fill="url(#paint2_linear_155_2503)"/>
<defs>
<linearGradient id="paint0_linear_155_2503" x1="75.4482" y1="9.98181" x2="75.4482" y2="74.3045" gradientUnits="userSpaceOnUse">
<stop stop-color="#5DE7FF"/>
<stop offset="1" stop-color="#00A8C5"/>
</linearGradient>
<linearGradient id="paint1_linear_155_2503" x1="38.3908" y1="3.47687" x2="38.3908" y2="86.5219" gradientUnits="userSpaceOnUse">
<stop stop-color="#5DE7FF"/>
<stop offset="1" stop-color="#00A8C5"/>
</linearGradient>
<linearGradient id="paint2_linear_155_2503" x1="34.0519" y1="17.3959" x2="34.0519" y2="75.941" gradientUnits="userSpaceOnUse">
<stop stop-color="#5DE7FF"/>
<stop offset="1" stop-color="#00A8C5"/>
</linearGradient>
</defs>
</svg>
