<svg width="90" height="90" viewBox="0 0 90 90" fill="none" xmlns="http://www.w3.org/2000/svg">
<path d="M71.7 27C72.1617 24.612 72.0897 22.1513 71.4893 19.7944C70.8888 17.4374 69.7746 15.2423 68.2265 13.3662C66.6785 11.4902 64.7348 9.97963 62.5346 8.94264C60.3345 7.90566 57.9323 7.36792 55.5 7.36792C53.0677 7.36792 50.6655 7.90566 48.4654 8.94264C46.2652 9.97963 44.3215 11.4902 42.7735 13.3662C41.2254 15.2423 40.1112 17.4374 39.5108 19.7944C38.9103 22.1513 38.8383 24.612 39.3 27H71.7ZM87 63V54C87 53.6022 86.842 53.2207 86.5607 52.9394C86.2794 52.6581 85.8978 52.5 85.5 52.5H76.5C74.9087 52.5 73.3826 53.1322 72.2574 54.2574C71.1321 55.3826 70.5 56.9087 70.5 58.5C70.5 60.0913 71.1321 61.6174 72.2574 62.7427C73.3826 63.8679 74.9087 64.5 76.5 64.5H85.5C85.8978 64.5 86.2794 64.342 86.5607 64.0607C86.842 63.7794 87 63.3978 87 63Z" fill="url(#paint0_linear_155_2539)"/>
<path d="M44.646 7.8075C41.8676 5.02666 38.1867 3.33034 34.2676 3.02457C30.3485 2.7188 26.4491 3.82372 23.273 6.13998C20.0968 8.45624 17.853 11.8313 16.9464 15.6564C16.0397 19.4814 16.5299 23.5046 18.3285 27H36.2565C36.0942 26.0081 36.0084 25.0051 36 24C35.9945 20.7974 36.781 17.6431 38.2895 14.818C39.798 11.9928 41.9816 9.58454 44.646 7.8075ZM82.5 27V16.5C82.5 16.1022 82.342 15.7206 82.0607 15.4393C81.7794 15.158 81.3979 15 81 15H72.7995C74.2501 17.7779 75.0052 20.8662 75 24C74.9916 25.0051 74.9059 26.0081 74.7435 27H82.5Z" fill="url(#paint1_linear_155_2539)"/>
<path d="M22.5 43.5C24.1569 43.5 25.5 42.1569 25.5 40.5C25.5 38.8431 24.1569 37.5 22.5 37.5C20.8431 37.5 19.5 38.8431 19.5 40.5C19.5 42.1569 20.8431 43.5 22.5 43.5Z" fill="url(#paint2_linear_155_2539)"/>
<path d="M34.5 61.5C36.1569 61.5 37.5 60.1569 37.5 58.5C37.5 56.8431 36.1569 55.5 34.5 55.5C32.8431 55.5 31.5 56.8431 31.5 58.5C31.5 60.1569 32.8431 61.5 34.5 61.5Z" fill="url(#paint3_linear_155_2539)"/>
<path d="M15.198 70.08C14.9147 69.742 14.5608 69.4701 14.1612 69.2835C13.7616 69.0969 13.326 69.0002 12.885 69H3V81C3 82.5913 3.63214 84.1174 4.75736 85.2426C5.88258 86.3678 7.4087 87 9 87H82.5C82.8978 87 83.2794 86.8419 83.5607 86.5606C83.842 86.2793 84 85.8978 84 85.5V67.5H76.5C74.1131 67.5 71.8239 66.5518 70.136 64.8639C68.4482 63.1761 67.5 60.8869 67.5 58.5C67.5 56.113 68.4482 53.8238 70.136 52.136C71.8239 50.4482 74.1131 49.5 76.5 49.5H84V31.5C84 31.1022 83.842 30.7206 83.5607 30.4393C83.2794 30.158 82.8978 30 82.5 30H9.315C6.98727 29.9995 4.74048 29.1456 3 27.6V48H12.885C13.3271 47.9996 13.7637 47.9023 14.1641 47.7149C14.5645 47.5275 14.919 47.2547 15.2025 46.9155L17.637 43.9875C16.7609 42.7885 16.3528 41.3108 16.4894 39.8321C16.626 38.3534 17.298 36.9754 18.379 35.9573C19.46 34.9391 20.8756 34.3508 22.3599 34.3028C23.8441 34.2549 25.2947 34.7507 26.4392 35.6969C27.5836 36.6432 28.3431 37.9749 28.5749 39.4417C28.8066 40.9085 28.4948 42.4095 27.6978 43.6625C26.9009 44.9156 25.6737 45.8344 24.247 46.2465C22.8203 46.6585 21.2923 46.5353 19.95 45.9L17.5035 48.84C16.9389 49.5164 16.2326 50.0604 15.4345 50.4337C14.6364 50.8069 13.7661 51.0003 12.885 51H3V57H28.713C29.0781 55.586 29.9463 54.3537 31.155 53.5341C32.3637 52.7145 33.8298 52.3638 35.2785 52.5478C36.7272 52.7318 38.0591 53.4379 39.0245 54.5336C39.9899 55.6294 40.5225 57.0396 40.5225 58.5C40.5225 59.9603 39.9899 61.3706 39.0245 62.4663C38.0591 63.5621 36.7272 64.2681 35.2785 64.4522C33.8298 64.6362 32.3637 64.2855 31.155 63.4659C29.9463 62.6463 29.0781 61.414 28.713 60H3V66H12.885C13.7652 65.9991 14.6349 66.1918 15.4322 66.5646C16.2296 66.9374 16.9352 67.481 17.499 68.157L19.95 71.1C20.7446 70.7123 21.6159 70.5073 22.5 70.5C23.8573 70.4909 25.1781 70.9393 26.2494 71.7728C27.3207 72.6062 28.0801 73.7762 28.4051 75.0941C28.73 76.412 28.6017 77.8009 28.0407 79.0369C27.4797 80.2728 26.5188 81.2839 25.3129 81.9069C24.107 82.5299 22.7264 82.7287 21.3938 82.471C20.0611 82.2134 18.854 81.5145 17.9672 80.4869C17.0804 79.4593 16.5655 78.163 16.5056 76.807C16.4457 75.4509 16.8443 74.1143 17.637 73.0125L15.198 70.08Z" fill="url(#paint4_linear_155_2539)"/>
<path d="M22.5 79.5C24.1569 79.5 25.5 78.1569 25.5 76.5C25.5 74.8431 24.1569 73.5 22.5 73.5C20.8431 73.5 19.5 74.8431 19.5 76.5C19.5 78.1569 20.8431 79.5 22.5 79.5Z" fill="url(#paint5_linear_155_2539)"/>
<path d="M3.00047 21.015C2.99597 21.1947 3.00198 21.3745 3.01847 21.5535C3.21264 23.0777 3.96272 24.4765 5.12482 25.4816C6.28692 26.4868 7.77922 27.0275 9.31547 27H14.9915C13.4066 23.2027 13.0751 18.9988 14.045 15H9.00047C7.41111 15.0063 5.88866 15.6405 4.76481 16.7643C3.64096 17.8882 3.00679 19.4106 3.00047 21V21.015Z" fill="url(#paint6_linear_155_2539)"/>
<defs>
<linearGradient id="paint0_linear_155_2539" x1="63" y1="7.36792" x2="63" y2="64.5" gradientUnits="userSpaceOnUse">
<stop stop-color="#5DE7FF"/>
<stop offset="1" stop-color="#00A8C5"/>
</linearGradient>
<linearGradient id="paint1_linear_155_2539" x1="49.501" y1="2.97461" x2="49.501" y2="27" gradientUnits="userSpaceOnUse">
<stop stop-color="#5DE7FF"/>
<stop offset="1" stop-color="#00A8C5"/>
</linearGradient>
<linearGradient id="paint2_linear_155_2539" x1="22.5" y1="37.5" x2="22.5" y2="43.5" gradientUnits="userSpaceOnUse">
<stop stop-color="#5DE7FF"/>
<stop offset="1" stop-color="#00A8C5"/>
</linearGradient>
<linearGradient id="paint3_linear_155_2539" x1="34.5" y1="55.5" x2="34.5" y2="61.5" gradientUnits="userSpaceOnUse">
<stop stop-color="#5DE7FF"/>
<stop offset="1" stop-color="#00A8C5"/>
</linearGradient>
<linearGradient id="paint4_linear_155_2539" x1="43.5" y1="27.6" x2="43.5" y2="87" gradientUnits="userSpaceOnUse">
<stop stop-color="#5DE7FF"/>
<stop offset="1" stop-color="#00A8C5"/>
</linearGradient>
<linearGradient id="paint5_linear_155_2539" x1="22.5" y1="73.5" x2="22.5" y2="79.5" gradientUnits="userSpaceOnUse">
<stop stop-color="#5DE7FF"/>
<stop offset="1" stop-color="#00A8C5"/>
</linearGradient>
<linearGradient id="paint6_linear_155_2539" x1="8.99524" y1="15" x2="8.99524" y2="27.001" gradientUnits="userSpaceOnUse">
<stop stop-color="#5DE7FF"/>
<stop offset="1" stop-color="#00A8C5"/>
</linearGradient>
</defs>
</svg>
